%TF.GenerationSoftware,KiCad,Pcbnew,(6.0.8)*%
%TF.CreationDate,2023-03-06T23:42:02-08:00*%
%TF.ProjectId,ATP_Teensy,4154505f-5465-4656-9e73-792e6b696361,rev?*%
%TF.SameCoordinates,Original*%
%TF.FileFunction,Soldermask,Bot*%
%TF.FilePolarity,Negative*%
%FSLAX46Y46*%
G04 Gerber Fmt 4.6, Leading zero omitted, Abs format (unit mm)*
G04 Created by KiCad (PCBNEW (6.0.8)) date 2023-03-06 23:42:02*
%MOMM*%
%LPD*%
G01*
G04 APERTURE LIST*
%ADD10R,1.700000X1.700000*%
%ADD11O,1.700000X1.700000*%
%ADD12C,3.200000*%
%ADD13R,3.000000X3.000000*%
%ADD14C,3.000000*%
%ADD15R,1.651000X1.651000*%
%ADD16C,1.651000*%
%ADD17R,1.600000X1.600000*%
%ADD18C,1.600000*%
%ADD19R,1.300000X1.300000*%
%ADD20C,1.300000*%
G04 APERTURE END LIST*
D10*
%TO.C,SPI*%
X134112000Y-79375000D03*
D11*
X136652000Y-79375000D03*
X139192000Y-79375000D03*
X141732000Y-79375000D03*
X144272000Y-79375000D03*
X146812000Y-79375000D03*
%TD*%
D12*
%TO.C,J4*%
X134620000Y-73660000D03*
%TD*%
D13*
%TO.C,9V PWR*%
X176530000Y-85090000D03*
D14*
X176530000Y-80010000D03*
%TD*%
D10*
%TO.C,IMU*%
X171495000Y-90707500D03*
D11*
X171495000Y-93247500D03*
X171495000Y-95787500D03*
X171495000Y-98327500D03*
X171495000Y-100867500D03*
X171495000Y-103407500D03*
X171495000Y-105947500D03*
X171495000Y-108487500D03*
%TD*%
D12*
%TO.C,J3*%
X171450000Y-124460000D03*
%TD*%
%TO.C,J2*%
X134620000Y-124460000D03*
%TD*%
D15*
%TO.C,REG*%
X176733200Y-114376000D03*
D16*
X176733200Y-116916000D03*
X176733200Y-119456000D03*
%TD*%
D17*
%TO.C,TEENSY_4.1*%
X151130000Y-69410000D03*
D18*
X151130000Y-71950000D03*
X151130000Y-74490000D03*
X151130000Y-77030000D03*
X151130000Y-79570000D03*
X151130000Y-82110000D03*
X151130000Y-84650000D03*
X151130000Y-87190000D03*
X151130000Y-89730000D03*
X151130000Y-92270000D03*
X151130000Y-94810000D03*
X151130000Y-97350000D03*
X151130000Y-99890000D03*
X151130000Y-102430000D03*
X151130000Y-104970000D03*
X151130000Y-107510000D03*
X151130000Y-110050000D03*
X151130000Y-112590000D03*
X151130000Y-115130000D03*
X151130000Y-117670000D03*
X151130000Y-120210000D03*
X151130000Y-122750000D03*
X151130000Y-125290000D03*
X151130000Y-127830000D03*
X166370000Y-127830000D03*
X166370000Y-125290000D03*
X166370000Y-122750000D03*
X166370000Y-120210000D03*
X166370000Y-117670000D03*
X166370000Y-115130000D03*
X166370000Y-112590000D03*
X166370000Y-110050000D03*
X166370000Y-107510000D03*
X166370000Y-104970000D03*
X166370000Y-102430000D03*
X166370000Y-99890000D03*
X166370000Y-97350000D03*
X166370000Y-94810000D03*
X166370000Y-92270000D03*
X166370000Y-89730000D03*
X166370000Y-87190000D03*
X166370000Y-84650000D03*
X166370000Y-82110000D03*
X166370000Y-79570000D03*
X166370000Y-77030000D03*
X166370000Y-74490000D03*
X166370000Y-71950000D03*
X166370000Y-69410000D03*
X163830000Y-71950000D03*
X153670000Y-115130000D03*
X156210000Y-115130000D03*
X158750000Y-115130000D03*
X161290000Y-115130000D03*
X163830000Y-115130000D03*
D17*
X154180800Y-75709200D03*
D18*
X154180800Y-78249200D03*
X154180800Y-80789200D03*
X154180800Y-83329200D03*
X154180800Y-85869200D03*
D19*
X163931600Y-82380000D03*
D20*
X161931600Y-82380000D03*
X159931600Y-82380000D03*
X159931600Y-84380000D03*
X161931600Y-84380000D03*
X163931600Y-84380000D03*
X160020000Y-70140000D03*
X157480000Y-70140000D03*
%TD*%
D12*
%TO.C,J5*%
X171450000Y-73660000D03*
%TD*%
D10*
%TO.C,I2C*%
X139202000Y-69342000D03*
D11*
X141742000Y-69342000D03*
X144282000Y-69342000D03*
X146822000Y-69342000D03*
%TD*%
D10*
%TO.C,XBEE*%
X128270000Y-86760000D03*
D11*
X128270000Y-89300000D03*
X128270000Y-91840000D03*
X128270000Y-94380000D03*
X128270000Y-96920000D03*
X128270000Y-99460000D03*
X128270000Y-102000000D03*
X128270000Y-104540000D03*
X128270000Y-107080000D03*
X128270000Y-109620000D03*
X128270000Y-112160000D03*
D10*
X140950000Y-86760000D03*
D11*
X140950000Y-89300000D03*
X140950000Y-91840000D03*
X140950000Y-94380000D03*
X140950000Y-96920000D03*
X140950000Y-99460000D03*
X140950000Y-102000000D03*
X140950000Y-104540000D03*
X140950000Y-107080000D03*
X140950000Y-109620000D03*
X140950000Y-112160000D03*
%TD*%
D10*
%TO.C,GPS*%
X146050000Y-107950000D03*
D11*
X146050000Y-105410000D03*
X146050000Y-102870000D03*
X146050000Y-100330000D03*
X146050000Y-97790000D03*
X146050000Y-95250000D03*
X146050000Y-92710000D03*
X146050000Y-90170000D03*
X146050000Y-87630000D03*
%TD*%
D10*
%TO.C,BMP*%
X136277500Y-91116250D03*
D11*
X136277500Y-93656250D03*
X136277500Y-96196250D03*
X136277500Y-98736250D03*
X136277500Y-101276250D03*
X136277500Y-103816250D03*
X136277500Y-106356250D03*
X136277500Y-108896250D03*
%TD*%
M02*
