M48
; DRILL file {KiCad (6.0.8)} date Sun Dec 18 20:26:57 2022
; FORMAT={-:-/ absolute / inch / decimal}
; #@! TF.CreationDate,2022-12-18T20:26:57-08:00
; #@! TF.GenerationSoftware,Kicad,Pcbnew,(6.0.8)
; #@! TF.FileFunction,Plated,1,2,PTH
FMAT,2
INCH
; #@! TA.AperFunction,Plated,PTH,ComponentDrill
T1C0.0315
; #@! TA.AperFunction,Plated,PTH,ComponentDrill
T2C0.0394
; #@! TA.AperFunction,Plated,PTH,ComponentDrill
T3C0.0433
; #@! TA.AperFunction,Plated,PTH,ComponentDrill
T4C0.0450
; #@! TA.AperFunction,Plated,PTH,ComponentDrill
T5C0.0598
; #@! TA.AperFunction,Plated,PTH,ViaDrill
T6C0.1201
%
G90
G05
T1
X6.2Y-2.7614
X6.2965Y-3.2433
X6.2965Y-3.322
X6.3Y-2.7614
X6.3753Y-3.2433
X6.3753Y-3.322
X6.454Y-3.2433
X6.454Y-3.322
T2
X5.0037Y-3.2463
X5.0037Y-3.3463
X5.0037Y-3.4463
X5.0037Y-3.5463
X5.0037Y-3.6463
X5.0037Y-3.7463
X5.0037Y-3.8463
X5.0037Y-3.9463
X5.0037Y-4.0463
X5.0037Y-4.1463
X5.0037Y-4.2463
X5.3653Y-3.5873
X5.3653Y-3.6873
X5.3653Y-3.7873
X5.3653Y-3.8873
X5.3653Y-3.9873
X5.3653Y-4.0873
X5.3653Y-4.1873
X5.3653Y-4.2873
X5.6037Y-3.2463
X5.6037Y-3.3463
X5.6037Y-3.4463
X5.6037Y-3.5463
X5.6037Y-3.6463
X5.6037Y-3.7463
X5.6037Y-3.8463
X5.6037Y-3.9463
X5.6037Y-4.0463
X5.6037Y-4.1463
X5.6037Y-4.2463
X5.75Y-3.45
X5.75Y-3.55
X5.75Y-3.65
X5.75Y-3.75
X5.75Y-3.85
X5.75Y-3.95
X5.75Y-4.05
X5.75Y-4.15
X5.75Y-4.25
X6.7518Y-3.5288
X6.7518Y-3.6288
X6.7518Y-3.7288
X6.7518Y-3.8288
X6.7518Y-3.9288
X6.7518Y-4.0288
X6.7518Y-4.1288
X6.7518Y-4.2288
T3
X5.95Y-2.7327
X5.95Y-2.8327
X5.95Y-2.9327
X5.95Y-3.0327
X5.95Y-3.1327
X5.95Y-3.2327
X5.95Y-3.3327
X5.95Y-3.4327
X5.95Y-3.5327
X5.95Y-3.6327
X5.95Y-3.7327
X5.95Y-3.8327
X5.95Y-3.9327
X5.95Y-4.0327
X5.95Y-4.1327
X5.95Y-4.2327
X5.95Y-4.3327
X5.95Y-4.4327
X5.95Y-4.5327
X5.95Y-4.6327
X5.95Y-4.7327
X5.95Y-4.8327
X5.95Y-4.9327
X5.95Y-5.0327
X6.05Y-4.5327
X6.0701Y-2.9807
X6.0701Y-3.0807
X6.0701Y-3.1807
X6.0701Y-3.2807
X6.0701Y-3.3807
X6.15Y-4.5327
X6.25Y-4.5327
X6.35Y-4.5327
X6.45Y-2.8327
X6.45Y-4.5327
X6.55Y-2.7327
X6.55Y-2.8327
X6.55Y-2.9327
X6.55Y-3.0327
X6.55Y-3.1327
X6.55Y-3.2327
X6.55Y-3.3327
X6.55Y-3.4327
X6.55Y-3.5327
X6.55Y-3.6327
X6.55Y-3.7327
X6.55Y-3.8327
X6.55Y-3.9327
X6.55Y-4.0327
X6.55Y-4.1327
X6.55Y-4.2327
X6.55Y-4.3327
X6.55Y-4.4327
X6.55Y-4.5327
X6.55Y-4.6327
X6.55Y-4.7327
X6.55Y-4.8327
X6.55Y-4.9327
X6.55Y-5.0327
T4
X7.0Y-3.1
X7.0Y-3.2
X7.0Y-3.3
T5
X6.95Y-4.45
X6.95Y-4.65
T6
X5.3Y-2.9
X5.3Y-4.9
X6.75Y-2.9
X6.75Y-4.9
T0
M30
