%TF.GenerationSoftware,KiCad,Pcbnew,(6.0.8)*%
%TF.CreationDate,2022-12-18T20:26:56-08:00*%
%TF.ProjectId,ATP_Teensy,4154505f-5465-4656-9e73-792e6b696361,rev?*%
%TF.SameCoordinates,Original*%
%TF.FileFunction,Soldermask,Bot*%
%TF.FilePolarity,Negative*%
%FSLAX46Y46*%
G04 Gerber Fmt 4.6, Leading zero omitted, Abs format (unit mm)*
G04 Created by KiCad (PCBNEW (6.0.8)) date 2022-12-18 20:26:56*
%MOMM*%
%LPD*%
G01*
G04 APERTURE LIST*
%ADD10R,3.000000X3.000000*%
%ADD11C,3.000000*%
%ADD12R,1.700000X1.700000*%
%ADD13O,1.700000X1.700000*%
%ADD14R,1.651000X1.651000*%
%ADD15C,1.651000*%
%ADD16R,1.600000X1.600000*%
%ADD17C,1.600000*%
%ADD18R,1.300000X1.300000*%
%ADD19C,1.300000*%
G04 APERTURE END LIST*
D10*
%TO.C,9V PWR*%
X176530000Y-118110000D03*
D11*
X176530000Y-113030000D03*
%TD*%
D12*
%TO.C,XBEE_USB*%
X127095000Y-82455000D03*
D13*
X127095000Y-84995000D03*
X127095000Y-87535000D03*
X127095000Y-90075000D03*
X127095000Y-92615000D03*
X127095000Y-95155000D03*
X127095000Y-97695000D03*
X127095000Y-100235000D03*
X127095000Y-102775000D03*
X127095000Y-105315000D03*
X127095000Y-107855000D03*
X142335000Y-107855000D03*
X142335000Y-105315000D03*
X142335000Y-102775000D03*
X142335000Y-100235000D03*
X142335000Y-97695000D03*
X142335000Y-95155000D03*
X142335000Y-92615000D03*
X142335000Y-90075000D03*
X142335000Y-87535000D03*
X142335000Y-84995000D03*
D12*
X142335000Y-82455000D03*
%TD*%
%TO.C,IMU*%
X171495000Y-89632500D03*
D13*
X171495000Y-92172500D03*
X171495000Y-94712500D03*
X171495000Y-97252500D03*
X171495000Y-99792500D03*
X171495000Y-102332500D03*
X171495000Y-104872500D03*
X171495000Y-107412500D03*
%TD*%
D14*
%TO.C,REG*%
X177800000Y-83820000D03*
D15*
X177800000Y-81280000D03*
X177800000Y-78740000D03*
%TD*%
D16*
%TO.C,TEENSY4.1*%
X151130000Y-69410000D03*
D17*
X151130000Y-71950000D03*
X151130000Y-74490000D03*
X151130000Y-77030000D03*
X151130000Y-79570000D03*
X151130000Y-82110000D03*
X151130000Y-84650000D03*
X151130000Y-87190000D03*
X151130000Y-89730000D03*
X151130000Y-92270000D03*
X151130000Y-94810000D03*
X151130000Y-97350000D03*
X151130000Y-99890000D03*
X151130000Y-102430000D03*
X151130000Y-104970000D03*
X151130000Y-107510000D03*
X151130000Y-110050000D03*
X151130000Y-112590000D03*
X151130000Y-115130000D03*
X151130000Y-117670000D03*
X151130000Y-120210000D03*
X151130000Y-122750000D03*
X151130000Y-125290000D03*
X151130000Y-127830000D03*
X166370000Y-127830000D03*
X166370000Y-125290000D03*
X166370000Y-122750000D03*
X166370000Y-120210000D03*
X166370000Y-117670000D03*
X166370000Y-115130000D03*
X166370000Y-112590000D03*
X166370000Y-110050000D03*
X166370000Y-107510000D03*
X166370000Y-104970000D03*
X166370000Y-102430000D03*
X166370000Y-99890000D03*
X166370000Y-97350000D03*
X166370000Y-94810000D03*
X166370000Y-92270000D03*
X166370000Y-89730000D03*
X166370000Y-87190000D03*
X166370000Y-84650000D03*
X166370000Y-82110000D03*
X166370000Y-79570000D03*
X166370000Y-77030000D03*
X166370000Y-74490000D03*
X166370000Y-71950000D03*
X166370000Y-69410000D03*
X163830000Y-71950000D03*
X153670000Y-115130000D03*
X156210000Y-115130000D03*
X158750000Y-115130000D03*
X161290000Y-115130000D03*
X163830000Y-115130000D03*
D16*
X154180800Y-75709200D03*
D17*
X154180800Y-78249200D03*
X154180800Y-80789200D03*
X154180800Y-83329200D03*
X154180800Y-85869200D03*
D18*
X163931600Y-82380000D03*
D19*
X161931600Y-82380000D03*
X159931600Y-82380000D03*
X159931600Y-84380000D03*
X161931600Y-84380000D03*
X163931600Y-84380000D03*
X160020000Y-70140000D03*
X157480000Y-70140000D03*
%TD*%
D12*
%TO.C,GPS*%
X146050000Y-107950000D03*
D13*
X146050000Y-105410000D03*
X146050000Y-102870000D03*
X146050000Y-100330000D03*
X146050000Y-97790000D03*
X146050000Y-95250000D03*
X146050000Y-92710000D03*
X146050000Y-90170000D03*
X146050000Y-87630000D03*
%TD*%
%TO.C,BMP*%
X136277500Y-108896250D03*
X136277500Y-106356250D03*
X136277500Y-103816250D03*
X136277500Y-101276250D03*
X136277500Y-98736250D03*
X136277500Y-96196250D03*
X136277500Y-93656250D03*
D12*
X136277500Y-91116250D03*
%TD*%
M02*
