%TF.GenerationSoftware,KiCad,Pcbnew,(6.0.8)*%
%TF.CreationDate,2022-12-18T12:10:43-08:00*%
%TF.ProjectId,ATP_Teensy,4154505f-5465-4656-9e73-792e6b696361,rev?*%
%TF.SameCoordinates,Original*%
%TF.FileFunction,Copper,L2,Bot*%
%TF.FilePolarity,Positive*%
%FSLAX46Y46*%
G04 Gerber Fmt 4.6, Leading zero omitted, Abs format (unit mm)*
G04 Created by KiCad (PCBNEW (6.0.8)) date 2022-12-18 12:10:43*
%MOMM*%
%LPD*%
G01*
G04 APERTURE LIST*
%TA.AperFunction,ComponentPad*%
%ADD10R,3.000000X3.000000*%
%TD*%
%TA.AperFunction,ComponentPad*%
%ADD11C,3.000000*%
%TD*%
%TA.AperFunction,ComponentPad*%
%ADD12R,1.700000X1.700000*%
%TD*%
%TA.AperFunction,ComponentPad*%
%ADD13O,1.700000X1.700000*%
%TD*%
%TA.AperFunction,ComponentPad*%
%ADD14R,1.651000X1.651000*%
%TD*%
%TA.AperFunction,ComponentPad*%
%ADD15C,1.651000*%
%TD*%
%TA.AperFunction,ComponentPad*%
%ADD16R,1.600000X1.600000*%
%TD*%
%TA.AperFunction,ComponentPad*%
%ADD17C,1.600000*%
%TD*%
%TA.AperFunction,ComponentPad*%
%ADD18R,1.300000X1.300000*%
%TD*%
%TA.AperFunction,ComponentPad*%
%ADD19C,1.300000*%
%TD*%
%TA.AperFunction,ViaPad*%
%ADD20C,3.500000*%
%TD*%
%TA.AperFunction,Conductor*%
%ADD21C,0.250000*%
%TD*%
G04 APERTURE END LIST*
D10*
%TO.P,9V PWR,1,Pin_1*%
%TO.N,+9V*%
X176530000Y-118110000D03*
D11*
%TO.P,9V PWR,2,Pin_2*%
%TO.N,GND*%
X176530000Y-113030000D03*
%TD*%
D12*
%TO.P,XBEE_USB,1,GND*%
%TO.N,GND*%
X127095000Y-82455000D03*
D13*
%TO.P,XBEE_USB,2,3.3V*%
%TO.N,XBEE_VCC*%
X127095000Y-84995000D03*
%TO.P,XBEE_USB,3,DOUT*%
%TO.N,XBEE_DOUT*%
X127095000Y-87535000D03*
%TO.P,XBEE_USB,4,DIN*%
%TO.N,XBEE_DIN*%
X127095000Y-90075000D03*
%TO.P,XBEE_USB,5,DO8*%
%TO.N,unconnected-(U3-Pad5)*%
X127095000Y-92615000D03*
%TO.P,XBEE_USB,6,~{RESET}*%
%TO.N,unconnected-(U3-Pad6)*%
X127095000Y-95155000D03*
%TO.P,XBEE_USB,7,RSSI*%
%TO.N,unconnected-(U3-Pad7)*%
X127095000Y-97695000D03*
%TO.P,XBEE_USB,8,PWM*%
%TO.N,unconnected-(U3-Pad8)*%
X127095000Y-100235000D03*
%TO.P,XBEE_USB,9,RSV*%
%TO.N,unconnected-(U3-Pad9)*%
X127095000Y-102775000D03*
%TO.P,XBEE_USB,10,~{DTR}*%
%TO.N,unconnected-(U3-Pad10)*%
X127095000Y-105315000D03*
%TO.P,XBEE_USB,11,GND*%
%TO.N,GND*%
X127095000Y-107855000D03*
%TO.P,XBEE_USB,12,DIO0*%
%TO.N,unconnected-(U3-Pad12)*%
X142335000Y-107855000D03*
%TO.P,XBEE_USB,13,DIO1*%
%TO.N,unconnected-(U3-Pad13)*%
X142335000Y-105315000D03*
%TO.P,XBEE_USB,14,DIO2*%
%TO.N,unconnected-(U3-Pad14)*%
X142335000Y-102775000D03*
%TO.P,XBEE_USB,15,DIO3*%
%TO.N,unconnected-(U3-Pad15)*%
X142335000Y-100235000D03*
%TO.P,XBEE_USB,16,~{RTS}*%
%TO.N,unconnected-(U3-Pad16)*%
X142335000Y-97695000D03*
%TO.P,XBEE_USB,17,ASSOC*%
%TO.N,unconnected-(U3-Pad17)*%
X142335000Y-95155000D03*
%TO.P,XBEE_USB,18,VREF*%
%TO.N,unconnected-(U3-Pad18)*%
X142335000Y-92615000D03*
%TO.P,XBEE_USB,19,~{SLP}*%
%TO.N,unconnected-(U3-Pad19)*%
X142335000Y-90075000D03*
%TO.P,XBEE_USB,20,~{CTS}*%
%TO.N,unconnected-(U3-Pad20)*%
X142335000Y-87535000D03*
%TO.P,XBEE_USB,21,DIO4*%
%TO.N,unconnected-(U3-Pad21)*%
X142335000Y-84995000D03*
D12*
%TO.P,XBEE_USB,22,5V_IN*%
%TO.N,unconnected-(U3-Pad22)*%
X142335000Y-82455000D03*
%TD*%
%TO.P,IMU,1,VCC*%
%TO.N,+5V*%
X171495000Y-89632500D03*
D13*
%TO.P,IMU,2,GND*%
%TO.N,GND*%
X171495000Y-92172500D03*
%TO.P,IMU,3,SCL*%
%TO.N,MPU_SCL*%
X171495000Y-94712500D03*
%TO.P,IMU,4,SDA*%
%TO.N,MPU_SDA*%
X171495000Y-97252500D03*
%TO.P,IMU,5,AUX_SDA*%
%TO.N,unconnected-(U4-Pad5)*%
X171495000Y-99792500D03*
%TO.P,IMU,6,AUX_SCL*%
%TO.N,unconnected-(U4-Pad6)*%
X171495000Y-102332500D03*
%TO.P,IMU,7,ADO*%
%TO.N,unconnected-(U4-Pad7)*%
X171495000Y-104872500D03*
%TO.P,IMU,8,INT*%
%TO.N,unconnected-(U4-Pad8)*%
X171495000Y-107412500D03*
%TD*%
D14*
%TO.P,REG,1,IN*%
%TO.N,+9V*%
X177800000Y-83820000D03*
D15*
%TO.P,REG,2,GND*%
%TO.N,GND*%
X177800000Y-81280000D03*
%TO.P,REG,3,OUT*%
%TO.N,+5V*%
X177800000Y-78740000D03*
%TD*%
D16*
%TO.P,TEENSY4.1,1,GND*%
%TO.N,GND*%
X151130000Y-69410000D03*
D17*
%TO.P,TEENSY4.1,2,0_RX1_CRX2_CS1*%
%TO.N,XBEE_DOUT*%
X151130000Y-71950000D03*
%TO.P,TEENSY4.1,3,1_TX1_CTX2_MISO1*%
%TO.N,XBEE_DIN*%
X151130000Y-74490000D03*
%TO.P,TEENSY4.1,4,2_OUT2*%
%TO.N,unconnected-(U5-Pad4)*%
X151130000Y-77030000D03*
%TO.P,TEENSY4.1,5,3_LRCLK2*%
%TO.N,unconnected-(U5-Pad5)*%
X151130000Y-79570000D03*
%TO.P,TEENSY4.1,6,4_BCLK2*%
%TO.N,unconnected-(U5-Pad6)*%
X151130000Y-82110000D03*
%TO.P,TEENSY4.1,7,5_IN2*%
%TO.N,unconnected-(U5-Pad7)*%
X151130000Y-84650000D03*
%TO.P,TEENSY4.1,8,6_OUT1D*%
%TO.N,unconnected-(U5-Pad8)*%
X151130000Y-87190000D03*
%TO.P,TEENSY4.1,9,7_RX2_OUT1A*%
%TO.N,GPS_TX*%
X151130000Y-89730000D03*
%TO.P,TEENSY4.1,10,8_TX2_IN1*%
%TO.N,GPS_RX*%
X151130000Y-92270000D03*
%TO.P,TEENSY4.1,11,9_OUT1C*%
%TO.N,unconnected-(U5-Pad11)*%
X151130000Y-94810000D03*
%TO.P,TEENSY4.1,12,10_CS_MQSR*%
%TO.N,BMP_CS*%
X151130000Y-97350000D03*
%TO.P,TEENSY4.1,13,11_MOSI_CTX1*%
%TO.N,BMP_SDI*%
X151130000Y-99890000D03*
%TO.P,TEENSY4.1,14,12_MISO_MQSL*%
%TO.N,BMP_SDO*%
X151130000Y-102430000D03*
%TO.P,TEENSY4.1,15,3V3*%
%TO.N,XBEE_VCC*%
X151130000Y-104970000D03*
%TO.P,TEENSY4.1,16,24_A10_TX6_SCL2*%
%TO.N,unconnected-(U5-Pad16)*%
X151130000Y-107510000D03*
%TO.P,TEENSY4.1,17,25_A11_RX6_SDA2*%
%TO.N,unconnected-(U5-Pad17)*%
X151130000Y-110050000D03*
%TO.P,TEENSY4.1,18,26_A12_MOSI1*%
%TO.N,unconnected-(U5-Pad18)*%
X151130000Y-112590000D03*
%TO.P,TEENSY4.1,19,27_A13_SCK1*%
%TO.N,BMP_SCK*%
X151130000Y-115130000D03*
%TO.P,TEENSY4.1,20,28_RX7*%
%TO.N,unconnected-(U5-Pad20)*%
X151130000Y-117670000D03*
%TO.P,TEENSY4.1,21,29_TX7*%
%TO.N,unconnected-(U5-Pad21)*%
X151130000Y-120210000D03*
%TO.P,TEENSY4.1,22,30_CRX3*%
%TO.N,unconnected-(U5-Pad22)*%
X151130000Y-122750000D03*
%TO.P,TEENSY4.1,23,31_CTX3*%
%TO.N,unconnected-(U5-Pad23)*%
X151130000Y-125290000D03*
%TO.P,TEENSY4.1,24,32_OUT1B*%
%TO.N,unconnected-(U5-Pad24)*%
X151130000Y-127830000D03*
%TO.P,TEENSY4.1,25,33_MCLK2*%
%TO.N,unconnected-(U5-Pad25)*%
X166370000Y-127830000D03*
%TO.P,TEENSY4.1,26,34_RX8*%
%TO.N,unconnected-(U5-Pad26)*%
X166370000Y-125290000D03*
%TO.P,TEENSY4.1,27,35_TX8*%
%TO.N,unconnected-(U5-Pad27)*%
X166370000Y-122750000D03*
%TO.P,TEENSY4.1,28,36_CS*%
%TO.N,unconnected-(U5-Pad28)*%
X166370000Y-120210000D03*
%TO.P,TEENSY4.1,29,37_CS*%
%TO.N,unconnected-(U5-Pad29)*%
X166370000Y-117670000D03*
%TO.P,TEENSY4.1,30,38_CS1_IN1*%
%TO.N,unconnected-(U5-Pad30)*%
X166370000Y-115130000D03*
%TO.P,TEENSY4.1,31,39_MISO1_OUT1A*%
%TO.N,unconnected-(U5-Pad31)*%
X166370000Y-112590000D03*
%TO.P,TEENSY4.1,32,40_A16*%
%TO.N,unconnected-(U5-Pad32)*%
X166370000Y-110050000D03*
%TO.P,TEENSY4.1,33,41_A17*%
%TO.N,unconnected-(U5-Pad33)*%
X166370000Y-107510000D03*
%TO.P,TEENSY4.1,34,GND*%
%TO.N,GND*%
X166370000Y-104970000D03*
%TO.P,TEENSY4.1,35,13_SCK_LED*%
%TO.N,unconnected-(U5-Pad35)*%
X166370000Y-102430000D03*
%TO.P,TEENSY4.1,36,14_A0_TX3_SPDIF_OUT*%
%TO.N,unconnected-(U5-Pad36)*%
X166370000Y-99890000D03*
%TO.P,TEENSY4.1,37,15_A1_RX3_SPDIF_IN*%
%TO.N,unconnected-(U5-Pad37)*%
X166370000Y-97350000D03*
%TO.P,TEENSY4.1,38,16_A2_RX4_SCL1*%
%TO.N,MPU_SCL*%
X166370000Y-94810000D03*
%TO.P,TEENSY4.1,39,17_A3_TX4_SDA1*%
%TO.N,MPU_SDA*%
X166370000Y-92270000D03*
%TO.P,TEENSY4.1,40,18_A4_SDA*%
%TO.N,unconnected-(U5-Pad40)*%
X166370000Y-89730000D03*
%TO.P,TEENSY4.1,41,19_A5_SCL*%
%TO.N,unconnected-(U5-Pad41)*%
X166370000Y-87190000D03*
%TO.P,TEENSY4.1,42,20_A6_TX5_LRCLK1*%
%TO.N,unconnected-(U5-Pad42)*%
X166370000Y-84650000D03*
%TO.P,TEENSY4.1,43,21_A7_RX5_BCLK1*%
%TO.N,unconnected-(U5-Pad43)*%
X166370000Y-82110000D03*
%TO.P,TEENSY4.1,44,22_A8_CTX1*%
%TO.N,unconnected-(U5-Pad44)*%
X166370000Y-79570000D03*
%TO.P,TEENSY4.1,45,23_A9_CRX1_MCLK1*%
%TO.N,unconnected-(U5-Pad45)*%
X166370000Y-77030000D03*
%TO.P,TEENSY4.1,46,3V3*%
%TO.N,unconnected-(U5-Pad46)*%
X166370000Y-74490000D03*
%TO.P,TEENSY4.1,47,GND*%
%TO.N,GND*%
X166370000Y-71950000D03*
%TO.P,TEENSY4.1,48,VIN*%
%TO.N,+5V*%
X166370000Y-69410000D03*
%TO.P,TEENSY4.1,49,VUSB*%
%TO.N,unconnected-(U5-Pad49)*%
X163830000Y-71950000D03*
%TO.P,TEENSY4.1,50,VBAT*%
%TO.N,unconnected-(U5-Pad50)*%
X153670000Y-115130000D03*
%TO.P,TEENSY4.1,51,3V3*%
%TO.N,unconnected-(U5-Pad51)*%
X156210000Y-115130000D03*
%TO.P,TEENSY4.1,52,GND*%
%TO.N,unconnected-(U5-Pad52)*%
X158750000Y-115130000D03*
%TO.P,TEENSY4.1,53,PROGRAM*%
%TO.N,unconnected-(U5-Pad53)*%
X161290000Y-115130000D03*
%TO.P,TEENSY4.1,54,ON_OFF*%
%TO.N,unconnected-(U5-Pad54)*%
X163830000Y-115130000D03*
D16*
%TO.P,TEENSY4.1,55,5V*%
%TO.N,unconnected-(U5-Pad55)*%
X154180800Y-75709200D03*
D17*
%TO.P,TEENSY4.1,56,D-*%
%TO.N,unconnected-(U5-Pad56)*%
X154180800Y-78249200D03*
%TO.P,TEENSY4.1,57,D+*%
%TO.N,unconnected-(U5-Pad57)*%
X154180800Y-80789200D03*
%TO.P,TEENSY4.1,58,GND*%
%TO.N,unconnected-(U5-Pad58)*%
X154180800Y-83329200D03*
%TO.P,TEENSY4.1,59,GND*%
%TO.N,unconnected-(U5-Pad59)*%
X154180800Y-85869200D03*
D18*
%TO.P,TEENSY4.1,60,R+*%
%TO.N,unconnected-(U5-Pad60)*%
X163931600Y-82380000D03*
D19*
%TO.P,TEENSY4.1,61,LED*%
%TO.N,unconnected-(U5-Pad61)*%
X161931600Y-82380000D03*
%TO.P,TEENSY4.1,62,T-*%
%TO.N,unconnected-(U5-Pad62)*%
X159931600Y-82380000D03*
%TO.P,TEENSY4.1,63,T+*%
%TO.N,unconnected-(U5-Pad63)*%
X159931600Y-84380000D03*
%TO.P,TEENSY4.1,64,GND*%
%TO.N,unconnected-(U5-Pad64)*%
X161931600Y-84380000D03*
%TO.P,TEENSY4.1,65,R-*%
%TO.N,unconnected-(U5-Pad65)*%
X163931600Y-84380000D03*
%TO.P,TEENSY4.1,66,D-*%
%TO.N,unconnected-(U5-Pad66)*%
X160020000Y-70140000D03*
%TO.P,TEENSY4.1,67,D+*%
%TO.N,unconnected-(U5-Pad67)*%
X157480000Y-70140000D03*
%TD*%
D12*
%TO.P,GPS,1,3.3V*%
%TO.N,unconnected-(U6-Pad1)*%
X146050000Y-107950000D03*
D13*
%TO.P,GPS,2,EN*%
%TO.N,unconnected-(U6-Pad2)*%
X146050000Y-105410000D03*
%TO.P,GPS,3,VBAT*%
%TO.N,unconnected-(U6-Pad3)*%
X146050000Y-102870000D03*
%TO.P,GPS,4,FIX*%
%TO.N,unconnected-(U6-Pad4)*%
X146050000Y-100330000D03*
%TO.P,GPS,5,TX*%
%TO.N,GPS_TX*%
X146050000Y-97790000D03*
%TO.P,GPS,6,RX*%
%TO.N,GPS_RX*%
X146050000Y-95250000D03*
%TO.P,GPS,7,GND*%
%TO.N,GND*%
X146050000Y-92710000D03*
%TO.P,GPS,8,VIN*%
%TO.N,+5V*%
X146050000Y-90170000D03*
%TO.P,GPS,9,PPS*%
%TO.N,unconnected-(U6-Pad9)*%
X146050000Y-87630000D03*
%TD*%
D12*
%TO.P,BMP,1,VIN*%
%TO.N,+5V*%
X136277500Y-91116250D03*
D13*
%TO.P,BMP,2,3VO*%
%TO.N,unconnected-(U1-Pad2)*%
X136277500Y-93656250D03*
%TO.P,BMP,3,GND*%
%TO.N,GND*%
X136277500Y-96196250D03*
%TO.P,BMP,4,SCK*%
%TO.N,BMP_SCK*%
X136277500Y-98736250D03*
%TO.P,BMP,5,SDO*%
%TO.N,BMP_SDO*%
X136277500Y-101276250D03*
%TO.P,BMP,6,SDI*%
%TO.N,BMP_SDI*%
X136277500Y-103816250D03*
%TO.P,BMP,7,CS*%
%TO.N,BMP_CS*%
X136277500Y-106356250D03*
%TO.P,BMP,8,INT*%
%TO.N,unconnected-(U1-Pad8)*%
X136277500Y-108896250D03*
%TD*%
D20*
%TO.N,*%
X134620000Y-124460000D03*
X171450000Y-124460000D03*
X134620000Y-73660000D03*
X171450000Y-73660000D03*
%TD*%
D21*
%TO.N,+5V*%
X144970000Y-91250000D02*
X146050000Y-90170000D01*
X136411250Y-91250000D02*
X144970000Y-91250000D01*
X136277500Y-91116250D02*
X136411250Y-91250000D01*
%TO.N,BMP_SDI*%
X149515000Y-101505000D02*
X151130000Y-99890000D01*
X138588750Y-101505000D02*
X149515000Y-101505000D01*
X136277500Y-103816250D02*
X138588750Y-101505000D01*
%TO.N,XBEE_VCC*%
X148590000Y-106680000D02*
X150300000Y-104970000D01*
X124460000Y-109220000D02*
X127000000Y-111760000D01*
X148590000Y-109220000D02*
X148590000Y-106680000D01*
X150300000Y-104970000D02*
X151130000Y-104970000D01*
X124460000Y-87630000D02*
X124460000Y-109220000D01*
X127000000Y-111760000D02*
X146050000Y-111760000D01*
X127095000Y-84995000D02*
X124460000Y-87630000D01*
X146050000Y-111760000D02*
X148590000Y-109220000D01*
%TO.N,+5V*%
X163000000Y-66040000D02*
X166370000Y-69410000D01*
X148590000Y-87630000D02*
X148590000Y-68580000D01*
X151130000Y-66040000D02*
X163000000Y-66040000D01*
X146050000Y-90170000D02*
X148590000Y-87630000D01*
X148590000Y-68580000D02*
X151130000Y-66040000D01*
%TO.N,MPU_SCL*%
X171397500Y-94810000D02*
X171495000Y-94712500D01*
X166370000Y-94810000D02*
X171397500Y-94810000D01*
%TO.N,GPS_TX*%
X148590000Y-95250000D02*
X148590000Y-92270000D01*
X148590000Y-92270000D02*
X151130000Y-89730000D01*
X146050000Y-97790000D02*
X148590000Y-95250000D01*
%TD*%
%TA.AperFunction,Conductor*%
%TO.N,+5V*%
G36*
X153171788Y-63071246D02*
G01*
X154360621Y-63105492D01*
X154364768Y-63105680D01*
X155551782Y-63179321D01*
X155555947Y-63179649D01*
X156739833Y-63292602D01*
X156743985Y-63293067D01*
X157923517Y-63445215D01*
X157927652Y-63445818D01*
X159101487Y-63636989D01*
X159105599Y-63637729D01*
X159377644Y-63691348D01*
X160272475Y-63867718D01*
X160276499Y-63868581D01*
X161025459Y-64042181D01*
X161435103Y-64137131D01*
X161439157Y-64138142D01*
X161728760Y-64215470D01*
X162588218Y-64444958D01*
X162592194Y-64446091D01*
X162878654Y-64532851D01*
X163730428Y-64790828D01*
X163734406Y-64792105D01*
X164860570Y-65174386D01*
X164864497Y-65175792D01*
X165977412Y-65595218D01*
X165981263Y-65596742D01*
X167079680Y-66052844D01*
X167083459Y-66054488D01*
X168166119Y-66546744D01*
X168169879Y-66548530D01*
X169235639Y-67076420D01*
X169239351Y-67078336D01*
X170286955Y-67641233D01*
X170290602Y-67643271D01*
X171318994Y-68240609D01*
X171322572Y-68242767D01*
X172330615Y-68873886D01*
X172334119Y-68876162D01*
X172818920Y-69202549D01*
X173316104Y-69537273D01*
X173320640Y-69540327D01*
X173324061Y-69542713D01*
X174288092Y-70239273D01*
X174291406Y-70241753D01*
X175194035Y-70940643D01*
X175231759Y-70969852D01*
X175235020Y-70972465D01*
X176150736Y-71731359D01*
X176153908Y-71734077D01*
X176303982Y-71867085D01*
X177035414Y-72515339D01*
X177043938Y-72522894D01*
X177047012Y-72525710D01*
X177805278Y-73244022D01*
X177910414Y-73343618D01*
X177913399Y-73346541D01*
X178749202Y-74192618D01*
X178752089Y-74195639D01*
X179559398Y-75068982D01*
X179562182Y-75072097D01*
X180042460Y-75627523D01*
X180281750Y-75904253D01*
X180340040Y-75971664D01*
X180342714Y-75974861D01*
X181090392Y-76899815D01*
X181092948Y-76903088D01*
X181809506Y-77852269D01*
X181811968Y-77855644D01*
X182496677Y-78828082D01*
X182499025Y-78831538D01*
X183151093Y-79826106D01*
X183153326Y-79829638D01*
X183772072Y-80845299D01*
X183774186Y-80848902D01*
X184358915Y-81884514D01*
X184360909Y-81888186D01*
X184910996Y-82942647D01*
X184912866Y-82946383D01*
X185427667Y-84018453D01*
X185429413Y-84022249D01*
X185712802Y-84666299D01*
X185842796Y-84961731D01*
X185908399Y-85110826D01*
X185910016Y-85114674D01*
X186081315Y-85541869D01*
X186352636Y-86218509D01*
X186354127Y-86222412D01*
X186759920Y-87340353D01*
X186761280Y-87344303D01*
X186952950Y-87932455D01*
X187102944Y-88392722D01*
X187129774Y-88475053D01*
X187131001Y-88479040D01*
X187428793Y-89507393D01*
X187461814Y-89621424D01*
X187462903Y-89625432D01*
X187604118Y-90181471D01*
X187755654Y-90778145D01*
X187756615Y-90782211D01*
X188010981Y-91943967D01*
X188011807Y-91948062D01*
X188227517Y-93117623D01*
X188228207Y-93121744D01*
X188405026Y-94297847D01*
X188405578Y-94301989D01*
X188460812Y-94775740D01*
X188540795Y-95461758D01*
X188543301Y-95483256D01*
X188543715Y-95487403D01*
X188642192Y-96672530D01*
X188642199Y-96672618D01*
X188642475Y-96676772D01*
X188661097Y-97050840D01*
X188701607Y-97864594D01*
X188701746Y-97868770D01*
X188711981Y-98485957D01*
X188720991Y-99029273D01*
X188721475Y-99058478D01*
X188721488Y-99061538D01*
X188718263Y-99472138D01*
X188717072Y-99623799D01*
X188717010Y-99626877D01*
X188678778Y-100810547D01*
X188678599Y-100816085D01*
X188678396Y-100820230D01*
X188634044Y-101496921D01*
X188600612Y-102006995D01*
X188600270Y-102011159D01*
X188483182Y-103194676D01*
X188482702Y-103198826D01*
X188459528Y-103373673D01*
X188334335Y-104318238D01*
X188326437Y-104377825D01*
X188325822Y-104381935D01*
X188130558Y-105555084D01*
X188129807Y-105559178D01*
X188045859Y-105977398D01*
X187895747Y-106725234D01*
X187894857Y-106729316D01*
X187622271Y-107886945D01*
X187621246Y-107890996D01*
X187410707Y-108668592D01*
X187313965Y-109025896D01*
X187310426Y-109038965D01*
X187309269Y-109042972D01*
X186995171Y-110067146D01*
X186960566Y-110179981D01*
X186959282Y-110183933D01*
X186573058Y-111308797D01*
X186571640Y-111312714D01*
X186158496Y-112397473D01*
X186148341Y-112424135D01*
X186146796Y-112427999D01*
X186081159Y-112584525D01*
X185686878Y-113524775D01*
X185685199Y-113528600D01*
X185189180Y-114609507D01*
X185187375Y-114613275D01*
X185084299Y-114819563D01*
X184707362Y-115573933D01*
X184655775Y-115677174D01*
X184653847Y-115680876D01*
X184174653Y-116565283D01*
X184087288Y-116726524D01*
X184085237Y-116730164D01*
X183484318Y-117756456D01*
X183482148Y-117760026D01*
X182847523Y-118765847D01*
X182845237Y-118769341D01*
X182550532Y-119203802D01*
X182177598Y-119753589D01*
X182175195Y-119757007D01*
X181475328Y-120718524D01*
X181472814Y-120721861D01*
X180778240Y-121612477D01*
X180741412Y-121659699D01*
X180738801Y-121662933D01*
X180668052Y-121747699D01*
X179976730Y-122575980D01*
X179974000Y-122579143D01*
X179182083Y-123466411D01*
X179179251Y-123469481D01*
X178398710Y-124287699D01*
X178358324Y-124330034D01*
X178355403Y-124332996D01*
X177506378Y-125165875D01*
X177503393Y-125168708D01*
X177327853Y-125329843D01*
X176627245Y-125972956D01*
X176624121Y-125975730D01*
X175721777Y-126750500D01*
X175718562Y-126753168D01*
X174791082Y-127497549D01*
X174787781Y-127500110D01*
X173836064Y-128213383D01*
X173832725Y-128215799D01*
X172940536Y-128839357D01*
X172857928Y-128897092D01*
X172854465Y-128899429D01*
X171857570Y-129548058D01*
X171854030Y-129550278D01*
X170836215Y-130165475D01*
X170832604Y-130167576D01*
X169794983Y-130748672D01*
X169791304Y-130750653D01*
X168734941Y-131297050D01*
X168731199Y-131298908D01*
X167657327Y-131809969D01*
X167653525Y-131811702D01*
X166563267Y-132286892D01*
X166559410Y-132288497D01*
X165454039Y-132727260D01*
X165450131Y-132728737D01*
X164330800Y-133130618D01*
X164326844Y-133131965D01*
X163194786Y-133496519D01*
X163190789Y-133497733D01*
X162047311Y-133824540D01*
X162043275Y-133825622D01*
X161653582Y-133923145D01*
X160889516Y-134114357D01*
X160885504Y-134115290D01*
X159949692Y-134316765D01*
X159722816Y-134365610D01*
X159718718Y-134366421D01*
X158548415Y-134578047D01*
X158544292Y-134578722D01*
X157367608Y-134751430D01*
X157363464Y-134751968D01*
X156181724Y-134885565D01*
X156177566Y-134885966D01*
X155273949Y-134957876D01*
X154991992Y-134980314D01*
X154987832Y-134980576D01*
X154884808Y-134985344D01*
X153799821Y-135035562D01*
X153795644Y-135035686D01*
X152606473Y-135051253D01*
X152602295Y-135051239D01*
X151479115Y-135028693D01*
X151413227Y-135027370D01*
X151409056Y-135027217D01*
X151264462Y-135019513D01*
X150221430Y-134963937D01*
X150217262Y-134963645D01*
X149760386Y-134924075D01*
X149032410Y-134861025D01*
X149028309Y-134860602D01*
X147847449Y-134718748D01*
X147843353Y-134718187D01*
X147255603Y-134627723D01*
X146667876Y-134537263D01*
X146663758Y-134536559D01*
X146134078Y-134436954D01*
X145494907Y-134316760D01*
X145490867Y-134315930D01*
X144585342Y-134114350D01*
X144329996Y-134057507D01*
X144325934Y-134056532D01*
X143174282Y-133759767D01*
X143170253Y-133758658D01*
X142028994Y-133423849D01*
X142025060Y-133422623D01*
X141267942Y-133172963D01*
X140895574Y-133050174D01*
X140891629Y-133048800D01*
X140432665Y-132880389D01*
X139775121Y-132639111D01*
X139771259Y-132637621D01*
X138668911Y-132191124D01*
X138665094Y-132189503D01*
X137578206Y-131706726D01*
X137574416Y-131704967D01*
X136504113Y-131186409D01*
X136500384Y-131184525D01*
X135447897Y-130630785D01*
X135444232Y-130628779D01*
X134410658Y-130040434D01*
X134407061Y-130038307D01*
X133393548Y-129416008D01*
X133390025Y-129413763D01*
X132397752Y-128758236D01*
X132394304Y-128755876D01*
X132021260Y-128491257D01*
X131424240Y-128067761D01*
X131420881Y-128065293D01*
X130474226Y-127345439D01*
X130470943Y-127342856D01*
X129548632Y-126591978D01*
X129545436Y-126589286D01*
X128837678Y-125972956D01*
X128648569Y-125808276D01*
X128645469Y-125805485D01*
X128126344Y-125322239D01*
X127774944Y-124995126D01*
X127771939Y-124992234D01*
X127411072Y-124633251D01*
X127236911Y-124460000D01*
X132356654Y-124460000D01*
X132376017Y-124755426D01*
X132376819Y-124759459D01*
X132376820Y-124759465D01*
X132423416Y-124993715D01*
X132433776Y-125045797D01*
X132435103Y-125049706D01*
X132435104Y-125049710D01*
X132475506Y-125168730D01*
X132528941Y-125326145D01*
X132659885Y-125591673D01*
X132662179Y-125595106D01*
X132803693Y-125806897D01*
X132824367Y-125837838D01*
X132827081Y-125840932D01*
X132827085Y-125840938D01*
X132944107Y-125974375D01*
X133019573Y-126060427D01*
X133022662Y-126063136D01*
X133239062Y-126252915D01*
X133239068Y-126252919D01*
X133242162Y-126255633D01*
X133245588Y-126257922D01*
X133245593Y-126257926D01*
X133429405Y-126380744D01*
X133488327Y-126420115D01*
X133492026Y-126421939D01*
X133492031Y-126421942D01*
X133540421Y-126445805D01*
X133753855Y-126551059D01*
X133757760Y-126552384D01*
X133757761Y-126552385D01*
X134030290Y-126644896D01*
X134030294Y-126644897D01*
X134034203Y-126646224D01*
X134038247Y-126647028D01*
X134038253Y-126647030D01*
X134320535Y-126703180D01*
X134320541Y-126703181D01*
X134324574Y-126703983D01*
X134328679Y-126704252D01*
X134328686Y-126704253D01*
X134615881Y-126723076D01*
X134620000Y-126723346D01*
X134624119Y-126723076D01*
X134911314Y-126704253D01*
X134911321Y-126704252D01*
X134915426Y-126703983D01*
X134919459Y-126703181D01*
X134919465Y-126703180D01*
X135201747Y-126647030D01*
X135201753Y-126647028D01*
X135205797Y-126646224D01*
X135209706Y-126644897D01*
X135209710Y-126644896D01*
X135482239Y-126552385D01*
X135482240Y-126552384D01*
X135486145Y-126551059D01*
X135699579Y-126445805D01*
X135747969Y-126421942D01*
X135747974Y-126421939D01*
X135751673Y-126420115D01*
X135810595Y-126380744D01*
X135994407Y-126257926D01*
X135994412Y-126257922D01*
X135997838Y-126255633D01*
X136000932Y-126252919D01*
X136000938Y-126252915D01*
X136217338Y-126063136D01*
X136220427Y-126060427D01*
X136295893Y-125974375D01*
X136412915Y-125840938D01*
X136412919Y-125840932D01*
X136415633Y-125837838D01*
X136436308Y-125806897D01*
X136577821Y-125595106D01*
X136580115Y-125591673D01*
X136711059Y-125326145D01*
X136764494Y-125168730D01*
X136804896Y-125049710D01*
X136804897Y-125049706D01*
X136806224Y-125045797D01*
X136816584Y-124993715D01*
X136863180Y-124759465D01*
X136863181Y-124759459D01*
X136863983Y-124755426D01*
X136883346Y-124460000D01*
X136871798Y-124283802D01*
X136864253Y-124168686D01*
X136864252Y-124168679D01*
X136863983Y-124164574D01*
X136861486Y-124152018D01*
X136807030Y-123878253D01*
X136807028Y-123878247D01*
X136806224Y-123874203D01*
X136711059Y-123593855D01*
X136621012Y-123411257D01*
X136581942Y-123332031D01*
X136581939Y-123332026D01*
X136580115Y-123328327D01*
X136415633Y-123082162D01*
X136412919Y-123079068D01*
X136412915Y-123079062D01*
X136223136Y-122862662D01*
X136220427Y-122859573D01*
X136217338Y-122856864D01*
X136000938Y-122667085D01*
X136000932Y-122667081D01*
X135997838Y-122664367D01*
X135994412Y-122662078D01*
X135994407Y-122662074D01*
X135755106Y-122502179D01*
X135751673Y-122499885D01*
X135747974Y-122498061D01*
X135747969Y-122498058D01*
X135525551Y-122388374D01*
X135486145Y-122368941D01*
X135285281Y-122300757D01*
X135209710Y-122275104D01*
X135209706Y-122275103D01*
X135205797Y-122273776D01*
X135201753Y-122272972D01*
X135201747Y-122272970D01*
X134919465Y-122216820D01*
X134919459Y-122216819D01*
X134915426Y-122216017D01*
X134911321Y-122215748D01*
X134911314Y-122215747D01*
X134624119Y-122196924D01*
X134620000Y-122196654D01*
X134615881Y-122196924D01*
X134328686Y-122215747D01*
X134328679Y-122215748D01*
X134324574Y-122216017D01*
X134320541Y-122216819D01*
X134320535Y-122216820D01*
X134038253Y-122272970D01*
X134038247Y-122272972D01*
X134034203Y-122273776D01*
X134030294Y-122275103D01*
X134030290Y-122275104D01*
X133954719Y-122300757D01*
X133753855Y-122368941D01*
X133714449Y-122388374D01*
X133492031Y-122498058D01*
X133492026Y-122498061D01*
X133488327Y-122499885D01*
X133484894Y-122502179D01*
X133245593Y-122662074D01*
X133245588Y-122662078D01*
X133242162Y-122664367D01*
X133239068Y-122667081D01*
X133239062Y-122667085D01*
X133022662Y-122856864D01*
X133019573Y-122859573D01*
X133016864Y-122862662D01*
X132827085Y-123079062D01*
X132827081Y-123079068D01*
X132824367Y-123082162D01*
X132659885Y-123328327D01*
X132658061Y-123332026D01*
X132658058Y-123332031D01*
X132618988Y-123411257D01*
X132528941Y-123593855D01*
X132433776Y-123874203D01*
X132432972Y-123878247D01*
X132432970Y-123878253D01*
X132378515Y-124152018D01*
X132376017Y-124164574D01*
X132375748Y-124168679D01*
X132375747Y-124168686D01*
X132368202Y-124283802D01*
X132356654Y-124460000D01*
X127236911Y-124460000D01*
X126928801Y-124153499D01*
X126925888Y-124150504D01*
X126554961Y-123756198D01*
X126110989Y-123284242D01*
X126108191Y-123281167D01*
X126036093Y-123199243D01*
X125322471Y-122388372D01*
X125319765Y-122385192D01*
X125307893Y-122370765D01*
X124564071Y-121466831D01*
X124561484Y-121463578D01*
X124546653Y-121444284D01*
X123947010Y-120664225D01*
X123836670Y-120520686D01*
X123834179Y-120517332D01*
X123141013Y-119550911D01*
X123138635Y-119547476D01*
X122908999Y-119203802D01*
X122477899Y-118558615D01*
X122475670Y-118555158D01*
X121929181Y-117675475D01*
X121848052Y-117544882D01*
X121845907Y-117541297D01*
X121433589Y-116825700D01*
X121252165Y-116510830D01*
X121250149Y-116507193D01*
X120690881Y-115457573D01*
X120688978Y-115453854D01*
X120164841Y-114386317D01*
X120163062Y-114382537D01*
X119957983Y-113927278D01*
X119674585Y-113298159D01*
X119672943Y-113294346D01*
X119651324Y-113241762D01*
X119220686Y-112194362D01*
X119219170Y-112190493D01*
X119212440Y-112172443D01*
X118978628Y-111545417D01*
X118803654Y-111076180D01*
X118802259Y-111072242D01*
X118608198Y-110493933D01*
X118423891Y-109944693D01*
X118422635Y-109940731D01*
X118422543Y-109940421D01*
X118231025Y-109300030D01*
X118081883Y-108801331D01*
X118080752Y-108797309D01*
X117936063Y-108247742D01*
X117777939Y-107647146D01*
X117776959Y-107643150D01*
X117512461Y-106483645D01*
X117511600Y-106479562D01*
X117506108Y-106451173D01*
X117422934Y-106021277D01*
X117285686Y-105311892D01*
X117284961Y-105307777D01*
X117162446Y-104538593D01*
X117097891Y-104133301D01*
X117097305Y-104129185D01*
X117096363Y-104121669D01*
X116949275Y-102949122D01*
X116948824Y-102944970D01*
X116943242Y-102884225D01*
X116840003Y-101760685D01*
X116839690Y-101756534D01*
X116839638Y-101755635D01*
X116770193Y-100569245D01*
X116770018Y-100565080D01*
X116766967Y-100444527D01*
X116760653Y-100195096D01*
X116739923Y-99376156D01*
X116739887Y-99371978D01*
X116749228Y-98182741D01*
X116749330Y-98178565D01*
X116798095Y-96990287D01*
X116798335Y-96986115D01*
X116886473Y-95800071D01*
X116886852Y-95795910D01*
X117014263Y-94613457D01*
X117014780Y-94609311D01*
X117058831Y-94297847D01*
X117181324Y-93431748D01*
X117181973Y-93427646D01*
X117185095Y-93409849D01*
X117387476Y-92256206D01*
X117388261Y-92252129D01*
X117410876Y-92144351D01*
X117632491Y-91088145D01*
X117633402Y-91084134D01*
X117861611Y-90151521D01*
X117897231Y-90090108D01*
X117960400Y-90057701D01*
X118031061Y-90064590D01*
X118086781Y-90108588D01*
X118110000Y-90181471D01*
X118110000Y-95250000D01*
X123700500Y-95250000D01*
X123768621Y-95270002D01*
X123815114Y-95323658D01*
X123826500Y-95376000D01*
X123826500Y-109141233D01*
X123825973Y-109152416D01*
X123824298Y-109159909D01*
X123824547Y-109167835D01*
X123824547Y-109167836D01*
X123826438Y-109227986D01*
X123826500Y-109231945D01*
X123826500Y-109259856D01*
X123826997Y-109263790D01*
X123826997Y-109263791D01*
X123827005Y-109263856D01*
X123827938Y-109275693D01*
X123829327Y-109319889D01*
X123834978Y-109339339D01*
X123838987Y-109358700D01*
X123841526Y-109378797D01*
X123844445Y-109386168D01*
X123844445Y-109386170D01*
X123857804Y-109419912D01*
X123861649Y-109431142D01*
X123873982Y-109473593D01*
X123878015Y-109480412D01*
X123878017Y-109480417D01*
X123884293Y-109491028D01*
X123892988Y-109508776D01*
X123900448Y-109527617D01*
X123905110Y-109534033D01*
X123905110Y-109534034D01*
X123926436Y-109563387D01*
X123932952Y-109573307D01*
X123950233Y-109602527D01*
X123955458Y-109611362D01*
X123969779Y-109625683D01*
X123982619Y-109640716D01*
X123994528Y-109657107D01*
X124028605Y-109685298D01*
X124037384Y-109693288D01*
X126496343Y-112152247D01*
X126503887Y-112160537D01*
X126508000Y-112167018D01*
X126513777Y-112172443D01*
X126557667Y-112213658D01*
X126560509Y-112216413D01*
X126580230Y-112236134D01*
X126583425Y-112238612D01*
X126592447Y-112246318D01*
X126624679Y-112276586D01*
X126631628Y-112280406D01*
X126642432Y-112286346D01*
X126658956Y-112297199D01*
X126674959Y-112309613D01*
X126715543Y-112327176D01*
X126726173Y-112332383D01*
X126764940Y-112353695D01*
X126772617Y-112355666D01*
X126772622Y-112355668D01*
X126784558Y-112358732D01*
X126803266Y-112365137D01*
X126821855Y-112373181D01*
X126829680Y-112374420D01*
X126829682Y-112374421D01*
X126865519Y-112380097D01*
X126877140Y-112382504D01*
X126908959Y-112390673D01*
X126919970Y-112393500D01*
X126940231Y-112393500D01*
X126959940Y-112395051D01*
X126979943Y-112398219D01*
X126987835Y-112397473D01*
X126993062Y-112396979D01*
X127023954Y-112394059D01*
X127035811Y-112393500D01*
X145971233Y-112393500D01*
X145982416Y-112394027D01*
X145989909Y-112395702D01*
X145997835Y-112395453D01*
X145997836Y-112395453D01*
X146057986Y-112393562D01*
X146061945Y-112393500D01*
X146089856Y-112393500D01*
X146093791Y-112393003D01*
X146093856Y-112392995D01*
X146105693Y-112392062D01*
X146137951Y-112391048D01*
X146141970Y-112390922D01*
X146149889Y-112390673D01*
X146169343Y-112385021D01*
X146188700Y-112381013D01*
X146200930Y-112379468D01*
X146200931Y-112379468D01*
X146208797Y-112378474D01*
X146216168Y-112375555D01*
X146216170Y-112375555D01*
X146249912Y-112362196D01*
X146261142Y-112358351D01*
X146295983Y-112348229D01*
X146295984Y-112348229D01*
X146303593Y-112346018D01*
X146310412Y-112341985D01*
X146310417Y-112341983D01*
X146321028Y-112335707D01*
X146338776Y-112327012D01*
X146357617Y-112319552D01*
X146377987Y-112304753D01*
X146393387Y-112293564D01*
X146403307Y-112287048D01*
X146434535Y-112268580D01*
X146434538Y-112268578D01*
X146441362Y-112264542D01*
X146455683Y-112250221D01*
X146470717Y-112237380D01*
X146474673Y-112234506D01*
X146487107Y-112225472D01*
X146515298Y-112191395D01*
X146523288Y-112182616D01*
X148982247Y-109723657D01*
X148990537Y-109716113D01*
X148997018Y-109712000D01*
X149043659Y-109662332D01*
X149046413Y-109659491D01*
X149066134Y-109639770D01*
X149068612Y-109636575D01*
X149076318Y-109627553D01*
X149101158Y-109601101D01*
X149106586Y-109595321D01*
X149116346Y-109577568D01*
X149127199Y-109561045D01*
X149134753Y-109551306D01*
X149139613Y-109545041D01*
X149157176Y-109504457D01*
X149162383Y-109493827D01*
X149183695Y-109455060D01*
X149185666Y-109447383D01*
X149185668Y-109447378D01*
X149188732Y-109435442D01*
X149195138Y-109416730D01*
X149200034Y-109405417D01*
X149203181Y-109398145D01*
X149205038Y-109386425D01*
X149210097Y-109354481D01*
X149212504Y-109342860D01*
X149221528Y-109307711D01*
X149221528Y-109307710D01*
X149223500Y-109300030D01*
X149223500Y-109279769D01*
X149225051Y-109260058D01*
X149226048Y-109253767D01*
X149228219Y-109240057D01*
X149224059Y-109196046D01*
X149223500Y-109184189D01*
X149223500Y-106994594D01*
X149243502Y-106926473D01*
X149260405Y-106905499D01*
X150154480Y-106011424D01*
X150216792Y-105977398D01*
X150287607Y-105982463D01*
X150315843Y-105997304D01*
X150473251Y-106107523D01*
X150478233Y-106109846D01*
X150478238Y-106109849D01*
X150512457Y-106125805D01*
X150565742Y-106172722D01*
X150585203Y-106240999D01*
X150564661Y-106308959D01*
X150512457Y-106354195D01*
X150478238Y-106370151D01*
X150478233Y-106370154D01*
X150473251Y-106372477D01*
X150396587Y-106426158D01*
X150290211Y-106500643D01*
X150290208Y-106500645D01*
X150285700Y-106503802D01*
X150123802Y-106665700D01*
X150120645Y-106670208D01*
X150120643Y-106670211D01*
X150097011Y-106703961D01*
X149992477Y-106853251D01*
X149990154Y-106858233D01*
X149990151Y-106858238D01*
X149898039Y-107055775D01*
X149895716Y-107060757D01*
X149894294Y-107066065D01*
X149894293Y-107066067D01*
X149846780Y-107243387D01*
X149836457Y-107281913D01*
X149816502Y-107510000D01*
X149836457Y-107738087D01*
X149837881Y-107743400D01*
X149837881Y-107743402D01*
X149876344Y-107886945D01*
X149895716Y-107959243D01*
X149898039Y-107964224D01*
X149898039Y-107964225D01*
X149990151Y-108161762D01*
X149990154Y-108161767D01*
X149992477Y-108166749D01*
X150123802Y-108354300D01*
X150285700Y-108516198D01*
X150290208Y-108519355D01*
X150290211Y-108519357D01*
X150307899Y-108531742D01*
X150473251Y-108647523D01*
X150478233Y-108649846D01*
X150478238Y-108649849D01*
X150512457Y-108665805D01*
X150565742Y-108712722D01*
X150585203Y-108780999D01*
X150564661Y-108848959D01*
X150512457Y-108894195D01*
X150478238Y-108910151D01*
X150478233Y-108910154D01*
X150473251Y-108912477D01*
X150396587Y-108966158D01*
X150290211Y-109040643D01*
X150290208Y-109040645D01*
X150285700Y-109043802D01*
X150123802Y-109205700D01*
X150120645Y-109210208D01*
X150120643Y-109210211D01*
X150078882Y-109269852D01*
X149992477Y-109393251D01*
X149990154Y-109398233D01*
X149990151Y-109398238D01*
X149918775Y-109551306D01*
X149895716Y-109600757D01*
X149894294Y-109606065D01*
X149894293Y-109606067D01*
X149846780Y-109783387D01*
X149836457Y-109821913D01*
X149816502Y-110050000D01*
X149836457Y-110278087D01*
X149895716Y-110499243D01*
X149898039Y-110504224D01*
X149898039Y-110504225D01*
X149990151Y-110701762D01*
X149990154Y-110701767D01*
X149992477Y-110706749D01*
X150123802Y-110894300D01*
X150285700Y-111056198D01*
X150290208Y-111059355D01*
X150290211Y-111059357D01*
X150357536Y-111106498D01*
X150473251Y-111187523D01*
X150478233Y-111189846D01*
X150478238Y-111189849D01*
X150512457Y-111205805D01*
X150565742Y-111252722D01*
X150585203Y-111320999D01*
X150564661Y-111388959D01*
X150512457Y-111434195D01*
X150478238Y-111450151D01*
X150478233Y-111450154D01*
X150473251Y-111452477D01*
X150368389Y-111525902D01*
X150290211Y-111580643D01*
X150290208Y-111580645D01*
X150285700Y-111583802D01*
X150123802Y-111745700D01*
X150120645Y-111750208D01*
X150120643Y-111750211D01*
X150113848Y-111759916D01*
X149992477Y-111933251D01*
X149990154Y-111938233D01*
X149990151Y-111938238D01*
X149967361Y-111987112D01*
X149895716Y-112140757D01*
X149894294Y-112146065D01*
X149894293Y-112146067D01*
X149839682Y-112349876D01*
X149836457Y-112361913D01*
X149816502Y-112590000D01*
X149836457Y-112818087D01*
X149837881Y-112823400D01*
X149837881Y-112823402D01*
X149892575Y-113027519D01*
X149895716Y-113039243D01*
X149898039Y-113044224D01*
X149898039Y-113044225D01*
X149990151Y-113241762D01*
X149990154Y-113241767D01*
X149992477Y-113246749D01*
X150123802Y-113434300D01*
X150285700Y-113596198D01*
X150290208Y-113599355D01*
X150290211Y-113599357D01*
X150313830Y-113615895D01*
X150473251Y-113727523D01*
X150478233Y-113729846D01*
X150478238Y-113729849D01*
X150512457Y-113745805D01*
X150565742Y-113792722D01*
X150585203Y-113860999D01*
X150564661Y-113928959D01*
X150512457Y-113974195D01*
X150478238Y-113990151D01*
X150478233Y-113990154D01*
X150473251Y-113992477D01*
X150384246Y-114054799D01*
X150290211Y-114120643D01*
X150290208Y-114120645D01*
X150285700Y-114123802D01*
X150123802Y-114285700D01*
X149992477Y-114473251D01*
X149990154Y-114478233D01*
X149990151Y-114478238D01*
X149949852Y-114564661D01*
X149895716Y-114680757D01*
X149894294Y-114686065D01*
X149894293Y-114686067D01*
X149854858Y-114833241D01*
X149836457Y-114901913D01*
X149816502Y-115130000D01*
X149836457Y-115358087D01*
X149837881Y-115363400D01*
X149837881Y-115363402D01*
X149862625Y-115455745D01*
X149895716Y-115579243D01*
X149898039Y-115584224D01*
X149898039Y-115584225D01*
X149990151Y-115781762D01*
X149990154Y-115781767D01*
X149992477Y-115786749D01*
X150123802Y-115974300D01*
X150285700Y-116136198D01*
X150290208Y-116139355D01*
X150290211Y-116139357D01*
X150314313Y-116156233D01*
X150473251Y-116267523D01*
X150478233Y-116269846D01*
X150478238Y-116269849D01*
X150512457Y-116285805D01*
X150565742Y-116332722D01*
X150585203Y-116400999D01*
X150564661Y-116468959D01*
X150512457Y-116514195D01*
X150478238Y-116530151D01*
X150478233Y-116530154D01*
X150473251Y-116532477D01*
X150368389Y-116605902D01*
X150290211Y-116660643D01*
X150290208Y-116660645D01*
X150285700Y-116663802D01*
X150123802Y-116825700D01*
X149992477Y-117013251D01*
X149990154Y-117018233D01*
X149990151Y-117018238D01*
X149898039Y-117215775D01*
X149895716Y-117220757D01*
X149836457Y-117441913D01*
X149816502Y-117670000D01*
X149836457Y-117898087D01*
X149895716Y-118119243D01*
X149898039Y-118124224D01*
X149898039Y-118124225D01*
X149990151Y-118321762D01*
X149990154Y-118321767D01*
X149992477Y-118326749D01*
X150123802Y-118514300D01*
X150285700Y-118676198D01*
X150290208Y-118679355D01*
X150290211Y-118679357D01*
X150368389Y-118734098D01*
X150473251Y-118807523D01*
X150478233Y-118809846D01*
X150478238Y-118809849D01*
X150512457Y-118825805D01*
X150565742Y-118872722D01*
X150585203Y-118940999D01*
X150564661Y-119008959D01*
X150512457Y-119054195D01*
X150478238Y-119070151D01*
X150478233Y-119070154D01*
X150473251Y-119072477D01*
X150368389Y-119145902D01*
X150290211Y-119200643D01*
X150290208Y-119200645D01*
X150285700Y-119203802D01*
X150123802Y-119365700D01*
X149992477Y-119553251D01*
X149990154Y-119558233D01*
X149990151Y-119558238D01*
X149899058Y-119753589D01*
X149895716Y-119760757D01*
X149894294Y-119766065D01*
X149894293Y-119766067D01*
X149868081Y-119863891D01*
X149836457Y-119981913D01*
X149816502Y-120210000D01*
X149836457Y-120438087D01*
X149895716Y-120659243D01*
X149898039Y-120664224D01*
X149898039Y-120664225D01*
X149990151Y-120861762D01*
X149990154Y-120861767D01*
X149992477Y-120866749D01*
X150123802Y-121054300D01*
X150285700Y-121216198D01*
X150290208Y-121219355D01*
X150290211Y-121219357D01*
X150368389Y-121274098D01*
X150473251Y-121347523D01*
X150478233Y-121349846D01*
X150478238Y-121349849D01*
X150512457Y-121365805D01*
X150565742Y-121412722D01*
X150585203Y-121480999D01*
X150564661Y-121548959D01*
X150512457Y-121594195D01*
X150478238Y-121610151D01*
X150478233Y-121610154D01*
X150473251Y-121612477D01*
X150368389Y-121685902D01*
X150290211Y-121740643D01*
X150290208Y-121740645D01*
X150285700Y-121743802D01*
X150123802Y-121905700D01*
X149992477Y-122093251D01*
X149990154Y-122098233D01*
X149990151Y-122098238D01*
X149934856Y-122216820D01*
X149895716Y-122300757D01*
X149894294Y-122306065D01*
X149894293Y-122306067D01*
X149872659Y-122386807D01*
X149836457Y-122521913D01*
X149816502Y-122750000D01*
X149836457Y-122978087D01*
X149895716Y-123199243D01*
X149898039Y-123204224D01*
X149898039Y-123204225D01*
X149990151Y-123401762D01*
X149990154Y-123401767D01*
X149992477Y-123406749D01*
X150123802Y-123594300D01*
X150285700Y-123756198D01*
X150290208Y-123759355D01*
X150290211Y-123759357D01*
X150368389Y-123814098D01*
X150473251Y-123887523D01*
X150478233Y-123889846D01*
X150478238Y-123889849D01*
X150512457Y-123905805D01*
X150565742Y-123952722D01*
X150585203Y-124020999D01*
X150564661Y-124088959D01*
X150512457Y-124134195D01*
X150478238Y-124150151D01*
X150478233Y-124150154D01*
X150473251Y-124152477D01*
X150368389Y-124225902D01*
X150290211Y-124280643D01*
X150290208Y-124280645D01*
X150285700Y-124283802D01*
X150123802Y-124445700D01*
X149992477Y-124633251D01*
X149990154Y-124638233D01*
X149990151Y-124638238D01*
X149935506Y-124755426D01*
X149895716Y-124840757D01*
X149894294Y-124846065D01*
X149894293Y-124846067D01*
X149840775Y-125045797D01*
X149836457Y-125061913D01*
X149816502Y-125290000D01*
X149836457Y-125518087D01*
X149895716Y-125739243D01*
X149898039Y-125744224D01*
X149898039Y-125744225D01*
X149990151Y-125941762D01*
X149990154Y-125941767D01*
X149992477Y-125946749D01*
X150123802Y-126134300D01*
X150285700Y-126296198D01*
X150290208Y-126299355D01*
X150290211Y-126299357D01*
X150368389Y-126354098D01*
X150473251Y-126427523D01*
X150478233Y-126429846D01*
X150478238Y-126429849D01*
X150512457Y-126445805D01*
X150565742Y-126492722D01*
X150585203Y-126560999D01*
X150564661Y-126628959D01*
X150512457Y-126674195D01*
X150478238Y-126690151D01*
X150478233Y-126690154D01*
X150473251Y-126692477D01*
X150386576Y-126753168D01*
X150290211Y-126820643D01*
X150290208Y-126820645D01*
X150285700Y-126823802D01*
X150123802Y-126985700D01*
X149992477Y-127173251D01*
X149990154Y-127178233D01*
X149990151Y-127178238D01*
X149912185Y-127345439D01*
X149895716Y-127380757D01*
X149836457Y-127601913D01*
X149816502Y-127830000D01*
X149836457Y-128058087D01*
X149837881Y-128063400D01*
X149837881Y-128063402D01*
X149878721Y-128215816D01*
X149895716Y-128279243D01*
X149898039Y-128284224D01*
X149898039Y-128284225D01*
X149990151Y-128481762D01*
X149990154Y-128481767D01*
X149992477Y-128486749D01*
X150123802Y-128674300D01*
X150285700Y-128836198D01*
X150290208Y-128839355D01*
X150290211Y-128839357D01*
X150368389Y-128894098D01*
X150473251Y-128967523D01*
X150478233Y-128969846D01*
X150478238Y-128969849D01*
X150675775Y-129061961D01*
X150680757Y-129064284D01*
X150686065Y-129065706D01*
X150686067Y-129065707D01*
X150896598Y-129122119D01*
X150896600Y-129122119D01*
X150901913Y-129123543D01*
X151130000Y-129143498D01*
X151358087Y-129123543D01*
X151363400Y-129122119D01*
X151363402Y-129122119D01*
X151573933Y-129065707D01*
X151573935Y-129065706D01*
X151579243Y-129064284D01*
X151584225Y-129061961D01*
X151781762Y-128969849D01*
X151781767Y-128969846D01*
X151786749Y-128967523D01*
X151891611Y-128894098D01*
X151969789Y-128839357D01*
X151969792Y-128839355D01*
X151974300Y-128836198D01*
X152136198Y-128674300D01*
X152267523Y-128486749D01*
X152269846Y-128481767D01*
X152269849Y-128481762D01*
X152361961Y-128284225D01*
X152361961Y-128284224D01*
X152364284Y-128279243D01*
X152381280Y-128215816D01*
X152422119Y-128063402D01*
X152422119Y-128063400D01*
X152423543Y-128058087D01*
X152443498Y-127830000D01*
X152423543Y-127601913D01*
X152364284Y-127380757D01*
X152347815Y-127345439D01*
X152269849Y-127178238D01*
X152269846Y-127178233D01*
X152267523Y-127173251D01*
X152136198Y-126985700D01*
X151974300Y-126823802D01*
X151969792Y-126820645D01*
X151969789Y-126820643D01*
X151873424Y-126753168D01*
X151786749Y-126692477D01*
X151781767Y-126690154D01*
X151781762Y-126690151D01*
X151747543Y-126674195D01*
X151694258Y-126627278D01*
X151674797Y-126559001D01*
X151695339Y-126491041D01*
X151747543Y-126445805D01*
X151781762Y-126429849D01*
X151781767Y-126429846D01*
X151786749Y-126427523D01*
X151891611Y-126354098D01*
X151969789Y-126299357D01*
X151969792Y-126299355D01*
X151974300Y-126296198D01*
X152136198Y-126134300D01*
X152267523Y-125946749D01*
X152269846Y-125941767D01*
X152269849Y-125941762D01*
X152361961Y-125744225D01*
X152361961Y-125744224D01*
X152364284Y-125739243D01*
X152423543Y-125518087D01*
X152443498Y-125290000D01*
X152423543Y-125061913D01*
X152419225Y-125045797D01*
X152365707Y-124846067D01*
X152365706Y-124846065D01*
X152364284Y-124840757D01*
X152324494Y-124755426D01*
X152269849Y-124638238D01*
X152269846Y-124638233D01*
X152267523Y-124633251D01*
X152136198Y-124445700D01*
X151974300Y-124283802D01*
X151969792Y-124280645D01*
X151969789Y-124280643D01*
X151891611Y-124225902D01*
X151786749Y-124152477D01*
X151781767Y-124150154D01*
X151781762Y-124150151D01*
X151747543Y-124134195D01*
X151694258Y-124087278D01*
X151674797Y-124019001D01*
X151695339Y-123951041D01*
X151747543Y-123905805D01*
X151781762Y-123889849D01*
X151781767Y-123889846D01*
X151786749Y-123887523D01*
X151891611Y-123814098D01*
X151969789Y-123759357D01*
X151969792Y-123759355D01*
X151974300Y-123756198D01*
X152136198Y-123594300D01*
X152267523Y-123406749D01*
X152269846Y-123401767D01*
X152269849Y-123401762D01*
X152361961Y-123204225D01*
X152361961Y-123204224D01*
X152364284Y-123199243D01*
X152423543Y-122978087D01*
X152443498Y-122750000D01*
X152423543Y-122521913D01*
X152387341Y-122386807D01*
X152365707Y-122306067D01*
X152365706Y-122306065D01*
X152364284Y-122300757D01*
X152325144Y-122216820D01*
X152269849Y-122098238D01*
X152269846Y-122098233D01*
X152267523Y-122093251D01*
X152136198Y-121905700D01*
X151974300Y-121743802D01*
X151969792Y-121740645D01*
X151969789Y-121740643D01*
X151891611Y-121685902D01*
X151786749Y-121612477D01*
X151781767Y-121610154D01*
X151781762Y-121610151D01*
X151747543Y-121594195D01*
X151694258Y-121547278D01*
X151674797Y-121479001D01*
X151695339Y-121411041D01*
X151747543Y-121365805D01*
X151781762Y-121349849D01*
X151781767Y-121349846D01*
X151786749Y-121347523D01*
X151891611Y-121274098D01*
X151969789Y-121219357D01*
X151969792Y-121219355D01*
X151974300Y-121216198D01*
X152136198Y-121054300D01*
X152267523Y-120866749D01*
X152269846Y-120861767D01*
X152269849Y-120861762D01*
X152361961Y-120664225D01*
X152361961Y-120664224D01*
X152364284Y-120659243D01*
X152423543Y-120438087D01*
X152443498Y-120210000D01*
X152423543Y-119981913D01*
X152391919Y-119863891D01*
X152365707Y-119766067D01*
X152365706Y-119766065D01*
X152364284Y-119760757D01*
X152360942Y-119753589D01*
X152269849Y-119558238D01*
X152269846Y-119558233D01*
X152267523Y-119553251D01*
X152136198Y-119365700D01*
X151974300Y-119203802D01*
X151969792Y-119200645D01*
X151969789Y-119200643D01*
X151891611Y-119145902D01*
X151786749Y-119072477D01*
X151781767Y-119070154D01*
X151781762Y-119070151D01*
X151747543Y-119054195D01*
X151694258Y-119007278D01*
X151674797Y-118939001D01*
X151695339Y-118871041D01*
X151747543Y-118825805D01*
X151781762Y-118809849D01*
X151781767Y-118809846D01*
X151786749Y-118807523D01*
X151891611Y-118734098D01*
X151969789Y-118679357D01*
X151969792Y-118679355D01*
X151974300Y-118676198D01*
X152136198Y-118514300D01*
X152267523Y-118326749D01*
X152269846Y-118321767D01*
X152269849Y-118321762D01*
X152361961Y-118124225D01*
X152361961Y-118124224D01*
X152364284Y-118119243D01*
X152423543Y-117898087D01*
X152443498Y-117670000D01*
X152423543Y-117441913D01*
X152364284Y-117220757D01*
X152361961Y-117215775D01*
X152269849Y-117018238D01*
X152269846Y-117018233D01*
X152267523Y-117013251D01*
X152136198Y-116825700D01*
X151974300Y-116663802D01*
X151969792Y-116660645D01*
X151969789Y-116660643D01*
X151891611Y-116605902D01*
X151786749Y-116532477D01*
X151781767Y-116530154D01*
X151781762Y-116530151D01*
X151747543Y-116514195D01*
X151694258Y-116467278D01*
X151674797Y-116399001D01*
X151695339Y-116331041D01*
X151747543Y-116285805D01*
X151781762Y-116269849D01*
X151781767Y-116269846D01*
X151786749Y-116267523D01*
X151945687Y-116156233D01*
X151969789Y-116139357D01*
X151969792Y-116139355D01*
X151974300Y-116136198D01*
X152136198Y-115974300D01*
X152267523Y-115786749D01*
X152269846Y-115781767D01*
X152269849Y-115781762D01*
X152285805Y-115747543D01*
X152332722Y-115694258D01*
X152400999Y-115674797D01*
X152468959Y-115695339D01*
X152514195Y-115747543D01*
X152530151Y-115781762D01*
X152530154Y-115781767D01*
X152532477Y-115786749D01*
X152663802Y-115974300D01*
X152825700Y-116136198D01*
X152830208Y-116139355D01*
X152830211Y-116139357D01*
X152854313Y-116156233D01*
X153013251Y-116267523D01*
X153018233Y-116269846D01*
X153018238Y-116269849D01*
X153215775Y-116361961D01*
X153220757Y-116364284D01*
X153226065Y-116365706D01*
X153226067Y-116365707D01*
X153436598Y-116422119D01*
X153436600Y-116422119D01*
X153441913Y-116423543D01*
X153670000Y-116443498D01*
X153898087Y-116423543D01*
X153903400Y-116422119D01*
X153903402Y-116422119D01*
X154113933Y-116365707D01*
X154113935Y-116365706D01*
X154119243Y-116364284D01*
X154124225Y-116361961D01*
X154321762Y-116269849D01*
X154321767Y-116269846D01*
X154326749Y-116267523D01*
X154485687Y-116156233D01*
X154509789Y-116139357D01*
X154509792Y-116139355D01*
X154514300Y-116136198D01*
X154676198Y-115974300D01*
X154807523Y-115786749D01*
X154809846Y-115781767D01*
X154809849Y-115781762D01*
X154825805Y-115747543D01*
X154872722Y-115694258D01*
X154940999Y-115674797D01*
X155008959Y-115695339D01*
X155054195Y-115747543D01*
X155070151Y-115781762D01*
X155070154Y-115781767D01*
X155072477Y-115786749D01*
X155203802Y-115974300D01*
X155365700Y-116136198D01*
X155370208Y-116139355D01*
X155370211Y-116139357D01*
X155394313Y-116156233D01*
X155553251Y-116267523D01*
X155558233Y-116269846D01*
X155558238Y-116269849D01*
X155755775Y-116361961D01*
X155760757Y-116364284D01*
X155766065Y-116365706D01*
X155766067Y-116365707D01*
X155976598Y-116422119D01*
X155976600Y-116422119D01*
X155981913Y-116423543D01*
X156210000Y-116443498D01*
X156438087Y-116423543D01*
X156443400Y-116422119D01*
X156443402Y-116422119D01*
X156653933Y-116365707D01*
X156653935Y-116365706D01*
X156659243Y-116364284D01*
X156664225Y-116361961D01*
X156861762Y-116269849D01*
X156861767Y-116269846D01*
X156866749Y-116267523D01*
X157025687Y-116156233D01*
X157049789Y-116139357D01*
X157049792Y-116139355D01*
X157054300Y-116136198D01*
X157216198Y-115974300D01*
X157347523Y-115786749D01*
X157349846Y-115781767D01*
X157349849Y-115781762D01*
X157365805Y-115747543D01*
X157412722Y-115694258D01*
X157480999Y-115674797D01*
X157548959Y-115695339D01*
X157594195Y-115747543D01*
X157610151Y-115781762D01*
X157610154Y-115781767D01*
X157612477Y-115786749D01*
X157743802Y-115974300D01*
X157905700Y-116136198D01*
X157910208Y-116139355D01*
X157910211Y-116139357D01*
X157934313Y-116156233D01*
X158093251Y-116267523D01*
X158098233Y-116269846D01*
X158098238Y-116269849D01*
X158295775Y-116361961D01*
X158300757Y-116364284D01*
X158306065Y-116365706D01*
X158306067Y-116365707D01*
X158516598Y-116422119D01*
X158516600Y-116422119D01*
X158521913Y-116423543D01*
X158750000Y-116443498D01*
X158978087Y-116423543D01*
X158983400Y-116422119D01*
X158983402Y-116422119D01*
X159193933Y-116365707D01*
X159193935Y-116365706D01*
X159199243Y-116364284D01*
X159204225Y-116361961D01*
X159401762Y-116269849D01*
X159401767Y-116269846D01*
X159406749Y-116267523D01*
X159565687Y-116156233D01*
X159589789Y-116139357D01*
X159589792Y-116139355D01*
X159594300Y-116136198D01*
X159756198Y-115974300D01*
X159887523Y-115786749D01*
X159889846Y-115781767D01*
X159889849Y-115781762D01*
X159905805Y-115747543D01*
X159952722Y-115694258D01*
X160020999Y-115674797D01*
X160088959Y-115695339D01*
X160134195Y-115747543D01*
X160150151Y-115781762D01*
X160150154Y-115781767D01*
X160152477Y-115786749D01*
X160283802Y-115974300D01*
X160445700Y-116136198D01*
X160450208Y-116139355D01*
X160450211Y-116139357D01*
X160474313Y-116156233D01*
X160633251Y-116267523D01*
X160638233Y-116269846D01*
X160638238Y-116269849D01*
X160835775Y-116361961D01*
X160840757Y-116364284D01*
X160846065Y-116365706D01*
X160846067Y-116365707D01*
X161056598Y-116422119D01*
X161056600Y-116422119D01*
X161061913Y-116423543D01*
X161290000Y-116443498D01*
X161518087Y-116423543D01*
X161523400Y-116422119D01*
X161523402Y-116422119D01*
X161733933Y-116365707D01*
X161733935Y-116365706D01*
X161739243Y-116364284D01*
X161744225Y-116361961D01*
X161941762Y-116269849D01*
X161941767Y-116269846D01*
X161946749Y-116267523D01*
X162105687Y-116156233D01*
X162129789Y-116139357D01*
X162129792Y-116139355D01*
X162134300Y-116136198D01*
X162296198Y-115974300D01*
X162427523Y-115786749D01*
X162429846Y-115781767D01*
X162429849Y-115781762D01*
X162445805Y-115747543D01*
X162492722Y-115694258D01*
X162560999Y-115674797D01*
X162628959Y-115695339D01*
X162674195Y-115747543D01*
X162690151Y-115781762D01*
X162690154Y-115781767D01*
X162692477Y-115786749D01*
X162823802Y-115974300D01*
X162985700Y-116136198D01*
X162990208Y-116139355D01*
X162990211Y-116139357D01*
X163014313Y-116156233D01*
X163173251Y-116267523D01*
X163178233Y-116269846D01*
X163178238Y-116269849D01*
X163375775Y-116361961D01*
X163380757Y-116364284D01*
X163386065Y-116365706D01*
X163386067Y-116365707D01*
X163596598Y-116422119D01*
X163596600Y-116422119D01*
X163601913Y-116423543D01*
X163830000Y-116443498D01*
X164058087Y-116423543D01*
X164063400Y-116422119D01*
X164063402Y-116422119D01*
X164273933Y-116365707D01*
X164273935Y-116365706D01*
X164279243Y-116364284D01*
X164284225Y-116361961D01*
X164481762Y-116269849D01*
X164481767Y-116269846D01*
X164486749Y-116267523D01*
X164645687Y-116156233D01*
X164669789Y-116139357D01*
X164669792Y-116139355D01*
X164674300Y-116136198D01*
X164836198Y-115974300D01*
X164967523Y-115786749D01*
X164969846Y-115781767D01*
X164969849Y-115781762D01*
X164985805Y-115747543D01*
X165032722Y-115694258D01*
X165100999Y-115674797D01*
X165168959Y-115695339D01*
X165214195Y-115747543D01*
X165230151Y-115781762D01*
X165230154Y-115781767D01*
X165232477Y-115786749D01*
X165363802Y-115974300D01*
X165525700Y-116136198D01*
X165530208Y-116139355D01*
X165530211Y-116139357D01*
X165554313Y-116156233D01*
X165713251Y-116267523D01*
X165718233Y-116269846D01*
X165718238Y-116269849D01*
X165752457Y-116285805D01*
X165805742Y-116332722D01*
X165825203Y-116400999D01*
X165804661Y-116468959D01*
X165752457Y-116514195D01*
X165718238Y-116530151D01*
X165718233Y-116530154D01*
X165713251Y-116532477D01*
X165608389Y-116605902D01*
X165530211Y-116660643D01*
X165530208Y-116660645D01*
X165525700Y-116663802D01*
X165363802Y-116825700D01*
X165232477Y-117013251D01*
X165230154Y-117018233D01*
X165230151Y-117018238D01*
X165138039Y-117215775D01*
X165135716Y-117220757D01*
X165076457Y-117441913D01*
X165056502Y-117670000D01*
X165076457Y-117898087D01*
X165135716Y-118119243D01*
X165138039Y-118124224D01*
X165138039Y-118124225D01*
X165230151Y-118321762D01*
X165230154Y-118321767D01*
X165232477Y-118326749D01*
X165363802Y-118514300D01*
X165525700Y-118676198D01*
X165530208Y-118679355D01*
X165530211Y-118679357D01*
X165608389Y-118734098D01*
X165713251Y-118807523D01*
X165718233Y-118809846D01*
X165718238Y-118809849D01*
X165752457Y-118825805D01*
X165805742Y-118872722D01*
X165825203Y-118940999D01*
X165804661Y-119008959D01*
X165752457Y-119054195D01*
X165718238Y-119070151D01*
X165718233Y-119070154D01*
X165713251Y-119072477D01*
X165608389Y-119145902D01*
X165530211Y-119200643D01*
X165530208Y-119200645D01*
X165525700Y-119203802D01*
X165363802Y-119365700D01*
X165232477Y-119553251D01*
X165230154Y-119558233D01*
X165230151Y-119558238D01*
X165139058Y-119753589D01*
X165135716Y-119760757D01*
X165134294Y-119766065D01*
X165134293Y-119766067D01*
X165108081Y-119863891D01*
X165076457Y-119981913D01*
X165056502Y-120210000D01*
X165076457Y-120438087D01*
X165135716Y-120659243D01*
X165138039Y-120664224D01*
X165138039Y-120664225D01*
X165230151Y-120861762D01*
X165230154Y-120861767D01*
X165232477Y-120866749D01*
X165363802Y-121054300D01*
X165525700Y-121216198D01*
X165530208Y-121219355D01*
X165530211Y-121219357D01*
X165608389Y-121274098D01*
X165713251Y-121347523D01*
X165718233Y-121349846D01*
X165718238Y-121349849D01*
X165752457Y-121365805D01*
X165805742Y-121412722D01*
X165825203Y-121480999D01*
X165804661Y-121548959D01*
X165752457Y-121594195D01*
X165718238Y-121610151D01*
X165718233Y-121610154D01*
X165713251Y-121612477D01*
X165608389Y-121685902D01*
X165530211Y-121740643D01*
X165530208Y-121740645D01*
X165525700Y-121743802D01*
X165363802Y-121905700D01*
X165232477Y-122093251D01*
X165230154Y-122098233D01*
X165230151Y-122098238D01*
X165174856Y-122216820D01*
X165135716Y-122300757D01*
X165134294Y-122306065D01*
X165134293Y-122306067D01*
X165112659Y-122386807D01*
X165076457Y-122521913D01*
X165056502Y-122750000D01*
X165076457Y-122978087D01*
X165135716Y-123199243D01*
X165138039Y-123204224D01*
X165138039Y-123204225D01*
X165230151Y-123401762D01*
X165230154Y-123401767D01*
X165232477Y-123406749D01*
X165363802Y-123594300D01*
X165525700Y-123756198D01*
X165530208Y-123759355D01*
X165530211Y-123759357D01*
X165608389Y-123814098D01*
X165713251Y-123887523D01*
X165718233Y-123889846D01*
X165718238Y-123889849D01*
X165752457Y-123905805D01*
X165805742Y-123952722D01*
X165825203Y-124020999D01*
X165804661Y-124088959D01*
X165752457Y-124134195D01*
X165718238Y-124150151D01*
X165718233Y-124150154D01*
X165713251Y-124152477D01*
X165608389Y-124225902D01*
X165530211Y-124280643D01*
X165530208Y-124280645D01*
X165525700Y-124283802D01*
X165363802Y-124445700D01*
X165232477Y-124633251D01*
X165230154Y-124638233D01*
X165230151Y-124638238D01*
X165175506Y-124755426D01*
X165135716Y-124840757D01*
X165134294Y-124846065D01*
X165134293Y-124846067D01*
X165080775Y-125045797D01*
X165076457Y-125061913D01*
X165056502Y-125290000D01*
X165076457Y-125518087D01*
X165135716Y-125739243D01*
X165138039Y-125744224D01*
X165138039Y-125744225D01*
X165230151Y-125941762D01*
X165230154Y-125941767D01*
X165232477Y-125946749D01*
X165363802Y-126134300D01*
X165525700Y-126296198D01*
X165530208Y-126299355D01*
X165530211Y-126299357D01*
X165608389Y-126354098D01*
X165713251Y-126427523D01*
X165718233Y-126429846D01*
X165718238Y-126429849D01*
X165752457Y-126445805D01*
X165805742Y-126492722D01*
X165825203Y-126560999D01*
X165804661Y-126628959D01*
X165752457Y-126674195D01*
X165718238Y-126690151D01*
X165718233Y-126690154D01*
X165713251Y-126692477D01*
X165626576Y-126753168D01*
X165530211Y-126820643D01*
X165530208Y-126820645D01*
X165525700Y-126823802D01*
X165363802Y-126985700D01*
X165232477Y-127173251D01*
X165230154Y-127178233D01*
X165230151Y-127178238D01*
X165152185Y-127345439D01*
X165135716Y-127380757D01*
X165076457Y-127601913D01*
X165056502Y-127830000D01*
X165076457Y-128058087D01*
X165077881Y-128063400D01*
X165077881Y-128063402D01*
X165118721Y-128215816D01*
X165135716Y-128279243D01*
X165138039Y-128284224D01*
X165138039Y-128284225D01*
X165230151Y-128481762D01*
X165230154Y-128481767D01*
X165232477Y-128486749D01*
X165363802Y-128674300D01*
X165525700Y-128836198D01*
X165530208Y-128839355D01*
X165530211Y-128839357D01*
X165608389Y-128894098D01*
X165713251Y-128967523D01*
X165718233Y-128969846D01*
X165718238Y-128969849D01*
X165915775Y-129061961D01*
X165920757Y-129064284D01*
X165926065Y-129065706D01*
X165926067Y-129065707D01*
X166136598Y-129122119D01*
X166136600Y-129122119D01*
X166141913Y-129123543D01*
X166370000Y-129143498D01*
X166598087Y-129123543D01*
X166603400Y-129122119D01*
X166603402Y-129122119D01*
X166813933Y-129065707D01*
X166813935Y-129065706D01*
X166819243Y-129064284D01*
X166824225Y-129061961D01*
X167021762Y-128969849D01*
X167021767Y-128969846D01*
X167026749Y-128967523D01*
X167131611Y-128894098D01*
X167209789Y-128839357D01*
X167209792Y-128839355D01*
X167214300Y-128836198D01*
X167376198Y-128674300D01*
X167507523Y-128486749D01*
X167509846Y-128481767D01*
X167509849Y-128481762D01*
X167601961Y-128284225D01*
X167601961Y-128284224D01*
X167604284Y-128279243D01*
X167621280Y-128215816D01*
X167662119Y-128063402D01*
X167662119Y-128063400D01*
X167663543Y-128058087D01*
X167683498Y-127830000D01*
X167663543Y-127601913D01*
X167604284Y-127380757D01*
X167587815Y-127345439D01*
X167509849Y-127178238D01*
X167509846Y-127178233D01*
X167507523Y-127173251D01*
X167376198Y-126985700D01*
X167214300Y-126823802D01*
X167209792Y-126820645D01*
X167209789Y-126820643D01*
X167113424Y-126753168D01*
X167026749Y-126692477D01*
X167021767Y-126690154D01*
X167021762Y-126690151D01*
X166987543Y-126674195D01*
X166934258Y-126627278D01*
X166914797Y-126559001D01*
X166935339Y-126491041D01*
X166987543Y-126445805D01*
X167021762Y-126429849D01*
X167021767Y-126429846D01*
X167026749Y-126427523D01*
X167131611Y-126354098D01*
X167209789Y-126299357D01*
X167209792Y-126299355D01*
X167214300Y-126296198D01*
X167376198Y-126134300D01*
X167507523Y-125946749D01*
X167509846Y-125941767D01*
X167509849Y-125941762D01*
X167601961Y-125744225D01*
X167601961Y-125744224D01*
X167604284Y-125739243D01*
X167663543Y-125518087D01*
X167683498Y-125290000D01*
X167663543Y-125061913D01*
X167659225Y-125045797D01*
X167605707Y-124846067D01*
X167605706Y-124846065D01*
X167604284Y-124840757D01*
X167564494Y-124755426D01*
X167509849Y-124638238D01*
X167509846Y-124638233D01*
X167507523Y-124633251D01*
X167386211Y-124460000D01*
X169186654Y-124460000D01*
X169206017Y-124755426D01*
X169206819Y-124759459D01*
X169206820Y-124759465D01*
X169253416Y-124993715D01*
X169263776Y-125045797D01*
X169265103Y-125049706D01*
X169265104Y-125049710D01*
X169305506Y-125168730D01*
X169358941Y-125326145D01*
X169489885Y-125591673D01*
X169492179Y-125595106D01*
X169633693Y-125806897D01*
X169654367Y-125837838D01*
X169657081Y-125840932D01*
X169657085Y-125840938D01*
X169774107Y-125974375D01*
X169849573Y-126060427D01*
X169852662Y-126063136D01*
X170069062Y-126252915D01*
X170069068Y-126252919D01*
X170072162Y-126255633D01*
X170075588Y-126257922D01*
X170075593Y-126257926D01*
X170259405Y-126380744D01*
X170318327Y-126420115D01*
X170322026Y-126421939D01*
X170322031Y-126421942D01*
X170370421Y-126445805D01*
X170583855Y-126551059D01*
X170587760Y-126552384D01*
X170587761Y-126552385D01*
X170860290Y-126644896D01*
X170860294Y-126644897D01*
X170864203Y-126646224D01*
X170868247Y-126647028D01*
X170868253Y-126647030D01*
X171150535Y-126703180D01*
X171150541Y-126703181D01*
X171154574Y-126703983D01*
X171158679Y-126704252D01*
X171158686Y-126704253D01*
X171445881Y-126723076D01*
X171450000Y-126723346D01*
X171454119Y-126723076D01*
X171741314Y-126704253D01*
X171741321Y-126704252D01*
X171745426Y-126703983D01*
X171749459Y-126703181D01*
X171749465Y-126703180D01*
X172031747Y-126647030D01*
X172031753Y-126647028D01*
X172035797Y-126646224D01*
X172039706Y-126644897D01*
X172039710Y-126644896D01*
X172312239Y-126552385D01*
X172312240Y-126552384D01*
X172316145Y-126551059D01*
X172529579Y-126445805D01*
X172577969Y-126421942D01*
X172577974Y-126421939D01*
X172581673Y-126420115D01*
X172640595Y-126380744D01*
X172824407Y-126257926D01*
X172824412Y-126257922D01*
X172827838Y-126255633D01*
X172830932Y-126252919D01*
X172830938Y-126252915D01*
X173047338Y-126063136D01*
X173050427Y-126060427D01*
X173125893Y-125974375D01*
X173242915Y-125840938D01*
X173242919Y-125840932D01*
X173245633Y-125837838D01*
X173266308Y-125806897D01*
X173407821Y-125595106D01*
X173410115Y-125591673D01*
X173541059Y-125326145D01*
X173594494Y-125168730D01*
X173634896Y-125049710D01*
X173634897Y-125049706D01*
X173636224Y-125045797D01*
X173646584Y-124993715D01*
X173693180Y-124759465D01*
X173693181Y-124759459D01*
X173693983Y-124755426D01*
X173713346Y-124460000D01*
X173701798Y-124283802D01*
X173694253Y-124168686D01*
X173694252Y-124168679D01*
X173693983Y-124164574D01*
X173691486Y-124152018D01*
X173637030Y-123878253D01*
X173637028Y-123878247D01*
X173636224Y-123874203D01*
X173541059Y-123593855D01*
X173451012Y-123411257D01*
X173411942Y-123332031D01*
X173411939Y-123332026D01*
X173410115Y-123328327D01*
X173245633Y-123082162D01*
X173242919Y-123079068D01*
X173242915Y-123079062D01*
X173053136Y-122862662D01*
X173050427Y-122859573D01*
X173047338Y-122856864D01*
X172830938Y-122667085D01*
X172830932Y-122667081D01*
X172827838Y-122664367D01*
X172824412Y-122662078D01*
X172824407Y-122662074D01*
X172585106Y-122502179D01*
X172581673Y-122499885D01*
X172577974Y-122498061D01*
X172577969Y-122498058D01*
X172355551Y-122388374D01*
X172316145Y-122368941D01*
X172115281Y-122300757D01*
X172039710Y-122275104D01*
X172039706Y-122275103D01*
X172035797Y-122273776D01*
X172031753Y-122272972D01*
X172031747Y-122272970D01*
X171749465Y-122216820D01*
X171749459Y-122216819D01*
X171745426Y-122216017D01*
X171741321Y-122215748D01*
X171741314Y-122215747D01*
X171454119Y-122196924D01*
X171450000Y-122196654D01*
X171445881Y-122196924D01*
X171158686Y-122215747D01*
X171158679Y-122215748D01*
X171154574Y-122216017D01*
X171150541Y-122216819D01*
X171150535Y-122216820D01*
X170868253Y-122272970D01*
X170868247Y-122272972D01*
X170864203Y-122273776D01*
X170860294Y-122275103D01*
X170860290Y-122275104D01*
X170784719Y-122300757D01*
X170583855Y-122368941D01*
X170544449Y-122388374D01*
X170322031Y-122498058D01*
X170322026Y-122498061D01*
X170318327Y-122499885D01*
X170314894Y-122502179D01*
X170075593Y-122662074D01*
X170075588Y-122662078D01*
X170072162Y-122664367D01*
X170069068Y-122667081D01*
X170069062Y-122667085D01*
X169852662Y-122856864D01*
X169849573Y-122859573D01*
X169846864Y-122862662D01*
X169657085Y-123079062D01*
X169657081Y-123079068D01*
X169654367Y-123082162D01*
X169489885Y-123328327D01*
X169488061Y-123332026D01*
X169488058Y-123332031D01*
X169448988Y-123411257D01*
X169358941Y-123593855D01*
X169263776Y-123874203D01*
X169262972Y-123878247D01*
X169262970Y-123878253D01*
X169208515Y-124152018D01*
X169206017Y-124164574D01*
X169205748Y-124168679D01*
X169205747Y-124168686D01*
X169198202Y-124283802D01*
X169186654Y-124460000D01*
X167386211Y-124460000D01*
X167376198Y-124445700D01*
X167214300Y-124283802D01*
X167209792Y-124280645D01*
X167209789Y-124280643D01*
X167131611Y-124225902D01*
X167026749Y-124152477D01*
X167021767Y-124150154D01*
X167021762Y-124150151D01*
X166987543Y-124134195D01*
X166934258Y-124087278D01*
X166914797Y-124019001D01*
X166935339Y-123951041D01*
X166987543Y-123905805D01*
X167021762Y-123889849D01*
X167021767Y-123889846D01*
X167026749Y-123887523D01*
X167131611Y-123814098D01*
X167209789Y-123759357D01*
X167209792Y-123759355D01*
X167214300Y-123756198D01*
X167376198Y-123594300D01*
X167507523Y-123406749D01*
X167509846Y-123401767D01*
X167509849Y-123401762D01*
X167601961Y-123204225D01*
X167601961Y-123204224D01*
X167604284Y-123199243D01*
X167663543Y-122978087D01*
X167683498Y-122750000D01*
X167663543Y-122521913D01*
X167627341Y-122386807D01*
X167605707Y-122306067D01*
X167605706Y-122306065D01*
X167604284Y-122300757D01*
X167565144Y-122216820D01*
X167509849Y-122098238D01*
X167509846Y-122098233D01*
X167507523Y-122093251D01*
X167376198Y-121905700D01*
X167214300Y-121743802D01*
X167209792Y-121740645D01*
X167209789Y-121740643D01*
X167131611Y-121685902D01*
X167026749Y-121612477D01*
X167021767Y-121610154D01*
X167021762Y-121610151D01*
X166987543Y-121594195D01*
X166934258Y-121547278D01*
X166914797Y-121479001D01*
X166935339Y-121411041D01*
X166987543Y-121365805D01*
X167021762Y-121349849D01*
X167021767Y-121349846D01*
X167026749Y-121347523D01*
X167131611Y-121274098D01*
X167209789Y-121219357D01*
X167209792Y-121219355D01*
X167214300Y-121216198D01*
X167376198Y-121054300D01*
X167507523Y-120866749D01*
X167509846Y-120861767D01*
X167509849Y-120861762D01*
X167601961Y-120664225D01*
X167601961Y-120664224D01*
X167604284Y-120659243D01*
X167663543Y-120438087D01*
X167683498Y-120210000D01*
X167663543Y-119981913D01*
X167631919Y-119863891D01*
X167605707Y-119766067D01*
X167605706Y-119766065D01*
X167604284Y-119760757D01*
X167600942Y-119753589D01*
X167556431Y-119658134D01*
X174521500Y-119658134D01*
X174528255Y-119720316D01*
X174579385Y-119856705D01*
X174666739Y-119973261D01*
X174783295Y-120060615D01*
X174919684Y-120111745D01*
X174981866Y-120118500D01*
X178078134Y-120118500D01*
X178140316Y-120111745D01*
X178276705Y-120060615D01*
X178393261Y-119973261D01*
X178480615Y-119856705D01*
X178531745Y-119720316D01*
X178538500Y-119658134D01*
X178538500Y-116561866D01*
X178531745Y-116499684D01*
X178480615Y-116363295D01*
X178393261Y-116246739D01*
X178276705Y-116159385D01*
X178140316Y-116108255D01*
X178078134Y-116101500D01*
X174981866Y-116101500D01*
X174919684Y-116108255D01*
X174783295Y-116159385D01*
X174666739Y-116246739D01*
X174579385Y-116363295D01*
X174528255Y-116499684D01*
X174521500Y-116561866D01*
X174521500Y-119658134D01*
X167556431Y-119658134D01*
X167509849Y-119558238D01*
X167509846Y-119558233D01*
X167507523Y-119553251D01*
X167376198Y-119365700D01*
X167214300Y-119203802D01*
X167209792Y-119200645D01*
X167209789Y-119200643D01*
X167131611Y-119145902D01*
X167026749Y-119072477D01*
X167021767Y-119070154D01*
X167021762Y-119070151D01*
X166987543Y-119054195D01*
X166934258Y-119007278D01*
X166914797Y-118939001D01*
X166935339Y-118871041D01*
X166987543Y-118825805D01*
X167021762Y-118809849D01*
X167021767Y-118809846D01*
X167026749Y-118807523D01*
X167131611Y-118734098D01*
X167209789Y-118679357D01*
X167209792Y-118679355D01*
X167214300Y-118676198D01*
X167376198Y-118514300D01*
X167507523Y-118326749D01*
X167509846Y-118321767D01*
X167509849Y-118321762D01*
X167601961Y-118124225D01*
X167601961Y-118124224D01*
X167604284Y-118119243D01*
X167663543Y-117898087D01*
X167683498Y-117670000D01*
X167663543Y-117441913D01*
X167604284Y-117220757D01*
X167601961Y-117215775D01*
X167509849Y-117018238D01*
X167509846Y-117018233D01*
X167507523Y-117013251D01*
X167376198Y-116825700D01*
X167214300Y-116663802D01*
X167209792Y-116660645D01*
X167209789Y-116660643D01*
X167131611Y-116605902D01*
X167026749Y-116532477D01*
X167021767Y-116530154D01*
X167021762Y-116530151D01*
X166987543Y-116514195D01*
X166934258Y-116467278D01*
X166914797Y-116399001D01*
X166935339Y-116331041D01*
X166987543Y-116285805D01*
X167021762Y-116269849D01*
X167021767Y-116269846D01*
X167026749Y-116267523D01*
X167185687Y-116156233D01*
X167209789Y-116139357D01*
X167209792Y-116139355D01*
X167214300Y-116136198D01*
X167376198Y-115974300D01*
X167507523Y-115786749D01*
X167509846Y-115781767D01*
X167509849Y-115781762D01*
X167601961Y-115584225D01*
X167601961Y-115584224D01*
X167604284Y-115579243D01*
X167637376Y-115455745D01*
X167662119Y-115363402D01*
X167662119Y-115363400D01*
X167663543Y-115358087D01*
X167683498Y-115130000D01*
X167663543Y-114901913D01*
X167645142Y-114833241D01*
X167605707Y-114686067D01*
X167605706Y-114686065D01*
X167604284Y-114680757D01*
X167550148Y-114564661D01*
X167509849Y-114478238D01*
X167509846Y-114478233D01*
X167507523Y-114473251D01*
X167376198Y-114285700D01*
X167214300Y-114123802D01*
X167209792Y-114120645D01*
X167209789Y-114120643D01*
X167115754Y-114054799D01*
X167026749Y-113992477D01*
X167021767Y-113990154D01*
X167021762Y-113990151D01*
X166987543Y-113974195D01*
X166934258Y-113927278D01*
X166914797Y-113859001D01*
X166935339Y-113791041D01*
X166987543Y-113745805D01*
X167021762Y-113729849D01*
X167021767Y-113729846D01*
X167026749Y-113727523D01*
X167186170Y-113615895D01*
X167209789Y-113599357D01*
X167209792Y-113599355D01*
X167214300Y-113596198D01*
X167376198Y-113434300D01*
X167507523Y-113246749D01*
X167509846Y-113241767D01*
X167509849Y-113241762D01*
X167601961Y-113044225D01*
X167601961Y-113044224D01*
X167604284Y-113039243D01*
X167607426Y-113027519D01*
X167612410Y-113008918D01*
X174516917Y-113008918D01*
X174532682Y-113282320D01*
X174533507Y-113286525D01*
X174533508Y-113286533D01*
X174535041Y-113294346D01*
X174585405Y-113551053D01*
X174586792Y-113555103D01*
X174586793Y-113555108D01*
X174668147Y-113792722D01*
X174674112Y-113810144D01*
X174797160Y-114054799D01*
X174799586Y-114058328D01*
X174799589Y-114058334D01*
X174847263Y-114127699D01*
X174952274Y-114280490D01*
X175136582Y-114483043D01*
X175346675Y-114658707D01*
X175350316Y-114660991D01*
X175575024Y-114801951D01*
X175575028Y-114801953D01*
X175578664Y-114804234D01*
X175646544Y-114834883D01*
X175824345Y-114915164D01*
X175824349Y-114915166D01*
X175828257Y-114916930D01*
X175832377Y-114918150D01*
X175832376Y-114918150D01*
X176086723Y-114993491D01*
X176086727Y-114993492D01*
X176090836Y-114994709D01*
X176095070Y-114995357D01*
X176095075Y-114995358D01*
X176357298Y-115035483D01*
X176357300Y-115035483D01*
X176361540Y-115036132D01*
X176500912Y-115038322D01*
X176631071Y-115040367D01*
X176631077Y-115040367D01*
X176635362Y-115040434D01*
X176907235Y-115007534D01*
X177172127Y-114938041D01*
X177176087Y-114936401D01*
X177176092Y-114936399D01*
X177298632Y-114885641D01*
X177425136Y-114833241D01*
X177661582Y-114695073D01*
X177877089Y-114526094D01*
X177890305Y-114512457D01*
X178064686Y-114332509D01*
X178067669Y-114329431D01*
X178070202Y-114325983D01*
X178070206Y-114325978D01*
X178227257Y-114112178D01*
X178229795Y-114108723D01*
X178257154Y-114058334D01*
X178358418Y-113871830D01*
X178358419Y-113871828D01*
X178360468Y-113868054D01*
X178457269Y-113611877D01*
X178497939Y-113434300D01*
X178517449Y-113349117D01*
X178517450Y-113349113D01*
X178518407Y-113344933D01*
X178522580Y-113298184D01*
X178542531Y-113074627D01*
X178542531Y-113074625D01*
X178542751Y-113072161D01*
X178543193Y-113030000D01*
X178524567Y-112756778D01*
X178469032Y-112488612D01*
X178377617Y-112230465D01*
X178252013Y-111987112D01*
X178242040Y-111972921D01*
X178097008Y-111766562D01*
X178094545Y-111763057D01*
X177941036Y-111597861D01*
X177911046Y-111565588D01*
X177911043Y-111565585D01*
X177908125Y-111562445D01*
X177904810Y-111559731D01*
X177904806Y-111559728D01*
X177770929Y-111450151D01*
X177696205Y-111388990D01*
X177462704Y-111245901D01*
X177458768Y-111244173D01*
X177215873Y-111137549D01*
X177215869Y-111137548D01*
X177211945Y-111135825D01*
X176948566Y-111060800D01*
X176944324Y-111060196D01*
X176944318Y-111060195D01*
X176743834Y-111031662D01*
X176677443Y-111022213D01*
X176533589Y-111021460D01*
X176407877Y-111020802D01*
X176407871Y-111020802D01*
X176403591Y-111020780D01*
X176399347Y-111021339D01*
X176399343Y-111021339D01*
X176280302Y-111037011D01*
X176132078Y-111056525D01*
X176127938Y-111057658D01*
X176127936Y-111057658D01*
X176074626Y-111072242D01*
X175867928Y-111128788D01*
X175863980Y-111130472D01*
X175619982Y-111234546D01*
X175619978Y-111234548D01*
X175616030Y-111236232D01*
X175497414Y-111307222D01*
X175384725Y-111374664D01*
X175384721Y-111374667D01*
X175381043Y-111376868D01*
X175167318Y-111548094D01*
X174978808Y-111746742D01*
X174819002Y-111969136D01*
X174690857Y-112211161D01*
X174689385Y-112215184D01*
X174689383Y-112215188D01*
X174622676Y-112397473D01*
X174596743Y-112468337D01*
X174538404Y-112735907D01*
X174516917Y-113008918D01*
X167612410Y-113008918D01*
X167662119Y-112823402D01*
X167662119Y-112823400D01*
X167663543Y-112818087D01*
X167683498Y-112590000D01*
X167663543Y-112361913D01*
X167660318Y-112349876D01*
X167605707Y-112146067D01*
X167605706Y-112146065D01*
X167604284Y-112140757D01*
X167532639Y-111987112D01*
X167509849Y-111938238D01*
X167509846Y-111938233D01*
X167507523Y-111933251D01*
X167386152Y-111759916D01*
X167379357Y-111750211D01*
X167379355Y-111750208D01*
X167376198Y-111745700D01*
X167214300Y-111583802D01*
X167209792Y-111580645D01*
X167209789Y-111580643D01*
X167131611Y-111525902D01*
X167026749Y-111452477D01*
X167021767Y-111450154D01*
X167021762Y-111450151D01*
X166987543Y-111434195D01*
X166934258Y-111387278D01*
X166914797Y-111319001D01*
X166935339Y-111251041D01*
X166987543Y-111205805D01*
X167021762Y-111189849D01*
X167021767Y-111189846D01*
X167026749Y-111187523D01*
X167142464Y-111106498D01*
X167209789Y-111059357D01*
X167209792Y-111059355D01*
X167214300Y-111056198D01*
X167376198Y-110894300D01*
X167507523Y-110706749D01*
X167509846Y-110701767D01*
X167509849Y-110701762D01*
X167601961Y-110504225D01*
X167601961Y-110504224D01*
X167604284Y-110499243D01*
X167663543Y-110278087D01*
X167683498Y-110050000D01*
X167663543Y-109821913D01*
X167653220Y-109783387D01*
X167605707Y-109606067D01*
X167605706Y-109606065D01*
X167604284Y-109600757D01*
X167581225Y-109551306D01*
X167509849Y-109398238D01*
X167509846Y-109398233D01*
X167507523Y-109393251D01*
X167421118Y-109269852D01*
X167379357Y-109210211D01*
X167379355Y-109210208D01*
X167376198Y-109205700D01*
X167214300Y-109043802D01*
X167209792Y-109040645D01*
X167209789Y-109040643D01*
X167103413Y-108966158D01*
X167026749Y-108912477D01*
X167021767Y-108910154D01*
X167021762Y-108910151D01*
X166987543Y-108894195D01*
X166934258Y-108847278D01*
X166914797Y-108779001D01*
X166935339Y-108711041D01*
X166987543Y-108665805D01*
X167021762Y-108649849D01*
X167021767Y-108649846D01*
X167026749Y-108647523D01*
X167192101Y-108531742D01*
X167209789Y-108519357D01*
X167209792Y-108519355D01*
X167214300Y-108516198D01*
X167376198Y-108354300D01*
X167507523Y-108166749D01*
X167509846Y-108161767D01*
X167509849Y-108161762D01*
X167601961Y-107964225D01*
X167601961Y-107964224D01*
X167604284Y-107959243D01*
X167623657Y-107886945D01*
X167662119Y-107743402D01*
X167662119Y-107743400D01*
X167663543Y-107738087D01*
X167683498Y-107510000D01*
X167663543Y-107281913D01*
X167653220Y-107243387D01*
X167605707Y-107066067D01*
X167605706Y-107066065D01*
X167604284Y-107060757D01*
X167601961Y-107055775D01*
X167509849Y-106858238D01*
X167509846Y-106858233D01*
X167507523Y-106853251D01*
X167402989Y-106703961D01*
X167379357Y-106670211D01*
X167379355Y-106670208D01*
X167376198Y-106665700D01*
X167214300Y-106503802D01*
X167209792Y-106500645D01*
X167209789Y-106500643D01*
X167103413Y-106426158D01*
X167026749Y-106372477D01*
X167021767Y-106370154D01*
X167021762Y-106370151D01*
X166987543Y-106354195D01*
X166934258Y-106307278D01*
X166914797Y-106239001D01*
X166935339Y-106171041D01*
X166987543Y-106125805D01*
X167021762Y-106109849D01*
X167021767Y-106109846D01*
X167026749Y-106107523D01*
X167184155Y-105997306D01*
X167209789Y-105979357D01*
X167209792Y-105979355D01*
X167214300Y-105976198D01*
X167376198Y-105814300D01*
X167507523Y-105626749D01*
X167509846Y-105621767D01*
X167509849Y-105621762D01*
X167601961Y-105424225D01*
X167601961Y-105424224D01*
X167604284Y-105419243D01*
X167607660Y-105406646D01*
X167662119Y-105203402D01*
X167662119Y-105203400D01*
X167663543Y-105198087D01*
X167683498Y-104970000D01*
X167663543Y-104741913D01*
X167653220Y-104703387D01*
X167605707Y-104526067D01*
X167605706Y-104526065D01*
X167604284Y-104520757D01*
X167594544Y-104499870D01*
X167509849Y-104318238D01*
X167509846Y-104318233D01*
X167507523Y-104313251D01*
X167403445Y-104164612D01*
X167379357Y-104130211D01*
X167379355Y-104130208D01*
X167376198Y-104125700D01*
X167214300Y-103963802D01*
X167209792Y-103960645D01*
X167209789Y-103960643D01*
X167103413Y-103886158D01*
X167026749Y-103832477D01*
X167021767Y-103830154D01*
X167021762Y-103830151D01*
X166987543Y-103814195D01*
X166934258Y-103767278D01*
X166914797Y-103699001D01*
X166935339Y-103631041D01*
X166987543Y-103585805D01*
X167021762Y-103569849D01*
X167021767Y-103569846D01*
X167026749Y-103567523D01*
X167192101Y-103451742D01*
X167209789Y-103439357D01*
X167209792Y-103439355D01*
X167214300Y-103436198D01*
X167376198Y-103274300D01*
X167507523Y-103086749D01*
X167509846Y-103081767D01*
X167509849Y-103081762D01*
X167601961Y-102884225D01*
X167601961Y-102884224D01*
X167604284Y-102879243D01*
X167607660Y-102866646D01*
X167662119Y-102663402D01*
X167662119Y-102663400D01*
X167663543Y-102658087D01*
X167683498Y-102430000D01*
X167663543Y-102201913D01*
X167662119Y-102196598D01*
X167605707Y-101986067D01*
X167605706Y-101986065D01*
X167604284Y-101980757D01*
X167563457Y-101893202D01*
X167509849Y-101778238D01*
X167509846Y-101778233D01*
X167507523Y-101773251D01*
X167403445Y-101624612D01*
X167379357Y-101590211D01*
X167379355Y-101590208D01*
X167376198Y-101585700D01*
X167214300Y-101423802D01*
X167209792Y-101420645D01*
X167209789Y-101420643D01*
X167099573Y-101343469D01*
X167026749Y-101292477D01*
X167021767Y-101290154D01*
X167021762Y-101290151D01*
X166987543Y-101274195D01*
X166934258Y-101227278D01*
X166914797Y-101159001D01*
X166935339Y-101091041D01*
X166987543Y-101045805D01*
X167021762Y-101029849D01*
X167021767Y-101029846D01*
X167026749Y-101027523D01*
X167181761Y-100918982D01*
X167209789Y-100899357D01*
X167209792Y-100899355D01*
X167214300Y-100896198D01*
X167376198Y-100734300D01*
X167507523Y-100546749D01*
X167509846Y-100541767D01*
X167509849Y-100541762D01*
X167601961Y-100344225D01*
X167601961Y-100344224D01*
X167604284Y-100339243D01*
X167607660Y-100326646D01*
X167662119Y-100123402D01*
X167662119Y-100123400D01*
X167663543Y-100118087D01*
X167683498Y-99890000D01*
X167663543Y-99661913D01*
X167653220Y-99623387D01*
X167605707Y-99446067D01*
X167605706Y-99446065D01*
X167604284Y-99440757D01*
X167574618Y-99377138D01*
X167509849Y-99238238D01*
X167509846Y-99238233D01*
X167507523Y-99233251D01*
X167403445Y-99084612D01*
X167379357Y-99050211D01*
X167379355Y-99050208D01*
X167376198Y-99045700D01*
X167214300Y-98883802D01*
X167209792Y-98880645D01*
X167209789Y-98880643D01*
X167103413Y-98806158D01*
X167026749Y-98752477D01*
X167021767Y-98750154D01*
X167021762Y-98750151D01*
X166987543Y-98734195D01*
X166934258Y-98687278D01*
X166914797Y-98619001D01*
X166935339Y-98551041D01*
X166987543Y-98505805D01*
X167021762Y-98489849D01*
X167021767Y-98489846D01*
X167026749Y-98487523D01*
X167192101Y-98371742D01*
X167209789Y-98359357D01*
X167209792Y-98359355D01*
X167214300Y-98356198D01*
X167376198Y-98194300D01*
X167507523Y-98006749D01*
X167509846Y-98001767D01*
X167509849Y-98001762D01*
X167601961Y-97804225D01*
X167601961Y-97804224D01*
X167604284Y-97799243D01*
X167607660Y-97786646D01*
X167662119Y-97583402D01*
X167662119Y-97583400D01*
X167663543Y-97578087D01*
X167683498Y-97350000D01*
X167663543Y-97121913D01*
X167653220Y-97083387D01*
X167605707Y-96906067D01*
X167605706Y-96906065D01*
X167604284Y-96900757D01*
X167563457Y-96813202D01*
X167509849Y-96698238D01*
X167509846Y-96698233D01*
X167507523Y-96693251D01*
X167403445Y-96544612D01*
X167379357Y-96510211D01*
X167379355Y-96510208D01*
X167376198Y-96505700D01*
X167214300Y-96343802D01*
X167209792Y-96340645D01*
X167209789Y-96340643D01*
X167103413Y-96266158D01*
X167026749Y-96212477D01*
X167021767Y-96210154D01*
X167021762Y-96210151D01*
X166987543Y-96194195D01*
X166934258Y-96147278D01*
X166914797Y-96079001D01*
X166935339Y-96011041D01*
X166987543Y-95965805D01*
X167021762Y-95949849D01*
X167021767Y-95949846D01*
X167026749Y-95947523D01*
X167192101Y-95831742D01*
X167209789Y-95819357D01*
X167209792Y-95819355D01*
X167214300Y-95816198D01*
X167376198Y-95654300D01*
X167379357Y-95649789D01*
X167486181Y-95497229D01*
X167541638Y-95452901D01*
X167589394Y-95443500D01*
X170279022Y-95443500D01*
X170347143Y-95463502D01*
X170386455Y-95503665D01*
X170394987Y-95517588D01*
X170541250Y-95686438D01*
X170713126Y-95829132D01*
X170765658Y-95859829D01*
X170786445Y-95871976D01*
X170835169Y-95923614D01*
X170848240Y-95993397D01*
X170821509Y-96059169D01*
X170781055Y-96092527D01*
X170768607Y-96099007D01*
X170764474Y-96102110D01*
X170764471Y-96102112D01*
X170602214Y-96223938D01*
X170589965Y-96233135D01*
X170556335Y-96268327D01*
X170465551Y-96363327D01*
X170435629Y-96394638D01*
X170432715Y-96398910D01*
X170432714Y-96398911D01*
X170407484Y-96435897D01*
X170309743Y-96579180D01*
X170296052Y-96608675D01*
X170219138Y-96774373D01*
X170215688Y-96781805D01*
X170155989Y-96997070D01*
X170132251Y-97219195D01*
X170132548Y-97224348D01*
X170132548Y-97224351D01*
X170144151Y-97425588D01*
X170145110Y-97442215D01*
X170146247Y-97447261D01*
X170146248Y-97447267D01*
X170156530Y-97492888D01*
X170194222Y-97660139D01*
X170234346Y-97758953D01*
X170272632Y-97853240D01*
X170278266Y-97867116D01*
X170303851Y-97908867D01*
X170347267Y-97979715D01*
X170394987Y-98057588D01*
X170398367Y-98061490D01*
X170409352Y-98074171D01*
X170541250Y-98226438D01*
X170713126Y-98369132D01*
X170765658Y-98399829D01*
X170786445Y-98411976D01*
X170835169Y-98463614D01*
X170848240Y-98533397D01*
X170821509Y-98599169D01*
X170781055Y-98632527D01*
X170768607Y-98639007D01*
X170764474Y-98642110D01*
X170764471Y-98642112D01*
X170602214Y-98763938D01*
X170589965Y-98773135D01*
X170556335Y-98808327D01*
X170465551Y-98903327D01*
X170435629Y-98934638D01*
X170432715Y-98938910D01*
X170432714Y-98938911D01*
X170407484Y-98975897D01*
X170309743Y-99119180D01*
X170296052Y-99148675D01*
X170219138Y-99314373D01*
X170215688Y-99321805D01*
X170155989Y-99537070D01*
X170132251Y-99759195D01*
X170132548Y-99764348D01*
X170132548Y-99764351D01*
X170144151Y-99965588D01*
X170145110Y-99982215D01*
X170146247Y-99987261D01*
X170146248Y-99987267D01*
X170156530Y-100032888D01*
X170194222Y-100200139D01*
X170234346Y-100298953D01*
X170272632Y-100393240D01*
X170278266Y-100407116D01*
X170303851Y-100448867D01*
X170377625Y-100569255D01*
X170394987Y-100597588D01*
X170398367Y-100601490D01*
X170409352Y-100614171D01*
X170541250Y-100766438D01*
X170713126Y-100909132D01*
X170762518Y-100937994D01*
X170786445Y-100951976D01*
X170835169Y-101003614D01*
X170848240Y-101073397D01*
X170821509Y-101139169D01*
X170781055Y-101172527D01*
X170768607Y-101179007D01*
X170764474Y-101182110D01*
X170764471Y-101182112D01*
X170613274Y-101295634D01*
X170589965Y-101313135D01*
X170435629Y-101474638D01*
X170432715Y-101478910D01*
X170432714Y-101478911D01*
X170407484Y-101515897D01*
X170309743Y-101659180D01*
X170215688Y-101861805D01*
X170155989Y-102077070D01*
X170132251Y-102299195D01*
X170132548Y-102304348D01*
X170132548Y-102304351D01*
X170144151Y-102505588D01*
X170145110Y-102522215D01*
X170146247Y-102527261D01*
X170146248Y-102527267D01*
X170164801Y-102609588D01*
X170194222Y-102740139D01*
X170234346Y-102838953D01*
X170272632Y-102933240D01*
X170278266Y-102947116D01*
X170285884Y-102959547D01*
X170347267Y-103059715D01*
X170394987Y-103137588D01*
X170398367Y-103141490D01*
X170409352Y-103154171D01*
X170541250Y-103306438D01*
X170713126Y-103449132D01*
X170765658Y-103479829D01*
X170786445Y-103491976D01*
X170835169Y-103543614D01*
X170848240Y-103613397D01*
X170821509Y-103679169D01*
X170781055Y-103712527D01*
X170768607Y-103719007D01*
X170764474Y-103722110D01*
X170764471Y-103722112D01*
X170602214Y-103843938D01*
X170589965Y-103853135D01*
X170556335Y-103888327D01*
X170465551Y-103983327D01*
X170435629Y-104014638D01*
X170432715Y-104018910D01*
X170432714Y-104018911D01*
X170407484Y-104055897D01*
X170309743Y-104199180D01*
X170296052Y-104228675D01*
X170219138Y-104394373D01*
X170215688Y-104401805D01*
X170155989Y-104617070D01*
X170132251Y-104839195D01*
X170132548Y-104844348D01*
X170132548Y-104844351D01*
X170144151Y-105045588D01*
X170145110Y-105062215D01*
X170146247Y-105067261D01*
X170146248Y-105067267D01*
X170156530Y-105112888D01*
X170194222Y-105280139D01*
X170234346Y-105378953D01*
X170272632Y-105473240D01*
X170278266Y-105487116D01*
X170303851Y-105528867D01*
X170347267Y-105599715D01*
X170394987Y-105677588D01*
X170398367Y-105681490D01*
X170409352Y-105694171D01*
X170541250Y-105846438D01*
X170713126Y-105989132D01*
X170765658Y-106019829D01*
X170786445Y-106031976D01*
X170835169Y-106083614D01*
X170848240Y-106153397D01*
X170821509Y-106219169D01*
X170781055Y-106252527D01*
X170768607Y-106259007D01*
X170764474Y-106262110D01*
X170764471Y-106262112D01*
X170594100Y-106390030D01*
X170589965Y-106393135D01*
X170534503Y-106451173D01*
X170444339Y-106545524D01*
X170435629Y-106554638D01*
X170432715Y-106558910D01*
X170432714Y-106558911D01*
X170405806Y-106598357D01*
X170309743Y-106739180D01*
X170296052Y-106768675D01*
X170232541Y-106905499D01*
X170215688Y-106941805D01*
X170155989Y-107157070D01*
X170132251Y-107379195D01*
X170132548Y-107384348D01*
X170132548Y-107384351D01*
X170144151Y-107585588D01*
X170145110Y-107602215D01*
X170146247Y-107607261D01*
X170146248Y-107607267D01*
X170156530Y-107652888D01*
X170194222Y-107820139D01*
X170278266Y-108027116D01*
X170394987Y-108217588D01*
X170541250Y-108386438D01*
X170713126Y-108529132D01*
X170906000Y-108641838D01*
X170910825Y-108643680D01*
X170910826Y-108643681D01*
X170942272Y-108655689D01*
X171114692Y-108721530D01*
X171119760Y-108722561D01*
X171119763Y-108722562D01*
X171215978Y-108742137D01*
X171333597Y-108766067D01*
X171338772Y-108766257D01*
X171338774Y-108766257D01*
X171551673Y-108774064D01*
X171551677Y-108774064D01*
X171556837Y-108774253D01*
X171561957Y-108773597D01*
X171561959Y-108773597D01*
X171773288Y-108746525D01*
X171773289Y-108746525D01*
X171778416Y-108745868D01*
X171790852Y-108742137D01*
X171987429Y-108683161D01*
X171987434Y-108683159D01*
X171992384Y-108681674D01*
X172192994Y-108583396D01*
X172374860Y-108453673D01*
X172403077Y-108425555D01*
X172529435Y-108299637D01*
X172533096Y-108295989D01*
X172564641Y-108252090D01*
X172660435Y-108118777D01*
X172663453Y-108114577D01*
X172740224Y-107959243D01*
X172760136Y-107918953D01*
X172760137Y-107918951D01*
X172762430Y-107914311D01*
X172827370Y-107700569D01*
X172856529Y-107479090D01*
X172856681Y-107472882D01*
X172858074Y-107415865D01*
X172858074Y-107415861D01*
X172858156Y-107412500D01*
X172839852Y-107189861D01*
X172785431Y-106973202D01*
X172696354Y-106768340D01*
X172648926Y-106695027D01*
X172577822Y-106585117D01*
X172577820Y-106585114D01*
X172575014Y-106580777D01*
X172424670Y-106415551D01*
X172420619Y-106412352D01*
X172420615Y-106412348D01*
X172253414Y-106280300D01*
X172253410Y-106280298D01*
X172249359Y-106277098D01*
X172208053Y-106254296D01*
X172158084Y-106203864D01*
X172143312Y-106134421D01*
X172168428Y-106068016D01*
X172195780Y-106041409D01*
X172259960Y-105995630D01*
X172374860Y-105913673D01*
X172403077Y-105885555D01*
X172529435Y-105759637D01*
X172533096Y-105755989D01*
X172564641Y-105712090D01*
X172660435Y-105578777D01*
X172663453Y-105574577D01*
X172672064Y-105557155D01*
X172760136Y-105378953D01*
X172760137Y-105378951D01*
X172762430Y-105374311D01*
X172827370Y-105160569D01*
X172856529Y-104939090D01*
X172856617Y-104935492D01*
X172858074Y-104875865D01*
X172858074Y-104875861D01*
X172858156Y-104872500D01*
X172839852Y-104649861D01*
X172785431Y-104433202D01*
X172696354Y-104228340D01*
X172638670Y-104139174D01*
X172577822Y-104045117D01*
X172577820Y-104045114D01*
X172575014Y-104040777D01*
X172424670Y-103875551D01*
X172420619Y-103872352D01*
X172420615Y-103872348D01*
X172253414Y-103740300D01*
X172253410Y-103740298D01*
X172249359Y-103737098D01*
X172208053Y-103714296D01*
X172158084Y-103663864D01*
X172143312Y-103594421D01*
X172168428Y-103528016D01*
X172195780Y-103501409D01*
X172239603Y-103470150D01*
X172374860Y-103373673D01*
X172403077Y-103345555D01*
X172529435Y-103219637D01*
X172533096Y-103215989D01*
X172546914Y-103196760D01*
X172660435Y-103038777D01*
X172663453Y-103034577D01*
X172707740Y-102944970D01*
X172760136Y-102838953D01*
X172760137Y-102838951D01*
X172762430Y-102834311D01*
X172827370Y-102620569D01*
X172856529Y-102399090D01*
X172856617Y-102395492D01*
X172858074Y-102335865D01*
X172858074Y-102335861D01*
X172858156Y-102332500D01*
X172839852Y-102109861D01*
X172785431Y-101893202D01*
X172696354Y-101688340D01*
X172648926Y-101615027D01*
X172577822Y-101505117D01*
X172577820Y-101505114D01*
X172575014Y-101500777D01*
X172424670Y-101335551D01*
X172420619Y-101332352D01*
X172420615Y-101332348D01*
X172253414Y-101200300D01*
X172253410Y-101200298D01*
X172249359Y-101197098D01*
X172208053Y-101174296D01*
X172158084Y-101123864D01*
X172143312Y-101054421D01*
X172168428Y-100988016D01*
X172195780Y-100961409D01*
X172258359Y-100916772D01*
X172374860Y-100833673D01*
X172403077Y-100805555D01*
X172500099Y-100708871D01*
X172533096Y-100675989D01*
X172564641Y-100632090D01*
X172660435Y-100498777D01*
X172663453Y-100494577D01*
X172740224Y-100339243D01*
X172760136Y-100298953D01*
X172760137Y-100298951D01*
X172762430Y-100294311D01*
X172816521Y-100116277D01*
X172825865Y-100085523D01*
X172825865Y-100085521D01*
X172827370Y-100080569D01*
X172856529Y-99859090D01*
X172856617Y-99855492D01*
X172858074Y-99795865D01*
X172858074Y-99795861D01*
X172858156Y-99792500D01*
X172839852Y-99569861D01*
X172785431Y-99353202D01*
X172696354Y-99148340D01*
X172638670Y-99059174D01*
X172577822Y-98965117D01*
X172577820Y-98965114D01*
X172575014Y-98960777D01*
X172424670Y-98795551D01*
X172420619Y-98792352D01*
X172420615Y-98792348D01*
X172253414Y-98660300D01*
X172253410Y-98660298D01*
X172249359Y-98657098D01*
X172208053Y-98634296D01*
X172158084Y-98583864D01*
X172143312Y-98514421D01*
X172168428Y-98448016D01*
X172195780Y-98421409D01*
X172239603Y-98390150D01*
X172374860Y-98293673D01*
X172403077Y-98265555D01*
X172529435Y-98139637D01*
X172533096Y-98135989D01*
X172564641Y-98092090D01*
X172660435Y-97958777D01*
X172663453Y-97954577D01*
X172740224Y-97799243D01*
X172760136Y-97758953D01*
X172760137Y-97758951D01*
X172762430Y-97754311D01*
X172827370Y-97540569D01*
X172856529Y-97319090D01*
X172856617Y-97315492D01*
X172858074Y-97255865D01*
X172858074Y-97255861D01*
X172858156Y-97252500D01*
X172839852Y-97029861D01*
X172785431Y-96813202D01*
X172696354Y-96608340D01*
X172646254Y-96530897D01*
X172577822Y-96425117D01*
X172577820Y-96425114D01*
X172575014Y-96420777D01*
X172424670Y-96255551D01*
X172420619Y-96252352D01*
X172420615Y-96252348D01*
X172253414Y-96120300D01*
X172253410Y-96120298D01*
X172249359Y-96117098D01*
X172208053Y-96094296D01*
X172158084Y-96043864D01*
X172143312Y-95974421D01*
X172168428Y-95908016D01*
X172195780Y-95881409D01*
X172239603Y-95850150D01*
X172374860Y-95753673D01*
X172403077Y-95725555D01*
X172503661Y-95625321D01*
X172533096Y-95595989D01*
X172564641Y-95552090D01*
X172660435Y-95418777D01*
X172663453Y-95414577D01*
X172673657Y-95393932D01*
X172760136Y-95218953D01*
X172760137Y-95218951D01*
X172762430Y-95214311D01*
X172827370Y-95000569D01*
X172856529Y-94779090D01*
X172858156Y-94712500D01*
X172839852Y-94489861D01*
X172785431Y-94273202D01*
X172696354Y-94068340D01*
X172635001Y-93973503D01*
X172577822Y-93885117D01*
X172577820Y-93885114D01*
X172575014Y-93880777D01*
X172424670Y-93715551D01*
X172420619Y-93712352D01*
X172420615Y-93712348D01*
X172253414Y-93580300D01*
X172253410Y-93580298D01*
X172249359Y-93577098D01*
X172208053Y-93554296D01*
X172158084Y-93503864D01*
X172143312Y-93434421D01*
X172168428Y-93368016D01*
X172195780Y-93341409D01*
X172239603Y-93310150D01*
X172374860Y-93213673D01*
X172533096Y-93055989D01*
X172592594Y-92973189D01*
X172660435Y-92878777D01*
X172663453Y-92874577D01*
X172740224Y-92719243D01*
X172760136Y-92678953D01*
X172760137Y-92678951D01*
X172762430Y-92674311D01*
X172827370Y-92460569D01*
X172856529Y-92239090D01*
X172858156Y-92172500D01*
X172839852Y-91949861D01*
X172785431Y-91733202D01*
X172696354Y-91528340D01*
X172656906Y-91467362D01*
X172577822Y-91345117D01*
X172577820Y-91345114D01*
X172575014Y-91340777D01*
X172571540Y-91336959D01*
X172571533Y-91336950D01*
X172427435Y-91178588D01*
X172396383Y-91114742D01*
X172404779Y-91044244D01*
X172449956Y-90989476D01*
X172476400Y-90975807D01*
X172583052Y-90935825D01*
X172598649Y-90927286D01*
X172700724Y-90850785D01*
X172713285Y-90838224D01*
X172789786Y-90736149D01*
X172798324Y-90720554D01*
X172843478Y-90600106D01*
X172847105Y-90584851D01*
X172852631Y-90533986D01*
X172853000Y-90527172D01*
X172853000Y-89904615D01*
X172848525Y-89889376D01*
X172847135Y-89888171D01*
X172839452Y-89886500D01*
X170155116Y-89886500D01*
X170139877Y-89890975D01*
X170138672Y-89892365D01*
X170137001Y-89900048D01*
X170137001Y-90527169D01*
X170137371Y-90533990D01*
X170142895Y-90584852D01*
X170146521Y-90600104D01*
X170191676Y-90720554D01*
X170200214Y-90736149D01*
X170276715Y-90838224D01*
X170289276Y-90850785D01*
X170391351Y-90927286D01*
X170406946Y-90935824D01*
X170515827Y-90976642D01*
X170572591Y-91019284D01*
X170597291Y-91085845D01*
X170582083Y-91155194D01*
X170562691Y-91181675D01*
X170487228Y-91260643D01*
X170435629Y-91314638D01*
X170309743Y-91499180D01*
X170215688Y-91701805D01*
X170155989Y-91917070D01*
X170132251Y-92139195D01*
X170132548Y-92144348D01*
X170132548Y-92144351D01*
X170138880Y-92254171D01*
X170145110Y-92362215D01*
X170146247Y-92367261D01*
X170146248Y-92367267D01*
X170166119Y-92455439D01*
X170194222Y-92580139D01*
X170278266Y-92787116D01*
X170394987Y-92977588D01*
X170541250Y-93146438D01*
X170713126Y-93289132D01*
X170783595Y-93330311D01*
X170786445Y-93331976D01*
X170835169Y-93383614D01*
X170848240Y-93453397D01*
X170821509Y-93519169D01*
X170781055Y-93552527D01*
X170768607Y-93559007D01*
X170764474Y-93562110D01*
X170764471Y-93562112D01*
X170613274Y-93675634D01*
X170589965Y-93693135D01*
X170435629Y-93854638D01*
X170432715Y-93858910D01*
X170432714Y-93858911D01*
X170362526Y-93961803D01*
X170309743Y-94039180D01*
X170279863Y-94103552D01*
X170233040Y-94156917D01*
X170165576Y-94176500D01*
X167589394Y-94176500D01*
X167521273Y-94156498D01*
X167486181Y-94122771D01*
X167379357Y-93970211D01*
X167379355Y-93970208D01*
X167376198Y-93965700D01*
X167214300Y-93803802D01*
X167209792Y-93800645D01*
X167209789Y-93800643D01*
X167088265Y-93715551D01*
X167026749Y-93672477D01*
X167021767Y-93670154D01*
X167021762Y-93670151D01*
X166987543Y-93654195D01*
X166934258Y-93607278D01*
X166914797Y-93539001D01*
X166935339Y-93471041D01*
X166987543Y-93425805D01*
X167021762Y-93409849D01*
X167021767Y-93409846D01*
X167026749Y-93407523D01*
X167192101Y-93291742D01*
X167209789Y-93279357D01*
X167209792Y-93279355D01*
X167214300Y-93276198D01*
X167376198Y-93114300D01*
X167507523Y-92926749D01*
X167509846Y-92921767D01*
X167509849Y-92921762D01*
X167601961Y-92724225D01*
X167601961Y-92724224D01*
X167604284Y-92719243D01*
X167642909Y-92575096D01*
X167662119Y-92503402D01*
X167662119Y-92503400D01*
X167663543Y-92498087D01*
X167683498Y-92270000D01*
X167663543Y-92041913D01*
X167662119Y-92036598D01*
X167605707Y-91826067D01*
X167605706Y-91826065D01*
X167604284Y-91820757D01*
X167551144Y-91706797D01*
X167509849Y-91618238D01*
X167509846Y-91618233D01*
X167507523Y-91613251D01*
X167376198Y-91425700D01*
X167214300Y-91263802D01*
X167209792Y-91260645D01*
X167209789Y-91260643D01*
X167059192Y-91155194D01*
X167026749Y-91132477D01*
X167021767Y-91130154D01*
X167021762Y-91130151D01*
X166987543Y-91114195D01*
X166934258Y-91067278D01*
X166914797Y-90999001D01*
X166935339Y-90931041D01*
X166987543Y-90885805D01*
X167021762Y-90869849D01*
X167021767Y-90869846D01*
X167026749Y-90867523D01*
X167154394Y-90778145D01*
X167209789Y-90739357D01*
X167209792Y-90739355D01*
X167214300Y-90736198D01*
X167376198Y-90574300D01*
X167404424Y-90533990D01*
X167504366Y-90391257D01*
X167507523Y-90386749D01*
X167509846Y-90381767D01*
X167509849Y-90381762D01*
X167601961Y-90184225D01*
X167601961Y-90184224D01*
X167604284Y-90179243D01*
X167635006Y-90064590D01*
X167662119Y-89963402D01*
X167662119Y-89963400D01*
X167663543Y-89958087D01*
X167683498Y-89730000D01*
X167663543Y-89501913D01*
X167640000Y-89414050D01*
X167625620Y-89360385D01*
X170137000Y-89360385D01*
X170141475Y-89375624D01*
X170142865Y-89376829D01*
X170150548Y-89378500D01*
X171222885Y-89378500D01*
X171238124Y-89374025D01*
X171239329Y-89372635D01*
X171241000Y-89364952D01*
X171241000Y-89360385D01*
X171749000Y-89360385D01*
X171753475Y-89375624D01*
X171754865Y-89376829D01*
X171762548Y-89378500D01*
X172834884Y-89378500D01*
X172850123Y-89374025D01*
X172851328Y-89372635D01*
X172852999Y-89364952D01*
X172852999Y-88737831D01*
X172852629Y-88731010D01*
X172847105Y-88680148D01*
X172843479Y-88664896D01*
X172798324Y-88544446D01*
X172789786Y-88528851D01*
X172713285Y-88426776D01*
X172700724Y-88414215D01*
X172598649Y-88337714D01*
X172583054Y-88329176D01*
X172462606Y-88284022D01*
X172447351Y-88280395D01*
X172396486Y-88274869D01*
X172389672Y-88274500D01*
X171767115Y-88274500D01*
X171751876Y-88278975D01*
X171750671Y-88280365D01*
X171749000Y-88288048D01*
X171749000Y-89360385D01*
X171241000Y-89360385D01*
X171241000Y-88292616D01*
X171236525Y-88277377D01*
X171235135Y-88276172D01*
X171227452Y-88274501D01*
X170600331Y-88274501D01*
X170593510Y-88274871D01*
X170542648Y-88280395D01*
X170527396Y-88284021D01*
X170406946Y-88329176D01*
X170391351Y-88337714D01*
X170289276Y-88414215D01*
X170276715Y-88426776D01*
X170200214Y-88528851D01*
X170191676Y-88544446D01*
X170146522Y-88664894D01*
X170142895Y-88680149D01*
X170137369Y-88731014D01*
X170137000Y-88737828D01*
X170137000Y-89360385D01*
X167625620Y-89360385D01*
X167605707Y-89286067D01*
X167605706Y-89286065D01*
X167604284Y-89280757D01*
X167583626Y-89236455D01*
X167509849Y-89078238D01*
X167509846Y-89078233D01*
X167507523Y-89073251D01*
X167376198Y-88885700D01*
X167214300Y-88723802D01*
X167209792Y-88720645D01*
X167209789Y-88720643D01*
X167130171Y-88664894D01*
X167026749Y-88592477D01*
X167021767Y-88590154D01*
X167021762Y-88590151D01*
X166987543Y-88574195D01*
X166934258Y-88527278D01*
X166914797Y-88459001D01*
X166935339Y-88391041D01*
X166987543Y-88345805D01*
X167021762Y-88329849D01*
X167021767Y-88329846D01*
X167026749Y-88327523D01*
X167131611Y-88254098D01*
X167209789Y-88199357D01*
X167209792Y-88199355D01*
X167214300Y-88196198D01*
X167376198Y-88034300D01*
X167507523Y-87846749D01*
X167509846Y-87841767D01*
X167509849Y-87841762D01*
X167601961Y-87644225D01*
X167601961Y-87644224D01*
X167604284Y-87639243D01*
X167663543Y-87418087D01*
X167683498Y-87190000D01*
X167663543Y-86961913D01*
X167604284Y-86740757D01*
X167591574Y-86713500D01*
X167509849Y-86538238D01*
X167509846Y-86538233D01*
X167507523Y-86533251D01*
X167376198Y-86345700D01*
X167214300Y-86183802D01*
X167209792Y-86180645D01*
X167209789Y-86180643D01*
X167131611Y-86125902D01*
X167026749Y-86052477D01*
X167021767Y-86050154D01*
X167021762Y-86050151D01*
X166987543Y-86034195D01*
X166934258Y-85987278D01*
X166914797Y-85919001D01*
X166935339Y-85851041D01*
X166987543Y-85805805D01*
X167021762Y-85789849D01*
X167021767Y-85789846D01*
X167026749Y-85787523D01*
X167131611Y-85714098D01*
X167209789Y-85659357D01*
X167209792Y-85659355D01*
X167214300Y-85656198D01*
X167376198Y-85494300D01*
X167381647Y-85486519D01*
X167447511Y-85392455D01*
X167507523Y-85306749D01*
X167509846Y-85301767D01*
X167509849Y-85301762D01*
X167601961Y-85104225D01*
X167601961Y-85104224D01*
X167604284Y-85099243D01*
X167606566Y-85090729D01*
X167662119Y-84883402D01*
X167662119Y-84883400D01*
X167663543Y-84878087D01*
X167683498Y-84650000D01*
X167663543Y-84421913D01*
X167647003Y-84360184D01*
X167605707Y-84206067D01*
X167605706Y-84206065D01*
X167604284Y-84200757D01*
X167591574Y-84173500D01*
X167509849Y-83998238D01*
X167509846Y-83998233D01*
X167507523Y-83993251D01*
X167376198Y-83805700D01*
X167214300Y-83643802D01*
X167209792Y-83640645D01*
X167209789Y-83640643D01*
X167114096Y-83573638D01*
X167026749Y-83512477D01*
X167021767Y-83510154D01*
X167021762Y-83510151D01*
X166987543Y-83494195D01*
X166934258Y-83447278D01*
X166914797Y-83379001D01*
X166935339Y-83311041D01*
X166987543Y-83265805D01*
X167021762Y-83249849D01*
X167021767Y-83249846D01*
X167026749Y-83247523D01*
X167179856Y-83140316D01*
X167209789Y-83119357D01*
X167209792Y-83119355D01*
X167214300Y-83116198D01*
X167376198Y-82954300D01*
X167381754Y-82946366D01*
X167504366Y-82771257D01*
X167507523Y-82766749D01*
X167509846Y-82761767D01*
X167509849Y-82761762D01*
X167601961Y-82564225D01*
X167601961Y-82564224D01*
X167604284Y-82559243D01*
X167621468Y-82495114D01*
X167662119Y-82343402D01*
X167662119Y-82343400D01*
X167663543Y-82338087D01*
X167683498Y-82110000D01*
X167663543Y-81881913D01*
X167639317Y-81791501D01*
X167605707Y-81666067D01*
X167605706Y-81666065D01*
X167604284Y-81660757D01*
X167591574Y-81633500D01*
X167509849Y-81458238D01*
X167509846Y-81458233D01*
X167507523Y-81453251D01*
X167386211Y-81280000D01*
X176460904Y-81280000D01*
X176481248Y-81512532D01*
X176482672Y-81517845D01*
X176482672Y-81517847D01*
X176526621Y-81681866D01*
X176541661Y-81737998D01*
X176543983Y-81742978D01*
X176543984Y-81742980D01*
X176637983Y-81944561D01*
X176637986Y-81944566D01*
X176640309Y-81949548D01*
X176643465Y-81954055D01*
X176643466Y-81954057D01*
X176768469Y-82132579D01*
X176774193Y-82140754D01*
X176917183Y-82283744D01*
X176951209Y-82346056D01*
X176946144Y-82416871D01*
X176903597Y-82473707D01*
X176863996Y-82492255D01*
X176864184Y-82492755D01*
X176727795Y-82543885D01*
X176611239Y-82631239D01*
X176523885Y-82747795D01*
X176472755Y-82884184D01*
X176466000Y-82946366D01*
X176466000Y-84693634D01*
X176472755Y-84755816D01*
X176523885Y-84892205D01*
X176611239Y-85008761D01*
X176727795Y-85096115D01*
X176864184Y-85147245D01*
X176926366Y-85154000D01*
X178673634Y-85154000D01*
X178735816Y-85147245D01*
X178872205Y-85096115D01*
X178988761Y-85008761D01*
X179076115Y-84892205D01*
X179127245Y-84755816D01*
X179134000Y-84693634D01*
X179134000Y-82946366D01*
X179127245Y-82884184D01*
X179076115Y-82747795D01*
X178988761Y-82631239D01*
X178872205Y-82543885D01*
X178735816Y-82492755D01*
X178736218Y-82491681D01*
X178681120Y-82460204D01*
X178648299Y-82397249D01*
X178654725Y-82326544D01*
X178682817Y-82283744D01*
X178825807Y-82140754D01*
X178831532Y-82132579D01*
X178956534Y-81954057D01*
X178956535Y-81954055D01*
X178959691Y-81949548D01*
X178962014Y-81944566D01*
X178962017Y-81944561D01*
X179056016Y-81742980D01*
X179056017Y-81742978D01*
X179058339Y-81737998D01*
X179073380Y-81681866D01*
X179117328Y-81517847D01*
X179117328Y-81517845D01*
X179118752Y-81512532D01*
X179139096Y-81280000D01*
X179118752Y-81047468D01*
X179099504Y-80975634D01*
X179059762Y-80827312D01*
X179059761Y-80827310D01*
X179058339Y-80822002D01*
X179035359Y-80772722D01*
X178962017Y-80615439D01*
X178962014Y-80615434D01*
X178959691Y-80610452D01*
X178935706Y-80576198D01*
X178828966Y-80423757D01*
X178828964Y-80423754D01*
X178825807Y-80419246D01*
X178660754Y-80254193D01*
X178656246Y-80251036D01*
X178656243Y-80251034D01*
X178550750Y-80177167D01*
X178469548Y-80120309D01*
X178465747Y-80118537D01*
X178417033Y-80067447D01*
X178403597Y-79997733D01*
X178429983Y-79931822D01*
X178466023Y-79900592D01*
X178473811Y-79896095D01*
X178531358Y-79855801D01*
X178539733Y-79845323D01*
X178532665Y-79831875D01*
X177812812Y-79112022D01*
X177798868Y-79104408D01*
X177797035Y-79104539D01*
X177790420Y-79108790D01*
X177066613Y-79832597D01*
X177060183Y-79844371D01*
X177069480Y-79856387D01*
X177126189Y-79896095D01*
X177133977Y-79900592D01*
X177182969Y-79951976D01*
X177196403Y-80021690D01*
X177170015Y-80087601D01*
X177134380Y-80118477D01*
X177130452Y-80120309D01*
X177049250Y-80177167D01*
X176943757Y-80251034D01*
X176943754Y-80251036D01*
X176939246Y-80254193D01*
X176774193Y-80419246D01*
X176771036Y-80423754D01*
X176771034Y-80423757D01*
X176664294Y-80576198D01*
X176640309Y-80610452D01*
X176637986Y-80615434D01*
X176637983Y-80615439D01*
X176564641Y-80772722D01*
X176541661Y-80822002D01*
X176540239Y-80827310D01*
X176540238Y-80827312D01*
X176500496Y-80975634D01*
X176481248Y-81047468D01*
X176460904Y-81280000D01*
X167386211Y-81280000D01*
X167379357Y-81270211D01*
X167379355Y-81270208D01*
X167376198Y-81265700D01*
X167214300Y-81103802D01*
X167209792Y-81100645D01*
X167209789Y-81100643D01*
X167126256Y-81042153D01*
X167026749Y-80972477D01*
X167021767Y-80970154D01*
X167021762Y-80970151D01*
X166987543Y-80954195D01*
X166934258Y-80907278D01*
X166914797Y-80839001D01*
X166935339Y-80771041D01*
X166987543Y-80725805D01*
X167021762Y-80709849D01*
X167021767Y-80709846D01*
X167026749Y-80707523D01*
X167158258Y-80615439D01*
X167209789Y-80579357D01*
X167209792Y-80579355D01*
X167214300Y-80576198D01*
X167376198Y-80414300D01*
X167507523Y-80226749D01*
X167509846Y-80221767D01*
X167509849Y-80221762D01*
X167601961Y-80024225D01*
X167601961Y-80024224D01*
X167604284Y-80019243D01*
X167607000Y-80009109D01*
X167662119Y-79803402D01*
X167662119Y-79803400D01*
X167663543Y-79798087D01*
X167683498Y-79570000D01*
X167663543Y-79341913D01*
X167604284Y-79120757D01*
X167598704Y-79108790D01*
X167509849Y-78918238D01*
X167509846Y-78918233D01*
X167507523Y-78913251D01*
X167390045Y-78745475D01*
X176461885Y-78745475D01*
X176481263Y-78966964D01*
X176483166Y-78977759D01*
X176540710Y-79192516D01*
X176544456Y-79202808D01*
X176638421Y-79404316D01*
X176643899Y-79413802D01*
X176684199Y-79471358D01*
X176694677Y-79479733D01*
X176708125Y-79472665D01*
X177427978Y-78752812D01*
X177434356Y-78741132D01*
X178164408Y-78741132D01*
X178164539Y-78742965D01*
X178168790Y-78749580D01*
X178892597Y-79473387D01*
X178904371Y-79479817D01*
X178916387Y-79470520D01*
X178956101Y-79413802D01*
X178961579Y-79404316D01*
X179055544Y-79202808D01*
X179059290Y-79192516D01*
X179116834Y-78977759D01*
X179118737Y-78966964D01*
X179138115Y-78745475D01*
X179138115Y-78734525D01*
X179118737Y-78513036D01*
X179116834Y-78502241D01*
X179059290Y-78287484D01*
X179055544Y-78277192D01*
X178961579Y-78075684D01*
X178956101Y-78066198D01*
X178915801Y-78008642D01*
X178905323Y-78000267D01*
X178891875Y-78007335D01*
X178172022Y-78727188D01*
X178164408Y-78741132D01*
X177434356Y-78741132D01*
X177435592Y-78738868D01*
X177435461Y-78737035D01*
X177431210Y-78730420D01*
X176707403Y-78006613D01*
X176695629Y-78000183D01*
X176683613Y-78009480D01*
X176643899Y-78066198D01*
X176638421Y-78075684D01*
X176544456Y-78277192D01*
X176540710Y-78287484D01*
X176483166Y-78502241D01*
X176481263Y-78513036D01*
X176461885Y-78734525D01*
X176461885Y-78745475D01*
X167390045Y-78745475D01*
X167387004Y-78741132D01*
X167379357Y-78730211D01*
X167379355Y-78730208D01*
X167376198Y-78725700D01*
X167214300Y-78563802D01*
X167209792Y-78560645D01*
X167209789Y-78560643D01*
X167126382Y-78502241D01*
X167026749Y-78432477D01*
X167021767Y-78430154D01*
X167021762Y-78430151D01*
X166987543Y-78414195D01*
X166934258Y-78367278D01*
X166914797Y-78299001D01*
X166935339Y-78231041D01*
X166987543Y-78185805D01*
X167021762Y-78169849D01*
X167021767Y-78169846D01*
X167026749Y-78167523D01*
X167171456Y-78066198D01*
X167209789Y-78039357D01*
X167209792Y-78039355D01*
X167214300Y-78036198D01*
X167376198Y-77874300D01*
X167391625Y-77852269D01*
X167504366Y-77691257D01*
X167507523Y-77686749D01*
X167509846Y-77681767D01*
X167509849Y-77681762D01*
X167531805Y-77634677D01*
X177060267Y-77634677D01*
X177067335Y-77648125D01*
X177787188Y-78367978D01*
X177801132Y-78375592D01*
X177802965Y-78375461D01*
X177809580Y-78371210D01*
X178533387Y-77647403D01*
X178539817Y-77635629D01*
X178530520Y-77623613D01*
X178473802Y-77583899D01*
X178464316Y-77578421D01*
X178262808Y-77484456D01*
X178252516Y-77480710D01*
X178037759Y-77423166D01*
X178026964Y-77421263D01*
X177805475Y-77401885D01*
X177794525Y-77401885D01*
X177573036Y-77421263D01*
X177562241Y-77423166D01*
X177347484Y-77480710D01*
X177337192Y-77484456D01*
X177135684Y-77578421D01*
X177126198Y-77583899D01*
X177068642Y-77624199D01*
X177060267Y-77634677D01*
X167531805Y-77634677D01*
X167601961Y-77484225D01*
X167601961Y-77484224D01*
X167604284Y-77479243D01*
X167625249Y-77401003D01*
X167662119Y-77263402D01*
X167662119Y-77263400D01*
X167663543Y-77258087D01*
X167683498Y-77030000D01*
X167663543Y-76801913D01*
X167614670Y-76619516D01*
X167605707Y-76586067D01*
X167605706Y-76586065D01*
X167604284Y-76580757D01*
X167593362Y-76557334D01*
X167509849Y-76378238D01*
X167509846Y-76378233D01*
X167507523Y-76373251D01*
X167434098Y-76268389D01*
X167379357Y-76190211D01*
X167379355Y-76190208D01*
X167376198Y-76185700D01*
X167214300Y-76023802D01*
X167209792Y-76020645D01*
X167209789Y-76020643D01*
X167070834Y-75923346D01*
X167026749Y-75892477D01*
X167021767Y-75890154D01*
X167021762Y-75890151D01*
X166987543Y-75874195D01*
X166934258Y-75827278D01*
X166914797Y-75759001D01*
X166935339Y-75691041D01*
X166987543Y-75645805D01*
X167021762Y-75629849D01*
X167021767Y-75629846D01*
X167026749Y-75627523D01*
X167131611Y-75554098D01*
X167209789Y-75499357D01*
X167209792Y-75499355D01*
X167214300Y-75496198D01*
X167376198Y-75334300D01*
X167507523Y-75146749D01*
X167509846Y-75141767D01*
X167509849Y-75141762D01*
X167601961Y-74944225D01*
X167601961Y-74944224D01*
X167604284Y-74939243D01*
X167641894Y-74798884D01*
X167662119Y-74723402D01*
X167662119Y-74723400D01*
X167663543Y-74718087D01*
X167683498Y-74490000D01*
X167663543Y-74261913D01*
X167659225Y-74245797D01*
X167605707Y-74046067D01*
X167605706Y-74046065D01*
X167604284Y-74040757D01*
X167564494Y-73955426D01*
X167509849Y-73838238D01*
X167509846Y-73838233D01*
X167507523Y-73833251D01*
X167386211Y-73660000D01*
X169186654Y-73660000D01*
X169206017Y-73955426D01*
X169206819Y-73959459D01*
X169206820Y-73959465D01*
X169262970Y-74241747D01*
X169263776Y-74245797D01*
X169265103Y-74249706D01*
X169265104Y-74249710D01*
X169337836Y-74463971D01*
X169358941Y-74526145D01*
X169489885Y-74791673D01*
X169654367Y-75037838D01*
X169657081Y-75040932D01*
X169657085Y-75040938D01*
X169753833Y-75151257D01*
X169849573Y-75260427D01*
X169852662Y-75263136D01*
X170069062Y-75452915D01*
X170069068Y-75452919D01*
X170072162Y-75455633D01*
X170075588Y-75457922D01*
X170075593Y-75457926D01*
X170259405Y-75580744D01*
X170318327Y-75620115D01*
X170322026Y-75621939D01*
X170322031Y-75621942D01*
X170370421Y-75645805D01*
X170583855Y-75751059D01*
X170587760Y-75752384D01*
X170587761Y-75752385D01*
X170860290Y-75844896D01*
X170860294Y-75844897D01*
X170864203Y-75846224D01*
X170868247Y-75847028D01*
X170868253Y-75847030D01*
X171150535Y-75903180D01*
X171150541Y-75903181D01*
X171154574Y-75903983D01*
X171158679Y-75904252D01*
X171158686Y-75904253D01*
X171445881Y-75923076D01*
X171450000Y-75923346D01*
X171454119Y-75923076D01*
X171741314Y-75904253D01*
X171741321Y-75904252D01*
X171745426Y-75903983D01*
X171749459Y-75903181D01*
X171749465Y-75903180D01*
X172031747Y-75847030D01*
X172031753Y-75847028D01*
X172035797Y-75846224D01*
X172039706Y-75844897D01*
X172039710Y-75844896D01*
X172312239Y-75752385D01*
X172312240Y-75752384D01*
X172316145Y-75751059D01*
X172529579Y-75645805D01*
X172577969Y-75621942D01*
X172577974Y-75621939D01*
X172581673Y-75620115D01*
X172640595Y-75580744D01*
X172824407Y-75457926D01*
X172824412Y-75457922D01*
X172827838Y-75455633D01*
X172830932Y-75452919D01*
X172830938Y-75452915D01*
X173047338Y-75263136D01*
X173050427Y-75260427D01*
X173146167Y-75151257D01*
X173242915Y-75040938D01*
X173242919Y-75040932D01*
X173245633Y-75037838D01*
X173410115Y-74791673D01*
X173541059Y-74526145D01*
X173562164Y-74463971D01*
X173634896Y-74249710D01*
X173634897Y-74249706D01*
X173636224Y-74245797D01*
X173637030Y-74241747D01*
X173693180Y-73959465D01*
X173693181Y-73959459D01*
X173693983Y-73955426D01*
X173713346Y-73660000D01*
X173701798Y-73483802D01*
X173694253Y-73368686D01*
X173694252Y-73368679D01*
X173693983Y-73364574D01*
X173687941Y-73334195D01*
X173637030Y-73078253D01*
X173637028Y-73078247D01*
X173636224Y-73074203D01*
X173541059Y-72793855D01*
X173451012Y-72611257D01*
X173411942Y-72532031D01*
X173411939Y-72532026D01*
X173410115Y-72528327D01*
X173245633Y-72282162D01*
X173242919Y-72279068D01*
X173242915Y-72279062D01*
X173053136Y-72062662D01*
X173050427Y-72059573D01*
X173047338Y-72056864D01*
X172830938Y-71867085D01*
X172830932Y-71867081D01*
X172827838Y-71864367D01*
X172824412Y-71862078D01*
X172824407Y-71862074D01*
X172585106Y-71702179D01*
X172581673Y-71699885D01*
X172577974Y-71698061D01*
X172577969Y-71698058D01*
X172441687Y-71630852D01*
X172316145Y-71568941D01*
X172115281Y-71500757D01*
X172039710Y-71475104D01*
X172039706Y-71475103D01*
X172035797Y-71473776D01*
X172031753Y-71472972D01*
X172031747Y-71472970D01*
X171749465Y-71416820D01*
X171749459Y-71416819D01*
X171745426Y-71416017D01*
X171741321Y-71415748D01*
X171741314Y-71415747D01*
X171454119Y-71396924D01*
X171450000Y-71396654D01*
X171445881Y-71396924D01*
X171158686Y-71415747D01*
X171158679Y-71415748D01*
X171154574Y-71416017D01*
X171150541Y-71416819D01*
X171150535Y-71416820D01*
X170868253Y-71472970D01*
X170868247Y-71472972D01*
X170864203Y-71473776D01*
X170860294Y-71475103D01*
X170860290Y-71475104D01*
X170784719Y-71500757D01*
X170583855Y-71568941D01*
X170458313Y-71630852D01*
X170322031Y-71698058D01*
X170322026Y-71698061D01*
X170318327Y-71699885D01*
X170314894Y-71702179D01*
X170075593Y-71862074D01*
X170075588Y-71862078D01*
X170072162Y-71864367D01*
X170069068Y-71867081D01*
X170069062Y-71867085D01*
X169852662Y-72056864D01*
X169849573Y-72059573D01*
X169846864Y-72062662D01*
X169657085Y-72279062D01*
X169657081Y-72279068D01*
X169654367Y-72282162D01*
X169489885Y-72528327D01*
X169488061Y-72532026D01*
X169488058Y-72532031D01*
X169448988Y-72611257D01*
X169358941Y-72793855D01*
X169263776Y-73074203D01*
X169262972Y-73078247D01*
X169262970Y-73078253D01*
X169212060Y-73334195D01*
X169206017Y-73364574D01*
X169205748Y-73368679D01*
X169205747Y-73368686D01*
X169198202Y-73483802D01*
X169186654Y-73660000D01*
X167386211Y-73660000D01*
X167376198Y-73645700D01*
X167214300Y-73483802D01*
X167209792Y-73480645D01*
X167209789Y-73480643D01*
X167131611Y-73425902D01*
X167026749Y-73352477D01*
X167021767Y-73350154D01*
X167021762Y-73350151D01*
X166987543Y-73334195D01*
X166934258Y-73287278D01*
X166914797Y-73219001D01*
X166935339Y-73151041D01*
X166987543Y-73105805D01*
X167021762Y-73089849D01*
X167021767Y-73089846D01*
X167026749Y-73087523D01*
X167131611Y-73014098D01*
X167209789Y-72959357D01*
X167209792Y-72959355D01*
X167214300Y-72956198D01*
X167376198Y-72794300D01*
X167507523Y-72606749D01*
X167509846Y-72601767D01*
X167509849Y-72601762D01*
X167601961Y-72404225D01*
X167601961Y-72404224D01*
X167604284Y-72399243D01*
X167663543Y-72178087D01*
X167683498Y-71950000D01*
X167663543Y-71721913D01*
X167604284Y-71500757D01*
X167565144Y-71416820D01*
X167509849Y-71298238D01*
X167509846Y-71298233D01*
X167507523Y-71293251D01*
X167376198Y-71105700D01*
X167214300Y-70943802D01*
X167209792Y-70940645D01*
X167209789Y-70940643D01*
X167131611Y-70885902D01*
X167026749Y-70812477D01*
X167021767Y-70810154D01*
X167021762Y-70810151D01*
X166986951Y-70793919D01*
X166933666Y-70747002D01*
X166914205Y-70678725D01*
X166934747Y-70610765D01*
X166986951Y-70565529D01*
X167021511Y-70549414D01*
X167031006Y-70543931D01*
X167083048Y-70507491D01*
X167091424Y-70497012D01*
X167084356Y-70483566D01*
X166382812Y-69782022D01*
X166368868Y-69774408D01*
X166367035Y-69774539D01*
X166360420Y-69778790D01*
X165654923Y-70484287D01*
X165648493Y-70496062D01*
X165657789Y-70508077D01*
X165708994Y-70543931D01*
X165718489Y-70549414D01*
X165753049Y-70565529D01*
X165806334Y-70612446D01*
X165825795Y-70680723D01*
X165805253Y-70748683D01*
X165753049Y-70793919D01*
X165718238Y-70810151D01*
X165718233Y-70810154D01*
X165713251Y-70812477D01*
X165608389Y-70885902D01*
X165530211Y-70940643D01*
X165530208Y-70940645D01*
X165525700Y-70943802D01*
X165363802Y-71105700D01*
X165232477Y-71293251D01*
X165230154Y-71298233D01*
X165230151Y-71298238D01*
X165214195Y-71332457D01*
X165167278Y-71385742D01*
X165099001Y-71405203D01*
X165031041Y-71384661D01*
X164985805Y-71332457D01*
X164969849Y-71298238D01*
X164969846Y-71298233D01*
X164967523Y-71293251D01*
X164836198Y-71105700D01*
X164674300Y-70943802D01*
X164669792Y-70940645D01*
X164669789Y-70940643D01*
X164591611Y-70885902D01*
X164486749Y-70812477D01*
X164481767Y-70810154D01*
X164481762Y-70810151D01*
X164284225Y-70718039D01*
X164284224Y-70718039D01*
X164279243Y-70715716D01*
X164273935Y-70714294D01*
X164273933Y-70714293D01*
X164063402Y-70657881D01*
X164063400Y-70657881D01*
X164058087Y-70656457D01*
X163830000Y-70636502D01*
X163601913Y-70656457D01*
X163596600Y-70657881D01*
X163596598Y-70657881D01*
X163386067Y-70714293D01*
X163386065Y-70714294D01*
X163380757Y-70715716D01*
X163375776Y-70718039D01*
X163375775Y-70718039D01*
X163178238Y-70810151D01*
X163178233Y-70810154D01*
X163173251Y-70812477D01*
X163068389Y-70885902D01*
X162990211Y-70940643D01*
X162990208Y-70940645D01*
X162985700Y-70943802D01*
X162823802Y-71105700D01*
X162692477Y-71293251D01*
X162690154Y-71298233D01*
X162690151Y-71298238D01*
X162634856Y-71416820D01*
X162595716Y-71500757D01*
X162536457Y-71721913D01*
X162516502Y-71950000D01*
X162536457Y-72178087D01*
X162595716Y-72399243D01*
X162598039Y-72404224D01*
X162598039Y-72404225D01*
X162690151Y-72601762D01*
X162690154Y-72601767D01*
X162692477Y-72606749D01*
X162823802Y-72794300D01*
X162985700Y-72956198D01*
X162990208Y-72959355D01*
X162990211Y-72959357D01*
X163068389Y-73014098D01*
X163173251Y-73087523D01*
X163178233Y-73089846D01*
X163178238Y-73089849D01*
X163375775Y-73181961D01*
X163380757Y-73184284D01*
X163386065Y-73185706D01*
X163386067Y-73185707D01*
X163596598Y-73242119D01*
X163596600Y-73242119D01*
X163601913Y-73243543D01*
X163830000Y-73263498D01*
X164058087Y-73243543D01*
X164063400Y-73242119D01*
X164063402Y-73242119D01*
X164273933Y-73185707D01*
X164273935Y-73185706D01*
X164279243Y-73184284D01*
X164284225Y-73181961D01*
X164481762Y-73089849D01*
X164481767Y-73089846D01*
X164486749Y-73087523D01*
X164591611Y-73014098D01*
X164669789Y-72959357D01*
X164669792Y-72959355D01*
X164674300Y-72956198D01*
X164836198Y-72794300D01*
X164967523Y-72606749D01*
X164969846Y-72601767D01*
X164969849Y-72601762D01*
X164985805Y-72567543D01*
X165032722Y-72514258D01*
X165100999Y-72494797D01*
X165168959Y-72515339D01*
X165214195Y-72567543D01*
X165230151Y-72601762D01*
X165230154Y-72601767D01*
X165232477Y-72606749D01*
X165363802Y-72794300D01*
X165525700Y-72956198D01*
X165530208Y-72959355D01*
X165530211Y-72959357D01*
X165608389Y-73014098D01*
X165713251Y-73087523D01*
X165718233Y-73089846D01*
X165718238Y-73089849D01*
X165752457Y-73105805D01*
X165805742Y-73152722D01*
X165825203Y-73220999D01*
X165804661Y-73288959D01*
X165752457Y-73334195D01*
X165718238Y-73350151D01*
X165718233Y-73350154D01*
X165713251Y-73352477D01*
X165608389Y-73425902D01*
X165530211Y-73480643D01*
X165530208Y-73480645D01*
X165525700Y-73483802D01*
X165363802Y-73645700D01*
X165232477Y-73833251D01*
X165230154Y-73838233D01*
X165230151Y-73838238D01*
X165175506Y-73955426D01*
X165135716Y-74040757D01*
X165134294Y-74046065D01*
X165134293Y-74046067D01*
X165080775Y-74245797D01*
X165076457Y-74261913D01*
X165056502Y-74490000D01*
X165076457Y-74718087D01*
X165077881Y-74723400D01*
X165077881Y-74723402D01*
X165098107Y-74798884D01*
X165135716Y-74939243D01*
X165138039Y-74944224D01*
X165138039Y-74944225D01*
X165230151Y-75141762D01*
X165230154Y-75141767D01*
X165232477Y-75146749D01*
X165363802Y-75334300D01*
X165525700Y-75496198D01*
X165530208Y-75499355D01*
X165530211Y-75499357D01*
X165608389Y-75554098D01*
X165713251Y-75627523D01*
X165718233Y-75629846D01*
X165718238Y-75629849D01*
X165752457Y-75645805D01*
X165805742Y-75692722D01*
X165825203Y-75760999D01*
X165804661Y-75828959D01*
X165752457Y-75874195D01*
X165718238Y-75890151D01*
X165718233Y-75890154D01*
X165713251Y-75892477D01*
X165669166Y-75923346D01*
X165530211Y-76020643D01*
X165530208Y-76020645D01*
X165525700Y-76023802D01*
X165363802Y-76185700D01*
X165360645Y-76190208D01*
X165360643Y-76190211D01*
X165305902Y-76268389D01*
X165232477Y-76373251D01*
X165230154Y-76378233D01*
X165230151Y-76378238D01*
X165146638Y-76557334D01*
X165135716Y-76580757D01*
X165134294Y-76586065D01*
X165134293Y-76586067D01*
X165125330Y-76619516D01*
X165076457Y-76801913D01*
X165056502Y-77030000D01*
X165076457Y-77258087D01*
X165077881Y-77263400D01*
X165077881Y-77263402D01*
X165114752Y-77401003D01*
X165135716Y-77479243D01*
X165138039Y-77484224D01*
X165138039Y-77484225D01*
X165230151Y-77681762D01*
X165230154Y-77681767D01*
X165232477Y-77686749D01*
X165235634Y-77691257D01*
X165348376Y-77852269D01*
X165363802Y-77874300D01*
X165525700Y-78036198D01*
X165530208Y-78039355D01*
X165530211Y-78039357D01*
X165568544Y-78066198D01*
X165713251Y-78167523D01*
X165718233Y-78169846D01*
X165718238Y-78169849D01*
X165752457Y-78185805D01*
X165805742Y-78232722D01*
X165825203Y-78300999D01*
X165804661Y-78368959D01*
X165752457Y-78414195D01*
X165718238Y-78430151D01*
X165718233Y-78430154D01*
X165713251Y-78432477D01*
X165613618Y-78502241D01*
X165530211Y-78560643D01*
X165530208Y-78560645D01*
X165525700Y-78563802D01*
X165363802Y-78725700D01*
X165360645Y-78730208D01*
X165360643Y-78730211D01*
X165352996Y-78741132D01*
X165232477Y-78913251D01*
X165230154Y-78918233D01*
X165230151Y-78918238D01*
X165141296Y-79108790D01*
X165135716Y-79120757D01*
X165076457Y-79341913D01*
X165056502Y-79570000D01*
X165076457Y-79798087D01*
X165077881Y-79803400D01*
X165077881Y-79803402D01*
X165133001Y-80009109D01*
X165135716Y-80019243D01*
X165138039Y-80024224D01*
X165138039Y-80024225D01*
X165230151Y-80221762D01*
X165230154Y-80221767D01*
X165232477Y-80226749D01*
X165363802Y-80414300D01*
X165525700Y-80576198D01*
X165530208Y-80579355D01*
X165530211Y-80579357D01*
X165581742Y-80615439D01*
X165713251Y-80707523D01*
X165718233Y-80709846D01*
X165718238Y-80709849D01*
X165752457Y-80725805D01*
X165805742Y-80772722D01*
X165825203Y-80840999D01*
X165804661Y-80908959D01*
X165752457Y-80954195D01*
X165718238Y-80970151D01*
X165718233Y-80970154D01*
X165713251Y-80972477D01*
X165613744Y-81042153D01*
X165530211Y-81100643D01*
X165530208Y-81100645D01*
X165525700Y-81103802D01*
X165363802Y-81265700D01*
X165360645Y-81270208D01*
X165360643Y-81270211D01*
X165309433Y-81343347D01*
X165232477Y-81453251D01*
X165230905Y-81456623D01*
X165179921Y-81505236D01*
X165110207Y-81518672D01*
X165044296Y-81492286D01*
X165021358Y-81468808D01*
X164950243Y-81373920D01*
X164950242Y-81373919D01*
X164944861Y-81366739D01*
X164828305Y-81279385D01*
X164691916Y-81228255D01*
X164629734Y-81221500D01*
X163233466Y-81221500D01*
X163171284Y-81228255D01*
X163034895Y-81279385D01*
X162918339Y-81366739D01*
X162851260Y-81456243D01*
X162848204Y-81460320D01*
X162791345Y-81502835D01*
X162720526Y-81507861D01*
X162661850Y-81477280D01*
X162644117Y-81460888D01*
X162644118Y-81460888D01*
X162639871Y-81456963D01*
X162459801Y-81343347D01*
X162262041Y-81264449D01*
X162256381Y-81263323D01*
X162256377Y-81263322D01*
X162058882Y-81224038D01*
X162058880Y-81224038D01*
X162053215Y-81222911D01*
X162047440Y-81222835D01*
X162047436Y-81222835D01*
X161940761Y-81221439D01*
X161840316Y-81220124D01*
X161834619Y-81221103D01*
X161834618Y-81221103D01*
X161636164Y-81255203D01*
X161636161Y-81255204D01*
X161630474Y-81256181D01*
X161430716Y-81329875D01*
X161247734Y-81438739D01*
X161087654Y-81579125D01*
X161084083Y-81583655D01*
X161084082Y-81583656D01*
X161031071Y-81650900D01*
X160973190Y-81692013D01*
X160902270Y-81695307D01*
X160840827Y-81659735D01*
X160831163Y-81648283D01*
X160799674Y-81606114D01*
X160796222Y-81601491D01*
X160639871Y-81456963D01*
X160459801Y-81343347D01*
X160262041Y-81264449D01*
X160256381Y-81263323D01*
X160256377Y-81263322D01*
X160058882Y-81224038D01*
X160058880Y-81224038D01*
X160053215Y-81222911D01*
X160047440Y-81222835D01*
X160047436Y-81222835D01*
X159940761Y-81221439D01*
X159840316Y-81220124D01*
X159834619Y-81221103D01*
X159834618Y-81221103D01*
X159636164Y-81255203D01*
X159636161Y-81255204D01*
X159630474Y-81256181D01*
X159430716Y-81329875D01*
X159247734Y-81438739D01*
X159087654Y-81579125D01*
X158955838Y-81746333D01*
X158953149Y-81751444D01*
X158953147Y-81751447D01*
X158930023Y-81795398D01*
X158856700Y-81934762D01*
X158854986Y-81940283D01*
X158854984Y-81940287D01*
X158806971Y-82094916D01*
X158793561Y-82138102D01*
X158768536Y-82349544D01*
X158782461Y-82562006D01*
X158783882Y-82567602D01*
X158783883Y-82567607D01*
X158809366Y-82667943D01*
X158834872Y-82768372D01*
X158837289Y-82773615D01*
X158916936Y-82946383D01*
X158924011Y-82961731D01*
X159046896Y-83135609D01*
X159119548Y-83206384D01*
X159180546Y-83265805D01*
X159199409Y-83284181D01*
X159201077Y-83285295D01*
X159240736Y-83342699D01*
X159243106Y-83413656D01*
X159204171Y-83476943D01*
X159087654Y-83579125D01*
X158955838Y-83746333D01*
X158953149Y-83751444D01*
X158953147Y-83751447D01*
X158924603Y-83805700D01*
X158856700Y-83934762D01*
X158854986Y-83940283D01*
X158854984Y-83940287D01*
X158836990Y-83998238D01*
X158793561Y-84138102D01*
X158768536Y-84349544D01*
X158782461Y-84562006D01*
X158783882Y-84567602D01*
X158783883Y-84567607D01*
X158826354Y-84734834D01*
X158834872Y-84768372D01*
X158837289Y-84773615D01*
X158873989Y-84853223D01*
X158924011Y-84961731D01*
X159046896Y-85135609D01*
X159199409Y-85284181D01*
X159204205Y-85287386D01*
X159204208Y-85287388D01*
X159233184Y-85306749D01*
X159376443Y-85402471D01*
X159381746Y-85404749D01*
X159381749Y-85404751D01*
X159484863Y-85449052D01*
X159572070Y-85486519D01*
X159623680Y-85498197D01*
X159774101Y-85532234D01*
X159774106Y-85532235D01*
X159779738Y-85533509D01*
X159785509Y-85533736D01*
X159785511Y-85533736D01*
X159846852Y-85536146D01*
X159992491Y-85541869D01*
X159998200Y-85541041D01*
X159998204Y-85541041D01*
X160197490Y-85512145D01*
X160197494Y-85512144D01*
X160203205Y-85511316D01*
X160404823Y-85442876D01*
X160590593Y-85338840D01*
X160754293Y-85202693D01*
X160800408Y-85147245D01*
X160833108Y-85107928D01*
X160892045Y-85068344D01*
X160963027Y-85066907D01*
X161023518Y-85104075D01*
X161032878Y-85115775D01*
X161043562Y-85130892D01*
X161046896Y-85135609D01*
X161199409Y-85284181D01*
X161204205Y-85287386D01*
X161204208Y-85287388D01*
X161233184Y-85306749D01*
X161376443Y-85402471D01*
X161381746Y-85404749D01*
X161381749Y-85404751D01*
X161484863Y-85449052D01*
X161572070Y-85486519D01*
X161623680Y-85498197D01*
X161774101Y-85532234D01*
X161774106Y-85532235D01*
X161779738Y-85533509D01*
X161785509Y-85533736D01*
X161785511Y-85533736D01*
X161846852Y-85536146D01*
X161992491Y-85541869D01*
X161998200Y-85541041D01*
X161998204Y-85541041D01*
X162197490Y-85512145D01*
X162197494Y-85512144D01*
X162203205Y-85511316D01*
X162404823Y-85442876D01*
X162590593Y-85338840D01*
X162754293Y-85202693D01*
X162800408Y-85147245D01*
X162833108Y-85107928D01*
X162892045Y-85068344D01*
X162963027Y-85066907D01*
X163023518Y-85104075D01*
X163032878Y-85115775D01*
X163043562Y-85130892D01*
X163046896Y-85135609D01*
X163199409Y-85284181D01*
X163204205Y-85287386D01*
X163204208Y-85287388D01*
X163233184Y-85306749D01*
X163376443Y-85402471D01*
X163381746Y-85404749D01*
X163381749Y-85404751D01*
X163484863Y-85449052D01*
X163572070Y-85486519D01*
X163623680Y-85498197D01*
X163774101Y-85532234D01*
X163774106Y-85532235D01*
X163779738Y-85533509D01*
X163785509Y-85533736D01*
X163785511Y-85533736D01*
X163846852Y-85536146D01*
X163992491Y-85541869D01*
X163998200Y-85541041D01*
X163998204Y-85541041D01*
X164197490Y-85512145D01*
X164197494Y-85512144D01*
X164203205Y-85511316D01*
X164404823Y-85442876D01*
X164590593Y-85338840D01*
X164754293Y-85202693D01*
X164829111Y-85112733D01*
X164886749Y-85043431D01*
X164890440Y-85038993D01*
X164893990Y-85032654D01*
X164894498Y-85032157D01*
X164896537Y-85029190D01*
X164897120Y-85029591D01*
X164944727Y-84982992D01*
X165014259Y-84968644D01*
X165080510Y-84994166D01*
X165122445Y-85051454D01*
X165125632Y-85061607D01*
X165135716Y-85099243D01*
X165138039Y-85104224D01*
X165138039Y-85104225D01*
X165230151Y-85301762D01*
X165230154Y-85301767D01*
X165232477Y-85306749D01*
X165292489Y-85392455D01*
X165358354Y-85486519D01*
X165363802Y-85494300D01*
X165525700Y-85656198D01*
X165530208Y-85659355D01*
X165530211Y-85659357D01*
X165608389Y-85714098D01*
X165713251Y-85787523D01*
X165718233Y-85789846D01*
X165718238Y-85789849D01*
X165752457Y-85805805D01*
X165805742Y-85852722D01*
X165825203Y-85920999D01*
X165804661Y-85988959D01*
X165752457Y-86034195D01*
X165718238Y-86050151D01*
X165718233Y-86050154D01*
X165713251Y-86052477D01*
X165608389Y-86125902D01*
X165530211Y-86180643D01*
X165530208Y-86180645D01*
X165525700Y-86183802D01*
X165363802Y-86345700D01*
X165232477Y-86533251D01*
X165230154Y-86538233D01*
X165230151Y-86538238D01*
X165148426Y-86713500D01*
X165135716Y-86740757D01*
X165076457Y-86961913D01*
X165056502Y-87190000D01*
X165076457Y-87418087D01*
X165135716Y-87639243D01*
X165138039Y-87644224D01*
X165138039Y-87644225D01*
X165230151Y-87841762D01*
X165230154Y-87841767D01*
X165232477Y-87846749D01*
X165363802Y-88034300D01*
X165525700Y-88196198D01*
X165530208Y-88199355D01*
X165530211Y-88199357D01*
X165608389Y-88254098D01*
X165713251Y-88327523D01*
X165718233Y-88329846D01*
X165718238Y-88329849D01*
X165752457Y-88345805D01*
X165805742Y-88392722D01*
X165825203Y-88460999D01*
X165804661Y-88528959D01*
X165752457Y-88574195D01*
X165718238Y-88590151D01*
X165718233Y-88590154D01*
X165713251Y-88592477D01*
X165609829Y-88664894D01*
X165530211Y-88720643D01*
X165530208Y-88720645D01*
X165525700Y-88723802D01*
X165363802Y-88885700D01*
X165232477Y-89073251D01*
X165230154Y-89078233D01*
X165230151Y-89078238D01*
X165156374Y-89236455D01*
X165135716Y-89280757D01*
X165134294Y-89286065D01*
X165134293Y-89286067D01*
X165100000Y-89414050D01*
X165076457Y-89501913D01*
X165056502Y-89730000D01*
X165076457Y-89958087D01*
X165077881Y-89963400D01*
X165077881Y-89963402D01*
X165104995Y-90064590D01*
X165135716Y-90179243D01*
X165138039Y-90184224D01*
X165138039Y-90184225D01*
X165230151Y-90381762D01*
X165230154Y-90381767D01*
X165232477Y-90386749D01*
X165235634Y-90391257D01*
X165335577Y-90533990D01*
X165363802Y-90574300D01*
X165525700Y-90736198D01*
X165530208Y-90739355D01*
X165530211Y-90739357D01*
X165585606Y-90778145D01*
X165713251Y-90867523D01*
X165718233Y-90869846D01*
X165718238Y-90869849D01*
X165752457Y-90885805D01*
X165805742Y-90932722D01*
X165825203Y-91000999D01*
X165804661Y-91068959D01*
X165752457Y-91114195D01*
X165718238Y-91130151D01*
X165718233Y-91130154D01*
X165713251Y-91132477D01*
X165680808Y-91155194D01*
X165530211Y-91260643D01*
X165530208Y-91260645D01*
X165525700Y-91263802D01*
X165363802Y-91425700D01*
X165232477Y-91613251D01*
X165230154Y-91618233D01*
X165230151Y-91618238D01*
X165188856Y-91706797D01*
X165135716Y-91820757D01*
X165134294Y-91826065D01*
X165134293Y-91826067D01*
X165077881Y-92036598D01*
X165076457Y-92041913D01*
X165056502Y-92270000D01*
X165076457Y-92498087D01*
X165077881Y-92503400D01*
X165077881Y-92503402D01*
X165097092Y-92575096D01*
X165135716Y-92719243D01*
X165138039Y-92724224D01*
X165138039Y-92724225D01*
X165230151Y-92921762D01*
X165230154Y-92921767D01*
X165232477Y-92926749D01*
X165363802Y-93114300D01*
X165525700Y-93276198D01*
X165530208Y-93279355D01*
X165530211Y-93279357D01*
X165547899Y-93291742D01*
X165713251Y-93407523D01*
X165718233Y-93409846D01*
X165718238Y-93409849D01*
X165752457Y-93425805D01*
X165805742Y-93472722D01*
X165825203Y-93540999D01*
X165804661Y-93608959D01*
X165752457Y-93654195D01*
X165718238Y-93670151D01*
X165718233Y-93670154D01*
X165713251Y-93672477D01*
X165651735Y-93715551D01*
X165530211Y-93800643D01*
X165530208Y-93800645D01*
X165525700Y-93803802D01*
X165363802Y-93965700D01*
X165232477Y-94153251D01*
X165230154Y-94158233D01*
X165230151Y-94158238D01*
X165163120Y-94301989D01*
X165135716Y-94360757D01*
X165134294Y-94366065D01*
X165134293Y-94366067D01*
X165077881Y-94576598D01*
X165076457Y-94581913D01*
X165056502Y-94810000D01*
X165076457Y-95038087D01*
X165077881Y-95043400D01*
X165077881Y-95043402D01*
X165132792Y-95248329D01*
X165135716Y-95259243D01*
X165138039Y-95264224D01*
X165138039Y-95264225D01*
X165230151Y-95461762D01*
X165230154Y-95461767D01*
X165232477Y-95466749D01*
X165272434Y-95523813D01*
X165343511Y-95625321D01*
X165363802Y-95654300D01*
X165525700Y-95816198D01*
X165530208Y-95819355D01*
X165530211Y-95819357D01*
X165547899Y-95831742D01*
X165713251Y-95947523D01*
X165718233Y-95949846D01*
X165718238Y-95949849D01*
X165752457Y-95965805D01*
X165805742Y-96012722D01*
X165825203Y-96080999D01*
X165804661Y-96148959D01*
X165752457Y-96194195D01*
X165718238Y-96210151D01*
X165718233Y-96210154D01*
X165713251Y-96212477D01*
X165636587Y-96266158D01*
X165530211Y-96340643D01*
X165530208Y-96340645D01*
X165525700Y-96343802D01*
X165363802Y-96505700D01*
X165360645Y-96510208D01*
X165360643Y-96510211D01*
X165336555Y-96544612D01*
X165232477Y-96693251D01*
X165230154Y-96698233D01*
X165230151Y-96698238D01*
X165176543Y-96813202D01*
X165135716Y-96900757D01*
X165134294Y-96906065D01*
X165134293Y-96906067D01*
X165086780Y-97083387D01*
X165076457Y-97121913D01*
X165056502Y-97350000D01*
X165076457Y-97578087D01*
X165077881Y-97583400D01*
X165077881Y-97583402D01*
X165132341Y-97786646D01*
X165135716Y-97799243D01*
X165138039Y-97804224D01*
X165138039Y-97804225D01*
X165230151Y-98001762D01*
X165230154Y-98001767D01*
X165232477Y-98006749D01*
X165363802Y-98194300D01*
X165525700Y-98356198D01*
X165530208Y-98359355D01*
X165530211Y-98359357D01*
X165547899Y-98371742D01*
X165713251Y-98487523D01*
X165718233Y-98489846D01*
X165718238Y-98489849D01*
X165752457Y-98505805D01*
X165805742Y-98552722D01*
X165825203Y-98620999D01*
X165804661Y-98688959D01*
X165752457Y-98734195D01*
X165718238Y-98750151D01*
X165718233Y-98750154D01*
X165713251Y-98752477D01*
X165636587Y-98806158D01*
X165530211Y-98880643D01*
X165530208Y-98880645D01*
X165525700Y-98883802D01*
X165363802Y-99045700D01*
X165360645Y-99050208D01*
X165360643Y-99050211D01*
X165336555Y-99084612D01*
X165232477Y-99233251D01*
X165230154Y-99238233D01*
X165230151Y-99238238D01*
X165165382Y-99377138D01*
X165135716Y-99440757D01*
X165134294Y-99446065D01*
X165134293Y-99446067D01*
X165086780Y-99623387D01*
X165076457Y-99661913D01*
X165056502Y-99890000D01*
X165076457Y-100118087D01*
X165077881Y-100123400D01*
X165077881Y-100123402D01*
X165132341Y-100326646D01*
X165135716Y-100339243D01*
X165138039Y-100344224D01*
X165138039Y-100344225D01*
X165230151Y-100541762D01*
X165230154Y-100541767D01*
X165232477Y-100546749D01*
X165363802Y-100734300D01*
X165525700Y-100896198D01*
X165530208Y-100899355D01*
X165530211Y-100899357D01*
X165558239Y-100918982D01*
X165713251Y-101027523D01*
X165718233Y-101029846D01*
X165718238Y-101029849D01*
X165752457Y-101045805D01*
X165805742Y-101092722D01*
X165825203Y-101160999D01*
X165804661Y-101228959D01*
X165752457Y-101274195D01*
X165718238Y-101290151D01*
X165718233Y-101290154D01*
X165713251Y-101292477D01*
X165640427Y-101343469D01*
X165530211Y-101420643D01*
X165530208Y-101420645D01*
X165525700Y-101423802D01*
X165363802Y-101585700D01*
X165360645Y-101590208D01*
X165360643Y-101590211D01*
X165336555Y-101624612D01*
X165232477Y-101773251D01*
X165230154Y-101778233D01*
X165230151Y-101778238D01*
X165176543Y-101893202D01*
X165135716Y-101980757D01*
X165134294Y-101986065D01*
X165134293Y-101986067D01*
X165077881Y-102196598D01*
X165076457Y-102201913D01*
X165056502Y-102430000D01*
X165076457Y-102658087D01*
X165077881Y-102663400D01*
X165077881Y-102663402D01*
X165132341Y-102866646D01*
X165135716Y-102879243D01*
X165138039Y-102884224D01*
X165138039Y-102884225D01*
X165230151Y-103081762D01*
X165230154Y-103081767D01*
X165232477Y-103086749D01*
X165363802Y-103274300D01*
X165525700Y-103436198D01*
X165530208Y-103439355D01*
X165530211Y-103439357D01*
X165547899Y-103451742D01*
X165713251Y-103567523D01*
X165718233Y-103569846D01*
X165718238Y-103569849D01*
X165752457Y-103585805D01*
X165805742Y-103632722D01*
X165825203Y-103700999D01*
X165804661Y-103768959D01*
X165752457Y-103814195D01*
X165718238Y-103830151D01*
X165718233Y-103830154D01*
X165713251Y-103832477D01*
X165636587Y-103886158D01*
X165530211Y-103960643D01*
X165530208Y-103960645D01*
X165525700Y-103963802D01*
X165363802Y-104125700D01*
X165360645Y-104130208D01*
X165360643Y-104130211D01*
X165336555Y-104164612D01*
X165232477Y-104313251D01*
X165230154Y-104318233D01*
X165230151Y-104318238D01*
X165145456Y-104499870D01*
X165135716Y-104520757D01*
X165134294Y-104526065D01*
X165134293Y-104526067D01*
X165086780Y-104703387D01*
X165076457Y-104741913D01*
X165056502Y-104970000D01*
X165076457Y-105198087D01*
X165077881Y-105203400D01*
X165077881Y-105203402D01*
X165132341Y-105406646D01*
X165135716Y-105419243D01*
X165138039Y-105424224D01*
X165138039Y-105424225D01*
X165230151Y-105621762D01*
X165230154Y-105621767D01*
X165232477Y-105626749D01*
X165363802Y-105814300D01*
X165525700Y-105976198D01*
X165530208Y-105979355D01*
X165530211Y-105979357D01*
X165555845Y-105997306D01*
X165713251Y-106107523D01*
X165718233Y-106109846D01*
X165718238Y-106109849D01*
X165752457Y-106125805D01*
X165805742Y-106172722D01*
X165825203Y-106240999D01*
X165804661Y-106308959D01*
X165752457Y-106354195D01*
X165718238Y-106370151D01*
X165718233Y-106370154D01*
X165713251Y-106372477D01*
X165636587Y-106426158D01*
X165530211Y-106500643D01*
X165530208Y-106500645D01*
X165525700Y-106503802D01*
X165363802Y-106665700D01*
X165360645Y-106670208D01*
X165360643Y-106670211D01*
X165337011Y-106703961D01*
X165232477Y-106853251D01*
X165230154Y-106858233D01*
X165230151Y-106858238D01*
X165138039Y-107055775D01*
X165135716Y-107060757D01*
X165134294Y-107066065D01*
X165134293Y-107066067D01*
X165086780Y-107243387D01*
X165076457Y-107281913D01*
X165056502Y-107510000D01*
X165076457Y-107738087D01*
X165077881Y-107743400D01*
X165077881Y-107743402D01*
X165116344Y-107886945D01*
X165135716Y-107959243D01*
X165138039Y-107964224D01*
X165138039Y-107964225D01*
X165230151Y-108161762D01*
X165230154Y-108161767D01*
X165232477Y-108166749D01*
X165363802Y-108354300D01*
X165525700Y-108516198D01*
X165530208Y-108519355D01*
X165530211Y-108519357D01*
X165547899Y-108531742D01*
X165713251Y-108647523D01*
X165718233Y-108649846D01*
X165718238Y-108649849D01*
X165752457Y-108665805D01*
X165805742Y-108712722D01*
X165825203Y-108780999D01*
X165804661Y-108848959D01*
X165752457Y-108894195D01*
X165718238Y-108910151D01*
X165718233Y-108910154D01*
X165713251Y-108912477D01*
X165636587Y-108966158D01*
X165530211Y-109040643D01*
X165530208Y-109040645D01*
X165525700Y-109043802D01*
X165363802Y-109205700D01*
X165360645Y-109210208D01*
X165360643Y-109210211D01*
X165318882Y-109269852D01*
X165232477Y-109393251D01*
X165230154Y-109398233D01*
X165230151Y-109398238D01*
X165158775Y-109551306D01*
X165135716Y-109600757D01*
X165134294Y-109606065D01*
X165134293Y-109606067D01*
X165086780Y-109783387D01*
X165076457Y-109821913D01*
X165056502Y-110050000D01*
X165076457Y-110278087D01*
X165135716Y-110499243D01*
X165138039Y-110504224D01*
X165138039Y-110504225D01*
X165230151Y-110701762D01*
X165230154Y-110701767D01*
X165232477Y-110706749D01*
X165363802Y-110894300D01*
X165525700Y-111056198D01*
X165530208Y-111059355D01*
X165530211Y-111059357D01*
X165597536Y-111106498D01*
X165713251Y-111187523D01*
X165718233Y-111189846D01*
X165718238Y-111189849D01*
X165752457Y-111205805D01*
X165805742Y-111252722D01*
X165825203Y-111320999D01*
X165804661Y-111388959D01*
X165752457Y-111434195D01*
X165718238Y-111450151D01*
X165718233Y-111450154D01*
X165713251Y-111452477D01*
X165608389Y-111525902D01*
X165530211Y-111580643D01*
X165530208Y-111580645D01*
X165525700Y-111583802D01*
X165363802Y-111745700D01*
X165360645Y-111750208D01*
X165360643Y-111750211D01*
X165353848Y-111759916D01*
X165232477Y-111933251D01*
X165230154Y-111938233D01*
X165230151Y-111938238D01*
X165207361Y-111987112D01*
X165135716Y-112140757D01*
X165134294Y-112146065D01*
X165134293Y-112146067D01*
X165079682Y-112349876D01*
X165076457Y-112361913D01*
X165056502Y-112590000D01*
X165076457Y-112818087D01*
X165077881Y-112823400D01*
X165077881Y-112823402D01*
X165132575Y-113027519D01*
X165135716Y-113039243D01*
X165138039Y-113044224D01*
X165138039Y-113044225D01*
X165230151Y-113241762D01*
X165230154Y-113241767D01*
X165232477Y-113246749D01*
X165363802Y-113434300D01*
X165525700Y-113596198D01*
X165530208Y-113599355D01*
X165530211Y-113599357D01*
X165553830Y-113615895D01*
X165713251Y-113727523D01*
X165718233Y-113729846D01*
X165718238Y-113729849D01*
X165752457Y-113745805D01*
X165805742Y-113792722D01*
X165825203Y-113860999D01*
X165804661Y-113928959D01*
X165752457Y-113974195D01*
X165718238Y-113990151D01*
X165718233Y-113990154D01*
X165713251Y-113992477D01*
X165624246Y-114054799D01*
X165530211Y-114120643D01*
X165530208Y-114120645D01*
X165525700Y-114123802D01*
X165363802Y-114285700D01*
X165232477Y-114473251D01*
X165230154Y-114478233D01*
X165230151Y-114478238D01*
X165214195Y-114512457D01*
X165167278Y-114565742D01*
X165099001Y-114585203D01*
X165031041Y-114564661D01*
X164985805Y-114512457D01*
X164969849Y-114478238D01*
X164969846Y-114478233D01*
X164967523Y-114473251D01*
X164836198Y-114285700D01*
X164674300Y-114123802D01*
X164669792Y-114120645D01*
X164669789Y-114120643D01*
X164575754Y-114054799D01*
X164486749Y-113992477D01*
X164481767Y-113990154D01*
X164481762Y-113990151D01*
X164284225Y-113898039D01*
X164284224Y-113898039D01*
X164279243Y-113895716D01*
X164273935Y-113894294D01*
X164273933Y-113894293D01*
X164063402Y-113837881D01*
X164063400Y-113837881D01*
X164058087Y-113836457D01*
X163830000Y-113816502D01*
X163601913Y-113836457D01*
X163596600Y-113837881D01*
X163596598Y-113837881D01*
X163386067Y-113894293D01*
X163386065Y-113894294D01*
X163380757Y-113895716D01*
X163375776Y-113898039D01*
X163375775Y-113898039D01*
X163178238Y-113990151D01*
X163178233Y-113990154D01*
X163173251Y-113992477D01*
X163084246Y-114054799D01*
X162990211Y-114120643D01*
X162990208Y-114120645D01*
X162985700Y-114123802D01*
X162823802Y-114285700D01*
X162692477Y-114473251D01*
X162690154Y-114478233D01*
X162690151Y-114478238D01*
X162674195Y-114512457D01*
X162627278Y-114565742D01*
X162559001Y-114585203D01*
X162491041Y-114564661D01*
X162445805Y-114512457D01*
X162429849Y-114478238D01*
X162429846Y-114478233D01*
X162427523Y-114473251D01*
X162296198Y-114285700D01*
X162134300Y-114123802D01*
X162129792Y-114120645D01*
X162129789Y-114120643D01*
X162035754Y-114054799D01*
X161946749Y-113992477D01*
X161941767Y-113990154D01*
X161941762Y-113990151D01*
X161744225Y-113898039D01*
X161744224Y-113898039D01*
X161739243Y-113895716D01*
X161733935Y-113894294D01*
X161733933Y-113894293D01*
X161523402Y-113837881D01*
X161523400Y-113837881D01*
X161518087Y-113836457D01*
X161290000Y-113816502D01*
X161061913Y-113836457D01*
X161056600Y-113837881D01*
X161056598Y-113837881D01*
X160846067Y-113894293D01*
X160846065Y-113894294D01*
X160840757Y-113895716D01*
X160835776Y-113898039D01*
X160835775Y-113898039D01*
X160638238Y-113990151D01*
X160638233Y-113990154D01*
X160633251Y-113992477D01*
X160544246Y-114054799D01*
X160450211Y-114120643D01*
X160450208Y-114120645D01*
X160445700Y-114123802D01*
X160283802Y-114285700D01*
X160152477Y-114473251D01*
X160150154Y-114478233D01*
X160150151Y-114478238D01*
X160134195Y-114512457D01*
X160087278Y-114565742D01*
X160019001Y-114585203D01*
X159951041Y-114564661D01*
X159905805Y-114512457D01*
X159889849Y-114478238D01*
X159889846Y-114478233D01*
X159887523Y-114473251D01*
X159756198Y-114285700D01*
X159594300Y-114123802D01*
X159589792Y-114120645D01*
X159589789Y-114120643D01*
X159495754Y-114054799D01*
X159406749Y-113992477D01*
X159401767Y-113990154D01*
X159401762Y-113990151D01*
X159204225Y-113898039D01*
X159204224Y-113898039D01*
X159199243Y-113895716D01*
X159193935Y-113894294D01*
X159193933Y-113894293D01*
X158983402Y-113837881D01*
X158983400Y-113837881D01*
X158978087Y-113836457D01*
X158750000Y-113816502D01*
X158521913Y-113836457D01*
X158516600Y-113837881D01*
X158516598Y-113837881D01*
X158306067Y-113894293D01*
X158306065Y-113894294D01*
X158300757Y-113895716D01*
X158295776Y-113898039D01*
X158295775Y-113898039D01*
X158098238Y-113990151D01*
X158098233Y-113990154D01*
X158093251Y-113992477D01*
X158004246Y-114054799D01*
X157910211Y-114120643D01*
X157910208Y-114120645D01*
X157905700Y-114123802D01*
X157743802Y-114285700D01*
X157612477Y-114473251D01*
X157610154Y-114478233D01*
X157610151Y-114478238D01*
X157594195Y-114512457D01*
X157547278Y-114565742D01*
X157479001Y-114585203D01*
X157411041Y-114564661D01*
X157365805Y-114512457D01*
X157349849Y-114478238D01*
X157349846Y-114478233D01*
X157347523Y-114473251D01*
X157216198Y-114285700D01*
X157054300Y-114123802D01*
X157049792Y-114120645D01*
X157049789Y-114120643D01*
X156955754Y-114054799D01*
X156866749Y-113992477D01*
X156861767Y-113990154D01*
X156861762Y-113990151D01*
X156664225Y-113898039D01*
X156664224Y-113898039D01*
X156659243Y-113895716D01*
X156653935Y-113894294D01*
X156653933Y-113894293D01*
X156443402Y-113837881D01*
X156443400Y-113837881D01*
X156438087Y-113836457D01*
X156210000Y-113816502D01*
X155981913Y-113836457D01*
X155976600Y-113837881D01*
X155976598Y-113837881D01*
X155766067Y-113894293D01*
X155766065Y-113894294D01*
X155760757Y-113895716D01*
X155755776Y-113898039D01*
X155755775Y-113898039D01*
X155558238Y-113990151D01*
X155558233Y-113990154D01*
X155553251Y-113992477D01*
X155464246Y-114054799D01*
X155370211Y-114120643D01*
X155370208Y-114120645D01*
X155365700Y-114123802D01*
X155203802Y-114285700D01*
X155072477Y-114473251D01*
X155070154Y-114478233D01*
X155070151Y-114478238D01*
X155054195Y-114512457D01*
X155007278Y-114565742D01*
X154939001Y-114585203D01*
X154871041Y-114564661D01*
X154825805Y-114512457D01*
X154809849Y-114478238D01*
X154809846Y-114478233D01*
X154807523Y-114473251D01*
X154676198Y-114285700D01*
X154514300Y-114123802D01*
X154509792Y-114120645D01*
X154509789Y-114120643D01*
X154415754Y-114054799D01*
X154326749Y-113992477D01*
X154321767Y-113990154D01*
X154321762Y-113990151D01*
X154124225Y-113898039D01*
X154124224Y-113898039D01*
X154119243Y-113895716D01*
X154113935Y-113894294D01*
X154113933Y-113894293D01*
X153903402Y-113837881D01*
X153903400Y-113837881D01*
X153898087Y-113836457D01*
X153670000Y-113816502D01*
X153441913Y-113836457D01*
X153436600Y-113837881D01*
X153436598Y-113837881D01*
X153226067Y-113894293D01*
X153226065Y-113894294D01*
X153220757Y-113895716D01*
X153215776Y-113898039D01*
X153215775Y-113898039D01*
X153018238Y-113990151D01*
X153018233Y-113990154D01*
X153013251Y-113992477D01*
X152924246Y-114054799D01*
X152830211Y-114120643D01*
X152830208Y-114120645D01*
X152825700Y-114123802D01*
X152663802Y-114285700D01*
X152532477Y-114473251D01*
X152530154Y-114478233D01*
X152530151Y-114478238D01*
X152514195Y-114512457D01*
X152467278Y-114565742D01*
X152399001Y-114585203D01*
X152331041Y-114564661D01*
X152285805Y-114512457D01*
X152269849Y-114478238D01*
X152269846Y-114478233D01*
X152267523Y-114473251D01*
X152136198Y-114285700D01*
X151974300Y-114123802D01*
X151969792Y-114120645D01*
X151969789Y-114120643D01*
X151875754Y-114054799D01*
X151786749Y-113992477D01*
X151781767Y-113990154D01*
X151781762Y-113990151D01*
X151747543Y-113974195D01*
X151694258Y-113927278D01*
X151674797Y-113859001D01*
X151695339Y-113791041D01*
X151747543Y-113745805D01*
X151781762Y-113729849D01*
X151781767Y-113729846D01*
X151786749Y-113727523D01*
X151946170Y-113615895D01*
X151969789Y-113599357D01*
X151969792Y-113599355D01*
X151974300Y-113596198D01*
X152136198Y-113434300D01*
X152267523Y-113246749D01*
X152269846Y-113241767D01*
X152269849Y-113241762D01*
X152361961Y-113044225D01*
X152361961Y-113044224D01*
X152364284Y-113039243D01*
X152367426Y-113027519D01*
X152422119Y-112823402D01*
X152422119Y-112823400D01*
X152423543Y-112818087D01*
X152443498Y-112590000D01*
X152423543Y-112361913D01*
X152420318Y-112349876D01*
X152365707Y-112146067D01*
X152365706Y-112146065D01*
X152364284Y-112140757D01*
X152292639Y-111987112D01*
X152269849Y-111938238D01*
X152269846Y-111938233D01*
X152267523Y-111933251D01*
X152146152Y-111759916D01*
X152139357Y-111750211D01*
X152139355Y-111750208D01*
X152136198Y-111745700D01*
X151974300Y-111583802D01*
X151969792Y-111580645D01*
X151969789Y-111580643D01*
X151891611Y-111525902D01*
X151786749Y-111452477D01*
X151781767Y-111450154D01*
X151781762Y-111450151D01*
X151747543Y-111434195D01*
X151694258Y-111387278D01*
X151674797Y-111319001D01*
X151695339Y-111251041D01*
X151747543Y-111205805D01*
X151781762Y-111189849D01*
X151781767Y-111189846D01*
X151786749Y-111187523D01*
X151902464Y-111106498D01*
X151969789Y-111059357D01*
X151969792Y-111059355D01*
X151974300Y-111056198D01*
X152136198Y-110894300D01*
X152267523Y-110706749D01*
X152269846Y-110701767D01*
X152269849Y-110701762D01*
X152361961Y-110504225D01*
X152361961Y-110504224D01*
X152364284Y-110499243D01*
X152423543Y-110278087D01*
X152443498Y-110050000D01*
X152423543Y-109821913D01*
X152413220Y-109783387D01*
X152365707Y-109606067D01*
X152365706Y-109606065D01*
X152364284Y-109600757D01*
X152341225Y-109551306D01*
X152269849Y-109398238D01*
X152269846Y-109398233D01*
X152267523Y-109393251D01*
X152181118Y-109269852D01*
X152139357Y-109210211D01*
X152139355Y-109210208D01*
X152136198Y-109205700D01*
X151974300Y-109043802D01*
X151969792Y-109040645D01*
X151969789Y-109040643D01*
X151863413Y-108966158D01*
X151786749Y-108912477D01*
X151781767Y-108910154D01*
X151781762Y-108910151D01*
X151747543Y-108894195D01*
X151694258Y-108847278D01*
X151674797Y-108779001D01*
X151695339Y-108711041D01*
X151747543Y-108665805D01*
X151781762Y-108649849D01*
X151781767Y-108649846D01*
X151786749Y-108647523D01*
X151952101Y-108531742D01*
X151969789Y-108519357D01*
X151969792Y-108519355D01*
X151974300Y-108516198D01*
X152136198Y-108354300D01*
X152267523Y-108166749D01*
X152269846Y-108161767D01*
X152269849Y-108161762D01*
X152361961Y-107964225D01*
X152361961Y-107964224D01*
X152364284Y-107959243D01*
X152383657Y-107886945D01*
X152422119Y-107743402D01*
X152422119Y-107743400D01*
X152423543Y-107738087D01*
X152443498Y-107510000D01*
X152423543Y-107281913D01*
X152413220Y-107243387D01*
X152365707Y-107066067D01*
X152365706Y-107066065D01*
X152364284Y-107060757D01*
X152361961Y-107055775D01*
X152269849Y-106858238D01*
X152269846Y-106858233D01*
X152267523Y-106853251D01*
X152162989Y-106703961D01*
X152139357Y-106670211D01*
X152139355Y-106670208D01*
X152136198Y-106665700D01*
X151974300Y-106503802D01*
X151969792Y-106500645D01*
X151969789Y-106500643D01*
X151863413Y-106426158D01*
X151786749Y-106372477D01*
X151781767Y-106370154D01*
X151781762Y-106370151D01*
X151747543Y-106354195D01*
X151694258Y-106307278D01*
X151674797Y-106239001D01*
X151695339Y-106171041D01*
X151747543Y-106125805D01*
X151781762Y-106109849D01*
X151781767Y-106109846D01*
X151786749Y-106107523D01*
X151944155Y-105997306D01*
X151969789Y-105979357D01*
X151969792Y-105979355D01*
X151974300Y-105976198D01*
X152136198Y-105814300D01*
X152267523Y-105626749D01*
X152269846Y-105621767D01*
X152269849Y-105621762D01*
X152361961Y-105424225D01*
X152361961Y-105424224D01*
X152364284Y-105419243D01*
X152367660Y-105406646D01*
X152422119Y-105203402D01*
X152422119Y-105203400D01*
X152423543Y-105198087D01*
X152443498Y-104970000D01*
X152423543Y-104741913D01*
X152413220Y-104703387D01*
X152365707Y-104526067D01*
X152365706Y-104526065D01*
X152364284Y-104520757D01*
X152354544Y-104499870D01*
X152269849Y-104318238D01*
X152269846Y-104318233D01*
X152267523Y-104313251D01*
X152163445Y-104164612D01*
X152139357Y-104130211D01*
X152139355Y-104130208D01*
X152136198Y-104125700D01*
X151974300Y-103963802D01*
X151969792Y-103960645D01*
X151969789Y-103960643D01*
X151863413Y-103886158D01*
X151786749Y-103832477D01*
X151781767Y-103830154D01*
X151781762Y-103830151D01*
X151747543Y-103814195D01*
X151694258Y-103767278D01*
X151674797Y-103699001D01*
X151695339Y-103631041D01*
X151747543Y-103585805D01*
X151781762Y-103569849D01*
X151781767Y-103569846D01*
X151786749Y-103567523D01*
X151952101Y-103451742D01*
X151969789Y-103439357D01*
X151969792Y-103439355D01*
X151974300Y-103436198D01*
X152136198Y-103274300D01*
X152267523Y-103086749D01*
X152269846Y-103081767D01*
X152269849Y-103081762D01*
X152361961Y-102884225D01*
X152361961Y-102884224D01*
X152364284Y-102879243D01*
X152367660Y-102866646D01*
X152422119Y-102663402D01*
X152422119Y-102663400D01*
X152423543Y-102658087D01*
X152443498Y-102430000D01*
X152423543Y-102201913D01*
X152422119Y-102196598D01*
X152365707Y-101986067D01*
X152365706Y-101986065D01*
X152364284Y-101980757D01*
X152323457Y-101893202D01*
X152269849Y-101778238D01*
X152269846Y-101778233D01*
X152267523Y-101773251D01*
X152163445Y-101624612D01*
X152139357Y-101590211D01*
X152139355Y-101590208D01*
X152136198Y-101585700D01*
X151974300Y-101423802D01*
X151969792Y-101420645D01*
X151969789Y-101420643D01*
X151859573Y-101343469D01*
X151786749Y-101292477D01*
X151781767Y-101290154D01*
X151781762Y-101290151D01*
X151747543Y-101274195D01*
X151694258Y-101227278D01*
X151674797Y-101159001D01*
X151695339Y-101091041D01*
X151747543Y-101045805D01*
X151781762Y-101029849D01*
X151781767Y-101029846D01*
X151786749Y-101027523D01*
X151941761Y-100918982D01*
X151969789Y-100899357D01*
X151969792Y-100899355D01*
X151974300Y-100896198D01*
X152136198Y-100734300D01*
X152267523Y-100546749D01*
X152269846Y-100541767D01*
X152269849Y-100541762D01*
X152361961Y-100344225D01*
X152361961Y-100344224D01*
X152364284Y-100339243D01*
X152367660Y-100326646D01*
X152422119Y-100123402D01*
X152422119Y-100123400D01*
X152423543Y-100118087D01*
X152443498Y-99890000D01*
X152423543Y-99661913D01*
X152413220Y-99623387D01*
X152365707Y-99446067D01*
X152365706Y-99446065D01*
X152364284Y-99440757D01*
X152334618Y-99377138D01*
X152269849Y-99238238D01*
X152269846Y-99238233D01*
X152267523Y-99233251D01*
X152163445Y-99084612D01*
X152139357Y-99050211D01*
X152139355Y-99050208D01*
X152136198Y-99045700D01*
X151974300Y-98883802D01*
X151969792Y-98880645D01*
X151969789Y-98880643D01*
X151863413Y-98806158D01*
X151786749Y-98752477D01*
X151781767Y-98750154D01*
X151781762Y-98750151D01*
X151747543Y-98734195D01*
X151694258Y-98687278D01*
X151674797Y-98619001D01*
X151695339Y-98551041D01*
X151747543Y-98505805D01*
X151781762Y-98489849D01*
X151781767Y-98489846D01*
X151786749Y-98487523D01*
X151952101Y-98371742D01*
X151969789Y-98359357D01*
X151969792Y-98359355D01*
X151974300Y-98356198D01*
X152136198Y-98194300D01*
X152267523Y-98006749D01*
X152269846Y-98001767D01*
X152269849Y-98001762D01*
X152361961Y-97804225D01*
X152361961Y-97804224D01*
X152364284Y-97799243D01*
X152367660Y-97786646D01*
X152422119Y-97583402D01*
X152422119Y-97583400D01*
X152423543Y-97578087D01*
X152443498Y-97350000D01*
X152423543Y-97121913D01*
X152413220Y-97083387D01*
X152365707Y-96906067D01*
X152365706Y-96906065D01*
X152364284Y-96900757D01*
X152323457Y-96813202D01*
X152269849Y-96698238D01*
X152269846Y-96698233D01*
X152267523Y-96693251D01*
X152163445Y-96544612D01*
X152139357Y-96510211D01*
X152139355Y-96510208D01*
X152136198Y-96505700D01*
X151974300Y-96343802D01*
X151969792Y-96340645D01*
X151969789Y-96340643D01*
X151863413Y-96266158D01*
X151786749Y-96212477D01*
X151781767Y-96210154D01*
X151781762Y-96210151D01*
X151747543Y-96194195D01*
X151694258Y-96147278D01*
X151674797Y-96079001D01*
X151695339Y-96011041D01*
X151747543Y-95965805D01*
X151781762Y-95949849D01*
X151781767Y-95949846D01*
X151786749Y-95947523D01*
X151952101Y-95831742D01*
X151969789Y-95819357D01*
X151969792Y-95819355D01*
X151974300Y-95816198D01*
X152136198Y-95654300D01*
X152156490Y-95625321D01*
X152227566Y-95523813D01*
X152267523Y-95466749D01*
X152269846Y-95461767D01*
X152269849Y-95461762D01*
X152361961Y-95264225D01*
X152361961Y-95264224D01*
X152364284Y-95259243D01*
X152367209Y-95248329D01*
X152422119Y-95043402D01*
X152422119Y-95043400D01*
X152423543Y-95038087D01*
X152443498Y-94810000D01*
X152423543Y-94581913D01*
X152422119Y-94576598D01*
X152365707Y-94366067D01*
X152365706Y-94366065D01*
X152364284Y-94360757D01*
X152336880Y-94301989D01*
X152269849Y-94158238D01*
X152269846Y-94158233D01*
X152267523Y-94153251D01*
X152136198Y-93965700D01*
X151974300Y-93803802D01*
X151969792Y-93800645D01*
X151969789Y-93800643D01*
X151848265Y-93715551D01*
X151786749Y-93672477D01*
X151781767Y-93670154D01*
X151781762Y-93670151D01*
X151747543Y-93654195D01*
X151694258Y-93607278D01*
X151674797Y-93539001D01*
X151695339Y-93471041D01*
X151747543Y-93425805D01*
X151781762Y-93409849D01*
X151781767Y-93409846D01*
X151786749Y-93407523D01*
X151952101Y-93291742D01*
X151969789Y-93279357D01*
X151969792Y-93279355D01*
X151974300Y-93276198D01*
X152136198Y-93114300D01*
X152267523Y-92926749D01*
X152269846Y-92921767D01*
X152269849Y-92921762D01*
X152361961Y-92724225D01*
X152361961Y-92724224D01*
X152364284Y-92719243D01*
X152402909Y-92575096D01*
X152422119Y-92503402D01*
X152422119Y-92503400D01*
X152423543Y-92498087D01*
X152443498Y-92270000D01*
X152423543Y-92041913D01*
X152422119Y-92036598D01*
X152365707Y-91826067D01*
X152365706Y-91826065D01*
X152364284Y-91820757D01*
X152311144Y-91706797D01*
X152269849Y-91618238D01*
X152269846Y-91618233D01*
X152267523Y-91613251D01*
X152136198Y-91425700D01*
X151974300Y-91263802D01*
X151969792Y-91260645D01*
X151969789Y-91260643D01*
X151819192Y-91155194D01*
X151786749Y-91132477D01*
X151781767Y-91130154D01*
X151781762Y-91130151D01*
X151747543Y-91114195D01*
X151694258Y-91067278D01*
X151674797Y-90999001D01*
X151695339Y-90931041D01*
X151747543Y-90885805D01*
X151781762Y-90869849D01*
X151781767Y-90869846D01*
X151786749Y-90867523D01*
X151914394Y-90778145D01*
X151969789Y-90739357D01*
X151969792Y-90739355D01*
X151974300Y-90736198D01*
X152136198Y-90574300D01*
X152164424Y-90533990D01*
X152264366Y-90391257D01*
X152267523Y-90386749D01*
X152269846Y-90381767D01*
X152269849Y-90381762D01*
X152361961Y-90184225D01*
X152361961Y-90184224D01*
X152364284Y-90179243D01*
X152395006Y-90064590D01*
X152422119Y-89963402D01*
X152422119Y-89963400D01*
X152423543Y-89958087D01*
X152443498Y-89730000D01*
X152423543Y-89501913D01*
X152400000Y-89414050D01*
X152365707Y-89286067D01*
X152365706Y-89286065D01*
X152364284Y-89280757D01*
X152343626Y-89236455D01*
X152269849Y-89078238D01*
X152269846Y-89078233D01*
X152267523Y-89073251D01*
X152136198Y-88885700D01*
X151974300Y-88723802D01*
X151969792Y-88720645D01*
X151969789Y-88720643D01*
X151890171Y-88664894D01*
X151786749Y-88592477D01*
X151781767Y-88590154D01*
X151781762Y-88590151D01*
X151747543Y-88574195D01*
X151694258Y-88527278D01*
X151674797Y-88459001D01*
X151695339Y-88391041D01*
X151747543Y-88345805D01*
X151781762Y-88329849D01*
X151781767Y-88329846D01*
X151786749Y-88327523D01*
X151891611Y-88254098D01*
X151969789Y-88199357D01*
X151969792Y-88199355D01*
X151974300Y-88196198D01*
X152136198Y-88034300D01*
X152267523Y-87846749D01*
X152269846Y-87841767D01*
X152269849Y-87841762D01*
X152361961Y-87644225D01*
X152361961Y-87644224D01*
X152364284Y-87639243D01*
X152423543Y-87418087D01*
X152443498Y-87190000D01*
X152423543Y-86961913D01*
X152364284Y-86740757D01*
X152351574Y-86713500D01*
X152269849Y-86538238D01*
X152269846Y-86538233D01*
X152267523Y-86533251D01*
X152136198Y-86345700D01*
X151974300Y-86183802D01*
X151969792Y-86180645D01*
X151969789Y-86180643D01*
X151891611Y-86125902D01*
X151786749Y-86052477D01*
X151781767Y-86050154D01*
X151781762Y-86050151D01*
X151747543Y-86034195D01*
X151694258Y-85987278D01*
X151674797Y-85919001D01*
X151689850Y-85869200D01*
X152867302Y-85869200D01*
X152887257Y-86097287D01*
X152888681Y-86102600D01*
X152888681Y-86102602D01*
X152919739Y-86218509D01*
X152946516Y-86318443D01*
X152948839Y-86323424D01*
X152948839Y-86323425D01*
X153040951Y-86520962D01*
X153040954Y-86520967D01*
X153043277Y-86525949D01*
X153174602Y-86713500D01*
X153336500Y-86875398D01*
X153341008Y-86878555D01*
X153341011Y-86878557D01*
X153419189Y-86933298D01*
X153524051Y-87006723D01*
X153529033Y-87009046D01*
X153529038Y-87009049D01*
X153726575Y-87101161D01*
X153731557Y-87103484D01*
X153736865Y-87104906D01*
X153736867Y-87104907D01*
X153947398Y-87161319D01*
X153947400Y-87161319D01*
X153952713Y-87162743D01*
X154180800Y-87182698D01*
X154408887Y-87162743D01*
X154414200Y-87161319D01*
X154414202Y-87161319D01*
X154624733Y-87104907D01*
X154624735Y-87104906D01*
X154630043Y-87103484D01*
X154635025Y-87101161D01*
X154832562Y-87009049D01*
X154832567Y-87009046D01*
X154837549Y-87006723D01*
X154942411Y-86933298D01*
X155020589Y-86878557D01*
X155020592Y-86878555D01*
X155025100Y-86875398D01*
X155186998Y-86713500D01*
X155318323Y-86525949D01*
X155320646Y-86520967D01*
X155320649Y-86520962D01*
X155412761Y-86323425D01*
X155412761Y-86323424D01*
X155415084Y-86318443D01*
X155441862Y-86218509D01*
X155472919Y-86102602D01*
X155472919Y-86102600D01*
X155474343Y-86097287D01*
X155494298Y-85869200D01*
X155474343Y-85641113D01*
X155472919Y-85635798D01*
X155416507Y-85425267D01*
X155416506Y-85425265D01*
X155415084Y-85419957D01*
X155412761Y-85414975D01*
X155320649Y-85217438D01*
X155320646Y-85217433D01*
X155318323Y-85212451D01*
X155242437Y-85104075D01*
X155190157Y-85029411D01*
X155190155Y-85029408D01*
X155186998Y-85024900D01*
X155025100Y-84863002D01*
X155020592Y-84859845D01*
X155020589Y-84859843D01*
X154897442Y-84773615D01*
X154837549Y-84731677D01*
X154832567Y-84729354D01*
X154832562Y-84729351D01*
X154798343Y-84713395D01*
X154745058Y-84666478D01*
X154725597Y-84598201D01*
X154746139Y-84530241D01*
X154798343Y-84485005D01*
X154832562Y-84469049D01*
X154832567Y-84469046D01*
X154837549Y-84466723D01*
X154996663Y-84355310D01*
X155020589Y-84338557D01*
X155020592Y-84338555D01*
X155025100Y-84335398D01*
X155186998Y-84173500D01*
X155318323Y-83985949D01*
X155320646Y-83980967D01*
X155320649Y-83980962D01*
X155412761Y-83783425D01*
X155412761Y-83783424D01*
X155415084Y-83778443D01*
X155437361Y-83695307D01*
X155472919Y-83562602D01*
X155472919Y-83562600D01*
X155474343Y-83557287D01*
X155494298Y-83329200D01*
X155474343Y-83101113D01*
X155465563Y-83068344D01*
X155416507Y-82885267D01*
X155416506Y-82885265D01*
X155415084Y-82879957D01*
X155395667Y-82838316D01*
X155320649Y-82677438D01*
X155320646Y-82677433D01*
X155318323Y-82672451D01*
X155194366Y-82495422D01*
X155190157Y-82489411D01*
X155190155Y-82489408D01*
X155186998Y-82484900D01*
X155025100Y-82323002D01*
X155020592Y-82319845D01*
X155020589Y-82319843D01*
X154942411Y-82265102D01*
X154837549Y-82191677D01*
X154832567Y-82189354D01*
X154832562Y-82189351D01*
X154798343Y-82173395D01*
X154745058Y-82126478D01*
X154725597Y-82058201D01*
X154746139Y-81990241D01*
X154798343Y-81945005D01*
X154832562Y-81929049D01*
X154832567Y-81929046D01*
X154837549Y-81926723D01*
X154974260Y-81830997D01*
X155020589Y-81798557D01*
X155020592Y-81798555D01*
X155025100Y-81795398D01*
X155186998Y-81633500D01*
X155212155Y-81597573D01*
X155271701Y-81512532D01*
X155318323Y-81445949D01*
X155320646Y-81440967D01*
X155320649Y-81440962D01*
X155412761Y-81243425D01*
X155412761Y-81243424D01*
X155415084Y-81238443D01*
X155418043Y-81227402D01*
X155472919Y-81022602D01*
X155472919Y-81022600D01*
X155474343Y-81017287D01*
X155494298Y-80789200D01*
X155474343Y-80561113D01*
X155436330Y-80419246D01*
X155416507Y-80345267D01*
X155416506Y-80345265D01*
X155415084Y-80339957D01*
X155358503Y-80218618D01*
X155320649Y-80137438D01*
X155320646Y-80137433D01*
X155318323Y-80132451D01*
X155218576Y-79989998D01*
X155190157Y-79949411D01*
X155190155Y-79949408D01*
X155186998Y-79944900D01*
X155025100Y-79783002D01*
X155020592Y-79779845D01*
X155020589Y-79779843D01*
X154942411Y-79725102D01*
X154837549Y-79651677D01*
X154832567Y-79649354D01*
X154832562Y-79649351D01*
X154798343Y-79633395D01*
X154745058Y-79586478D01*
X154725597Y-79518201D01*
X154746139Y-79450241D01*
X154798343Y-79405005D01*
X154832562Y-79389049D01*
X154832567Y-79389046D01*
X154837549Y-79386723D01*
X154942411Y-79313298D01*
X155020589Y-79258557D01*
X155020592Y-79258555D01*
X155025100Y-79255398D01*
X155186998Y-79093500D01*
X155318323Y-78905949D01*
X155320646Y-78900967D01*
X155320649Y-78900962D01*
X155412761Y-78703425D01*
X155412761Y-78703424D01*
X155415084Y-78698443D01*
X155474343Y-78477287D01*
X155494298Y-78249200D01*
X155474343Y-78021113D01*
X155471226Y-78009480D01*
X155416507Y-77805267D01*
X155416506Y-77805265D01*
X155415084Y-77799957D01*
X155344284Y-77648125D01*
X155320649Y-77597438D01*
X155320646Y-77597433D01*
X155318323Y-77592451D01*
X155186998Y-77404900D01*
X155025100Y-77243002D01*
X155020589Y-77239843D01*
X155016376Y-77236308D01*
X155017327Y-77235174D01*
X154977329Y-77185129D01*
X154970024Y-77114510D01*
X155002058Y-77051151D01*
X155063262Y-77015170D01*
X155080317Y-77012118D01*
X155091116Y-77010945D01*
X155227505Y-76959815D01*
X155344061Y-76872461D01*
X155431415Y-76755905D01*
X155482545Y-76619516D01*
X155489300Y-76557334D01*
X155489300Y-74861066D01*
X155482545Y-74798884D01*
X155431415Y-74662495D01*
X155344061Y-74545939D01*
X155227505Y-74458585D01*
X155091116Y-74407455D01*
X155028934Y-74400700D01*
X153332666Y-74400700D01*
X153270484Y-74407455D01*
X153134095Y-74458585D01*
X153017539Y-74545939D01*
X152930185Y-74662495D01*
X152879055Y-74798884D01*
X152872300Y-74861066D01*
X152872300Y-76557334D01*
X152879055Y-76619516D01*
X152930185Y-76755905D01*
X153017539Y-76872461D01*
X153134095Y-76959815D01*
X153270484Y-77010945D01*
X153281274Y-77012117D01*
X153283406Y-77013003D01*
X153286022Y-77013625D01*
X153285921Y-77014048D01*
X153346835Y-77039355D01*
X153387263Y-77097717D01*
X153389722Y-77168671D01*
X153353429Y-77229690D01*
X153344769Y-77236689D01*
X153341007Y-77239846D01*
X153336500Y-77243002D01*
X153174602Y-77404900D01*
X153043277Y-77592451D01*
X153040954Y-77597433D01*
X153040951Y-77597438D01*
X153017316Y-77648125D01*
X152946516Y-77799957D01*
X152945094Y-77805265D01*
X152945093Y-77805267D01*
X152890374Y-78009480D01*
X152887257Y-78021113D01*
X152867302Y-78249200D01*
X152887257Y-78477287D01*
X152946516Y-78698443D01*
X152948839Y-78703424D01*
X152948839Y-78703425D01*
X153040951Y-78900962D01*
X153040954Y-78900967D01*
X153043277Y-78905949D01*
X153174602Y-79093500D01*
X153336500Y-79255398D01*
X153341008Y-79258555D01*
X153341011Y-79258557D01*
X153419189Y-79313298D01*
X153524051Y-79386723D01*
X153529033Y-79389046D01*
X153529038Y-79389049D01*
X153563257Y-79405005D01*
X153616542Y-79451922D01*
X153636003Y-79520199D01*
X153615461Y-79588159D01*
X153563257Y-79633395D01*
X153529038Y-79649351D01*
X153529033Y-79649354D01*
X153524051Y-79651677D01*
X153419189Y-79725102D01*
X153341011Y-79779843D01*
X153341008Y-79779845D01*
X153336500Y-79783002D01*
X153174602Y-79944900D01*
X153171445Y-79949408D01*
X153171443Y-79949411D01*
X153143024Y-79989998D01*
X153043277Y-80132451D01*
X153040954Y-80137433D01*
X153040951Y-80137438D01*
X153003097Y-80218618D01*
X152946516Y-80339957D01*
X152945094Y-80345265D01*
X152945093Y-80345267D01*
X152925270Y-80419246D01*
X152887257Y-80561113D01*
X152867302Y-80789200D01*
X152887257Y-81017287D01*
X152888681Y-81022600D01*
X152888681Y-81022602D01*
X152943558Y-81227402D01*
X152946516Y-81238443D01*
X152948839Y-81243424D01*
X152948839Y-81243425D01*
X153040951Y-81440962D01*
X153040954Y-81440967D01*
X153043277Y-81445949D01*
X153089899Y-81512532D01*
X153149446Y-81597573D01*
X153174602Y-81633500D01*
X153336500Y-81795398D01*
X153341008Y-81798555D01*
X153341011Y-81798557D01*
X153387340Y-81830997D01*
X153524051Y-81926723D01*
X153529033Y-81929046D01*
X153529038Y-81929049D01*
X153563257Y-81945005D01*
X153616542Y-81991922D01*
X153636003Y-82060199D01*
X153615461Y-82128159D01*
X153563257Y-82173395D01*
X153529038Y-82189351D01*
X153529033Y-82189354D01*
X153524051Y-82191677D01*
X153419189Y-82265102D01*
X153341011Y-82319843D01*
X153341008Y-82319845D01*
X153336500Y-82323002D01*
X153174602Y-82484900D01*
X153171445Y-82489408D01*
X153171443Y-82489411D01*
X153167234Y-82495422D01*
X153043277Y-82672451D01*
X153040954Y-82677433D01*
X153040951Y-82677438D01*
X152965933Y-82838316D01*
X152946516Y-82879957D01*
X152945094Y-82885265D01*
X152945093Y-82885267D01*
X152896037Y-83068344D01*
X152887257Y-83101113D01*
X152867302Y-83329200D01*
X152887257Y-83557287D01*
X152888681Y-83562600D01*
X152888681Y-83562602D01*
X152924240Y-83695307D01*
X152946516Y-83778443D01*
X152948839Y-83783424D01*
X152948839Y-83783425D01*
X153040951Y-83980962D01*
X153040954Y-83980967D01*
X153043277Y-83985949D01*
X153174602Y-84173500D01*
X153336500Y-84335398D01*
X153341008Y-84338555D01*
X153341011Y-84338557D01*
X153364937Y-84355310D01*
X153524051Y-84466723D01*
X153529033Y-84469046D01*
X153529038Y-84469049D01*
X153563257Y-84485005D01*
X153616542Y-84531922D01*
X153636003Y-84600199D01*
X153615461Y-84668159D01*
X153563257Y-84713395D01*
X153529038Y-84729351D01*
X153529033Y-84729354D01*
X153524051Y-84731677D01*
X153464158Y-84773615D01*
X153341011Y-84859843D01*
X153341008Y-84859845D01*
X153336500Y-84863002D01*
X153174602Y-85024900D01*
X153171445Y-85029408D01*
X153171443Y-85029411D01*
X153119163Y-85104075D01*
X153043277Y-85212451D01*
X153040954Y-85217433D01*
X153040951Y-85217438D01*
X152948839Y-85414975D01*
X152946516Y-85419957D01*
X152945094Y-85425265D01*
X152945093Y-85425267D01*
X152888681Y-85635798D01*
X152887257Y-85641113D01*
X152867302Y-85869200D01*
X151689850Y-85869200D01*
X151695339Y-85851041D01*
X151747543Y-85805805D01*
X151781762Y-85789849D01*
X151781767Y-85789846D01*
X151786749Y-85787523D01*
X151891611Y-85714098D01*
X151969789Y-85659357D01*
X151969792Y-85659355D01*
X151974300Y-85656198D01*
X152136198Y-85494300D01*
X152141647Y-85486519D01*
X152207511Y-85392455D01*
X152267523Y-85306749D01*
X152269846Y-85301767D01*
X152269849Y-85301762D01*
X152361961Y-85104225D01*
X152361961Y-85104224D01*
X152364284Y-85099243D01*
X152366566Y-85090729D01*
X152422119Y-84883402D01*
X152422119Y-84883400D01*
X152423543Y-84878087D01*
X152443498Y-84650000D01*
X152423543Y-84421913D01*
X152407003Y-84360184D01*
X152365707Y-84206067D01*
X152365706Y-84206065D01*
X152364284Y-84200757D01*
X152351574Y-84173500D01*
X152269849Y-83998238D01*
X152269846Y-83998233D01*
X152267523Y-83993251D01*
X152136198Y-83805700D01*
X151974300Y-83643802D01*
X151969792Y-83640645D01*
X151969789Y-83640643D01*
X151874096Y-83573638D01*
X151786749Y-83512477D01*
X151781767Y-83510154D01*
X151781762Y-83510151D01*
X151747543Y-83494195D01*
X151694258Y-83447278D01*
X151674797Y-83379001D01*
X151695339Y-83311041D01*
X151747543Y-83265805D01*
X151781762Y-83249849D01*
X151781767Y-83249846D01*
X151786749Y-83247523D01*
X151939856Y-83140316D01*
X151969789Y-83119357D01*
X151969792Y-83119355D01*
X151974300Y-83116198D01*
X152136198Y-82954300D01*
X152141754Y-82946366D01*
X152264366Y-82771257D01*
X152267523Y-82766749D01*
X152269846Y-82761767D01*
X152269849Y-82761762D01*
X152361961Y-82564225D01*
X152361961Y-82564224D01*
X152364284Y-82559243D01*
X152381468Y-82495114D01*
X152422119Y-82343402D01*
X152422119Y-82343400D01*
X152423543Y-82338087D01*
X152443498Y-82110000D01*
X152423543Y-81881913D01*
X152399317Y-81791501D01*
X152365707Y-81666067D01*
X152365706Y-81666065D01*
X152364284Y-81660757D01*
X152351574Y-81633500D01*
X152269849Y-81458238D01*
X152269846Y-81458233D01*
X152267523Y-81453251D01*
X152146211Y-81280000D01*
X152139357Y-81270211D01*
X152139355Y-81270208D01*
X152136198Y-81265700D01*
X151974300Y-81103802D01*
X151969792Y-81100645D01*
X151969789Y-81100643D01*
X151886256Y-81042153D01*
X151786749Y-80972477D01*
X151781767Y-80970154D01*
X151781762Y-80970151D01*
X151747543Y-80954195D01*
X151694258Y-80907278D01*
X151674797Y-80839001D01*
X151695339Y-80771041D01*
X151747543Y-80725805D01*
X151781762Y-80709849D01*
X151781767Y-80709846D01*
X151786749Y-80707523D01*
X151918258Y-80615439D01*
X151969789Y-80579357D01*
X151969792Y-80579355D01*
X151974300Y-80576198D01*
X152136198Y-80414300D01*
X152267523Y-80226749D01*
X152269846Y-80221767D01*
X152269849Y-80221762D01*
X152361961Y-80024225D01*
X152361961Y-80024224D01*
X152364284Y-80019243D01*
X152367000Y-80009109D01*
X152422119Y-79803402D01*
X152422119Y-79803400D01*
X152423543Y-79798087D01*
X152443498Y-79570000D01*
X152423543Y-79341913D01*
X152364284Y-79120757D01*
X152358704Y-79108790D01*
X152269849Y-78918238D01*
X152269846Y-78918233D01*
X152267523Y-78913251D01*
X152147004Y-78741132D01*
X152139357Y-78730211D01*
X152139355Y-78730208D01*
X152136198Y-78725700D01*
X151974300Y-78563802D01*
X151969792Y-78560645D01*
X151969789Y-78560643D01*
X151886382Y-78502241D01*
X151786749Y-78432477D01*
X151781767Y-78430154D01*
X151781762Y-78430151D01*
X151747543Y-78414195D01*
X151694258Y-78367278D01*
X151674797Y-78299001D01*
X151695339Y-78231041D01*
X151747543Y-78185805D01*
X151781762Y-78169849D01*
X151781767Y-78169846D01*
X151786749Y-78167523D01*
X151931456Y-78066198D01*
X151969789Y-78039357D01*
X151969792Y-78039355D01*
X151974300Y-78036198D01*
X152136198Y-77874300D01*
X152151625Y-77852269D01*
X152264366Y-77691257D01*
X152267523Y-77686749D01*
X152269846Y-77681767D01*
X152269849Y-77681762D01*
X152361961Y-77484225D01*
X152361961Y-77484224D01*
X152364284Y-77479243D01*
X152385249Y-77401003D01*
X152422119Y-77263402D01*
X152422119Y-77263400D01*
X152423543Y-77258087D01*
X152443498Y-77030000D01*
X152423543Y-76801913D01*
X152374670Y-76619516D01*
X152365707Y-76586067D01*
X152365706Y-76586065D01*
X152364284Y-76580757D01*
X152353362Y-76557334D01*
X152269849Y-76378238D01*
X152269846Y-76378233D01*
X152267523Y-76373251D01*
X152194098Y-76268389D01*
X152139357Y-76190211D01*
X152139355Y-76190208D01*
X152136198Y-76185700D01*
X151974300Y-76023802D01*
X151969792Y-76020645D01*
X151969789Y-76020643D01*
X151830834Y-75923346D01*
X151786749Y-75892477D01*
X151781767Y-75890154D01*
X151781762Y-75890151D01*
X151747543Y-75874195D01*
X151694258Y-75827278D01*
X151674797Y-75759001D01*
X151695339Y-75691041D01*
X151747543Y-75645805D01*
X151781762Y-75629849D01*
X151781767Y-75629846D01*
X151786749Y-75627523D01*
X151891611Y-75554098D01*
X151969789Y-75499357D01*
X151969792Y-75499355D01*
X151974300Y-75496198D01*
X152136198Y-75334300D01*
X152267523Y-75146749D01*
X152269846Y-75141767D01*
X152269849Y-75141762D01*
X152361961Y-74944225D01*
X152361961Y-74944224D01*
X152364284Y-74939243D01*
X152401894Y-74798884D01*
X152422119Y-74723402D01*
X152422119Y-74723400D01*
X152423543Y-74718087D01*
X152443498Y-74490000D01*
X152423543Y-74261913D01*
X152419225Y-74245797D01*
X152365707Y-74046067D01*
X152365706Y-74046065D01*
X152364284Y-74040757D01*
X152324494Y-73955426D01*
X152269849Y-73838238D01*
X152269846Y-73838233D01*
X152267523Y-73833251D01*
X152136198Y-73645700D01*
X151974300Y-73483802D01*
X151969792Y-73480645D01*
X151969789Y-73480643D01*
X151891611Y-73425902D01*
X151786749Y-73352477D01*
X151781767Y-73350154D01*
X151781762Y-73350151D01*
X151747543Y-73334195D01*
X151694258Y-73287278D01*
X151674797Y-73219001D01*
X151695339Y-73151041D01*
X151747543Y-73105805D01*
X151781762Y-73089849D01*
X151781767Y-73089846D01*
X151786749Y-73087523D01*
X151891611Y-73014098D01*
X151969789Y-72959357D01*
X151969792Y-72959355D01*
X151974300Y-72956198D01*
X152136198Y-72794300D01*
X152267523Y-72606749D01*
X152269846Y-72601767D01*
X152269849Y-72601762D01*
X152361961Y-72404225D01*
X152361961Y-72404224D01*
X152364284Y-72399243D01*
X152423543Y-72178087D01*
X152443498Y-71950000D01*
X152423543Y-71721913D01*
X152364284Y-71500757D01*
X152325144Y-71416820D01*
X152269849Y-71298238D01*
X152269846Y-71298233D01*
X152267523Y-71293251D01*
X152136198Y-71105700D01*
X151974300Y-70943802D01*
X151969789Y-70940643D01*
X151965576Y-70937108D01*
X151966527Y-70935974D01*
X151926529Y-70885929D01*
X151919224Y-70815310D01*
X151951258Y-70751951D01*
X152012462Y-70715970D01*
X152029517Y-70712918D01*
X152040316Y-70711745D01*
X152176705Y-70660615D01*
X152293261Y-70573261D01*
X152380615Y-70456705D01*
X152431745Y-70320316D01*
X152438500Y-70258134D01*
X152438500Y-70109544D01*
X156316936Y-70109544D01*
X156330861Y-70322006D01*
X156332282Y-70327602D01*
X156332283Y-70327607D01*
X156372076Y-70484287D01*
X156383272Y-70528372D01*
X156385689Y-70533615D01*
X156442320Y-70656457D01*
X156472411Y-70721731D01*
X156595296Y-70895609D01*
X156747809Y-71044181D01*
X156752605Y-71047386D01*
X156752608Y-71047388D01*
X156839879Y-71105700D01*
X156924843Y-71162471D01*
X156930146Y-71164749D01*
X156930149Y-71164751D01*
X157012324Y-71200056D01*
X157120470Y-71246519D01*
X157196316Y-71263681D01*
X157322501Y-71292234D01*
X157322506Y-71292235D01*
X157328138Y-71293509D01*
X157333909Y-71293736D01*
X157333911Y-71293736D01*
X157395252Y-71296146D01*
X157540891Y-71301869D01*
X157546600Y-71301041D01*
X157546604Y-71301041D01*
X157745890Y-71272145D01*
X157745894Y-71272144D01*
X157751605Y-71271316D01*
X157953223Y-71202876D01*
X158138993Y-71098840D01*
X158302693Y-70962693D01*
X158438840Y-70798993D01*
X158542876Y-70613223D01*
X158611316Y-70411605D01*
X158623202Y-70329634D01*
X158652773Y-70265088D01*
X158712545Y-70226776D01*
X158783541Y-70226862D01*
X158843221Y-70265317D01*
X158869694Y-70322302D01*
X158870861Y-70322006D01*
X158923272Y-70528372D01*
X158925689Y-70533615D01*
X158982320Y-70656457D01*
X159012411Y-70721731D01*
X159135296Y-70895609D01*
X159287809Y-71044181D01*
X159292605Y-71047386D01*
X159292608Y-71047388D01*
X159379879Y-71105700D01*
X159464843Y-71162471D01*
X159470146Y-71164749D01*
X159470149Y-71164751D01*
X159552324Y-71200056D01*
X159660470Y-71246519D01*
X159736316Y-71263681D01*
X159862501Y-71292234D01*
X159862506Y-71292235D01*
X159868138Y-71293509D01*
X159873909Y-71293736D01*
X159873911Y-71293736D01*
X159935252Y-71296146D01*
X160080891Y-71301869D01*
X160086600Y-71301041D01*
X160086604Y-71301041D01*
X160285890Y-71272145D01*
X160285894Y-71272144D01*
X160291605Y-71271316D01*
X160493223Y-71202876D01*
X160678993Y-71098840D01*
X160842693Y-70962693D01*
X160978840Y-70798993D01*
X161082876Y-70613223D01*
X161151316Y-70411605D01*
X161163496Y-70327607D01*
X161181337Y-70204561D01*
X161181337Y-70204559D01*
X161181869Y-70200891D01*
X161183463Y-70140000D01*
X161171487Y-70009669D01*
X161164510Y-69933730D01*
X161164509Y-69933727D01*
X161163981Y-69927976D01*
X161131733Y-69813633D01*
X161107754Y-69728611D01*
X161107753Y-69728609D01*
X161106186Y-69723052D01*
X161016657Y-69541504D01*
X161014570Y-69537273D01*
X161012015Y-69532092D01*
X160924934Y-69415475D01*
X165057483Y-69415475D01*
X165076472Y-69632519D01*
X165078375Y-69643312D01*
X165134764Y-69853761D01*
X165138510Y-69864053D01*
X165230586Y-70061511D01*
X165236069Y-70071006D01*
X165272509Y-70123048D01*
X165282988Y-70131424D01*
X165296434Y-70124356D01*
X165997978Y-69422812D01*
X166004356Y-69411132D01*
X166734408Y-69411132D01*
X166734539Y-69412965D01*
X166738790Y-69419580D01*
X167444287Y-70125077D01*
X167456062Y-70131507D01*
X167468077Y-70122211D01*
X167503931Y-70071006D01*
X167509414Y-70061511D01*
X167601490Y-69864053D01*
X167605236Y-69853761D01*
X167661625Y-69643312D01*
X167663528Y-69632519D01*
X167682517Y-69415475D01*
X167682517Y-69404525D01*
X167663528Y-69187481D01*
X167661625Y-69176688D01*
X167605236Y-68966239D01*
X167601490Y-68955947D01*
X167509414Y-68758489D01*
X167503931Y-68748994D01*
X167467491Y-68696952D01*
X167457012Y-68688576D01*
X167443566Y-68695644D01*
X166742022Y-69397188D01*
X166734408Y-69411132D01*
X166004356Y-69411132D01*
X166005592Y-69408868D01*
X166005461Y-69407035D01*
X166001210Y-69400420D01*
X165295713Y-68694923D01*
X165283938Y-68688493D01*
X165271923Y-68697789D01*
X165236069Y-68748994D01*
X165230586Y-68758489D01*
X165138510Y-68955947D01*
X165134764Y-68966239D01*
X165078375Y-69176688D01*
X165076472Y-69187481D01*
X165057483Y-69404525D01*
X165057483Y-69415475D01*
X160924934Y-69415475D01*
X160884622Y-69361491D01*
X160728271Y-69216963D01*
X160548201Y-69103347D01*
X160350441Y-69024449D01*
X160344781Y-69023323D01*
X160344777Y-69023322D01*
X160147282Y-68984038D01*
X160147280Y-68984038D01*
X160141615Y-68982911D01*
X160135840Y-68982835D01*
X160135836Y-68982835D01*
X160029161Y-68981439D01*
X159928716Y-68980124D01*
X159923019Y-68981103D01*
X159923018Y-68981103D01*
X159724564Y-69015203D01*
X159724561Y-69015204D01*
X159718874Y-69016181D01*
X159519116Y-69089875D01*
X159336134Y-69198739D01*
X159176054Y-69339125D01*
X159044238Y-69506333D01*
X159041549Y-69511444D01*
X159041547Y-69511447D01*
X159025095Y-69542717D01*
X158945100Y-69694762D01*
X158943386Y-69700283D01*
X158943384Y-69700287D01*
X158918005Y-69782022D01*
X158881961Y-69898102D01*
X158881282Y-69903840D01*
X158876090Y-69947705D01*
X158848219Y-70013003D01*
X158789471Y-70052867D01*
X158718496Y-70054640D01*
X158657830Y-70017761D01*
X158626732Y-69953937D01*
X158625495Y-69944449D01*
X158623981Y-69927976D01*
X158591733Y-69813633D01*
X158567754Y-69728611D01*
X158567753Y-69728609D01*
X158566186Y-69723052D01*
X158476657Y-69541504D01*
X158474570Y-69537273D01*
X158472015Y-69532092D01*
X158344622Y-69361491D01*
X158188271Y-69216963D01*
X158008201Y-69103347D01*
X157810441Y-69024449D01*
X157804781Y-69023323D01*
X157804777Y-69023322D01*
X157607282Y-68984038D01*
X157607280Y-68984038D01*
X157601615Y-68982911D01*
X157595840Y-68982835D01*
X157595836Y-68982835D01*
X157489161Y-68981439D01*
X157388716Y-68980124D01*
X157383019Y-68981103D01*
X157383018Y-68981103D01*
X157184564Y-69015203D01*
X157184561Y-69015204D01*
X157178874Y-69016181D01*
X156979116Y-69089875D01*
X156796134Y-69198739D01*
X156636054Y-69339125D01*
X156504238Y-69506333D01*
X156501549Y-69511444D01*
X156501547Y-69511447D01*
X156485095Y-69542717D01*
X156405100Y-69694762D01*
X156403386Y-69700283D01*
X156403384Y-69700287D01*
X156378005Y-69782022D01*
X156341961Y-69898102D01*
X156316936Y-70109544D01*
X152438500Y-70109544D01*
X152438500Y-68561866D01*
X152431745Y-68499684D01*
X152380615Y-68363295D01*
X152350407Y-68322988D01*
X165648576Y-68322988D01*
X165655644Y-68336434D01*
X166357188Y-69037978D01*
X166371132Y-69045592D01*
X166372965Y-69045461D01*
X166379580Y-69041210D01*
X167085077Y-68335713D01*
X167091507Y-68323938D01*
X167082211Y-68311923D01*
X167031006Y-68276069D01*
X167021511Y-68270586D01*
X166824053Y-68178510D01*
X166813761Y-68174764D01*
X166603312Y-68118375D01*
X166592519Y-68116472D01*
X166375475Y-68097483D01*
X166364525Y-68097483D01*
X166147481Y-68116472D01*
X166136688Y-68118375D01*
X165926239Y-68174764D01*
X165915947Y-68178510D01*
X165718489Y-68270586D01*
X165708994Y-68276069D01*
X165656952Y-68312509D01*
X165648576Y-68322988D01*
X152350407Y-68322988D01*
X152293261Y-68246739D01*
X152176705Y-68159385D01*
X152040316Y-68108255D01*
X151978134Y-68101500D01*
X150281866Y-68101500D01*
X150219684Y-68108255D01*
X150083295Y-68159385D01*
X149966739Y-68246739D01*
X149879385Y-68363295D01*
X149828255Y-68499684D01*
X149821500Y-68561866D01*
X149821500Y-70258134D01*
X149828255Y-70320316D01*
X149879385Y-70456705D01*
X149966739Y-70573261D01*
X150083295Y-70660615D01*
X150219684Y-70711745D01*
X150230474Y-70712917D01*
X150232606Y-70713803D01*
X150235222Y-70714425D01*
X150235121Y-70714848D01*
X150296035Y-70740155D01*
X150336463Y-70798517D01*
X150338922Y-70869471D01*
X150302629Y-70930490D01*
X150293969Y-70937489D01*
X150290207Y-70940646D01*
X150285700Y-70943802D01*
X150123802Y-71105700D01*
X149992477Y-71293251D01*
X149990154Y-71298233D01*
X149990151Y-71298238D01*
X149934856Y-71416820D01*
X149895716Y-71500757D01*
X149836457Y-71721913D01*
X149816502Y-71950000D01*
X149836457Y-72178087D01*
X149895716Y-72399243D01*
X149898039Y-72404224D01*
X149898039Y-72404225D01*
X149990151Y-72601762D01*
X149990154Y-72601767D01*
X149992477Y-72606749D01*
X150123802Y-72794300D01*
X150285700Y-72956198D01*
X150290208Y-72959355D01*
X150290211Y-72959357D01*
X150368389Y-73014098D01*
X150473251Y-73087523D01*
X150478233Y-73089846D01*
X150478238Y-73089849D01*
X150512457Y-73105805D01*
X150565742Y-73152722D01*
X150585203Y-73220999D01*
X150564661Y-73288959D01*
X150512457Y-73334195D01*
X150478238Y-73350151D01*
X150478233Y-73350154D01*
X150473251Y-73352477D01*
X150368389Y-73425902D01*
X150290211Y-73480643D01*
X150290208Y-73480645D01*
X150285700Y-73483802D01*
X150123802Y-73645700D01*
X149992477Y-73833251D01*
X149990154Y-73838233D01*
X149990151Y-73838238D01*
X149935506Y-73955426D01*
X149895716Y-74040757D01*
X149894294Y-74046065D01*
X149894293Y-74046067D01*
X149840775Y-74245797D01*
X149836457Y-74261913D01*
X149816502Y-74490000D01*
X149836457Y-74718087D01*
X149837881Y-74723400D01*
X149837881Y-74723402D01*
X149858107Y-74798884D01*
X149895716Y-74939243D01*
X149898039Y-74944224D01*
X149898039Y-74944225D01*
X149990151Y-75141762D01*
X149990154Y-75141767D01*
X149992477Y-75146749D01*
X150123802Y-75334300D01*
X150285700Y-75496198D01*
X150290208Y-75499355D01*
X150290211Y-75499357D01*
X150368389Y-75554098D01*
X150473251Y-75627523D01*
X150478233Y-75629846D01*
X150478238Y-75629849D01*
X150512457Y-75645805D01*
X150565742Y-75692722D01*
X150585203Y-75760999D01*
X150564661Y-75828959D01*
X150512457Y-75874195D01*
X150478238Y-75890151D01*
X150478233Y-75890154D01*
X150473251Y-75892477D01*
X150429166Y-75923346D01*
X150290211Y-76020643D01*
X150290208Y-76020645D01*
X150285700Y-76023802D01*
X150123802Y-76185700D01*
X150120645Y-76190208D01*
X150120643Y-76190211D01*
X150065902Y-76268389D01*
X149992477Y-76373251D01*
X149990154Y-76378233D01*
X149990151Y-76378238D01*
X149906638Y-76557334D01*
X149895716Y-76580757D01*
X149894294Y-76586065D01*
X149894293Y-76586067D01*
X149885330Y-76619516D01*
X149836457Y-76801913D01*
X149816502Y-77030000D01*
X149836457Y-77258087D01*
X149837881Y-77263400D01*
X149837881Y-77263402D01*
X149874752Y-77401003D01*
X149895716Y-77479243D01*
X149898039Y-77484224D01*
X149898039Y-77484225D01*
X149990151Y-77681762D01*
X149990154Y-77681767D01*
X149992477Y-77686749D01*
X149995634Y-77691257D01*
X150108376Y-77852269D01*
X150123802Y-77874300D01*
X150285700Y-78036198D01*
X150290208Y-78039355D01*
X150290211Y-78039357D01*
X150328544Y-78066198D01*
X150473251Y-78167523D01*
X150478233Y-78169846D01*
X150478238Y-78169849D01*
X150512457Y-78185805D01*
X150565742Y-78232722D01*
X150585203Y-78300999D01*
X150564661Y-78368959D01*
X150512457Y-78414195D01*
X150478238Y-78430151D01*
X150478233Y-78430154D01*
X150473251Y-78432477D01*
X150373618Y-78502241D01*
X150290211Y-78560643D01*
X150290208Y-78560645D01*
X150285700Y-78563802D01*
X150123802Y-78725700D01*
X150120645Y-78730208D01*
X150120643Y-78730211D01*
X150112996Y-78741132D01*
X149992477Y-78913251D01*
X149990154Y-78918233D01*
X149990151Y-78918238D01*
X149901296Y-79108790D01*
X149895716Y-79120757D01*
X149836457Y-79341913D01*
X149816502Y-79570000D01*
X149836457Y-79798087D01*
X149837881Y-79803400D01*
X149837881Y-79803402D01*
X149850739Y-79851389D01*
X149849049Y-79922366D01*
X149809255Y-79981161D01*
X149743990Y-80009109D01*
X149729032Y-80010000D01*
X122426024Y-80010000D01*
X122357903Y-79989998D01*
X122311410Y-79936342D01*
X122301306Y-79866068D01*
X122320053Y-79815837D01*
X122683046Y-79251501D01*
X122785598Y-79092066D01*
X122787908Y-79088602D01*
X122864517Y-78977759D01*
X123464096Y-78110240D01*
X123466528Y-78106843D01*
X124174783Y-77151436D01*
X124177327Y-77148121D01*
X124916868Y-76216724D01*
X124919520Y-76213496D01*
X124943135Y-76185700D01*
X125528910Y-75496198D01*
X125689529Y-75307137D01*
X125692287Y-75303998D01*
X126274987Y-74662495D01*
X126491926Y-74423664D01*
X126494775Y-74420630D01*
X126514123Y-74400700D01*
X127233165Y-73660000D01*
X132356654Y-73660000D01*
X132376017Y-73955426D01*
X132376819Y-73959459D01*
X132376820Y-73959465D01*
X132432970Y-74241747D01*
X132433776Y-74245797D01*
X132435103Y-74249706D01*
X132435104Y-74249710D01*
X132507836Y-74463971D01*
X132528941Y-74526145D01*
X132659885Y-74791673D01*
X132824367Y-75037838D01*
X132827081Y-75040932D01*
X132827085Y-75040938D01*
X132923833Y-75151257D01*
X133019573Y-75260427D01*
X133022662Y-75263136D01*
X133239062Y-75452915D01*
X133239068Y-75452919D01*
X133242162Y-75455633D01*
X133245588Y-75457922D01*
X133245593Y-75457926D01*
X133429405Y-75580744D01*
X133488327Y-75620115D01*
X133492026Y-75621939D01*
X133492031Y-75621942D01*
X133540421Y-75645805D01*
X133753855Y-75751059D01*
X133757760Y-75752384D01*
X133757761Y-75752385D01*
X134030290Y-75844896D01*
X134030294Y-75844897D01*
X134034203Y-75846224D01*
X134038247Y-75847028D01*
X134038253Y-75847030D01*
X134320535Y-75903180D01*
X134320541Y-75903181D01*
X134324574Y-75903983D01*
X134328679Y-75904252D01*
X134328686Y-75904253D01*
X134615881Y-75923076D01*
X134620000Y-75923346D01*
X134624119Y-75923076D01*
X134911314Y-75904253D01*
X134911321Y-75904252D01*
X134915426Y-75903983D01*
X134919459Y-75903181D01*
X134919465Y-75903180D01*
X135201747Y-75847030D01*
X135201753Y-75847028D01*
X135205797Y-75846224D01*
X135209706Y-75844897D01*
X135209710Y-75844896D01*
X135482239Y-75752385D01*
X135482240Y-75752384D01*
X135486145Y-75751059D01*
X135699579Y-75645805D01*
X135747969Y-75621942D01*
X135747974Y-75621939D01*
X135751673Y-75620115D01*
X135810595Y-75580744D01*
X135994407Y-75457926D01*
X135994412Y-75457922D01*
X135997838Y-75455633D01*
X136000932Y-75452919D01*
X136000938Y-75452915D01*
X136217338Y-75263136D01*
X136220427Y-75260427D01*
X136316167Y-75151257D01*
X136412915Y-75040938D01*
X136412919Y-75040932D01*
X136415633Y-75037838D01*
X136580115Y-74791673D01*
X136711059Y-74526145D01*
X136732164Y-74463971D01*
X136804896Y-74249710D01*
X136804897Y-74249706D01*
X136806224Y-74245797D01*
X136807030Y-74241747D01*
X136863180Y-73959465D01*
X136863181Y-73959459D01*
X136863983Y-73955426D01*
X136883346Y-73660000D01*
X136871798Y-73483802D01*
X136864253Y-73368686D01*
X136864252Y-73368679D01*
X136863983Y-73364574D01*
X136857941Y-73334195D01*
X136807030Y-73078253D01*
X136807028Y-73078247D01*
X136806224Y-73074203D01*
X136711059Y-72793855D01*
X136621012Y-72611257D01*
X136581942Y-72532031D01*
X136581939Y-72532026D01*
X136580115Y-72528327D01*
X136415633Y-72282162D01*
X136412919Y-72279068D01*
X136412915Y-72279062D01*
X136223136Y-72062662D01*
X136220427Y-72059573D01*
X136217338Y-72056864D01*
X136000938Y-71867085D01*
X136000932Y-71867081D01*
X135997838Y-71864367D01*
X135994412Y-71862078D01*
X135994407Y-71862074D01*
X135755106Y-71702179D01*
X135751673Y-71699885D01*
X135747974Y-71698061D01*
X135747969Y-71698058D01*
X135611687Y-71630852D01*
X135486145Y-71568941D01*
X135285281Y-71500757D01*
X135209710Y-71475104D01*
X135209706Y-71475103D01*
X135205797Y-71473776D01*
X135201753Y-71472972D01*
X135201747Y-71472970D01*
X134919465Y-71416820D01*
X134919459Y-71416819D01*
X134915426Y-71416017D01*
X134911321Y-71415748D01*
X134911314Y-71415747D01*
X134624119Y-71396924D01*
X134620000Y-71396654D01*
X134615881Y-71396924D01*
X134328686Y-71415747D01*
X134328679Y-71415748D01*
X134324574Y-71416017D01*
X134320541Y-71416819D01*
X134320535Y-71416820D01*
X134038253Y-71472970D01*
X134038247Y-71472972D01*
X134034203Y-71473776D01*
X134030294Y-71475103D01*
X134030290Y-71475104D01*
X133954719Y-71500757D01*
X133753855Y-71568941D01*
X133628313Y-71630852D01*
X133492031Y-71698058D01*
X133492026Y-71698061D01*
X133488327Y-71699885D01*
X133484894Y-71702179D01*
X133245593Y-71862074D01*
X133245588Y-71862078D01*
X133242162Y-71864367D01*
X133239068Y-71867081D01*
X133239062Y-71867085D01*
X133022662Y-72056864D01*
X133019573Y-72059573D01*
X133016864Y-72062662D01*
X132827085Y-72279062D01*
X132827081Y-72279068D01*
X132824367Y-72282162D01*
X132659885Y-72528327D01*
X132658061Y-72532026D01*
X132658058Y-72532031D01*
X132618988Y-72611257D01*
X132528941Y-72793855D01*
X132433776Y-73074203D01*
X132432972Y-73078247D01*
X132432970Y-73078253D01*
X132382060Y-73334195D01*
X132376017Y-73364574D01*
X132375748Y-73368679D01*
X132375747Y-73368686D01*
X132368202Y-73483802D01*
X132356654Y-73660000D01*
X127233165Y-73660000D01*
X127323163Y-73567291D01*
X127326122Y-73564342D01*
X128182348Y-72738937D01*
X128185404Y-72736087D01*
X128706628Y-72265950D01*
X129068540Y-71939511D01*
X129071679Y-71936773D01*
X129980717Y-71169935D01*
X129983955Y-71167294D01*
X130917931Y-70431007D01*
X130921255Y-70428475D01*
X131879116Y-69723569D01*
X131882521Y-69721149D01*
X132863251Y-69048371D01*
X132866735Y-69046065D01*
X132902366Y-69023322D01*
X133869239Y-68406169D01*
X133872698Y-68404041D01*
X134895927Y-67797699D01*
X134899507Y-67795657D01*
X135180985Y-67641233D01*
X135942243Y-67223593D01*
X135945911Y-67221659D01*
X137007018Y-66684492D01*
X137010721Y-66682695D01*
X138089037Y-66181014D01*
X138092846Y-66179317D01*
X139187198Y-65713665D01*
X139191069Y-65712094D01*
X140300269Y-65282976D01*
X140304190Y-65281533D01*
X141426986Y-64889436D01*
X141430915Y-64888136D01*
X142566125Y-64533470D01*
X142570088Y-64532304D01*
X143348122Y-64317267D01*
X143716437Y-64215470D01*
X143720482Y-64214424D01*
X144876682Y-63935778D01*
X144880759Y-63934867D01*
X145253031Y-63858112D01*
X146045530Y-63694715D01*
X146049629Y-63693940D01*
X147221757Y-63492531D01*
X147225886Y-63491892D01*
X148404024Y-63329460D01*
X148408172Y-63328958D01*
X149296206Y-63236405D01*
X149591069Y-63205674D01*
X149595212Y-63205312D01*
X150006448Y-63176195D01*
X150781536Y-63121315D01*
X150785708Y-63121089D01*
X151974148Y-63076473D01*
X151978325Y-63076385D01*
X152321182Y-63074889D01*
X153167625Y-63071195D01*
X153171788Y-63071246D01*
G37*
%TD.AperFunction*%
%TD*%
M02*
