%TF.GenerationSoftware,KiCad,Pcbnew,(6.0.8)*%
%TF.CreationDate,2023-03-06T23:42:04-08:00*%
%TF.ProjectId,ATP_Teensy,4154505f-5465-4656-9e73-792e6b696361,rev?*%
%TF.SameCoordinates,Original*%
%TF.FileFunction,Drillmap*%
%TF.FilePolarity,Positive*%
%FSLAX45Y45*%
G04 Gerber Fmt 4.5, Leading zero omitted, Abs format (unit mm)*
G04 Created by KiCad (PCBNEW (6.0.8)) date 2023-03-06 23:42:04*
%MOMM*%
%LPD*%
G01*
G04 APERTURE LIST*
%ADD10C,0.200000*%
%ADD11C,0.040000*%
%ADD12C,0.070000*%
%ADD13C,0.080000*%
%ADD14C,0.100000*%
%ADD15C,0.110000*%
%ADD16C,0.114300*%
%ADD17C,0.152000*%
G04 APERTURE END LIST*
D10*
X18923000Y-9906000D02*
G75*
G03*
X18923000Y-9906000I-3650000J0D01*
G01*
D11*
X15283500Y-6507800D02*
X15323500Y-6547800D01*
X15323500Y-6507800D02*
X15283500Y-6547800D01*
X15405300Y-7287700D02*
X15445300Y-7327700D01*
X15445300Y-7287700D02*
X15405300Y-7327700D01*
D12*
X14157400Y-11836400D02*
G75*
G03*
X14157400Y-11836400I-35000J0D01*
G01*
D13*
X15748000Y-6974000D02*
X15748000Y-7054000D01*
X15708000Y-7014000D02*
X15788000Y-7014000D01*
X15993160Y-8198000D02*
X15993160Y-8278000D01*
X15953160Y-8238000D02*
X16033160Y-8238000D01*
X15993160Y-8398000D02*
X15993160Y-8478000D01*
X15953160Y-8438000D02*
X16033160Y-8438000D01*
X16002000Y-6974000D02*
X16002000Y-7054000D01*
X15962000Y-7014000D02*
X16042000Y-7014000D01*
X16193160Y-8198000D02*
X16193160Y-8278000D01*
X16153160Y-8238000D02*
X16233160Y-8238000D01*
X16193160Y-8398000D02*
X16193160Y-8478000D01*
X16153160Y-8438000D02*
X16233160Y-8438000D01*
X16393160Y-8198000D02*
X16393160Y-8278000D01*
X16353160Y-8238000D02*
X16433160Y-8238000D01*
X16393160Y-8398000D02*
X16393160Y-8478000D01*
X16353160Y-8438000D02*
X16433160Y-8438000D01*
D14*
X12862356Y-8711356D02*
X12862356Y-8640644D01*
X12791644Y-8640644D01*
X12791644Y-8711356D01*
X12862356Y-8711356D01*
X12862356Y-8965356D02*
X12862356Y-8894644D01*
X12791644Y-8894644D01*
X12791644Y-8965356D01*
X12862356Y-8965356D01*
X12862356Y-9219356D02*
X12862356Y-9148644D01*
X12791644Y-9148644D01*
X12791644Y-9219356D01*
X12862356Y-9219356D01*
X12862356Y-9473356D02*
X12862356Y-9402644D01*
X12791644Y-9402644D01*
X12791644Y-9473356D01*
X12862356Y-9473356D01*
X12862356Y-9727356D02*
X12862356Y-9656644D01*
X12791644Y-9656644D01*
X12791644Y-9727356D01*
X12862356Y-9727356D01*
X12862356Y-9981356D02*
X12862356Y-9910644D01*
X12791644Y-9910644D01*
X12791644Y-9981356D01*
X12862356Y-9981356D01*
X12862356Y-10235356D02*
X12862356Y-10164644D01*
X12791644Y-10164644D01*
X12791644Y-10235356D01*
X12862356Y-10235356D01*
X12862356Y-10489356D02*
X12862356Y-10418644D01*
X12791644Y-10418644D01*
X12791644Y-10489356D01*
X12862356Y-10489356D01*
X12862356Y-10743356D02*
X12862356Y-10672644D01*
X12791644Y-10672644D01*
X12791644Y-10743356D01*
X12862356Y-10743356D01*
X12862356Y-10997356D02*
X12862356Y-10926644D01*
X12791644Y-10926644D01*
X12791644Y-10997356D01*
X12862356Y-10997356D01*
X12862356Y-11251356D02*
X12862356Y-11180644D01*
X12791644Y-11180644D01*
X12791644Y-11251356D01*
X12862356Y-11251356D01*
X13446556Y-7972856D02*
X13446556Y-7902144D01*
X13375844Y-7902144D01*
X13375844Y-7972856D01*
X13446556Y-7972856D01*
X13663106Y-9146981D02*
X13663106Y-9076269D01*
X13592394Y-9076269D01*
X13592394Y-9146981D01*
X13663106Y-9146981D01*
X13663106Y-9400981D02*
X13663106Y-9330269D01*
X13592394Y-9330269D01*
X13592394Y-9400981D01*
X13663106Y-9400981D01*
X13663106Y-9654981D02*
X13663106Y-9584269D01*
X13592394Y-9584269D01*
X13592394Y-9654981D01*
X13663106Y-9654981D01*
X13663106Y-9908981D02*
X13663106Y-9838269D01*
X13592394Y-9838269D01*
X13592394Y-9908981D01*
X13663106Y-9908981D01*
X13663106Y-10162981D02*
X13663106Y-10092269D01*
X13592394Y-10092269D01*
X13592394Y-10162981D01*
X13663106Y-10162981D01*
X13663106Y-10416981D02*
X13663106Y-10346269D01*
X13592394Y-10346269D01*
X13592394Y-10416981D01*
X13663106Y-10416981D01*
X13663106Y-10670981D02*
X13663106Y-10600269D01*
X13592394Y-10600269D01*
X13592394Y-10670981D01*
X13663106Y-10670981D01*
X13663106Y-10924981D02*
X13663106Y-10854269D01*
X13592394Y-10854269D01*
X13592394Y-10924981D01*
X13663106Y-10924981D01*
X13700556Y-7972856D02*
X13700556Y-7902144D01*
X13629844Y-7902144D01*
X13629844Y-7972856D01*
X13700556Y-7972856D01*
X13954556Y-7972856D02*
X13954556Y-7902144D01*
X13883844Y-7902144D01*
X13883844Y-7972856D01*
X13954556Y-7972856D01*
X13955556Y-6969556D02*
X13955556Y-6898844D01*
X13884844Y-6898844D01*
X13884844Y-6969556D01*
X13955556Y-6969556D01*
X14130356Y-8711356D02*
X14130356Y-8640644D01*
X14059644Y-8640644D01*
X14059644Y-8711356D01*
X14130356Y-8711356D01*
X14130356Y-8965356D02*
X14130356Y-8894644D01*
X14059644Y-8894644D01*
X14059644Y-8965356D01*
X14130356Y-8965356D01*
X14130356Y-9219356D02*
X14130356Y-9148644D01*
X14059644Y-9148644D01*
X14059644Y-9219356D01*
X14130356Y-9219356D01*
X14130356Y-9473356D02*
X14130356Y-9402644D01*
X14059644Y-9402644D01*
X14059644Y-9473356D01*
X14130356Y-9473356D01*
X14130356Y-9727356D02*
X14130356Y-9656644D01*
X14059644Y-9656644D01*
X14059644Y-9727356D01*
X14130356Y-9727356D01*
X14130356Y-9981356D02*
X14130356Y-9910644D01*
X14059644Y-9910644D01*
X14059644Y-9981356D01*
X14130356Y-9981356D01*
X14130356Y-10235356D02*
X14130356Y-10164644D01*
X14059644Y-10164644D01*
X14059644Y-10235356D01*
X14130356Y-10235356D01*
X14130356Y-10489356D02*
X14130356Y-10418644D01*
X14059644Y-10418644D01*
X14059644Y-10489356D01*
X14130356Y-10489356D01*
X14130356Y-10743356D02*
X14130356Y-10672644D01*
X14059644Y-10672644D01*
X14059644Y-10743356D01*
X14130356Y-10743356D01*
X14130356Y-10997356D02*
X14130356Y-10926644D01*
X14059644Y-10926644D01*
X14059644Y-10997356D01*
X14130356Y-10997356D01*
X14130356Y-11251356D02*
X14130356Y-11180644D01*
X14059644Y-11180644D01*
X14059644Y-11251356D01*
X14130356Y-11251356D01*
X14208556Y-7972856D02*
X14208556Y-7902144D01*
X14137844Y-7902144D01*
X14137844Y-7972856D01*
X14208556Y-7972856D01*
X14209556Y-6969556D02*
X14209556Y-6898844D01*
X14138844Y-6898844D01*
X14138844Y-6969556D01*
X14209556Y-6969556D01*
X14462556Y-7972856D02*
X14462556Y-7902144D01*
X14391844Y-7902144D01*
X14391844Y-7972856D01*
X14462556Y-7972856D01*
X14463556Y-6969556D02*
X14463556Y-6898844D01*
X14392844Y-6898844D01*
X14392844Y-6969556D01*
X14463556Y-6969556D01*
X14640356Y-8798356D02*
X14640356Y-8727644D01*
X14569644Y-8727644D01*
X14569644Y-8798356D01*
X14640356Y-8798356D01*
X14640356Y-9052356D02*
X14640356Y-8981644D01*
X14569644Y-8981644D01*
X14569644Y-9052356D01*
X14640356Y-9052356D01*
X14640356Y-9306356D02*
X14640356Y-9235644D01*
X14569644Y-9235644D01*
X14569644Y-9306356D01*
X14640356Y-9306356D01*
X14640356Y-9560356D02*
X14640356Y-9489644D01*
X14569644Y-9489644D01*
X14569644Y-9560356D01*
X14640356Y-9560356D01*
X14640356Y-9814356D02*
X14640356Y-9743644D01*
X14569644Y-9743644D01*
X14569644Y-9814356D01*
X14640356Y-9814356D01*
X14640356Y-10068356D02*
X14640356Y-9997644D01*
X14569644Y-9997644D01*
X14569644Y-10068356D01*
X14640356Y-10068356D01*
X14640356Y-10322356D02*
X14640356Y-10251644D01*
X14569644Y-10251644D01*
X14569644Y-10322356D01*
X14640356Y-10322356D01*
X14640356Y-10576356D02*
X14640356Y-10505644D01*
X14569644Y-10505644D01*
X14569644Y-10576356D01*
X14640356Y-10576356D01*
X14640356Y-10830356D02*
X14640356Y-10759644D01*
X14569644Y-10759644D01*
X14569644Y-10830356D01*
X14640356Y-10830356D01*
X14716556Y-7972856D02*
X14716556Y-7902144D01*
X14645844Y-7902144D01*
X14645844Y-7972856D01*
X14716556Y-7972856D01*
X14717556Y-6969556D02*
X14717556Y-6898844D01*
X14646844Y-6898844D01*
X14646844Y-6969556D01*
X14717556Y-6969556D01*
X17184856Y-9106106D02*
X17184856Y-9035394D01*
X17114144Y-9035394D01*
X17114144Y-9106106D01*
X17184856Y-9106106D01*
X17184856Y-9360106D02*
X17184856Y-9289394D01*
X17114144Y-9289394D01*
X17114144Y-9360106D01*
X17184856Y-9360106D01*
X17184856Y-9614106D02*
X17184856Y-9543394D01*
X17114144Y-9543394D01*
X17114144Y-9614106D01*
X17184856Y-9614106D01*
X17184856Y-9868106D02*
X17184856Y-9797394D01*
X17114144Y-9797394D01*
X17114144Y-9868106D01*
X17184856Y-9868106D01*
X17184856Y-10122106D02*
X17184856Y-10051394D01*
X17114144Y-10051394D01*
X17114144Y-10122106D01*
X17184856Y-10122106D01*
X17184856Y-10376106D02*
X17184856Y-10305394D01*
X17114144Y-10305394D01*
X17114144Y-10376106D01*
X17184856Y-10376106D01*
X17184856Y-10630106D02*
X17184856Y-10559394D01*
X17114144Y-10559394D01*
X17114144Y-10630106D01*
X17184856Y-10630106D01*
X17184856Y-10884106D02*
X17184856Y-10813394D01*
X17114144Y-10813394D01*
X17114144Y-10884106D01*
X17184856Y-10884106D01*
D15*
X15113000Y-6996000D02*
X15168000Y-6941000D01*
X15113000Y-6886000D01*
X15058000Y-6941000D01*
X15113000Y-6996000D01*
X15113000Y-7250000D02*
X15168000Y-7195000D01*
X15113000Y-7140000D01*
X15058000Y-7195000D01*
X15113000Y-7250000D01*
X15113000Y-7504000D02*
X15168000Y-7449000D01*
X15113000Y-7394000D01*
X15058000Y-7449000D01*
X15113000Y-7504000D01*
X15113000Y-7758000D02*
X15168000Y-7703000D01*
X15113000Y-7648000D01*
X15058000Y-7703000D01*
X15113000Y-7758000D01*
X15113000Y-8012000D02*
X15168000Y-7957000D01*
X15113000Y-7902000D01*
X15058000Y-7957000D01*
X15113000Y-8012000D01*
X15113000Y-8266000D02*
X15168000Y-8211000D01*
X15113000Y-8156000D01*
X15058000Y-8211000D01*
X15113000Y-8266000D01*
X15113000Y-8520000D02*
X15168000Y-8465000D01*
X15113000Y-8410000D01*
X15058000Y-8465000D01*
X15113000Y-8520000D01*
X15113000Y-8774000D02*
X15168000Y-8719000D01*
X15113000Y-8664000D01*
X15058000Y-8719000D01*
X15113000Y-8774000D01*
X15113000Y-9028000D02*
X15168000Y-8973000D01*
X15113000Y-8918000D01*
X15058000Y-8973000D01*
X15113000Y-9028000D01*
X15113000Y-9282000D02*
X15168000Y-9227000D01*
X15113000Y-9172000D01*
X15058000Y-9227000D01*
X15113000Y-9282000D01*
X15113000Y-9536000D02*
X15168000Y-9481000D01*
X15113000Y-9426000D01*
X15058000Y-9481000D01*
X15113000Y-9536000D01*
X15113000Y-9790000D02*
X15168000Y-9735000D01*
X15113000Y-9680000D01*
X15058000Y-9735000D01*
X15113000Y-9790000D01*
X15113000Y-10044000D02*
X15168000Y-9989000D01*
X15113000Y-9934000D01*
X15058000Y-9989000D01*
X15113000Y-10044000D01*
X15113000Y-10298000D02*
X15168000Y-10243000D01*
X15113000Y-10188000D01*
X15058000Y-10243000D01*
X15113000Y-10298000D01*
X15113000Y-10552000D02*
X15168000Y-10497000D01*
X15113000Y-10442000D01*
X15058000Y-10497000D01*
X15113000Y-10552000D01*
X15113000Y-10806000D02*
X15168000Y-10751000D01*
X15113000Y-10696000D01*
X15058000Y-10751000D01*
X15113000Y-10806000D01*
X15113000Y-11060000D02*
X15168000Y-11005000D01*
X15113000Y-10950000D01*
X15058000Y-11005000D01*
X15113000Y-11060000D01*
X15113000Y-11314000D02*
X15168000Y-11259000D01*
X15113000Y-11204000D01*
X15058000Y-11259000D01*
X15113000Y-11314000D01*
X15113000Y-11568000D02*
X15168000Y-11513000D01*
X15113000Y-11458000D01*
X15058000Y-11513000D01*
X15113000Y-11568000D01*
X15113000Y-11822000D02*
X15168000Y-11767000D01*
X15113000Y-11712000D01*
X15058000Y-11767000D01*
X15113000Y-11822000D01*
X15113000Y-12076000D02*
X15168000Y-12021000D01*
X15113000Y-11966000D01*
X15058000Y-12021000D01*
X15113000Y-12076000D01*
X15113000Y-12330000D02*
X15168000Y-12275000D01*
X15113000Y-12220000D01*
X15058000Y-12275000D01*
X15113000Y-12330000D01*
X15113000Y-12584000D02*
X15168000Y-12529000D01*
X15113000Y-12474000D01*
X15058000Y-12529000D01*
X15113000Y-12584000D01*
X15113000Y-12838000D02*
X15168000Y-12783000D01*
X15113000Y-12728000D01*
X15058000Y-12783000D01*
X15113000Y-12838000D01*
X15367000Y-11568000D02*
X15422000Y-11513000D01*
X15367000Y-11458000D01*
X15312000Y-11513000D01*
X15367000Y-11568000D01*
X15418080Y-7625920D02*
X15473080Y-7570920D01*
X15418080Y-7515920D01*
X15363080Y-7570920D01*
X15418080Y-7625920D01*
X15418080Y-7879920D02*
X15473080Y-7824920D01*
X15418080Y-7769920D01*
X15363080Y-7824920D01*
X15418080Y-7879920D01*
X15418080Y-8133920D02*
X15473080Y-8078920D01*
X15418080Y-8023920D01*
X15363080Y-8078920D01*
X15418080Y-8133920D01*
X15418080Y-8387920D02*
X15473080Y-8332920D01*
X15418080Y-8277920D01*
X15363080Y-8332920D01*
X15418080Y-8387920D01*
X15418080Y-8641920D02*
X15473080Y-8586920D01*
X15418080Y-8531920D01*
X15363080Y-8586920D01*
X15418080Y-8641920D01*
X15621000Y-11568000D02*
X15676000Y-11513000D01*
X15621000Y-11458000D01*
X15566000Y-11513000D01*
X15621000Y-11568000D01*
X15875000Y-11568000D02*
X15930000Y-11513000D01*
X15875000Y-11458000D01*
X15820000Y-11513000D01*
X15875000Y-11568000D01*
X16129000Y-11568000D02*
X16184000Y-11513000D01*
X16129000Y-11458000D01*
X16074000Y-11513000D01*
X16129000Y-11568000D01*
X16383000Y-7250000D02*
X16438000Y-7195000D01*
X16383000Y-7140000D01*
X16328000Y-7195000D01*
X16383000Y-7250000D01*
X16383000Y-11568000D02*
X16438000Y-11513000D01*
X16383000Y-11458000D01*
X16328000Y-11513000D01*
X16383000Y-11568000D01*
X16637000Y-6996000D02*
X16692000Y-6941000D01*
X16637000Y-6886000D01*
X16582000Y-6941000D01*
X16637000Y-6996000D01*
X16637000Y-7250000D02*
X16692000Y-7195000D01*
X16637000Y-7140000D01*
X16582000Y-7195000D01*
X16637000Y-7250000D01*
X16637000Y-7504000D02*
X16692000Y-7449000D01*
X16637000Y-7394000D01*
X16582000Y-7449000D01*
X16637000Y-7504000D01*
X16637000Y-7758000D02*
X16692000Y-7703000D01*
X16637000Y-7648000D01*
X16582000Y-7703000D01*
X16637000Y-7758000D01*
X16637000Y-8012000D02*
X16692000Y-7957000D01*
X16637000Y-7902000D01*
X16582000Y-7957000D01*
X16637000Y-8012000D01*
X16637000Y-8266000D02*
X16692000Y-8211000D01*
X16637000Y-8156000D01*
X16582000Y-8211000D01*
X16637000Y-8266000D01*
X16637000Y-8520000D02*
X16692000Y-8465000D01*
X16637000Y-8410000D01*
X16582000Y-8465000D01*
X16637000Y-8520000D01*
X16637000Y-8774000D02*
X16692000Y-8719000D01*
X16637000Y-8664000D01*
X16582000Y-8719000D01*
X16637000Y-8774000D01*
X16637000Y-9028000D02*
X16692000Y-8973000D01*
X16637000Y-8918000D01*
X16582000Y-8973000D01*
X16637000Y-9028000D01*
X16637000Y-9282000D02*
X16692000Y-9227000D01*
X16637000Y-9172000D01*
X16582000Y-9227000D01*
X16637000Y-9282000D01*
X16637000Y-9536000D02*
X16692000Y-9481000D01*
X16637000Y-9426000D01*
X16582000Y-9481000D01*
X16637000Y-9536000D01*
X16637000Y-9790000D02*
X16692000Y-9735000D01*
X16637000Y-9680000D01*
X16582000Y-9735000D01*
X16637000Y-9790000D01*
X16637000Y-10044000D02*
X16692000Y-9989000D01*
X16637000Y-9934000D01*
X16582000Y-9989000D01*
X16637000Y-10044000D01*
X16637000Y-10298000D02*
X16692000Y-10243000D01*
X16637000Y-10188000D01*
X16582000Y-10243000D01*
X16637000Y-10298000D01*
X16637000Y-10552000D02*
X16692000Y-10497000D01*
X16637000Y-10442000D01*
X16582000Y-10497000D01*
X16637000Y-10552000D01*
X16637000Y-10806000D02*
X16692000Y-10751000D01*
X16637000Y-10696000D01*
X16582000Y-10751000D01*
X16637000Y-10806000D01*
X16637000Y-11060000D02*
X16692000Y-11005000D01*
X16637000Y-10950000D01*
X16582000Y-11005000D01*
X16637000Y-11060000D01*
X16637000Y-11314000D02*
X16692000Y-11259000D01*
X16637000Y-11204000D01*
X16582000Y-11259000D01*
X16637000Y-11314000D01*
X16637000Y-11568000D02*
X16692000Y-11513000D01*
X16637000Y-11458000D01*
X16582000Y-11513000D01*
X16637000Y-11568000D01*
X16637000Y-11822000D02*
X16692000Y-11767000D01*
X16637000Y-11712000D01*
X16582000Y-11767000D01*
X16637000Y-11822000D01*
X16637000Y-12076000D02*
X16692000Y-12021000D01*
X16637000Y-11966000D01*
X16582000Y-12021000D01*
X16637000Y-12076000D01*
X16637000Y-12330000D02*
X16692000Y-12275000D01*
X16637000Y-12220000D01*
X16582000Y-12275000D01*
X16637000Y-12330000D01*
X16637000Y-12584000D02*
X16692000Y-12529000D01*
X16637000Y-12474000D01*
X16582000Y-12529000D01*
X16637000Y-12584000D01*
X16637000Y-12838000D02*
X16692000Y-12783000D01*
X16637000Y-12728000D01*
X16582000Y-12783000D01*
X16637000Y-12838000D01*
D16*
X17616170Y-11380450D02*
X17730470Y-11494750D01*
X17730470Y-11380450D02*
X17616170Y-11494750D01*
X17730470Y-11437600D02*
G75*
G03*
X17730470Y-11437600I-57150J0D01*
G01*
X17616170Y-11634450D02*
X17730470Y-11748750D01*
X17730470Y-11634450D02*
X17616170Y-11748750D01*
X17730470Y-11691600D02*
G75*
G03*
X17730470Y-11691600I-57150J0D01*
G01*
X17616170Y-11888450D02*
X17730470Y-12002750D01*
X17730470Y-11888450D02*
X17616170Y-12002750D01*
X17730470Y-11945600D02*
G75*
G03*
X17730470Y-11945600I-57150J0D01*
G01*
D17*
X17577000Y-7925000D02*
X17729000Y-8077000D01*
X17729000Y-7925000D02*
X17577000Y-8077000D01*
X17653000Y-7925000D02*
X17653000Y-8077000D01*
X17577000Y-8001000D02*
X17729000Y-8001000D01*
X17577000Y-8433000D02*
X17729000Y-8585000D01*
X17729000Y-8433000D02*
X17577000Y-8585000D01*
X17653000Y-8433000D02*
X17653000Y-8585000D01*
X17577000Y-8509000D02*
X17729000Y-8509000D01*
D10*
X11870619Y-13876476D02*
X11870619Y-13676476D01*
X11918238Y-13676476D01*
X11946809Y-13686000D01*
X11965857Y-13705048D01*
X11975381Y-13724095D01*
X11984905Y-13762190D01*
X11984905Y-13790762D01*
X11975381Y-13828857D01*
X11965857Y-13847905D01*
X11946809Y-13866952D01*
X11918238Y-13876476D01*
X11870619Y-13876476D01*
X12070619Y-13876476D02*
X12070619Y-13743143D01*
X12070619Y-13781238D02*
X12080143Y-13762190D01*
X12089667Y-13752667D01*
X12108714Y-13743143D01*
X12127762Y-13743143D01*
X12194428Y-13876476D02*
X12194428Y-13743143D01*
X12194428Y-13676476D02*
X12184905Y-13686000D01*
X12194428Y-13695524D01*
X12203952Y-13686000D01*
X12194428Y-13676476D01*
X12194428Y-13695524D01*
X12318238Y-13876476D02*
X12299190Y-13866952D01*
X12289667Y-13847905D01*
X12289667Y-13676476D01*
X12423000Y-13876476D02*
X12403952Y-13866952D01*
X12394428Y-13847905D01*
X12394428Y-13676476D01*
X12651571Y-13876476D02*
X12651571Y-13676476D01*
X12718238Y-13819333D01*
X12784905Y-13676476D01*
X12784905Y-13876476D01*
X12965857Y-13876476D02*
X12965857Y-13771714D01*
X12956333Y-13752667D01*
X12937286Y-13743143D01*
X12899190Y-13743143D01*
X12880143Y-13752667D01*
X12965857Y-13866952D02*
X12946809Y-13876476D01*
X12899190Y-13876476D01*
X12880143Y-13866952D01*
X12870619Y-13847905D01*
X12870619Y-13828857D01*
X12880143Y-13809809D01*
X12899190Y-13800286D01*
X12946809Y-13800286D01*
X12965857Y-13790762D01*
X13061095Y-13743143D02*
X13061095Y-13943143D01*
X13061095Y-13752667D02*
X13080143Y-13743143D01*
X13118238Y-13743143D01*
X13137286Y-13752667D01*
X13146809Y-13762190D01*
X13156333Y-13781238D01*
X13156333Y-13838381D01*
X13146809Y-13857428D01*
X13137286Y-13866952D01*
X13118238Y-13876476D01*
X13080143Y-13876476D01*
X13061095Y-13866952D01*
X13242048Y-13857428D02*
X13251571Y-13866952D01*
X13242048Y-13876476D01*
X13232524Y-13866952D01*
X13242048Y-13857428D01*
X13242048Y-13876476D01*
X13242048Y-13752667D02*
X13251571Y-13762190D01*
X13242048Y-13771714D01*
X13232524Y-13762190D01*
X13242048Y-13752667D01*
X13242048Y-13771714D01*
D11*
X11573000Y-14186000D02*
X11613000Y-14226000D01*
X11613000Y-14186000D02*
X11573000Y-14226000D01*
D10*
X11908714Y-14096476D02*
X11927762Y-14096476D01*
X11946809Y-14106000D01*
X11956333Y-14115524D01*
X11965857Y-14134571D01*
X11975381Y-14172667D01*
X11975381Y-14220286D01*
X11965857Y-14258381D01*
X11956333Y-14277428D01*
X11946809Y-14286952D01*
X11927762Y-14296476D01*
X11908714Y-14296476D01*
X11889667Y-14286952D01*
X11880143Y-14277428D01*
X11870619Y-14258381D01*
X11861095Y-14220286D01*
X11861095Y-14172667D01*
X11870619Y-14134571D01*
X11880143Y-14115524D01*
X11889667Y-14106000D01*
X11908714Y-14096476D01*
X12061095Y-14277428D02*
X12070619Y-14286952D01*
X12061095Y-14296476D01*
X12051571Y-14286952D01*
X12061095Y-14277428D01*
X12061095Y-14296476D01*
X12242048Y-14163143D02*
X12242048Y-14296476D01*
X12194428Y-14086952D02*
X12146809Y-14229809D01*
X12270619Y-14229809D01*
X12384905Y-14096476D02*
X12403952Y-14096476D01*
X12423000Y-14106000D01*
X12432524Y-14115524D01*
X12442048Y-14134571D01*
X12451571Y-14172667D01*
X12451571Y-14220286D01*
X12442048Y-14258381D01*
X12432524Y-14277428D01*
X12423000Y-14286952D01*
X12403952Y-14296476D01*
X12384905Y-14296476D01*
X12365857Y-14286952D01*
X12356333Y-14277428D01*
X12346809Y-14258381D01*
X12337286Y-14220286D01*
X12337286Y-14172667D01*
X12346809Y-14134571D01*
X12356333Y-14115524D01*
X12365857Y-14106000D01*
X12384905Y-14096476D01*
X12575381Y-14096476D02*
X12594428Y-14096476D01*
X12613476Y-14106000D01*
X12623000Y-14115524D01*
X12632524Y-14134571D01*
X12642048Y-14172667D01*
X12642048Y-14220286D01*
X12632524Y-14258381D01*
X12623000Y-14277428D01*
X12613476Y-14286952D01*
X12594428Y-14296476D01*
X12575381Y-14296476D01*
X12556333Y-14286952D01*
X12546809Y-14277428D01*
X12537286Y-14258381D01*
X12527762Y-14220286D01*
X12527762Y-14172667D01*
X12537286Y-14134571D01*
X12546809Y-14115524D01*
X12556333Y-14106000D01*
X12575381Y-14096476D01*
X12727762Y-14296476D02*
X12727762Y-14163143D01*
X12727762Y-14182190D02*
X12737286Y-14172667D01*
X12756333Y-14163143D01*
X12784905Y-14163143D01*
X12803952Y-14172667D01*
X12813476Y-14191714D01*
X12813476Y-14296476D01*
X12813476Y-14191714D02*
X12823000Y-14172667D01*
X12842048Y-14163143D01*
X12870619Y-14163143D01*
X12889667Y-14172667D01*
X12899190Y-14191714D01*
X12899190Y-14296476D01*
X12994428Y-14296476D02*
X12994428Y-14163143D01*
X12994428Y-14182190D02*
X13003952Y-14172667D01*
X13023000Y-14163143D01*
X13051571Y-14163143D01*
X13070619Y-14172667D01*
X13080143Y-14191714D01*
X13080143Y-14296476D01*
X13080143Y-14191714D02*
X13089667Y-14172667D01*
X13108714Y-14163143D01*
X13137286Y-14163143D01*
X13156333Y-14172667D01*
X13165857Y-14191714D01*
X13165857Y-14296476D01*
X13556333Y-14086952D02*
X13384905Y-14344095D01*
X13813476Y-14096476D02*
X13832524Y-14096476D01*
X13851571Y-14106000D01*
X13861095Y-14115524D01*
X13870619Y-14134571D01*
X13880143Y-14172667D01*
X13880143Y-14220286D01*
X13870619Y-14258381D01*
X13861095Y-14277428D01*
X13851571Y-14286952D01*
X13832524Y-14296476D01*
X13813476Y-14296476D01*
X13794428Y-14286952D01*
X13784905Y-14277428D01*
X13775381Y-14258381D01*
X13765857Y-14220286D01*
X13765857Y-14172667D01*
X13775381Y-14134571D01*
X13784905Y-14115524D01*
X13794428Y-14106000D01*
X13813476Y-14096476D01*
X13965857Y-14277428D02*
X13975381Y-14286952D01*
X13965857Y-14296476D01*
X13956333Y-14286952D01*
X13965857Y-14277428D01*
X13965857Y-14296476D01*
X14099190Y-14096476D02*
X14118238Y-14096476D01*
X14137286Y-14106000D01*
X14146809Y-14115524D01*
X14156333Y-14134571D01*
X14165857Y-14172667D01*
X14165857Y-14220286D01*
X14156333Y-14258381D01*
X14146809Y-14277428D01*
X14137286Y-14286952D01*
X14118238Y-14296476D01*
X14099190Y-14296476D01*
X14080143Y-14286952D01*
X14070619Y-14277428D01*
X14061095Y-14258381D01*
X14051571Y-14220286D01*
X14051571Y-14172667D01*
X14061095Y-14134571D01*
X14070619Y-14115524D01*
X14080143Y-14106000D01*
X14099190Y-14096476D01*
X14356333Y-14296476D02*
X14242048Y-14296476D01*
X14299190Y-14296476D02*
X14299190Y-14096476D01*
X14280143Y-14125048D01*
X14261095Y-14144095D01*
X14242048Y-14153619D01*
X14537286Y-14096476D02*
X14442048Y-14096476D01*
X14432524Y-14191714D01*
X14442048Y-14182190D01*
X14461095Y-14172667D01*
X14508714Y-14172667D01*
X14527762Y-14182190D01*
X14537286Y-14191714D01*
X14546809Y-14210762D01*
X14546809Y-14258381D01*
X14537286Y-14277428D01*
X14527762Y-14286952D01*
X14508714Y-14296476D01*
X14461095Y-14296476D01*
X14442048Y-14286952D01*
X14432524Y-14277428D01*
X14613476Y-14096476D02*
X14746809Y-14096476D01*
X14661095Y-14296476D01*
X14813476Y-14096476D02*
X14813476Y-14134571D01*
X14889667Y-14096476D02*
X14889667Y-14134571D01*
X15184905Y-14372667D02*
X15175381Y-14363143D01*
X15156333Y-14334571D01*
X15146809Y-14315524D01*
X15137286Y-14286952D01*
X15127762Y-14239333D01*
X15127762Y-14201238D01*
X15137286Y-14153619D01*
X15146809Y-14125048D01*
X15156333Y-14106000D01*
X15175381Y-14077428D01*
X15184905Y-14067905D01*
X15251571Y-14115524D02*
X15261095Y-14106000D01*
X15280143Y-14096476D01*
X15327762Y-14096476D01*
X15346809Y-14106000D01*
X15356333Y-14115524D01*
X15365857Y-14134571D01*
X15365857Y-14153619D01*
X15356333Y-14182190D01*
X15242048Y-14296476D01*
X15365857Y-14296476D01*
X15603952Y-14296476D02*
X15603952Y-14096476D01*
X15689667Y-14296476D02*
X15689667Y-14191714D01*
X15680143Y-14172667D01*
X15661095Y-14163143D01*
X15632524Y-14163143D01*
X15613476Y-14172667D01*
X15603952Y-14182190D01*
X15813476Y-14296476D02*
X15794428Y-14286952D01*
X15784905Y-14277428D01*
X15775381Y-14258381D01*
X15775381Y-14201238D01*
X15784905Y-14182190D01*
X15794428Y-14172667D01*
X15813476Y-14163143D01*
X15842048Y-14163143D01*
X15861095Y-14172667D01*
X15870619Y-14182190D01*
X15880143Y-14201238D01*
X15880143Y-14258381D01*
X15870619Y-14277428D01*
X15861095Y-14286952D01*
X15842048Y-14296476D01*
X15813476Y-14296476D01*
X15994428Y-14296476D02*
X15975381Y-14286952D01*
X15965857Y-14267905D01*
X15965857Y-14096476D01*
X16146809Y-14286952D02*
X16127762Y-14296476D01*
X16089667Y-14296476D01*
X16070619Y-14286952D01*
X16061095Y-14267905D01*
X16061095Y-14191714D01*
X16070619Y-14172667D01*
X16089667Y-14163143D01*
X16127762Y-14163143D01*
X16146809Y-14172667D01*
X16156333Y-14191714D01*
X16156333Y-14210762D01*
X16061095Y-14229809D01*
X16232524Y-14286952D02*
X16251571Y-14296476D01*
X16289667Y-14296476D01*
X16308714Y-14286952D01*
X16318238Y-14267905D01*
X16318238Y-14258381D01*
X16308714Y-14239333D01*
X16289667Y-14229809D01*
X16261095Y-14229809D01*
X16242048Y-14220286D01*
X16232524Y-14201238D01*
X16232524Y-14191714D01*
X16242048Y-14172667D01*
X16261095Y-14163143D01*
X16289667Y-14163143D01*
X16308714Y-14172667D01*
X16384905Y-14372667D02*
X16394428Y-14363143D01*
X16413476Y-14334571D01*
X16423000Y-14315524D01*
X16432524Y-14286952D01*
X16442048Y-14239333D01*
X16442048Y-14201238D01*
X16432524Y-14153619D01*
X16423000Y-14125048D01*
X16413476Y-14106000D01*
X16394428Y-14077428D01*
X16384905Y-14067905D01*
D12*
X11613000Y-14470000D02*
G75*
G03*
X11613000Y-14470000I-35000J0D01*
G01*
D10*
X11908714Y-14360476D02*
X11927762Y-14360476D01*
X11946809Y-14370000D01*
X11956333Y-14379524D01*
X11965857Y-14398571D01*
X11975381Y-14436667D01*
X11975381Y-14484286D01*
X11965857Y-14522381D01*
X11956333Y-14541428D01*
X11946809Y-14550952D01*
X11927762Y-14560476D01*
X11908714Y-14560476D01*
X11889667Y-14550952D01*
X11880143Y-14541428D01*
X11870619Y-14522381D01*
X11861095Y-14484286D01*
X11861095Y-14436667D01*
X11870619Y-14398571D01*
X11880143Y-14379524D01*
X11889667Y-14370000D01*
X11908714Y-14360476D01*
X12061095Y-14541428D02*
X12070619Y-14550952D01*
X12061095Y-14560476D01*
X12051571Y-14550952D01*
X12061095Y-14541428D01*
X12061095Y-14560476D01*
X12137286Y-14360476D02*
X12270619Y-14360476D01*
X12184905Y-14560476D01*
X12384905Y-14360476D02*
X12403952Y-14360476D01*
X12423000Y-14370000D01*
X12432524Y-14379524D01*
X12442048Y-14398571D01*
X12451571Y-14436667D01*
X12451571Y-14484286D01*
X12442048Y-14522381D01*
X12432524Y-14541428D01*
X12423000Y-14550952D01*
X12403952Y-14560476D01*
X12384905Y-14560476D01*
X12365857Y-14550952D01*
X12356333Y-14541428D01*
X12346809Y-14522381D01*
X12337286Y-14484286D01*
X12337286Y-14436667D01*
X12346809Y-14398571D01*
X12356333Y-14379524D01*
X12365857Y-14370000D01*
X12384905Y-14360476D01*
X12575381Y-14360476D02*
X12594428Y-14360476D01*
X12613476Y-14370000D01*
X12623000Y-14379524D01*
X12632524Y-14398571D01*
X12642048Y-14436667D01*
X12642048Y-14484286D01*
X12632524Y-14522381D01*
X12623000Y-14541428D01*
X12613476Y-14550952D01*
X12594428Y-14560476D01*
X12575381Y-14560476D01*
X12556333Y-14550952D01*
X12546809Y-14541428D01*
X12537286Y-14522381D01*
X12527762Y-14484286D01*
X12527762Y-14436667D01*
X12537286Y-14398571D01*
X12546809Y-14379524D01*
X12556333Y-14370000D01*
X12575381Y-14360476D01*
X12727762Y-14560476D02*
X12727762Y-14427143D01*
X12727762Y-14446190D02*
X12737286Y-14436667D01*
X12756333Y-14427143D01*
X12784905Y-14427143D01*
X12803952Y-14436667D01*
X12813476Y-14455714D01*
X12813476Y-14560476D01*
X12813476Y-14455714D02*
X12823000Y-14436667D01*
X12842048Y-14427143D01*
X12870619Y-14427143D01*
X12889667Y-14436667D01*
X12899190Y-14455714D01*
X12899190Y-14560476D01*
X12994428Y-14560476D02*
X12994428Y-14427143D01*
X12994428Y-14446190D02*
X13003952Y-14436667D01*
X13023000Y-14427143D01*
X13051571Y-14427143D01*
X13070619Y-14436667D01*
X13080143Y-14455714D01*
X13080143Y-14560476D01*
X13080143Y-14455714D02*
X13089667Y-14436667D01*
X13108714Y-14427143D01*
X13137286Y-14427143D01*
X13156333Y-14436667D01*
X13165857Y-14455714D01*
X13165857Y-14560476D01*
X13556333Y-14350952D02*
X13384905Y-14608095D01*
X13813476Y-14360476D02*
X13832524Y-14360476D01*
X13851571Y-14370000D01*
X13861095Y-14379524D01*
X13870619Y-14398571D01*
X13880143Y-14436667D01*
X13880143Y-14484286D01*
X13870619Y-14522381D01*
X13861095Y-14541428D01*
X13851571Y-14550952D01*
X13832524Y-14560476D01*
X13813476Y-14560476D01*
X13794428Y-14550952D01*
X13784905Y-14541428D01*
X13775381Y-14522381D01*
X13765857Y-14484286D01*
X13765857Y-14436667D01*
X13775381Y-14398571D01*
X13784905Y-14379524D01*
X13794428Y-14370000D01*
X13813476Y-14360476D01*
X13965857Y-14541428D02*
X13975381Y-14550952D01*
X13965857Y-14560476D01*
X13956333Y-14550952D01*
X13965857Y-14541428D01*
X13965857Y-14560476D01*
X14099190Y-14360476D02*
X14118238Y-14360476D01*
X14137286Y-14370000D01*
X14146809Y-14379524D01*
X14156333Y-14398571D01*
X14165857Y-14436667D01*
X14165857Y-14484286D01*
X14156333Y-14522381D01*
X14146809Y-14541428D01*
X14137286Y-14550952D01*
X14118238Y-14560476D01*
X14099190Y-14560476D01*
X14080143Y-14550952D01*
X14070619Y-14541428D01*
X14061095Y-14522381D01*
X14051571Y-14484286D01*
X14051571Y-14436667D01*
X14061095Y-14398571D01*
X14070619Y-14379524D01*
X14080143Y-14370000D01*
X14099190Y-14360476D01*
X14242048Y-14379524D02*
X14251571Y-14370000D01*
X14270619Y-14360476D01*
X14318238Y-14360476D01*
X14337286Y-14370000D01*
X14346809Y-14379524D01*
X14356333Y-14398571D01*
X14356333Y-14417619D01*
X14346809Y-14446190D01*
X14232524Y-14560476D01*
X14356333Y-14560476D01*
X14423000Y-14360476D02*
X14556333Y-14360476D01*
X14470619Y-14560476D01*
X14718238Y-14360476D02*
X14680143Y-14360476D01*
X14661095Y-14370000D01*
X14651571Y-14379524D01*
X14632524Y-14408095D01*
X14623000Y-14446190D01*
X14623000Y-14522381D01*
X14632524Y-14541428D01*
X14642048Y-14550952D01*
X14661095Y-14560476D01*
X14699190Y-14560476D01*
X14718238Y-14550952D01*
X14727762Y-14541428D01*
X14737286Y-14522381D01*
X14737286Y-14474762D01*
X14727762Y-14455714D01*
X14718238Y-14446190D01*
X14699190Y-14436667D01*
X14661095Y-14436667D01*
X14642048Y-14446190D01*
X14632524Y-14455714D01*
X14623000Y-14474762D01*
X14813476Y-14360476D02*
X14813476Y-14398571D01*
X14889667Y-14360476D02*
X14889667Y-14398571D01*
X15184905Y-14636667D02*
X15175381Y-14627143D01*
X15156333Y-14598571D01*
X15146809Y-14579524D01*
X15137286Y-14550952D01*
X15127762Y-14503333D01*
X15127762Y-14465238D01*
X15137286Y-14417619D01*
X15146809Y-14389048D01*
X15156333Y-14370000D01*
X15175381Y-14341428D01*
X15184905Y-14331905D01*
X15365857Y-14560476D02*
X15251571Y-14560476D01*
X15308714Y-14560476D02*
X15308714Y-14360476D01*
X15289667Y-14389048D01*
X15270619Y-14408095D01*
X15251571Y-14417619D01*
X15603952Y-14560476D02*
X15603952Y-14360476D01*
X15689667Y-14560476D02*
X15689667Y-14455714D01*
X15680143Y-14436667D01*
X15661095Y-14427143D01*
X15632524Y-14427143D01*
X15613476Y-14436667D01*
X15603952Y-14446190D01*
X15813476Y-14560476D02*
X15794428Y-14550952D01*
X15784905Y-14541428D01*
X15775381Y-14522381D01*
X15775381Y-14465238D01*
X15784905Y-14446190D01*
X15794428Y-14436667D01*
X15813476Y-14427143D01*
X15842048Y-14427143D01*
X15861095Y-14436667D01*
X15870619Y-14446190D01*
X15880143Y-14465238D01*
X15880143Y-14522381D01*
X15870619Y-14541428D01*
X15861095Y-14550952D01*
X15842048Y-14560476D01*
X15813476Y-14560476D01*
X15994428Y-14560476D02*
X15975381Y-14550952D01*
X15965857Y-14531905D01*
X15965857Y-14360476D01*
X16146809Y-14550952D02*
X16127762Y-14560476D01*
X16089667Y-14560476D01*
X16070619Y-14550952D01*
X16061095Y-14531905D01*
X16061095Y-14455714D01*
X16070619Y-14436667D01*
X16089667Y-14427143D01*
X16127762Y-14427143D01*
X16146809Y-14436667D01*
X16156333Y-14455714D01*
X16156333Y-14474762D01*
X16061095Y-14493809D01*
X16223000Y-14636667D02*
X16232524Y-14627143D01*
X16251571Y-14598571D01*
X16261095Y-14579524D01*
X16270619Y-14550952D01*
X16280143Y-14503333D01*
X16280143Y-14465238D01*
X16270619Y-14417619D01*
X16261095Y-14389048D01*
X16251571Y-14370000D01*
X16232524Y-14341428D01*
X16223000Y-14331905D01*
D13*
X11573000Y-14694000D02*
X11573000Y-14774000D01*
X11533000Y-14734000D02*
X11613000Y-14734000D01*
D10*
X11908714Y-14624476D02*
X11927762Y-14624476D01*
X11946809Y-14634000D01*
X11956333Y-14643524D01*
X11965857Y-14662571D01*
X11975381Y-14700667D01*
X11975381Y-14748286D01*
X11965857Y-14786381D01*
X11956333Y-14805428D01*
X11946809Y-14814952D01*
X11927762Y-14824476D01*
X11908714Y-14824476D01*
X11889667Y-14814952D01*
X11880143Y-14805428D01*
X11870619Y-14786381D01*
X11861095Y-14748286D01*
X11861095Y-14700667D01*
X11870619Y-14662571D01*
X11880143Y-14643524D01*
X11889667Y-14634000D01*
X11908714Y-14624476D01*
X12061095Y-14805428D02*
X12070619Y-14814952D01*
X12061095Y-14824476D01*
X12051571Y-14814952D01*
X12061095Y-14805428D01*
X12061095Y-14824476D01*
X12184905Y-14710190D02*
X12165857Y-14700667D01*
X12156333Y-14691143D01*
X12146809Y-14672095D01*
X12146809Y-14662571D01*
X12156333Y-14643524D01*
X12165857Y-14634000D01*
X12184905Y-14624476D01*
X12223000Y-14624476D01*
X12242048Y-14634000D01*
X12251571Y-14643524D01*
X12261095Y-14662571D01*
X12261095Y-14672095D01*
X12251571Y-14691143D01*
X12242048Y-14700667D01*
X12223000Y-14710190D01*
X12184905Y-14710190D01*
X12165857Y-14719714D01*
X12156333Y-14729238D01*
X12146809Y-14748286D01*
X12146809Y-14786381D01*
X12156333Y-14805428D01*
X12165857Y-14814952D01*
X12184905Y-14824476D01*
X12223000Y-14824476D01*
X12242048Y-14814952D01*
X12251571Y-14805428D01*
X12261095Y-14786381D01*
X12261095Y-14748286D01*
X12251571Y-14729238D01*
X12242048Y-14719714D01*
X12223000Y-14710190D01*
X12384905Y-14624476D02*
X12403952Y-14624476D01*
X12423000Y-14634000D01*
X12432524Y-14643524D01*
X12442048Y-14662571D01*
X12451571Y-14700667D01*
X12451571Y-14748286D01*
X12442048Y-14786381D01*
X12432524Y-14805428D01*
X12423000Y-14814952D01*
X12403952Y-14824476D01*
X12384905Y-14824476D01*
X12365857Y-14814952D01*
X12356333Y-14805428D01*
X12346809Y-14786381D01*
X12337286Y-14748286D01*
X12337286Y-14700667D01*
X12346809Y-14662571D01*
X12356333Y-14643524D01*
X12365857Y-14634000D01*
X12384905Y-14624476D01*
X12575381Y-14624476D02*
X12594428Y-14624476D01*
X12613476Y-14634000D01*
X12623000Y-14643524D01*
X12632524Y-14662571D01*
X12642048Y-14700667D01*
X12642048Y-14748286D01*
X12632524Y-14786381D01*
X12623000Y-14805428D01*
X12613476Y-14814952D01*
X12594428Y-14824476D01*
X12575381Y-14824476D01*
X12556333Y-14814952D01*
X12546809Y-14805428D01*
X12537286Y-14786381D01*
X12527762Y-14748286D01*
X12527762Y-14700667D01*
X12537286Y-14662571D01*
X12546809Y-14643524D01*
X12556333Y-14634000D01*
X12575381Y-14624476D01*
X12727762Y-14824476D02*
X12727762Y-14691143D01*
X12727762Y-14710190D02*
X12737286Y-14700667D01*
X12756333Y-14691143D01*
X12784905Y-14691143D01*
X12803952Y-14700667D01*
X12813476Y-14719714D01*
X12813476Y-14824476D01*
X12813476Y-14719714D02*
X12823000Y-14700667D01*
X12842048Y-14691143D01*
X12870619Y-14691143D01*
X12889667Y-14700667D01*
X12899190Y-14719714D01*
X12899190Y-14824476D01*
X12994428Y-14824476D02*
X12994428Y-14691143D01*
X12994428Y-14710190D02*
X13003952Y-14700667D01*
X13023000Y-14691143D01*
X13051571Y-14691143D01*
X13070619Y-14700667D01*
X13080143Y-14719714D01*
X13080143Y-14824476D01*
X13080143Y-14719714D02*
X13089667Y-14700667D01*
X13108714Y-14691143D01*
X13137286Y-14691143D01*
X13156333Y-14700667D01*
X13165857Y-14719714D01*
X13165857Y-14824476D01*
X13556333Y-14614952D02*
X13384905Y-14872095D01*
X13813476Y-14624476D02*
X13832524Y-14624476D01*
X13851571Y-14634000D01*
X13861095Y-14643524D01*
X13870619Y-14662571D01*
X13880143Y-14700667D01*
X13880143Y-14748286D01*
X13870619Y-14786381D01*
X13861095Y-14805428D01*
X13851571Y-14814952D01*
X13832524Y-14824476D01*
X13813476Y-14824476D01*
X13794428Y-14814952D01*
X13784905Y-14805428D01*
X13775381Y-14786381D01*
X13765857Y-14748286D01*
X13765857Y-14700667D01*
X13775381Y-14662571D01*
X13784905Y-14643524D01*
X13794428Y-14634000D01*
X13813476Y-14624476D01*
X13965857Y-14805428D02*
X13975381Y-14814952D01*
X13965857Y-14824476D01*
X13956333Y-14814952D01*
X13965857Y-14805428D01*
X13965857Y-14824476D01*
X14099190Y-14624476D02*
X14118238Y-14624476D01*
X14137286Y-14634000D01*
X14146809Y-14643524D01*
X14156333Y-14662571D01*
X14165857Y-14700667D01*
X14165857Y-14748286D01*
X14156333Y-14786381D01*
X14146809Y-14805428D01*
X14137286Y-14814952D01*
X14118238Y-14824476D01*
X14099190Y-14824476D01*
X14080143Y-14814952D01*
X14070619Y-14805428D01*
X14061095Y-14786381D01*
X14051571Y-14748286D01*
X14051571Y-14700667D01*
X14061095Y-14662571D01*
X14070619Y-14643524D01*
X14080143Y-14634000D01*
X14099190Y-14624476D01*
X14232524Y-14624476D02*
X14356333Y-14624476D01*
X14289667Y-14700667D01*
X14318238Y-14700667D01*
X14337286Y-14710190D01*
X14346809Y-14719714D01*
X14356333Y-14738762D01*
X14356333Y-14786381D01*
X14346809Y-14805428D01*
X14337286Y-14814952D01*
X14318238Y-14824476D01*
X14261095Y-14824476D01*
X14242048Y-14814952D01*
X14232524Y-14805428D01*
X14546809Y-14824476D02*
X14432524Y-14824476D01*
X14489667Y-14824476D02*
X14489667Y-14624476D01*
X14470619Y-14653048D01*
X14451571Y-14672095D01*
X14432524Y-14681619D01*
X14727762Y-14624476D02*
X14632524Y-14624476D01*
X14623000Y-14719714D01*
X14632524Y-14710190D01*
X14651571Y-14700667D01*
X14699190Y-14700667D01*
X14718238Y-14710190D01*
X14727762Y-14719714D01*
X14737286Y-14738762D01*
X14737286Y-14786381D01*
X14727762Y-14805428D01*
X14718238Y-14814952D01*
X14699190Y-14824476D01*
X14651571Y-14824476D01*
X14632524Y-14814952D01*
X14623000Y-14805428D01*
X14813476Y-14624476D02*
X14813476Y-14662571D01*
X14889667Y-14624476D02*
X14889667Y-14662571D01*
X15184905Y-14900667D02*
X15175381Y-14891143D01*
X15156333Y-14862571D01*
X15146809Y-14843524D01*
X15137286Y-14814952D01*
X15127762Y-14767333D01*
X15127762Y-14729238D01*
X15137286Y-14681619D01*
X15146809Y-14653048D01*
X15156333Y-14634000D01*
X15175381Y-14605428D01*
X15184905Y-14595905D01*
X15289667Y-14710190D02*
X15270619Y-14700667D01*
X15261095Y-14691143D01*
X15251571Y-14672095D01*
X15251571Y-14662571D01*
X15261095Y-14643524D01*
X15270619Y-14634000D01*
X15289667Y-14624476D01*
X15327762Y-14624476D01*
X15346809Y-14634000D01*
X15356333Y-14643524D01*
X15365857Y-14662571D01*
X15365857Y-14672095D01*
X15356333Y-14691143D01*
X15346809Y-14700667D01*
X15327762Y-14710190D01*
X15289667Y-14710190D01*
X15270619Y-14719714D01*
X15261095Y-14729238D01*
X15251571Y-14748286D01*
X15251571Y-14786381D01*
X15261095Y-14805428D01*
X15270619Y-14814952D01*
X15289667Y-14824476D01*
X15327762Y-14824476D01*
X15346809Y-14814952D01*
X15356333Y-14805428D01*
X15365857Y-14786381D01*
X15365857Y-14748286D01*
X15356333Y-14729238D01*
X15346809Y-14719714D01*
X15327762Y-14710190D01*
X15603952Y-14824476D02*
X15603952Y-14624476D01*
X15689667Y-14824476D02*
X15689667Y-14719714D01*
X15680143Y-14700667D01*
X15661095Y-14691143D01*
X15632524Y-14691143D01*
X15613476Y-14700667D01*
X15603952Y-14710190D01*
X15813476Y-14824476D02*
X15794428Y-14814952D01*
X15784905Y-14805428D01*
X15775381Y-14786381D01*
X15775381Y-14729238D01*
X15784905Y-14710190D01*
X15794428Y-14700667D01*
X15813476Y-14691143D01*
X15842048Y-14691143D01*
X15861095Y-14700667D01*
X15870619Y-14710190D01*
X15880143Y-14729238D01*
X15880143Y-14786381D01*
X15870619Y-14805428D01*
X15861095Y-14814952D01*
X15842048Y-14824476D01*
X15813476Y-14824476D01*
X15994428Y-14824476D02*
X15975381Y-14814952D01*
X15965857Y-14795905D01*
X15965857Y-14624476D01*
X16146809Y-14814952D02*
X16127762Y-14824476D01*
X16089667Y-14824476D01*
X16070619Y-14814952D01*
X16061095Y-14795905D01*
X16061095Y-14719714D01*
X16070619Y-14700667D01*
X16089667Y-14691143D01*
X16127762Y-14691143D01*
X16146809Y-14700667D01*
X16156333Y-14719714D01*
X16156333Y-14738762D01*
X16061095Y-14757809D01*
X16232524Y-14814952D02*
X16251571Y-14824476D01*
X16289667Y-14824476D01*
X16308714Y-14814952D01*
X16318238Y-14795905D01*
X16318238Y-14786381D01*
X16308714Y-14767333D01*
X16289667Y-14757809D01*
X16261095Y-14757809D01*
X16242048Y-14748286D01*
X16232524Y-14729238D01*
X16232524Y-14719714D01*
X16242048Y-14700667D01*
X16261095Y-14691143D01*
X16289667Y-14691143D01*
X16308714Y-14700667D01*
X16384905Y-14900667D02*
X16394428Y-14891143D01*
X16413476Y-14862571D01*
X16423000Y-14843524D01*
X16432524Y-14814952D01*
X16442048Y-14767333D01*
X16442048Y-14729238D01*
X16432524Y-14681619D01*
X16423000Y-14653048D01*
X16413476Y-14634000D01*
X16394428Y-14605428D01*
X16384905Y-14595905D01*
D14*
X11598356Y-15033356D02*
X11598356Y-14962644D01*
X11527644Y-14962644D01*
X11527644Y-15033356D01*
X11598356Y-15033356D01*
D10*
X11975381Y-15088476D02*
X11861095Y-15088476D01*
X11918238Y-15088476D02*
X11918238Y-14888476D01*
X11899190Y-14917048D01*
X11880143Y-14936095D01*
X11861095Y-14945619D01*
X12061095Y-15069428D02*
X12070619Y-15078952D01*
X12061095Y-15088476D01*
X12051571Y-15078952D01*
X12061095Y-15069428D01*
X12061095Y-15088476D01*
X12194428Y-14888476D02*
X12213476Y-14888476D01*
X12232524Y-14898000D01*
X12242048Y-14907524D01*
X12251571Y-14926571D01*
X12261095Y-14964667D01*
X12261095Y-15012286D01*
X12251571Y-15050381D01*
X12242048Y-15069428D01*
X12232524Y-15078952D01*
X12213476Y-15088476D01*
X12194428Y-15088476D01*
X12175381Y-15078952D01*
X12165857Y-15069428D01*
X12156333Y-15050381D01*
X12146809Y-15012286D01*
X12146809Y-14964667D01*
X12156333Y-14926571D01*
X12165857Y-14907524D01*
X12175381Y-14898000D01*
X12194428Y-14888476D01*
X12384905Y-14888476D02*
X12403952Y-14888476D01*
X12423000Y-14898000D01*
X12432524Y-14907524D01*
X12442048Y-14926571D01*
X12451571Y-14964667D01*
X12451571Y-15012286D01*
X12442048Y-15050381D01*
X12432524Y-15069428D01*
X12423000Y-15078952D01*
X12403952Y-15088476D01*
X12384905Y-15088476D01*
X12365857Y-15078952D01*
X12356333Y-15069428D01*
X12346809Y-15050381D01*
X12337286Y-15012286D01*
X12337286Y-14964667D01*
X12346809Y-14926571D01*
X12356333Y-14907524D01*
X12365857Y-14898000D01*
X12384905Y-14888476D01*
X12575381Y-14888476D02*
X12594428Y-14888476D01*
X12613476Y-14898000D01*
X12623000Y-14907524D01*
X12632524Y-14926571D01*
X12642048Y-14964667D01*
X12642048Y-15012286D01*
X12632524Y-15050381D01*
X12623000Y-15069428D01*
X12613476Y-15078952D01*
X12594428Y-15088476D01*
X12575381Y-15088476D01*
X12556333Y-15078952D01*
X12546809Y-15069428D01*
X12537286Y-15050381D01*
X12527762Y-15012286D01*
X12527762Y-14964667D01*
X12537286Y-14926571D01*
X12546809Y-14907524D01*
X12556333Y-14898000D01*
X12575381Y-14888476D01*
X12727762Y-15088476D02*
X12727762Y-14955143D01*
X12727762Y-14974190D02*
X12737286Y-14964667D01*
X12756333Y-14955143D01*
X12784905Y-14955143D01*
X12803952Y-14964667D01*
X12813476Y-14983714D01*
X12813476Y-15088476D01*
X12813476Y-14983714D02*
X12823000Y-14964667D01*
X12842048Y-14955143D01*
X12870619Y-14955143D01*
X12889667Y-14964667D01*
X12899190Y-14983714D01*
X12899190Y-15088476D01*
X12994428Y-15088476D02*
X12994428Y-14955143D01*
X12994428Y-14974190D02*
X13003952Y-14964667D01*
X13023000Y-14955143D01*
X13051571Y-14955143D01*
X13070619Y-14964667D01*
X13080143Y-14983714D01*
X13080143Y-15088476D01*
X13080143Y-14983714D02*
X13089667Y-14964667D01*
X13108714Y-14955143D01*
X13137286Y-14955143D01*
X13156333Y-14964667D01*
X13165857Y-14983714D01*
X13165857Y-15088476D01*
X13556333Y-14878952D02*
X13384905Y-15136095D01*
X13813476Y-14888476D02*
X13832524Y-14888476D01*
X13851571Y-14898000D01*
X13861095Y-14907524D01*
X13870619Y-14926571D01*
X13880143Y-14964667D01*
X13880143Y-15012286D01*
X13870619Y-15050381D01*
X13861095Y-15069428D01*
X13851571Y-15078952D01*
X13832524Y-15088476D01*
X13813476Y-15088476D01*
X13794428Y-15078952D01*
X13784905Y-15069428D01*
X13775381Y-15050381D01*
X13765857Y-15012286D01*
X13765857Y-14964667D01*
X13775381Y-14926571D01*
X13784905Y-14907524D01*
X13794428Y-14898000D01*
X13813476Y-14888476D01*
X13965857Y-15069428D02*
X13975381Y-15078952D01*
X13965857Y-15088476D01*
X13956333Y-15078952D01*
X13965857Y-15069428D01*
X13965857Y-15088476D01*
X14099190Y-14888476D02*
X14118238Y-14888476D01*
X14137286Y-14898000D01*
X14146809Y-14907524D01*
X14156333Y-14926571D01*
X14165857Y-14964667D01*
X14165857Y-15012286D01*
X14156333Y-15050381D01*
X14146809Y-15069428D01*
X14137286Y-15078952D01*
X14118238Y-15088476D01*
X14099190Y-15088476D01*
X14080143Y-15078952D01*
X14070619Y-15069428D01*
X14061095Y-15050381D01*
X14051571Y-15012286D01*
X14051571Y-14964667D01*
X14061095Y-14926571D01*
X14070619Y-14907524D01*
X14080143Y-14898000D01*
X14099190Y-14888476D01*
X14232524Y-14888476D02*
X14356333Y-14888476D01*
X14289667Y-14964667D01*
X14318238Y-14964667D01*
X14337286Y-14974190D01*
X14346809Y-14983714D01*
X14356333Y-15002762D01*
X14356333Y-15050381D01*
X14346809Y-15069428D01*
X14337286Y-15078952D01*
X14318238Y-15088476D01*
X14261095Y-15088476D01*
X14242048Y-15078952D01*
X14232524Y-15069428D01*
X14451571Y-15088476D02*
X14489667Y-15088476D01*
X14508714Y-15078952D01*
X14518238Y-15069428D01*
X14537286Y-15040857D01*
X14546809Y-15002762D01*
X14546809Y-14926571D01*
X14537286Y-14907524D01*
X14527762Y-14898000D01*
X14508714Y-14888476D01*
X14470619Y-14888476D01*
X14451571Y-14898000D01*
X14442048Y-14907524D01*
X14432524Y-14926571D01*
X14432524Y-14974190D01*
X14442048Y-14993238D01*
X14451571Y-15002762D01*
X14470619Y-15012286D01*
X14508714Y-15012286D01*
X14527762Y-15002762D01*
X14537286Y-14993238D01*
X14546809Y-14974190D01*
X14718238Y-14955143D02*
X14718238Y-15088476D01*
X14670619Y-14878952D02*
X14623000Y-15021809D01*
X14746809Y-15021809D01*
X14813476Y-14888476D02*
X14813476Y-14926571D01*
X14889667Y-14888476D02*
X14889667Y-14926571D01*
X15184905Y-15164667D02*
X15175381Y-15155143D01*
X15156333Y-15126571D01*
X15146809Y-15107524D01*
X15137286Y-15078952D01*
X15127762Y-15031333D01*
X15127762Y-14993238D01*
X15137286Y-14945619D01*
X15146809Y-14917048D01*
X15156333Y-14898000D01*
X15175381Y-14869428D01*
X15184905Y-14859905D01*
X15356333Y-14888476D02*
X15261095Y-14888476D01*
X15251571Y-14983714D01*
X15261095Y-14974190D01*
X15280143Y-14964667D01*
X15327762Y-14964667D01*
X15346809Y-14974190D01*
X15356333Y-14983714D01*
X15365857Y-15002762D01*
X15365857Y-15050381D01*
X15356333Y-15069428D01*
X15346809Y-15078952D01*
X15327762Y-15088476D01*
X15280143Y-15088476D01*
X15261095Y-15078952D01*
X15251571Y-15069428D01*
X15432524Y-14888476D02*
X15565857Y-14888476D01*
X15480143Y-15088476D01*
X15794428Y-15088476D02*
X15794428Y-14888476D01*
X15880143Y-15088476D02*
X15880143Y-14983714D01*
X15870619Y-14964667D01*
X15851571Y-14955143D01*
X15823000Y-14955143D01*
X15803952Y-14964667D01*
X15794428Y-14974190D01*
X16003952Y-15088476D02*
X15984905Y-15078952D01*
X15975381Y-15069428D01*
X15965857Y-15050381D01*
X15965857Y-14993238D01*
X15975381Y-14974190D01*
X15984905Y-14964667D01*
X16003952Y-14955143D01*
X16032524Y-14955143D01*
X16051571Y-14964667D01*
X16061095Y-14974190D01*
X16070619Y-14993238D01*
X16070619Y-15050381D01*
X16061095Y-15069428D01*
X16051571Y-15078952D01*
X16032524Y-15088476D01*
X16003952Y-15088476D01*
X16184905Y-15088476D02*
X16165857Y-15078952D01*
X16156333Y-15059905D01*
X16156333Y-14888476D01*
X16337286Y-15078952D02*
X16318238Y-15088476D01*
X16280143Y-15088476D01*
X16261095Y-15078952D01*
X16251571Y-15059905D01*
X16251571Y-14983714D01*
X16261095Y-14964667D01*
X16280143Y-14955143D01*
X16318238Y-14955143D01*
X16337286Y-14964667D01*
X16346809Y-14983714D01*
X16346809Y-15002762D01*
X16251571Y-15021809D01*
X16423000Y-15078952D02*
X16442048Y-15088476D01*
X16480143Y-15088476D01*
X16499190Y-15078952D01*
X16508714Y-15059905D01*
X16508714Y-15050381D01*
X16499190Y-15031333D01*
X16480143Y-15021809D01*
X16451571Y-15021809D01*
X16432524Y-15012286D01*
X16423000Y-14993238D01*
X16423000Y-14983714D01*
X16432524Y-14964667D01*
X16451571Y-14955143D01*
X16480143Y-14955143D01*
X16499190Y-14964667D01*
X16575381Y-15164667D02*
X16584905Y-15155143D01*
X16603952Y-15126571D01*
X16613476Y-15107524D01*
X16623000Y-15078952D01*
X16632524Y-15031333D01*
X16632524Y-14993238D01*
X16623000Y-14945619D01*
X16613476Y-14917048D01*
X16603952Y-14898000D01*
X16584905Y-14869428D01*
X16575381Y-14859905D01*
D15*
X11558000Y-15317000D02*
X11613000Y-15262000D01*
X11558000Y-15207000D01*
X11503000Y-15262000D01*
X11558000Y-15317000D01*
D10*
X11975381Y-15352476D02*
X11861095Y-15352476D01*
X11918238Y-15352476D02*
X11918238Y-15152476D01*
X11899190Y-15181048D01*
X11880143Y-15200095D01*
X11861095Y-15209619D01*
X12061095Y-15333428D02*
X12070619Y-15342952D01*
X12061095Y-15352476D01*
X12051571Y-15342952D01*
X12061095Y-15333428D01*
X12061095Y-15352476D01*
X12261095Y-15352476D02*
X12146809Y-15352476D01*
X12203952Y-15352476D02*
X12203952Y-15152476D01*
X12184905Y-15181048D01*
X12165857Y-15200095D01*
X12146809Y-15209619D01*
X12384905Y-15152476D02*
X12403952Y-15152476D01*
X12423000Y-15162000D01*
X12432524Y-15171524D01*
X12442048Y-15190571D01*
X12451571Y-15228667D01*
X12451571Y-15276286D01*
X12442048Y-15314381D01*
X12432524Y-15333428D01*
X12423000Y-15342952D01*
X12403952Y-15352476D01*
X12384905Y-15352476D01*
X12365857Y-15342952D01*
X12356333Y-15333428D01*
X12346809Y-15314381D01*
X12337286Y-15276286D01*
X12337286Y-15228667D01*
X12346809Y-15190571D01*
X12356333Y-15171524D01*
X12365857Y-15162000D01*
X12384905Y-15152476D01*
X12575381Y-15152476D02*
X12594428Y-15152476D01*
X12613476Y-15162000D01*
X12623000Y-15171524D01*
X12632524Y-15190571D01*
X12642048Y-15228667D01*
X12642048Y-15276286D01*
X12632524Y-15314381D01*
X12623000Y-15333428D01*
X12613476Y-15342952D01*
X12594428Y-15352476D01*
X12575381Y-15352476D01*
X12556333Y-15342952D01*
X12546809Y-15333428D01*
X12537286Y-15314381D01*
X12527762Y-15276286D01*
X12527762Y-15228667D01*
X12537286Y-15190571D01*
X12546809Y-15171524D01*
X12556333Y-15162000D01*
X12575381Y-15152476D01*
X12727762Y-15352476D02*
X12727762Y-15219143D01*
X12727762Y-15238190D02*
X12737286Y-15228667D01*
X12756333Y-15219143D01*
X12784905Y-15219143D01*
X12803952Y-15228667D01*
X12813476Y-15247714D01*
X12813476Y-15352476D01*
X12813476Y-15247714D02*
X12823000Y-15228667D01*
X12842048Y-15219143D01*
X12870619Y-15219143D01*
X12889667Y-15228667D01*
X12899190Y-15247714D01*
X12899190Y-15352476D01*
X12994428Y-15352476D02*
X12994428Y-15219143D01*
X12994428Y-15238190D02*
X13003952Y-15228667D01*
X13023000Y-15219143D01*
X13051571Y-15219143D01*
X13070619Y-15228667D01*
X13080143Y-15247714D01*
X13080143Y-15352476D01*
X13080143Y-15247714D02*
X13089667Y-15228667D01*
X13108714Y-15219143D01*
X13137286Y-15219143D01*
X13156333Y-15228667D01*
X13165857Y-15247714D01*
X13165857Y-15352476D01*
X13556333Y-15142952D02*
X13384905Y-15400095D01*
X13813476Y-15152476D02*
X13832524Y-15152476D01*
X13851571Y-15162000D01*
X13861095Y-15171524D01*
X13870619Y-15190571D01*
X13880143Y-15228667D01*
X13880143Y-15276286D01*
X13870619Y-15314381D01*
X13861095Y-15333428D01*
X13851571Y-15342952D01*
X13832524Y-15352476D01*
X13813476Y-15352476D01*
X13794428Y-15342952D01*
X13784905Y-15333428D01*
X13775381Y-15314381D01*
X13765857Y-15276286D01*
X13765857Y-15228667D01*
X13775381Y-15190571D01*
X13784905Y-15171524D01*
X13794428Y-15162000D01*
X13813476Y-15152476D01*
X13965857Y-15333428D02*
X13975381Y-15342952D01*
X13965857Y-15352476D01*
X13956333Y-15342952D01*
X13965857Y-15333428D01*
X13965857Y-15352476D01*
X14099190Y-15152476D02*
X14118238Y-15152476D01*
X14137286Y-15162000D01*
X14146809Y-15171524D01*
X14156333Y-15190571D01*
X14165857Y-15228667D01*
X14165857Y-15276286D01*
X14156333Y-15314381D01*
X14146809Y-15333428D01*
X14137286Y-15342952D01*
X14118238Y-15352476D01*
X14099190Y-15352476D01*
X14080143Y-15342952D01*
X14070619Y-15333428D01*
X14061095Y-15314381D01*
X14051571Y-15276286D01*
X14051571Y-15228667D01*
X14061095Y-15190571D01*
X14070619Y-15171524D01*
X14080143Y-15162000D01*
X14099190Y-15152476D01*
X14337286Y-15219143D02*
X14337286Y-15352476D01*
X14289667Y-15142952D02*
X14242048Y-15285809D01*
X14365857Y-15285809D01*
X14423000Y-15152476D02*
X14546809Y-15152476D01*
X14480143Y-15228667D01*
X14508714Y-15228667D01*
X14527762Y-15238190D01*
X14537286Y-15247714D01*
X14546809Y-15266762D01*
X14546809Y-15314381D01*
X14537286Y-15333428D01*
X14527762Y-15342952D01*
X14508714Y-15352476D01*
X14451571Y-15352476D01*
X14432524Y-15342952D01*
X14423000Y-15333428D01*
X14613476Y-15152476D02*
X14737286Y-15152476D01*
X14670619Y-15228667D01*
X14699190Y-15228667D01*
X14718238Y-15238190D01*
X14727762Y-15247714D01*
X14737286Y-15266762D01*
X14737286Y-15314381D01*
X14727762Y-15333428D01*
X14718238Y-15342952D01*
X14699190Y-15352476D01*
X14642048Y-15352476D01*
X14623000Y-15342952D01*
X14613476Y-15333428D01*
X14813476Y-15152476D02*
X14813476Y-15190571D01*
X14889667Y-15152476D02*
X14889667Y-15190571D01*
X15184905Y-15428667D02*
X15175381Y-15419143D01*
X15156333Y-15390571D01*
X15146809Y-15371524D01*
X15137286Y-15342952D01*
X15127762Y-15295333D01*
X15127762Y-15257238D01*
X15137286Y-15209619D01*
X15146809Y-15181048D01*
X15156333Y-15162000D01*
X15175381Y-15133428D01*
X15184905Y-15123905D01*
X15356333Y-15152476D02*
X15261095Y-15152476D01*
X15251571Y-15247714D01*
X15261095Y-15238190D01*
X15280143Y-15228667D01*
X15327762Y-15228667D01*
X15346809Y-15238190D01*
X15356333Y-15247714D01*
X15365857Y-15266762D01*
X15365857Y-15314381D01*
X15356333Y-15333428D01*
X15346809Y-15342952D01*
X15327762Y-15352476D01*
X15280143Y-15352476D01*
X15261095Y-15342952D01*
X15251571Y-15333428D01*
X15461095Y-15352476D02*
X15499190Y-15352476D01*
X15518238Y-15342952D01*
X15527762Y-15333428D01*
X15546809Y-15304857D01*
X15556333Y-15266762D01*
X15556333Y-15190571D01*
X15546809Y-15171524D01*
X15537286Y-15162000D01*
X15518238Y-15152476D01*
X15480143Y-15152476D01*
X15461095Y-15162000D01*
X15451571Y-15171524D01*
X15442048Y-15190571D01*
X15442048Y-15238190D01*
X15451571Y-15257238D01*
X15461095Y-15266762D01*
X15480143Y-15276286D01*
X15518238Y-15276286D01*
X15537286Y-15266762D01*
X15546809Y-15257238D01*
X15556333Y-15238190D01*
X15794428Y-15352476D02*
X15794428Y-15152476D01*
X15880143Y-15352476D02*
X15880143Y-15247714D01*
X15870619Y-15228667D01*
X15851571Y-15219143D01*
X15823000Y-15219143D01*
X15803952Y-15228667D01*
X15794428Y-15238190D01*
X16003952Y-15352476D02*
X15984905Y-15342952D01*
X15975381Y-15333428D01*
X15965857Y-15314381D01*
X15965857Y-15257238D01*
X15975381Y-15238190D01*
X15984905Y-15228667D01*
X16003952Y-15219143D01*
X16032524Y-15219143D01*
X16051571Y-15228667D01*
X16061095Y-15238190D01*
X16070619Y-15257238D01*
X16070619Y-15314381D01*
X16061095Y-15333428D01*
X16051571Y-15342952D01*
X16032524Y-15352476D01*
X16003952Y-15352476D01*
X16184905Y-15352476D02*
X16165857Y-15342952D01*
X16156333Y-15323905D01*
X16156333Y-15152476D01*
X16337286Y-15342952D02*
X16318238Y-15352476D01*
X16280143Y-15352476D01*
X16261095Y-15342952D01*
X16251571Y-15323905D01*
X16251571Y-15247714D01*
X16261095Y-15228667D01*
X16280143Y-15219143D01*
X16318238Y-15219143D01*
X16337286Y-15228667D01*
X16346809Y-15247714D01*
X16346809Y-15266762D01*
X16251571Y-15285809D01*
X16423000Y-15342952D02*
X16442048Y-15352476D01*
X16480143Y-15352476D01*
X16499190Y-15342952D01*
X16508714Y-15323905D01*
X16508714Y-15314381D01*
X16499190Y-15295333D01*
X16480143Y-15285809D01*
X16451571Y-15285809D01*
X16432524Y-15276286D01*
X16423000Y-15257238D01*
X16423000Y-15247714D01*
X16432524Y-15228667D01*
X16451571Y-15219143D01*
X16480143Y-15219143D01*
X16499190Y-15228667D01*
X16575381Y-15428667D02*
X16584905Y-15419143D01*
X16603952Y-15390571D01*
X16613476Y-15371524D01*
X16623000Y-15342952D01*
X16632524Y-15295333D01*
X16632524Y-15257238D01*
X16623000Y-15209619D01*
X16613476Y-15181048D01*
X16603952Y-15162000D01*
X16584905Y-15133428D01*
X16575381Y-15123905D01*
D16*
X11498700Y-15468850D02*
X11613000Y-15583150D01*
X11613000Y-15468850D02*
X11498700Y-15583150D01*
X11613000Y-15526000D02*
G75*
G03*
X11613000Y-15526000I-57150J0D01*
G01*
D10*
X11975381Y-15616476D02*
X11861095Y-15616476D01*
X11918238Y-15616476D02*
X11918238Y-15416476D01*
X11899190Y-15445048D01*
X11880143Y-15464095D01*
X11861095Y-15473619D01*
X12061095Y-15597428D02*
X12070619Y-15606952D01*
X12061095Y-15616476D01*
X12051571Y-15606952D01*
X12061095Y-15597428D01*
X12061095Y-15616476D01*
X12261095Y-15616476D02*
X12146809Y-15616476D01*
X12203952Y-15616476D02*
X12203952Y-15416476D01*
X12184905Y-15445048D01*
X12165857Y-15464095D01*
X12146809Y-15473619D01*
X12432524Y-15483143D02*
X12432524Y-15616476D01*
X12384905Y-15406952D02*
X12337286Y-15549809D01*
X12461095Y-15549809D01*
X12518238Y-15416476D02*
X12642048Y-15416476D01*
X12575381Y-15492667D01*
X12603952Y-15492667D01*
X12623000Y-15502190D01*
X12632524Y-15511714D01*
X12642048Y-15530762D01*
X12642048Y-15578381D01*
X12632524Y-15597428D01*
X12623000Y-15606952D01*
X12603952Y-15616476D01*
X12546809Y-15616476D01*
X12527762Y-15606952D01*
X12518238Y-15597428D01*
X12727762Y-15616476D02*
X12727762Y-15483143D01*
X12727762Y-15502190D02*
X12737286Y-15492667D01*
X12756333Y-15483143D01*
X12784905Y-15483143D01*
X12803952Y-15492667D01*
X12813476Y-15511714D01*
X12813476Y-15616476D01*
X12813476Y-15511714D02*
X12823000Y-15492667D01*
X12842048Y-15483143D01*
X12870619Y-15483143D01*
X12889667Y-15492667D01*
X12899190Y-15511714D01*
X12899190Y-15616476D01*
X12994428Y-15616476D02*
X12994428Y-15483143D01*
X12994428Y-15502190D02*
X13003952Y-15492667D01*
X13023000Y-15483143D01*
X13051571Y-15483143D01*
X13070619Y-15492667D01*
X13080143Y-15511714D01*
X13080143Y-15616476D01*
X13080143Y-15511714D02*
X13089667Y-15492667D01*
X13108714Y-15483143D01*
X13137286Y-15483143D01*
X13156333Y-15492667D01*
X13165857Y-15511714D01*
X13165857Y-15616476D01*
X13556333Y-15406952D02*
X13384905Y-15664095D01*
X13813476Y-15416476D02*
X13832524Y-15416476D01*
X13851571Y-15426000D01*
X13861095Y-15435524D01*
X13870619Y-15454571D01*
X13880143Y-15492667D01*
X13880143Y-15540286D01*
X13870619Y-15578381D01*
X13861095Y-15597428D01*
X13851571Y-15606952D01*
X13832524Y-15616476D01*
X13813476Y-15616476D01*
X13794428Y-15606952D01*
X13784905Y-15597428D01*
X13775381Y-15578381D01*
X13765857Y-15540286D01*
X13765857Y-15492667D01*
X13775381Y-15454571D01*
X13784905Y-15435524D01*
X13794428Y-15426000D01*
X13813476Y-15416476D01*
X13965857Y-15597428D02*
X13975381Y-15606952D01*
X13965857Y-15616476D01*
X13956333Y-15606952D01*
X13965857Y-15597428D01*
X13965857Y-15616476D01*
X14099190Y-15416476D02*
X14118238Y-15416476D01*
X14137286Y-15426000D01*
X14146809Y-15435524D01*
X14156333Y-15454571D01*
X14165857Y-15492667D01*
X14165857Y-15540286D01*
X14156333Y-15578381D01*
X14146809Y-15597428D01*
X14137286Y-15606952D01*
X14118238Y-15616476D01*
X14099190Y-15616476D01*
X14080143Y-15606952D01*
X14070619Y-15597428D01*
X14061095Y-15578381D01*
X14051571Y-15540286D01*
X14051571Y-15492667D01*
X14061095Y-15454571D01*
X14070619Y-15435524D01*
X14080143Y-15426000D01*
X14099190Y-15416476D01*
X14337286Y-15483143D02*
X14337286Y-15616476D01*
X14289667Y-15406952D02*
X14242048Y-15549809D01*
X14365857Y-15549809D01*
X14537286Y-15416476D02*
X14442048Y-15416476D01*
X14432524Y-15511714D01*
X14442048Y-15502190D01*
X14461095Y-15492667D01*
X14508714Y-15492667D01*
X14527762Y-15502190D01*
X14537286Y-15511714D01*
X14546809Y-15530762D01*
X14546809Y-15578381D01*
X14537286Y-15597428D01*
X14527762Y-15606952D01*
X14508714Y-15616476D01*
X14461095Y-15616476D01*
X14442048Y-15606952D01*
X14432524Y-15597428D01*
X14670619Y-15416476D02*
X14689667Y-15416476D01*
X14708714Y-15426000D01*
X14718238Y-15435524D01*
X14727762Y-15454571D01*
X14737286Y-15492667D01*
X14737286Y-15540286D01*
X14727762Y-15578381D01*
X14718238Y-15597428D01*
X14708714Y-15606952D01*
X14689667Y-15616476D01*
X14670619Y-15616476D01*
X14651571Y-15606952D01*
X14642048Y-15597428D01*
X14632524Y-15578381D01*
X14623000Y-15540286D01*
X14623000Y-15492667D01*
X14632524Y-15454571D01*
X14642048Y-15435524D01*
X14651571Y-15426000D01*
X14670619Y-15416476D01*
X14813476Y-15416476D02*
X14813476Y-15454571D01*
X14889667Y-15416476D02*
X14889667Y-15454571D01*
X15184905Y-15692667D02*
X15175381Y-15683143D01*
X15156333Y-15654571D01*
X15146809Y-15635524D01*
X15137286Y-15606952D01*
X15127762Y-15559333D01*
X15127762Y-15521238D01*
X15137286Y-15473619D01*
X15146809Y-15445048D01*
X15156333Y-15426000D01*
X15175381Y-15397428D01*
X15184905Y-15387905D01*
X15242048Y-15416476D02*
X15365857Y-15416476D01*
X15299190Y-15492667D01*
X15327762Y-15492667D01*
X15346809Y-15502190D01*
X15356333Y-15511714D01*
X15365857Y-15530762D01*
X15365857Y-15578381D01*
X15356333Y-15597428D01*
X15346809Y-15606952D01*
X15327762Y-15616476D01*
X15270619Y-15616476D01*
X15251571Y-15606952D01*
X15242048Y-15597428D01*
X15603952Y-15616476D02*
X15603952Y-15416476D01*
X15689667Y-15616476D02*
X15689667Y-15511714D01*
X15680143Y-15492667D01*
X15661095Y-15483143D01*
X15632524Y-15483143D01*
X15613476Y-15492667D01*
X15603952Y-15502190D01*
X15813476Y-15616476D02*
X15794428Y-15606952D01*
X15784905Y-15597428D01*
X15775381Y-15578381D01*
X15775381Y-15521238D01*
X15784905Y-15502190D01*
X15794428Y-15492667D01*
X15813476Y-15483143D01*
X15842048Y-15483143D01*
X15861095Y-15492667D01*
X15870619Y-15502190D01*
X15880143Y-15521238D01*
X15880143Y-15578381D01*
X15870619Y-15597428D01*
X15861095Y-15606952D01*
X15842048Y-15616476D01*
X15813476Y-15616476D01*
X15994428Y-15616476D02*
X15975381Y-15606952D01*
X15965857Y-15587905D01*
X15965857Y-15416476D01*
X16146809Y-15606952D02*
X16127762Y-15616476D01*
X16089667Y-15616476D01*
X16070619Y-15606952D01*
X16061095Y-15587905D01*
X16061095Y-15511714D01*
X16070619Y-15492667D01*
X16089667Y-15483143D01*
X16127762Y-15483143D01*
X16146809Y-15492667D01*
X16156333Y-15511714D01*
X16156333Y-15530762D01*
X16061095Y-15549809D01*
X16232524Y-15606952D02*
X16251571Y-15616476D01*
X16289667Y-15616476D01*
X16308714Y-15606952D01*
X16318238Y-15587905D01*
X16318238Y-15578381D01*
X16308714Y-15559333D01*
X16289667Y-15549809D01*
X16261095Y-15549809D01*
X16242048Y-15540286D01*
X16232524Y-15521238D01*
X16232524Y-15511714D01*
X16242048Y-15492667D01*
X16261095Y-15483143D01*
X16289667Y-15483143D01*
X16308714Y-15492667D01*
X16384905Y-15692667D02*
X16394428Y-15683143D01*
X16413476Y-15654571D01*
X16423000Y-15635524D01*
X16432524Y-15606952D01*
X16442048Y-15559333D01*
X16442048Y-15521238D01*
X16432524Y-15473619D01*
X16423000Y-15445048D01*
X16413476Y-15426000D01*
X16394428Y-15397428D01*
X16384905Y-15387905D01*
D17*
X11461000Y-15714000D02*
X11613000Y-15866000D01*
X11613000Y-15714000D02*
X11461000Y-15866000D01*
X11537000Y-15714000D02*
X11537000Y-15866000D01*
X11461000Y-15790000D02*
X11613000Y-15790000D01*
D10*
X11975381Y-15880476D02*
X11861095Y-15880476D01*
X11918238Y-15880476D02*
X11918238Y-15680476D01*
X11899190Y-15709048D01*
X11880143Y-15728095D01*
X11861095Y-15737619D01*
X12061095Y-15861428D02*
X12070619Y-15870952D01*
X12061095Y-15880476D01*
X12051571Y-15870952D01*
X12061095Y-15861428D01*
X12061095Y-15880476D01*
X12251571Y-15680476D02*
X12156333Y-15680476D01*
X12146809Y-15775714D01*
X12156333Y-15766190D01*
X12175381Y-15756667D01*
X12223000Y-15756667D01*
X12242048Y-15766190D01*
X12251571Y-15775714D01*
X12261095Y-15794762D01*
X12261095Y-15842381D01*
X12251571Y-15861428D01*
X12242048Y-15870952D01*
X12223000Y-15880476D01*
X12175381Y-15880476D01*
X12156333Y-15870952D01*
X12146809Y-15861428D01*
X12337286Y-15699524D02*
X12346809Y-15690000D01*
X12365857Y-15680476D01*
X12413476Y-15680476D01*
X12432524Y-15690000D01*
X12442048Y-15699524D01*
X12451571Y-15718571D01*
X12451571Y-15737619D01*
X12442048Y-15766190D01*
X12327762Y-15880476D01*
X12451571Y-15880476D01*
X12575381Y-15680476D02*
X12594428Y-15680476D01*
X12613476Y-15690000D01*
X12623000Y-15699524D01*
X12632524Y-15718571D01*
X12642048Y-15756667D01*
X12642048Y-15804286D01*
X12632524Y-15842381D01*
X12623000Y-15861428D01*
X12613476Y-15870952D01*
X12594428Y-15880476D01*
X12575381Y-15880476D01*
X12556333Y-15870952D01*
X12546809Y-15861428D01*
X12537286Y-15842381D01*
X12527762Y-15804286D01*
X12527762Y-15756667D01*
X12537286Y-15718571D01*
X12546809Y-15699524D01*
X12556333Y-15690000D01*
X12575381Y-15680476D01*
X12727762Y-15880476D02*
X12727762Y-15747143D01*
X12727762Y-15766190D02*
X12737286Y-15756667D01*
X12756333Y-15747143D01*
X12784905Y-15747143D01*
X12803952Y-15756667D01*
X12813476Y-15775714D01*
X12813476Y-15880476D01*
X12813476Y-15775714D02*
X12823000Y-15756667D01*
X12842048Y-15747143D01*
X12870619Y-15747143D01*
X12889667Y-15756667D01*
X12899190Y-15775714D01*
X12899190Y-15880476D01*
X12994428Y-15880476D02*
X12994428Y-15747143D01*
X12994428Y-15766190D02*
X13003952Y-15756667D01*
X13023000Y-15747143D01*
X13051571Y-15747143D01*
X13070619Y-15756667D01*
X13080143Y-15775714D01*
X13080143Y-15880476D01*
X13080143Y-15775714D02*
X13089667Y-15756667D01*
X13108714Y-15747143D01*
X13137286Y-15747143D01*
X13156333Y-15756667D01*
X13165857Y-15775714D01*
X13165857Y-15880476D01*
X13556333Y-15670952D02*
X13384905Y-15928095D01*
X13813476Y-15680476D02*
X13832524Y-15680476D01*
X13851571Y-15690000D01*
X13861095Y-15699524D01*
X13870619Y-15718571D01*
X13880143Y-15756667D01*
X13880143Y-15804286D01*
X13870619Y-15842381D01*
X13861095Y-15861428D01*
X13851571Y-15870952D01*
X13832524Y-15880476D01*
X13813476Y-15880476D01*
X13794428Y-15870952D01*
X13784905Y-15861428D01*
X13775381Y-15842381D01*
X13765857Y-15804286D01*
X13765857Y-15756667D01*
X13775381Y-15718571D01*
X13784905Y-15699524D01*
X13794428Y-15690000D01*
X13813476Y-15680476D01*
X13965857Y-15861428D02*
X13975381Y-15870952D01*
X13965857Y-15880476D01*
X13956333Y-15870952D01*
X13965857Y-15861428D01*
X13965857Y-15880476D01*
X14099190Y-15680476D02*
X14118238Y-15680476D01*
X14137286Y-15690000D01*
X14146809Y-15699524D01*
X14156333Y-15718571D01*
X14165857Y-15756667D01*
X14165857Y-15804286D01*
X14156333Y-15842381D01*
X14146809Y-15861428D01*
X14137286Y-15870952D01*
X14118238Y-15880476D01*
X14099190Y-15880476D01*
X14080143Y-15870952D01*
X14070619Y-15861428D01*
X14061095Y-15842381D01*
X14051571Y-15804286D01*
X14051571Y-15756667D01*
X14061095Y-15718571D01*
X14070619Y-15699524D01*
X14080143Y-15690000D01*
X14099190Y-15680476D01*
X14346809Y-15680476D02*
X14251571Y-15680476D01*
X14242048Y-15775714D01*
X14251571Y-15766190D01*
X14270619Y-15756667D01*
X14318238Y-15756667D01*
X14337286Y-15766190D01*
X14346809Y-15775714D01*
X14356333Y-15794762D01*
X14356333Y-15842381D01*
X14346809Y-15861428D01*
X14337286Y-15870952D01*
X14318238Y-15880476D01*
X14270619Y-15880476D01*
X14251571Y-15870952D01*
X14242048Y-15861428D01*
X14451571Y-15880476D02*
X14489667Y-15880476D01*
X14508714Y-15870952D01*
X14518238Y-15861428D01*
X14537286Y-15832857D01*
X14546809Y-15794762D01*
X14546809Y-15718571D01*
X14537286Y-15699524D01*
X14527762Y-15690000D01*
X14508714Y-15680476D01*
X14470619Y-15680476D01*
X14451571Y-15690000D01*
X14442048Y-15699524D01*
X14432524Y-15718571D01*
X14432524Y-15766190D01*
X14442048Y-15785238D01*
X14451571Y-15794762D01*
X14470619Y-15804286D01*
X14508714Y-15804286D01*
X14527762Y-15794762D01*
X14537286Y-15785238D01*
X14546809Y-15766190D01*
X14661095Y-15766190D02*
X14642048Y-15756667D01*
X14632524Y-15747143D01*
X14623000Y-15728095D01*
X14623000Y-15718571D01*
X14632524Y-15699524D01*
X14642048Y-15690000D01*
X14661095Y-15680476D01*
X14699190Y-15680476D01*
X14718238Y-15690000D01*
X14727762Y-15699524D01*
X14737286Y-15718571D01*
X14737286Y-15728095D01*
X14727762Y-15747143D01*
X14718238Y-15756667D01*
X14699190Y-15766190D01*
X14661095Y-15766190D01*
X14642048Y-15775714D01*
X14632524Y-15785238D01*
X14623000Y-15804286D01*
X14623000Y-15842381D01*
X14632524Y-15861428D01*
X14642048Y-15870952D01*
X14661095Y-15880476D01*
X14699190Y-15880476D01*
X14718238Y-15870952D01*
X14727762Y-15861428D01*
X14737286Y-15842381D01*
X14737286Y-15804286D01*
X14727762Y-15785238D01*
X14718238Y-15775714D01*
X14699190Y-15766190D01*
X14813476Y-15680476D02*
X14813476Y-15718571D01*
X14889667Y-15680476D02*
X14889667Y-15718571D01*
X15184905Y-15956667D02*
X15175381Y-15947143D01*
X15156333Y-15918571D01*
X15146809Y-15899524D01*
X15137286Y-15870952D01*
X15127762Y-15823333D01*
X15127762Y-15785238D01*
X15137286Y-15737619D01*
X15146809Y-15709048D01*
X15156333Y-15690000D01*
X15175381Y-15661428D01*
X15184905Y-15651905D01*
X15251571Y-15699524D02*
X15261095Y-15690000D01*
X15280143Y-15680476D01*
X15327762Y-15680476D01*
X15346809Y-15690000D01*
X15356333Y-15699524D01*
X15365857Y-15718571D01*
X15365857Y-15737619D01*
X15356333Y-15766190D01*
X15242048Y-15880476D01*
X15365857Y-15880476D01*
X15603952Y-15880476D02*
X15603952Y-15680476D01*
X15689667Y-15880476D02*
X15689667Y-15775714D01*
X15680143Y-15756667D01*
X15661095Y-15747143D01*
X15632524Y-15747143D01*
X15613476Y-15756667D01*
X15603952Y-15766190D01*
X15813476Y-15880476D02*
X15794428Y-15870952D01*
X15784905Y-15861428D01*
X15775381Y-15842381D01*
X15775381Y-15785238D01*
X15784905Y-15766190D01*
X15794428Y-15756667D01*
X15813476Y-15747143D01*
X15842048Y-15747143D01*
X15861095Y-15756667D01*
X15870619Y-15766190D01*
X15880143Y-15785238D01*
X15880143Y-15842381D01*
X15870619Y-15861428D01*
X15861095Y-15870952D01*
X15842048Y-15880476D01*
X15813476Y-15880476D01*
X15994428Y-15880476D02*
X15975381Y-15870952D01*
X15965857Y-15851905D01*
X15965857Y-15680476D01*
X16146809Y-15870952D02*
X16127762Y-15880476D01*
X16089667Y-15880476D01*
X16070619Y-15870952D01*
X16061095Y-15851905D01*
X16061095Y-15775714D01*
X16070619Y-15756667D01*
X16089667Y-15747143D01*
X16127762Y-15747143D01*
X16146809Y-15756667D01*
X16156333Y-15775714D01*
X16156333Y-15794762D01*
X16061095Y-15813809D01*
X16232524Y-15870952D02*
X16251571Y-15880476D01*
X16289667Y-15880476D01*
X16308714Y-15870952D01*
X16318238Y-15851905D01*
X16318238Y-15842381D01*
X16308714Y-15823333D01*
X16289667Y-15813809D01*
X16261095Y-15813809D01*
X16242048Y-15804286D01*
X16232524Y-15785238D01*
X16232524Y-15775714D01*
X16242048Y-15756667D01*
X16261095Y-15747143D01*
X16289667Y-15747143D01*
X16308714Y-15756667D01*
X16384905Y-15956667D02*
X16394428Y-15947143D01*
X16413476Y-15918571D01*
X16423000Y-15899524D01*
X16432524Y-15870952D01*
X16442048Y-15823333D01*
X16442048Y-15785238D01*
X16432524Y-15737619D01*
X16423000Y-15709048D01*
X16413476Y-15690000D01*
X16394428Y-15661428D01*
X16384905Y-15651905D01*
M02*
