%TF.GenerationSoftware,KiCad,Pcbnew,(6.0.8)*%
%TF.CreationDate,2023-03-06T23:42:02-08:00*%
%TF.ProjectId,ATP_Teensy,4154505f-5465-4656-9e73-792e6b696361,rev?*%
%TF.SameCoordinates,Original*%
%TF.FileFunction,Soldermask,Top*%
%TF.FilePolarity,Negative*%
%FSLAX46Y46*%
G04 Gerber Fmt 4.6, Leading zero omitted, Abs format (unit mm)*
G04 Created by KiCad (PCBNEW (6.0.8)) date 2023-03-06 23:42:02*
%MOMM*%
%LPD*%
G01*
G04 APERTURE LIST*
G04 Aperture macros list*
%AMRoundRect*
0 Rectangle with rounded corners*
0 $1 Rounding radius*
0 $2 $3 $4 $5 $6 $7 $8 $9 X,Y pos of 4 corners*
0 Add a 4 corners polygon primitive as box body*
4,1,4,$2,$3,$4,$5,$6,$7,$8,$9,$2,$3,0*
0 Add four circle primitives for the rounded corners*
1,1,$1+$1,$2,$3*
1,1,$1+$1,$4,$5*
1,1,$1+$1,$6,$7*
1,1,$1+$1,$8,$9*
0 Add four rect primitives between the rounded corners*
20,1,$1+$1,$2,$3,$4,$5,0*
20,1,$1+$1,$4,$5,$6,$7,0*
20,1,$1+$1,$6,$7,$8,$9,0*
20,1,$1+$1,$8,$9,$2,$3,0*%
G04 Aperture macros list end*
%ADD10RoundRect,0.250000X-0.337500X-0.475000X0.337500X-0.475000X0.337500X0.475000X-0.337500X0.475000X0*%
%ADD11RoundRect,0.250000X0.475000X-0.337500X0.475000X0.337500X-0.475000X0.337500X-0.475000X-0.337500X0*%
%ADD12R,1.700000X1.700000*%
%ADD13O,1.700000X1.700000*%
%ADD14RoundRect,0.250000X-0.350000X-0.450000X0.350000X-0.450000X0.350000X0.450000X-0.350000X0.450000X0*%
%ADD15C,3.200000*%
%ADD16RoundRect,0.250000X-0.325000X-0.450000X0.325000X-0.450000X0.325000X0.450000X-0.325000X0.450000X0*%
%ADD17R,3.000000X3.000000*%
%ADD18C,3.000000*%
%ADD19R,1.651000X1.651000*%
%ADD20C,1.651000*%
%ADD21R,1.600000X1.600000*%
%ADD22C,1.600000*%
%ADD23R,1.300000X1.300000*%
%ADD24C,1.300000*%
%ADD25RoundRect,0.250000X0.337500X0.475000X-0.337500X0.475000X-0.337500X-0.475000X0.337500X-0.475000X0*%
%ADD26RoundRect,0.250000X1.250000X0.550000X-1.250000X0.550000X-1.250000X-0.550000X1.250000X-0.550000X0*%
G04 APERTURE END LIST*
D10*
%TO.C,C2*%
X169650500Y-119380000D03*
X171725500Y-119380000D03*
%TD*%
D11*
%TO.C,C4*%
X134620000Y-115337500D03*
X134620000Y-113262500D03*
%TD*%
D12*
%TO.C,SPI*%
X134112000Y-79375000D03*
D13*
X136652000Y-79375000D03*
X139192000Y-79375000D03*
X141732000Y-79375000D03*
X144272000Y-79375000D03*
X146812000Y-79375000D03*
%TD*%
D14*
%TO.C,R2*%
X169570000Y-112268000D03*
X171570000Y-112268000D03*
%TD*%
D11*
%TO.C,C6*%
X129540000Y-80412500D03*
X129540000Y-78337500D03*
%TD*%
D15*
%TO.C,J4*%
X134620000Y-73660000D03*
%TD*%
D14*
%TO.C,R1*%
X169180000Y-79375000D03*
X171180000Y-79375000D03*
%TD*%
D16*
%TO.C,9V*%
X169155000Y-83185000D03*
X171205000Y-83185000D03*
%TD*%
D17*
%TO.C,9V PWR*%
X176530000Y-85090000D03*
D18*
X176530000Y-80010000D03*
%TD*%
D12*
%TO.C,IMU*%
X171495000Y-90707500D03*
D13*
X171495000Y-93247500D03*
X171495000Y-95787500D03*
X171495000Y-98327500D03*
X171495000Y-100867500D03*
X171495000Y-103407500D03*
X171495000Y-105947500D03*
X171495000Y-108487500D03*
%TD*%
D15*
%TO.C,J3*%
X171450000Y-124460000D03*
%TD*%
%TO.C,J2*%
X134620000Y-124460000D03*
%TD*%
D19*
%TO.C,REG*%
X176733200Y-114376000D03*
D20*
X176733200Y-116916000D03*
X176733200Y-119456000D03*
%TD*%
D21*
%TO.C,TEENSY_4.1*%
X151130000Y-69410000D03*
D22*
X151130000Y-71950000D03*
X151130000Y-74490000D03*
X151130000Y-77030000D03*
X151130000Y-79570000D03*
X151130000Y-82110000D03*
X151130000Y-84650000D03*
X151130000Y-87190000D03*
X151130000Y-89730000D03*
X151130000Y-92270000D03*
X151130000Y-94810000D03*
X151130000Y-97350000D03*
X151130000Y-99890000D03*
X151130000Y-102430000D03*
X151130000Y-104970000D03*
X151130000Y-107510000D03*
X151130000Y-110050000D03*
X151130000Y-112590000D03*
X151130000Y-115130000D03*
X151130000Y-117670000D03*
X151130000Y-120210000D03*
X151130000Y-122750000D03*
X151130000Y-125290000D03*
X151130000Y-127830000D03*
X166370000Y-127830000D03*
X166370000Y-125290000D03*
X166370000Y-122750000D03*
X166370000Y-120210000D03*
X166370000Y-117670000D03*
X166370000Y-115130000D03*
X166370000Y-112590000D03*
X166370000Y-110050000D03*
X166370000Y-107510000D03*
X166370000Y-104970000D03*
X166370000Y-102430000D03*
X166370000Y-99890000D03*
X166370000Y-97350000D03*
X166370000Y-94810000D03*
X166370000Y-92270000D03*
X166370000Y-89730000D03*
X166370000Y-87190000D03*
X166370000Y-84650000D03*
X166370000Y-82110000D03*
X166370000Y-79570000D03*
X166370000Y-77030000D03*
X166370000Y-74490000D03*
X166370000Y-71950000D03*
X166370000Y-69410000D03*
X163830000Y-71950000D03*
X153670000Y-115130000D03*
X156210000Y-115130000D03*
X158750000Y-115130000D03*
X161290000Y-115130000D03*
X163830000Y-115130000D03*
D21*
X154180800Y-75709200D03*
D22*
X154180800Y-78249200D03*
X154180800Y-80789200D03*
X154180800Y-83329200D03*
X154180800Y-85869200D03*
D23*
X163931600Y-82380000D03*
D24*
X161931600Y-82380000D03*
X159931600Y-82380000D03*
X159931600Y-84380000D03*
X161931600Y-84380000D03*
X163931600Y-84380000D03*
X160020000Y-70140000D03*
X157480000Y-70140000D03*
%TD*%
D10*
%TO.C,C1*%
X169142500Y-86995000D03*
X171217500Y-86995000D03*
%TD*%
D15*
%TO.C,J5*%
X171450000Y-73660000D03*
%TD*%
D25*
%TO.C,C7*%
X141245500Y-72644000D03*
X139170500Y-72644000D03*
%TD*%
D26*
%TO.C,C5*%
X131232000Y-119380000D03*
X126832000Y-119380000D03*
%TD*%
D12*
%TO.C,I2C*%
X139202000Y-69342000D03*
D13*
X141742000Y-69342000D03*
X144282000Y-69342000D03*
X146822000Y-69342000D03*
%TD*%
D16*
%TO.C,5V*%
X169545000Y-115824000D03*
X171595000Y-115824000D03*
%TD*%
D12*
%TO.C,XBEE*%
X128270000Y-86760000D03*
D13*
X128270000Y-89300000D03*
X128270000Y-91840000D03*
X128270000Y-94380000D03*
X128270000Y-96920000D03*
X128270000Y-99460000D03*
X128270000Y-102000000D03*
X128270000Y-104540000D03*
X128270000Y-107080000D03*
X128270000Y-109620000D03*
X128270000Y-112160000D03*
D12*
X140950000Y-86760000D03*
D13*
X140950000Y-89300000D03*
X140950000Y-91840000D03*
X140950000Y-94380000D03*
X140950000Y-96920000D03*
X140950000Y-99460000D03*
X140950000Y-102000000D03*
X140950000Y-104540000D03*
X140950000Y-107080000D03*
X140950000Y-109620000D03*
X140950000Y-112160000D03*
%TD*%
D11*
%TO.C,C3*%
X137160000Y-115337500D03*
X137160000Y-113262500D03*
%TD*%
D12*
%TO.C,GPS*%
X146050000Y-107950000D03*
D13*
X146050000Y-105410000D03*
X146050000Y-102870000D03*
X146050000Y-100330000D03*
X146050000Y-97790000D03*
X146050000Y-95250000D03*
X146050000Y-92710000D03*
X146050000Y-90170000D03*
X146050000Y-87630000D03*
%TD*%
D12*
%TO.C,BMP*%
X136277500Y-91116250D03*
D13*
X136277500Y-93656250D03*
X136277500Y-96196250D03*
X136277500Y-98736250D03*
X136277500Y-101276250D03*
X136277500Y-103816250D03*
X136277500Y-106356250D03*
X136277500Y-108896250D03*
%TD*%
M02*
