%TF.GenerationSoftware,KiCad,Pcbnew,(6.0.8)*%
%TF.CreationDate,2022-12-18T12:10:43-08:00*%
%TF.ProjectId,ATP_Teensy,4154505f-5465-4656-9e73-792e6b696361,rev?*%
%TF.SameCoordinates,Original*%
%TF.FileFunction,Legend,Top*%
%TF.FilePolarity,Positive*%
%FSLAX46Y46*%
G04 Gerber Fmt 4.6, Leading zero omitted, Abs format (unit mm)*
G04 Created by KiCad (PCBNEW (6.0.8)) date 2022-12-18 12:10:43*
%MOMM*%
%LPD*%
G01*
G04 APERTURE LIST*
%ADD10C,0.300000*%
%ADD11C,0.150000*%
%ADD12C,0.200000*%
%ADD13C,0.120000*%
%ADD14C,0.100000*%
G04 APERTURE END LIST*
D10*
X181717142Y-113601428D02*
X181717142Y-112458571D01*
X181717142Y-118681428D02*
X181717142Y-117538571D01*
X182288571Y-118110000D02*
X181145714Y-118110000D01*
D11*
%TO.C,C5*%
X135723333Y-79097142D02*
X135675714Y-79144761D01*
X135532857Y-79192380D01*
X135437619Y-79192380D01*
X135294761Y-79144761D01*
X135199523Y-79049523D01*
X135151904Y-78954285D01*
X135104285Y-78763809D01*
X135104285Y-78620952D01*
X135151904Y-78430476D01*
X135199523Y-78335238D01*
X135294761Y-78240000D01*
X135437619Y-78192380D01*
X135532857Y-78192380D01*
X135675714Y-78240000D01*
X135723333Y-78287619D01*
X136628095Y-78192380D02*
X136151904Y-78192380D01*
X136104285Y-78668571D01*
X136151904Y-78620952D01*
X136247142Y-78573333D01*
X136485238Y-78573333D01*
X136580476Y-78620952D01*
X136628095Y-78668571D01*
X136675714Y-78763809D01*
X136675714Y-79001904D01*
X136628095Y-79097142D01*
X136580476Y-79144761D01*
X136485238Y-79192380D01*
X136247142Y-79192380D01*
X136151904Y-79144761D01*
X136104285Y-79097142D01*
%TO.C,C2*%
X174347142Y-80176666D02*
X174394761Y-80224285D01*
X174442380Y-80367142D01*
X174442380Y-80462380D01*
X174394761Y-80605238D01*
X174299523Y-80700476D01*
X174204285Y-80748095D01*
X174013809Y-80795714D01*
X173870952Y-80795714D01*
X173680476Y-80748095D01*
X173585238Y-80700476D01*
X173490000Y-80605238D01*
X173442380Y-80462380D01*
X173442380Y-80367142D01*
X173490000Y-80224285D01*
X173537619Y-80176666D01*
X173537619Y-79795714D02*
X173490000Y-79748095D01*
X173442380Y-79652857D01*
X173442380Y-79414761D01*
X173490000Y-79319523D01*
X173537619Y-79271904D01*
X173632857Y-79224285D01*
X173728095Y-79224285D01*
X173870952Y-79271904D01*
X174442380Y-79843333D01*
X174442380Y-79224285D01*
%TO.C,C4*%
X133183333Y-79097142D02*
X133135714Y-79144761D01*
X132992857Y-79192380D01*
X132897619Y-79192380D01*
X132754761Y-79144761D01*
X132659523Y-79049523D01*
X132611904Y-78954285D01*
X132564285Y-78763809D01*
X132564285Y-78620952D01*
X132611904Y-78430476D01*
X132659523Y-78335238D01*
X132754761Y-78240000D01*
X132897619Y-78192380D01*
X132992857Y-78192380D01*
X133135714Y-78240000D01*
X133183333Y-78287619D01*
X134040476Y-78525714D02*
X134040476Y-79192380D01*
X133802380Y-78144761D02*
X133564285Y-78859047D01*
X134183333Y-78859047D01*
%TO.C,R2*%
X174442380Y-85256666D02*
X173966190Y-85590000D01*
X174442380Y-85828095D02*
X173442380Y-85828095D01*
X173442380Y-85447142D01*
X173490000Y-85351904D01*
X173537619Y-85304285D01*
X173632857Y-85256666D01*
X173775714Y-85256666D01*
X173870952Y-85304285D01*
X173918571Y-85351904D01*
X173966190Y-85447142D01*
X173966190Y-85828095D01*
X173537619Y-84875714D02*
X173490000Y-84828095D01*
X173442380Y-84732857D01*
X173442380Y-84494761D01*
X173490000Y-84399523D01*
X173537619Y-84351904D01*
X173632857Y-84304285D01*
X173728095Y-84304285D01*
X173870952Y-84351904D01*
X174442380Y-84923333D01*
X174442380Y-84304285D01*
%TO.C,R1*%
X170013333Y-118462380D02*
X169680000Y-117986190D01*
X169441904Y-118462380D02*
X169441904Y-117462380D01*
X169822857Y-117462380D01*
X169918095Y-117510000D01*
X169965714Y-117557619D01*
X170013333Y-117652857D01*
X170013333Y-117795714D01*
X169965714Y-117890952D01*
X169918095Y-117938571D01*
X169822857Y-117986190D01*
X169441904Y-117986190D01*
X170965714Y-118462380D02*
X170394285Y-118462380D01*
X170680000Y-118462380D02*
X170680000Y-117462380D01*
X170584761Y-117605238D01*
X170489523Y-117700476D01*
X170394285Y-117748095D01*
D12*
%TO.C,D1*%
X169294285Y-114432857D02*
X169294285Y-113232857D01*
X169580000Y-113232857D01*
X169751428Y-113290000D01*
X169865714Y-113404285D01*
X169922857Y-113518571D01*
X169980000Y-113747142D01*
X169980000Y-113918571D01*
X169922857Y-114147142D01*
X169865714Y-114261428D01*
X169751428Y-114375714D01*
X169580000Y-114432857D01*
X169294285Y-114432857D01*
X171122857Y-114432857D02*
X170437142Y-114432857D01*
X170780000Y-114432857D02*
X170780000Y-113232857D01*
X170665714Y-113404285D01*
X170551428Y-113518571D01*
X170437142Y-113575714D01*
D11*
%TO.C,9V PWR*%
X173958571Y-122372380D02*
X174149047Y-122372380D01*
X174244285Y-122324761D01*
X174291904Y-122277142D01*
X174387142Y-122134285D01*
X174434761Y-121943809D01*
X174434761Y-121562857D01*
X174387142Y-121467619D01*
X174339523Y-121420000D01*
X174244285Y-121372380D01*
X174053809Y-121372380D01*
X173958571Y-121420000D01*
X173910952Y-121467619D01*
X173863333Y-121562857D01*
X173863333Y-121800952D01*
X173910952Y-121896190D01*
X173958571Y-121943809D01*
X174053809Y-121991428D01*
X174244285Y-121991428D01*
X174339523Y-121943809D01*
X174387142Y-121896190D01*
X174434761Y-121800952D01*
X174720476Y-121372380D02*
X175053809Y-122372380D01*
X175387142Y-121372380D01*
X176482380Y-122372380D02*
X176482380Y-121372380D01*
X176863333Y-121372380D01*
X176958571Y-121420000D01*
X177006190Y-121467619D01*
X177053809Y-121562857D01*
X177053809Y-121705714D01*
X177006190Y-121800952D01*
X176958571Y-121848571D01*
X176863333Y-121896190D01*
X176482380Y-121896190D01*
X177387142Y-121372380D02*
X177625238Y-122372380D01*
X177815714Y-121658095D01*
X178006190Y-122372380D01*
X178244285Y-121372380D01*
X179196666Y-122372380D02*
X178863333Y-121896190D01*
X178625238Y-122372380D02*
X178625238Y-121372380D01*
X179006190Y-121372380D01*
X179101428Y-121420000D01*
X179149047Y-121467619D01*
X179196666Y-121562857D01*
X179196666Y-121705714D01*
X179149047Y-121800952D01*
X179101428Y-121848571D01*
X179006190Y-121896190D01*
X178625238Y-121896190D01*
%TO.C,XBEE_USB*%
X139890952Y-78192380D02*
X140557619Y-79192380D01*
X140557619Y-78192380D02*
X139890952Y-79192380D01*
X141271904Y-78668571D02*
X141414761Y-78716190D01*
X141462380Y-78763809D01*
X141510000Y-78859047D01*
X141510000Y-79001904D01*
X141462380Y-79097142D01*
X141414761Y-79144761D01*
X141319523Y-79192380D01*
X140938571Y-79192380D01*
X140938571Y-78192380D01*
X141271904Y-78192380D01*
X141367142Y-78240000D01*
X141414761Y-78287619D01*
X141462380Y-78382857D01*
X141462380Y-78478095D01*
X141414761Y-78573333D01*
X141367142Y-78620952D01*
X141271904Y-78668571D01*
X140938571Y-78668571D01*
X141938571Y-78668571D02*
X142271904Y-78668571D01*
X142414761Y-79192380D02*
X141938571Y-79192380D01*
X141938571Y-78192380D01*
X142414761Y-78192380D01*
X142843333Y-78668571D02*
X143176666Y-78668571D01*
X143319523Y-79192380D02*
X142843333Y-79192380D01*
X142843333Y-78192380D01*
X143319523Y-78192380D01*
X143510000Y-79287619D02*
X144271904Y-79287619D01*
X144510000Y-78192380D02*
X144510000Y-79001904D01*
X144557619Y-79097142D01*
X144605238Y-79144761D01*
X144700476Y-79192380D01*
X144890952Y-79192380D01*
X144986190Y-79144761D01*
X145033809Y-79097142D01*
X145081428Y-79001904D01*
X145081428Y-78192380D01*
X145510000Y-79144761D02*
X145652857Y-79192380D01*
X145890952Y-79192380D01*
X145986190Y-79144761D01*
X146033809Y-79097142D01*
X146081428Y-79001904D01*
X146081428Y-78906666D01*
X146033809Y-78811428D01*
X145986190Y-78763809D01*
X145890952Y-78716190D01*
X145700476Y-78668571D01*
X145605238Y-78620952D01*
X145557619Y-78573333D01*
X145510000Y-78478095D01*
X145510000Y-78382857D01*
X145557619Y-78287619D01*
X145605238Y-78240000D01*
X145700476Y-78192380D01*
X145938571Y-78192380D01*
X146081428Y-78240000D01*
X146843333Y-78668571D02*
X146986190Y-78716190D01*
X147033809Y-78763809D01*
X147081428Y-78859047D01*
X147081428Y-79001904D01*
X147033809Y-79097142D01*
X146986190Y-79144761D01*
X146890952Y-79192380D01*
X146510000Y-79192380D01*
X146510000Y-78192380D01*
X146843333Y-78192380D01*
X146938571Y-78240000D01*
X146986190Y-78287619D01*
X147033809Y-78382857D01*
X147033809Y-78478095D01*
X146986190Y-78573333D01*
X146938571Y-78620952D01*
X146843333Y-78668571D01*
X146510000Y-78668571D01*
%TO.C,IMU*%
X183054761Y-110942380D02*
X183054761Y-109942380D01*
X183530952Y-110942380D02*
X183530952Y-109942380D01*
X183864285Y-110656666D01*
X184197619Y-109942380D01*
X184197619Y-110942380D01*
X184673809Y-109942380D02*
X184673809Y-110751904D01*
X184721428Y-110847142D01*
X184769047Y-110894761D01*
X184864285Y-110942380D01*
X185054761Y-110942380D01*
X185150000Y-110894761D01*
X185197619Y-110847142D01*
X185245238Y-110751904D01*
X185245238Y-109942380D01*
%TO.C,REG*%
X175887142Y-75382380D02*
X175553809Y-74906190D01*
X175315714Y-75382380D02*
X175315714Y-74382380D01*
X175696666Y-74382380D01*
X175791904Y-74430000D01*
X175839523Y-74477619D01*
X175887142Y-74572857D01*
X175887142Y-74715714D01*
X175839523Y-74810952D01*
X175791904Y-74858571D01*
X175696666Y-74906190D01*
X175315714Y-74906190D01*
X176315714Y-74858571D02*
X176649047Y-74858571D01*
X176791904Y-75382380D02*
X176315714Y-75382380D01*
X176315714Y-74382380D01*
X176791904Y-74382380D01*
X177744285Y-74430000D02*
X177649047Y-74382380D01*
X177506190Y-74382380D01*
X177363333Y-74430000D01*
X177268095Y-74525238D01*
X177220476Y-74620476D01*
X177172857Y-74810952D01*
X177172857Y-74953809D01*
X177220476Y-75144285D01*
X177268095Y-75239523D01*
X177363333Y-75334761D01*
X177506190Y-75382380D01*
X177601428Y-75382380D01*
X177744285Y-75334761D01*
X177791904Y-75287142D01*
X177791904Y-74953809D01*
X177601428Y-74953809D01*
X177252380Y-83820000D02*
X177490476Y-83820000D01*
X177395238Y-84058095D02*
X177490476Y-83820000D01*
X177395238Y-83581904D01*
X177680952Y-83962857D02*
X177490476Y-83820000D01*
X177680952Y-83677142D01*
%TO.C,TEENSY4.1*%
X148042380Y-76199523D02*
X148042380Y-75628095D01*
X149042380Y-75913809D02*
X148042380Y-75913809D01*
X148518571Y-75294761D02*
X148518571Y-74961428D01*
X149042380Y-74818571D02*
X149042380Y-75294761D01*
X148042380Y-75294761D01*
X148042380Y-74818571D01*
X148518571Y-74390000D02*
X148518571Y-74056666D01*
X149042380Y-73913809D02*
X149042380Y-74390000D01*
X148042380Y-74390000D01*
X148042380Y-73913809D01*
X149042380Y-73485238D02*
X148042380Y-73485238D01*
X149042380Y-72913809D01*
X148042380Y-72913809D01*
X148994761Y-72485238D02*
X149042380Y-72342380D01*
X149042380Y-72104285D01*
X148994761Y-72009047D01*
X148947142Y-71961428D01*
X148851904Y-71913809D01*
X148756666Y-71913809D01*
X148661428Y-71961428D01*
X148613809Y-72009047D01*
X148566190Y-72104285D01*
X148518571Y-72294761D01*
X148470952Y-72390000D01*
X148423333Y-72437619D01*
X148328095Y-72485238D01*
X148232857Y-72485238D01*
X148137619Y-72437619D01*
X148090000Y-72390000D01*
X148042380Y-72294761D01*
X148042380Y-72056666D01*
X148090000Y-71913809D01*
X148566190Y-71294761D02*
X149042380Y-71294761D01*
X148042380Y-71628095D02*
X148566190Y-71294761D01*
X148042380Y-70961428D01*
X148375714Y-70199523D02*
X149042380Y-70199523D01*
X147994761Y-70437619D02*
X148709047Y-70675714D01*
X148709047Y-70056666D01*
X148947142Y-69675714D02*
X148994761Y-69628095D01*
X149042380Y-69675714D01*
X148994761Y-69723333D01*
X148947142Y-69675714D01*
X149042380Y-69675714D01*
X149042380Y-68675714D02*
X149042380Y-69247142D01*
X149042380Y-68961428D02*
X148042380Y-68961428D01*
X148185238Y-69056666D01*
X148280476Y-69151904D01*
X148328095Y-69247142D01*
X157488095Y-71402380D02*
X157488095Y-72211904D01*
X157535714Y-72307142D01*
X157583333Y-72354761D01*
X157678571Y-72402380D01*
X157869047Y-72402380D01*
X157964285Y-72354761D01*
X158011904Y-72307142D01*
X158059523Y-72211904D01*
X158059523Y-71402380D01*
X158488095Y-72354761D02*
X158630952Y-72402380D01*
X158869047Y-72402380D01*
X158964285Y-72354761D01*
X159011904Y-72307142D01*
X159059523Y-72211904D01*
X159059523Y-72116666D01*
X159011904Y-72021428D01*
X158964285Y-71973809D01*
X158869047Y-71926190D01*
X158678571Y-71878571D01*
X158583333Y-71830952D01*
X158535714Y-71783333D01*
X158488095Y-71688095D01*
X158488095Y-71592857D01*
X158535714Y-71497619D01*
X158583333Y-71450000D01*
X158678571Y-71402380D01*
X158916666Y-71402380D01*
X159059523Y-71450000D01*
X159821428Y-71878571D02*
X159964285Y-71926190D01*
X160011904Y-71973809D01*
X160059523Y-72069047D01*
X160059523Y-72211904D01*
X160011904Y-72307142D01*
X159964285Y-72354761D01*
X159869047Y-72402380D01*
X159488095Y-72402380D01*
X159488095Y-71402380D01*
X159821428Y-71402380D01*
X159916666Y-71450000D01*
X159964285Y-71497619D01*
X160011904Y-71592857D01*
X160011904Y-71688095D01*
X159964285Y-71783333D01*
X159916666Y-71830952D01*
X159821428Y-71878571D01*
X159488095Y-71878571D01*
X157546666Y-96396666D02*
X157546666Y-95696666D01*
X157713333Y-95696666D01*
X157813333Y-95730000D01*
X157880000Y-95796666D01*
X157913333Y-95863333D01*
X157946666Y-95996666D01*
X157946666Y-96096666D01*
X157913333Y-96230000D01*
X157880000Y-96296666D01*
X157813333Y-96363333D01*
X157713333Y-96396666D01*
X157546666Y-96396666D01*
X158146666Y-95696666D02*
X158380000Y-96396666D01*
X158613333Y-95696666D01*
X159046666Y-95696666D02*
X159046666Y-96196666D01*
X159013333Y-96296666D01*
X158946666Y-96363333D01*
X158846666Y-96396666D01*
X158780000Y-96396666D01*
X159680000Y-95696666D02*
X159546666Y-95696666D01*
X159480000Y-95730000D01*
X159446666Y-95763333D01*
X159380000Y-95863333D01*
X159346666Y-95996666D01*
X159346666Y-96263333D01*
X159380000Y-96330000D01*
X159413333Y-96363333D01*
X159480000Y-96396666D01*
X159613333Y-96396666D01*
X159680000Y-96363333D01*
X159713333Y-96330000D01*
X159746666Y-96263333D01*
X159746666Y-96096666D01*
X159713333Y-96030000D01*
X159680000Y-95996666D01*
X159613333Y-95963333D01*
X159480000Y-95963333D01*
X159413333Y-95996666D01*
X159380000Y-96030000D01*
X159346666Y-96096666D01*
X160013333Y-96196666D02*
X160346666Y-96196666D01*
X159946666Y-96396666D02*
X160180000Y-95696666D01*
X160413333Y-96396666D01*
X159169457Y-86483571D02*
X159502790Y-86483571D01*
X159645647Y-87007380D02*
X159169457Y-87007380D01*
X159169457Y-86007380D01*
X159645647Y-86007380D01*
X159931361Y-86340714D02*
X160312314Y-86340714D01*
X160074219Y-86007380D02*
X160074219Y-86864523D01*
X160121838Y-86959761D01*
X160217076Y-87007380D01*
X160312314Y-87007380D01*
X160645647Y-87007380D02*
X160645647Y-86007380D01*
X161074219Y-87007380D02*
X161074219Y-86483571D01*
X161026600Y-86388333D01*
X160931361Y-86340714D01*
X160788504Y-86340714D01*
X160693266Y-86388333D01*
X160645647Y-86435952D01*
X161931361Y-86959761D02*
X161836123Y-87007380D01*
X161645647Y-87007380D01*
X161550409Y-86959761D01*
X161502790Y-86864523D01*
X161502790Y-86483571D01*
X161550409Y-86388333D01*
X161645647Y-86340714D01*
X161836123Y-86340714D01*
X161931361Y-86388333D01*
X161978980Y-86483571D01*
X161978980Y-86578809D01*
X161502790Y-86674047D01*
X162407552Y-87007380D02*
X162407552Y-86340714D01*
X162407552Y-86531190D02*
X162455171Y-86435952D01*
X162502790Y-86388333D01*
X162598028Y-86340714D01*
X162693266Y-86340714D01*
X163026600Y-86340714D02*
X163026600Y-87007380D01*
X163026600Y-86435952D02*
X163074219Y-86388333D01*
X163169457Y-86340714D01*
X163312314Y-86340714D01*
X163407552Y-86388333D01*
X163455171Y-86483571D01*
X163455171Y-87007380D01*
X164312314Y-86959761D02*
X164217076Y-87007380D01*
X164026600Y-87007380D01*
X163931361Y-86959761D01*
X163883742Y-86864523D01*
X163883742Y-86483571D01*
X163931361Y-86388333D01*
X164026600Y-86340714D01*
X164217076Y-86340714D01*
X164312314Y-86388333D01*
X164359933Y-86483571D01*
X164359933Y-86578809D01*
X163883742Y-86674047D01*
X164645647Y-86340714D02*
X165026600Y-86340714D01*
X164788504Y-86007380D02*
X164788504Y-86864523D01*
X164836123Y-86959761D01*
X164931361Y-87007380D01*
X165026600Y-87007380D01*
X155713180Y-83463723D02*
X156522704Y-83463723D01*
X156617942Y-83416104D01*
X156665561Y-83368485D01*
X156713180Y-83273247D01*
X156713180Y-83082771D01*
X156665561Y-82987533D01*
X156617942Y-82939914D01*
X156522704Y-82892295D01*
X155713180Y-82892295D01*
X156665561Y-82463723D02*
X156713180Y-82320866D01*
X156713180Y-82082771D01*
X156665561Y-81987533D01*
X156617942Y-81939914D01*
X156522704Y-81892295D01*
X156427466Y-81892295D01*
X156332228Y-81939914D01*
X156284609Y-81987533D01*
X156236990Y-82082771D01*
X156189371Y-82273247D01*
X156141752Y-82368485D01*
X156094133Y-82416104D01*
X155998895Y-82463723D01*
X155903657Y-82463723D01*
X155808419Y-82416104D01*
X155760800Y-82368485D01*
X155713180Y-82273247D01*
X155713180Y-82035152D01*
X155760800Y-81892295D01*
X156189371Y-81130390D02*
X156236990Y-80987533D01*
X156284609Y-80939914D01*
X156379847Y-80892295D01*
X156522704Y-80892295D01*
X156617942Y-80939914D01*
X156665561Y-80987533D01*
X156713180Y-81082771D01*
X156713180Y-81463723D01*
X155713180Y-81463723D01*
X155713180Y-81130390D01*
X155760800Y-81035152D01*
X155808419Y-80987533D01*
X155903657Y-80939914D01*
X155998895Y-80939914D01*
X156094133Y-80987533D01*
X156141752Y-81035152D01*
X156189371Y-81130390D01*
X156189371Y-81463723D01*
X156713180Y-79701819D02*
X155713180Y-79701819D01*
X156189371Y-79701819D02*
X156189371Y-79130390D01*
X156713180Y-79130390D02*
X155713180Y-79130390D01*
X156713180Y-78511342D02*
X156665561Y-78606580D01*
X156617942Y-78654200D01*
X156522704Y-78701819D01*
X156236990Y-78701819D01*
X156141752Y-78654200D01*
X156094133Y-78606580D01*
X156046514Y-78511342D01*
X156046514Y-78368485D01*
X156094133Y-78273247D01*
X156141752Y-78225628D01*
X156236990Y-78178009D01*
X156522704Y-78178009D01*
X156617942Y-78225628D01*
X156665561Y-78273247D01*
X156713180Y-78368485D01*
X156713180Y-78511342D01*
X156665561Y-77797057D02*
X156713180Y-77701819D01*
X156713180Y-77511342D01*
X156665561Y-77416104D01*
X156570323Y-77368485D01*
X156522704Y-77368485D01*
X156427466Y-77416104D01*
X156379847Y-77511342D01*
X156379847Y-77654200D01*
X156332228Y-77749438D01*
X156236990Y-77797057D01*
X156189371Y-77797057D01*
X156094133Y-77749438D01*
X156046514Y-77654200D01*
X156046514Y-77511342D01*
X156094133Y-77416104D01*
X156046514Y-77082771D02*
X156046514Y-76701819D01*
X155713180Y-76939914D02*
X156570323Y-76939914D01*
X156665561Y-76892295D01*
X156713180Y-76797057D01*
X156713180Y-76701819D01*
X155666666Y-97666666D02*
X155666666Y-96966666D01*
X155900000Y-97466666D01*
X156133333Y-96966666D01*
X156133333Y-97666666D01*
X156466666Y-97666666D02*
X156466666Y-96966666D01*
X156800000Y-97666666D02*
X156800000Y-96966666D01*
X157033333Y-97466666D01*
X157266666Y-96966666D01*
X157266666Y-97666666D01*
X157533333Y-96966666D02*
X158000000Y-97666666D01*
X158000000Y-96966666D02*
X157533333Y-97666666D01*
X158666666Y-97666666D02*
X158433333Y-97333333D01*
X158266666Y-97666666D02*
X158266666Y-96966666D01*
X158533333Y-96966666D01*
X158600000Y-97000000D01*
X158633333Y-97033333D01*
X158666666Y-97100000D01*
X158666666Y-97200000D01*
X158633333Y-97266666D01*
X158600000Y-97300000D01*
X158533333Y-97333333D01*
X158266666Y-97333333D01*
X158866666Y-96966666D02*
X159266666Y-96966666D01*
X159066666Y-97666666D02*
X159066666Y-96966666D01*
X159866666Y-97666666D02*
X159466666Y-97666666D01*
X159666666Y-97666666D02*
X159666666Y-96966666D01*
X159600000Y-97066666D01*
X159533333Y-97133333D01*
X159466666Y-97166666D01*
X160300000Y-96966666D02*
X160366666Y-96966666D01*
X160433333Y-97000000D01*
X160466666Y-97033333D01*
X160500000Y-97100000D01*
X160533333Y-97233333D01*
X160533333Y-97400000D01*
X160500000Y-97533333D01*
X160466666Y-97600000D01*
X160433333Y-97633333D01*
X160366666Y-97666666D01*
X160300000Y-97666666D01*
X160233333Y-97633333D01*
X160200000Y-97600000D01*
X160166666Y-97533333D01*
X160133333Y-97400000D01*
X160133333Y-97233333D01*
X160166666Y-97100000D01*
X160200000Y-97033333D01*
X160233333Y-97000000D01*
X160300000Y-96966666D01*
X161133333Y-96966666D02*
X161000000Y-96966666D01*
X160933333Y-97000000D01*
X160900000Y-97033333D01*
X160833333Y-97133333D01*
X160800000Y-97266666D01*
X160800000Y-97533333D01*
X160833333Y-97600000D01*
X160866666Y-97633333D01*
X160933333Y-97666666D01*
X161066666Y-97666666D01*
X161133333Y-97633333D01*
X161166666Y-97600000D01*
X161200000Y-97533333D01*
X161200000Y-97366666D01*
X161166666Y-97300000D01*
X161133333Y-97266666D01*
X161066666Y-97233333D01*
X160933333Y-97233333D01*
X160866666Y-97266666D01*
X160833333Y-97300000D01*
X160800000Y-97366666D01*
X161466666Y-97033333D02*
X161500000Y-97000000D01*
X161566666Y-96966666D01*
X161733333Y-96966666D01*
X161800000Y-97000000D01*
X161833333Y-97033333D01*
X161866666Y-97100000D01*
X161866666Y-97166666D01*
X161833333Y-97266666D01*
X161433333Y-97666666D01*
X161866666Y-97666666D01*
X159202380Y-125869047D02*
X158202380Y-125869047D01*
X158916666Y-125535714D01*
X158202380Y-125202380D01*
X159202380Y-125202380D01*
X159202380Y-124726190D02*
X158535714Y-124726190D01*
X158202380Y-124726190D02*
X158250000Y-124773809D01*
X158297619Y-124726190D01*
X158250000Y-124678571D01*
X158202380Y-124726190D01*
X158297619Y-124726190D01*
X159154761Y-123821428D02*
X159202380Y-123916666D01*
X159202380Y-124107142D01*
X159154761Y-124202380D01*
X159107142Y-124250000D01*
X159011904Y-124297619D01*
X158726190Y-124297619D01*
X158630952Y-124250000D01*
X158583333Y-124202380D01*
X158535714Y-124107142D01*
X158535714Y-123916666D01*
X158583333Y-123821428D01*
X159202380Y-123392857D02*
X158535714Y-123392857D01*
X158726190Y-123392857D02*
X158630952Y-123345238D01*
X158583333Y-123297619D01*
X158535714Y-123202380D01*
X158535714Y-123107142D01*
X159202380Y-122630952D02*
X159154761Y-122726190D01*
X159107142Y-122773809D01*
X159011904Y-122821428D01*
X158726190Y-122821428D01*
X158630952Y-122773809D01*
X158583333Y-122726190D01*
X158535714Y-122630952D01*
X158535714Y-122488095D01*
X158583333Y-122392857D01*
X158630952Y-122345238D01*
X158726190Y-122297619D01*
X159011904Y-122297619D01*
X159107142Y-122345238D01*
X159154761Y-122392857D01*
X159202380Y-122488095D01*
X159202380Y-122630952D01*
X159154761Y-121154761D02*
X159202380Y-121011904D01*
X159202380Y-120773809D01*
X159154761Y-120678571D01*
X159107142Y-120630952D01*
X159011904Y-120583333D01*
X158916666Y-120583333D01*
X158821428Y-120630952D01*
X158773809Y-120678571D01*
X158726190Y-120773809D01*
X158678571Y-120964285D01*
X158630952Y-121059523D01*
X158583333Y-121107142D01*
X158488095Y-121154761D01*
X158392857Y-121154761D01*
X158297619Y-121107142D01*
X158250000Y-121059523D01*
X158202380Y-120964285D01*
X158202380Y-120726190D01*
X158250000Y-120583333D01*
X159202380Y-120154761D02*
X158202380Y-120154761D01*
X158202380Y-119916666D01*
X158250000Y-119773809D01*
X158345238Y-119678571D01*
X158440476Y-119630952D01*
X158630952Y-119583333D01*
X158773809Y-119583333D01*
X158964285Y-119630952D01*
X159059523Y-119678571D01*
X159154761Y-119773809D01*
X159202380Y-119916666D01*
X159202380Y-120154761D01*
%TO.C,C1*%
X170013333Y-110687142D02*
X169965714Y-110734761D01*
X169822857Y-110782380D01*
X169727619Y-110782380D01*
X169584761Y-110734761D01*
X169489523Y-110639523D01*
X169441904Y-110544285D01*
X169394285Y-110353809D01*
X169394285Y-110210952D01*
X169441904Y-110020476D01*
X169489523Y-109925238D01*
X169584761Y-109830000D01*
X169727619Y-109782380D01*
X169822857Y-109782380D01*
X169965714Y-109830000D01*
X170013333Y-109877619D01*
X170965714Y-110782380D02*
X170394285Y-110782380D01*
X170680000Y-110782380D02*
X170680000Y-109782380D01*
X170584761Y-109925238D01*
X170489523Y-110020476D01*
X170394285Y-110068095D01*
D12*
%TO.C,D2*%
X174532857Y-83435714D02*
X173332857Y-83435714D01*
X173332857Y-83150000D01*
X173390000Y-82978571D01*
X173504285Y-82864285D01*
X173618571Y-82807142D01*
X173847142Y-82750000D01*
X174018571Y-82750000D01*
X174247142Y-82807142D01*
X174361428Y-82864285D01*
X174475714Y-82978571D01*
X174532857Y-83150000D01*
X174532857Y-83435714D01*
X173447142Y-82292857D02*
X173390000Y-82235714D01*
X173332857Y-82121428D01*
X173332857Y-81835714D01*
X173390000Y-81721428D01*
X173447142Y-81664285D01*
X173561428Y-81607142D01*
X173675714Y-81607142D01*
X173847142Y-81664285D01*
X174532857Y-82350000D01*
X174532857Y-81607142D01*
D11*
%TO.C,C3*%
X130643333Y-79097142D02*
X130595714Y-79144761D01*
X130452857Y-79192380D01*
X130357619Y-79192380D01*
X130214761Y-79144761D01*
X130119523Y-79049523D01*
X130071904Y-78954285D01*
X130024285Y-78763809D01*
X130024285Y-78620952D01*
X130071904Y-78430476D01*
X130119523Y-78335238D01*
X130214761Y-78240000D01*
X130357619Y-78192380D01*
X130452857Y-78192380D01*
X130595714Y-78240000D01*
X130643333Y-78287619D01*
X130976666Y-78192380D02*
X131595714Y-78192380D01*
X131262380Y-78573333D01*
X131405238Y-78573333D01*
X131500476Y-78620952D01*
X131548095Y-78668571D01*
X131595714Y-78763809D01*
X131595714Y-79001904D01*
X131548095Y-79097142D01*
X131500476Y-79144761D01*
X131405238Y-79192380D01*
X131119523Y-79192380D01*
X131024285Y-79144761D01*
X130976666Y-79097142D01*
D13*
%TO.C,C5*%
X136625000Y-81018748D02*
X136625000Y-81541252D01*
X135155000Y-81018748D02*
X135155000Y-81541252D01*
%TO.C,C2*%
X171188748Y-79275000D02*
X171711252Y-79275000D01*
X171188748Y-80745000D02*
X171711252Y-80745000D01*
%TO.C,C4*%
X134085000Y-81018748D02*
X134085000Y-81541252D01*
X132615000Y-81018748D02*
X132615000Y-81541252D01*
%TO.C,R2*%
X171222936Y-84355000D02*
X171677064Y-84355000D01*
X171222936Y-85825000D02*
X171677064Y-85825000D01*
%TO.C,R1*%
X169952936Y-118645000D02*
X170407064Y-118645000D01*
X169952936Y-120115000D02*
X170407064Y-120115000D01*
%TO.C,D1*%
X168320000Y-114610000D02*
X168320000Y-116530000D01*
X171180000Y-114610000D02*
X168320000Y-114610000D01*
X168320000Y-116530000D02*
X171180000Y-116530000D01*
%TO.C,9V PWR*%
X180340000Y-110490000D02*
X172720000Y-110490000D01*
X179070000Y-110490000D02*
X179070000Y-120650000D01*
X180340000Y-120650000D02*
X180340000Y-110490000D01*
X172720000Y-110490000D02*
X172720000Y-120650000D01*
X172720000Y-120650000D02*
X180340000Y-120650000D01*
%TO.C,XBEE_USB*%
X122015000Y-118015000D02*
X147415000Y-118015000D01*
X147415000Y-118015000D02*
X147415000Y-79915000D01*
X147415000Y-79915000D02*
X122015000Y-79915000D01*
X122015000Y-79915000D02*
X122015000Y-118015000D01*
%TO.C,IMU*%
X172825000Y-88302500D02*
X172825000Y-89632500D01*
X171495000Y-88302500D02*
X172825000Y-88302500D01*
X170165000Y-90902500D02*
X170165000Y-108742500D01*
X170165000Y-108742500D02*
X172825000Y-108742500D01*
X170165000Y-90902500D02*
X172825000Y-90902500D01*
X172825000Y-90902500D02*
X172825000Y-108742500D01*
X169695000Y-109182500D02*
X186095000Y-109182500D01*
X186095000Y-109182500D02*
X186095000Y-87982500D01*
X186095000Y-87982500D02*
X169695000Y-87982500D01*
X169695000Y-87982500D02*
X169695000Y-109182500D01*
%TO.C,REG*%
X179793900Y-75946000D02*
X174942500Y-75946000D01*
X174942500Y-75946000D02*
X174942500Y-86614000D01*
X179793900Y-86614000D02*
X179793900Y-75946000D01*
X174942500Y-86614000D02*
X179793900Y-86614000D01*
D11*
%TO.C,TEENSY4.1*%
X153670000Y-127830000D02*
X153670000Y-129100000D01*
X167640000Y-129100000D02*
X149860000Y-129100000D01*
X152910800Y-74439200D02*
X155450800Y-74439200D01*
X154940000Y-73220000D02*
X154940000Y-68140000D01*
X160020000Y-112590000D02*
X157480000Y-112590000D01*
X152400000Y-91000000D02*
X152400000Y-103700000D01*
X154940000Y-73220000D02*
X162560000Y-73220000D01*
X165100000Y-116400000D02*
X152400000Y-116400000D01*
X158851600Y-81370000D02*
X158851600Y-85370000D01*
X162560000Y-66870000D02*
X162560000Y-68140000D01*
X165100000Y-129100000D02*
X165100000Y-116400000D01*
X155450800Y-74439200D02*
X155450800Y-76979200D01*
X157480000Y-112590000D02*
X157480000Y-108780000D01*
X163830000Y-129100000D02*
X163830000Y-127830000D01*
X152400000Y-103700000D02*
X165100000Y-103700000D01*
X162560000Y-73220000D02*
X162560000Y-68140000D01*
X155450800Y-74439200D02*
X155450800Y-87139200D01*
X155450800Y-76979200D02*
X152910800Y-76979200D01*
X149860000Y-129100000D02*
X149860000Y-68140000D01*
X149860000Y-68140000D02*
X167640000Y-68140000D01*
X167640000Y-68140000D02*
X167640000Y-129100000D01*
X165101600Y-81370000D02*
X164851600Y-81370000D01*
X164851600Y-81370000D02*
X158851600Y-81370000D01*
X163830000Y-127830000D02*
X153670000Y-127830000D01*
X154940000Y-66870000D02*
X162560000Y-66870000D01*
X155450800Y-87139200D02*
X152910800Y-87139200D01*
X152400000Y-116400000D02*
X152400000Y-129100000D01*
X160020000Y-108780000D02*
X160020000Y-112590000D01*
X154940000Y-68140000D02*
X154940000Y-66870000D01*
X165101600Y-85370000D02*
X165101600Y-81370000D01*
X165100000Y-91000000D02*
X152400000Y-91000000D01*
X152910800Y-87139200D02*
X152910800Y-74439200D01*
X158851600Y-85370000D02*
X165101600Y-85370000D01*
X165100000Y-103700000D02*
X165100000Y-91000000D01*
X157480000Y-108780000D02*
X160020000Y-108780000D01*
X159648026Y-110685000D02*
G75*
G03*
X159648026Y-110685000I-898026J0D01*
G01*
G36*
X159438000Y-101563000D02*
G01*
X159057000Y-101817000D01*
X158803000Y-101563000D01*
X159184000Y-101309000D01*
X159438000Y-101563000D01*
G37*
D14*
X159438000Y-101563000D02*
X159057000Y-101817000D01*
X158803000Y-101563000D01*
X159184000Y-101309000D01*
X159438000Y-101563000D01*
G36*
X159184000Y-100420000D02*
G01*
X158803000Y-100674000D01*
X158549000Y-100420000D01*
X158930000Y-100166000D01*
X159184000Y-100420000D01*
G37*
X159184000Y-100420000D02*
X158803000Y-100674000D01*
X158549000Y-100420000D01*
X158930000Y-100166000D01*
X159184000Y-100420000D01*
G36*
X159311000Y-99658000D02*
G01*
X158930000Y-99912000D01*
X158676000Y-99658000D01*
X159057000Y-99404000D01*
X159311000Y-99658000D01*
G37*
X159311000Y-99658000D02*
X158930000Y-99912000D01*
X158676000Y-99658000D01*
X159057000Y-99404000D01*
X159311000Y-99658000D01*
G36*
X159057000Y-101182000D02*
G01*
X158676000Y-101436000D01*
X158422000Y-101182000D01*
X158803000Y-100928000D01*
X159057000Y-101182000D01*
G37*
X159057000Y-101182000D02*
X158676000Y-101436000D01*
X158422000Y-101182000D01*
X158803000Y-100928000D01*
X159057000Y-101182000D01*
G36*
X158803000Y-100039000D02*
G01*
X158422000Y-100293000D01*
X158168000Y-100039000D01*
X158549000Y-99785000D01*
X158803000Y-100039000D01*
G37*
X158803000Y-100039000D02*
X158422000Y-100293000D01*
X158168000Y-100039000D01*
X158549000Y-99785000D01*
X158803000Y-100039000D01*
G36*
X158676000Y-100801000D02*
G01*
X158295000Y-101055000D01*
X158041000Y-100801000D01*
X158422000Y-100547000D01*
X158676000Y-100801000D01*
G37*
X158676000Y-100801000D02*
X158295000Y-101055000D01*
X158041000Y-100801000D01*
X158422000Y-100547000D01*
X158676000Y-100801000D01*
G36*
X159819000Y-99277000D02*
G01*
X159438000Y-99531000D01*
X159184000Y-99277000D01*
X159565000Y-99023000D01*
X159819000Y-99277000D01*
G37*
X159819000Y-99277000D02*
X159438000Y-99531000D01*
X159184000Y-99277000D01*
X159565000Y-99023000D01*
X159819000Y-99277000D01*
G36*
X159692000Y-100039000D02*
G01*
X159311000Y-100293000D01*
X159057000Y-100039000D01*
X159438000Y-99785000D01*
X159692000Y-100039000D01*
G37*
X159692000Y-100039000D02*
X159311000Y-100293000D01*
X159057000Y-100039000D01*
X159438000Y-99785000D01*
X159692000Y-100039000D01*
D13*
%TO.C,C1*%
X169918748Y-111025000D02*
X170441252Y-111025000D01*
X169918748Y-112495000D02*
X170441252Y-112495000D01*
%TO.C,Ge*%
G36*
X147262273Y-121143889D02*
G01*
X147000362Y-121149893D01*
X146738451Y-121155896D01*
X146738451Y-122128049D01*
X146738110Y-122327223D01*
X146737134Y-122512566D01*
X146735594Y-122679846D01*
X146733558Y-122824831D01*
X146731097Y-122943290D01*
X146728281Y-123030992D01*
X146725179Y-123083707D01*
X146722416Y-123097854D01*
X146697179Y-123092132D01*
X146637860Y-123077850D01*
X146551862Y-123056814D01*
X146446587Y-123030830D01*
X146374983Y-123013054D01*
X146240773Y-122980709D01*
X146101126Y-122948838D01*
X145970172Y-122920555D01*
X145862042Y-122898973D01*
X145835126Y-122894088D01*
X145626666Y-122857573D01*
X145626666Y-121154580D01*
X145049394Y-121154580D01*
X145049394Y-120235219D01*
X147273813Y-120235219D01*
X147262273Y-121143889D01*
G37*
G36*
X141878324Y-124339627D02*
G01*
X141879783Y-124399265D01*
X141881121Y-124493945D01*
X141882310Y-124619806D01*
X141883322Y-124772990D01*
X141884130Y-124949636D01*
X141884708Y-125145885D01*
X141885028Y-125357877D01*
X141885084Y-125494815D01*
X141884801Y-125714531D01*
X141883988Y-125920835D01*
X141882698Y-126109875D01*
X141880982Y-126277798D01*
X141878893Y-126420752D01*
X141876485Y-126534885D01*
X141873810Y-126616343D01*
X141870920Y-126661275D01*
X141869049Y-126669100D01*
X141843591Y-126662408D01*
X141785711Y-126645331D01*
X141703755Y-126620380D01*
X141606070Y-126590068D01*
X141596448Y-126587055D01*
X141359696Y-126508060D01*
X141144372Y-126426615D01*
X140959318Y-126346148D01*
X140900312Y-126317320D01*
X140794680Y-126263792D01*
X140794680Y-124771535D01*
X140885547Y-124721315D01*
X141034089Y-124645210D01*
X141209838Y-124564900D01*
X141398518Y-124486552D01*
X141585852Y-124416335D01*
X141614860Y-124406228D01*
X141711688Y-124373096D01*
X141792837Y-124345736D01*
X141850338Y-124326805D01*
X141876221Y-124318962D01*
X141876770Y-124318889D01*
X141878324Y-124339627D01*
G37*
G36*
X142478817Y-120689554D02*
G01*
X142473047Y-121143889D01*
X142179065Y-121149838D01*
X141885084Y-121155786D01*
X141885084Y-122876452D01*
X141601793Y-122944875D01*
X141464678Y-122979965D01*
X141312954Y-123022056D01*
X141158787Y-123067497D01*
X141014345Y-123112638D01*
X140891794Y-123153829D01*
X140832096Y-123175800D01*
X140823454Y-123177204D01*
X140816253Y-123171793D01*
X140810360Y-123156065D01*
X140805647Y-123126517D01*
X140801981Y-123079647D01*
X140799233Y-123011954D01*
X140797272Y-122919936D01*
X140795967Y-122800091D01*
X140795187Y-122648916D01*
X140794803Y-122462910D01*
X140794684Y-122238570D01*
X140794680Y-122172439D01*
X140794680Y-121154580D01*
X140217407Y-121154580D01*
X140217407Y-120235219D01*
X142484588Y-120235219D01*
X142478817Y-120689554D01*
G37*
G36*
X144696616Y-122882032D02*
G01*
X144941520Y-122896307D01*
X145214405Y-122923403D01*
X145502868Y-122962084D01*
X145509074Y-122963022D01*
X145778541Y-123009058D01*
X146066013Y-123067593D01*
X146364805Y-123136673D01*
X146668228Y-123214344D01*
X146969598Y-123298651D01*
X147262226Y-123387641D01*
X147539427Y-123479359D01*
X147794514Y-123571851D01*
X148020800Y-123663164D01*
X148211599Y-123751342D01*
X148218553Y-123754855D01*
X148340012Y-123816448D01*
X148036327Y-124312917D01*
X147955712Y-124443459D01*
X147881582Y-124561126D01*
X147817021Y-124661213D01*
X147765110Y-124739014D01*
X147728935Y-124789823D01*
X147711578Y-124808937D01*
X147711262Y-124808976D01*
X147682982Y-124799421D01*
X147628362Y-124774621D01*
X147558650Y-124739717D01*
X147550909Y-124735673D01*
X147294180Y-124614149D01*
X147000375Y-124498529D01*
X146674951Y-124390311D01*
X146323365Y-124290988D01*
X145951073Y-124202056D01*
X145563533Y-124125011D01*
X145166201Y-124061348D01*
X145017323Y-124041423D01*
X144893235Y-124025684D01*
X144776960Y-124010882D01*
X144678315Y-123998272D01*
X144607116Y-123989107D01*
X144584010Y-123986094D01*
X144492785Y-123974074D01*
X144498488Y-123424891D01*
X144504192Y-122875708D01*
X144696616Y-122882032D01*
G37*
G36*
X140830055Y-127767074D02*
G01*
X140886651Y-127783305D01*
X140968227Y-127807510D01*
X141066846Y-127837356D01*
X141089666Y-127844333D01*
X141223955Y-127883746D01*
X141375220Y-127925428D01*
X141522659Y-127963769D01*
X141620498Y-127987487D01*
X141879734Y-128047452D01*
X141890888Y-128518987D01*
X141898058Y-128730599D01*
X141909972Y-128906163D01*
X141928691Y-129052308D01*
X141956275Y-129175665D01*
X141994785Y-129282861D01*
X142046281Y-129380527D01*
X142112823Y-129475291D01*
X142196472Y-129573782D01*
X142230059Y-129610240D01*
X142286808Y-129672506D01*
X142330175Y-129723137D01*
X142353355Y-129754061D01*
X142355454Y-129758983D01*
X142344965Y-129782395D01*
X142316730Y-129833527D01*
X142275598Y-129903796D01*
X142245538Y-129953550D01*
X142194729Y-130039102D01*
X142165023Y-130096729D01*
X142153511Y-130133885D01*
X142157282Y-130158027D01*
X142162634Y-130165971D01*
X142196209Y-130193255D01*
X142213595Y-130198519D01*
X142240109Y-130186972D01*
X142293119Y-130155744D01*
X142364287Y-130109953D01*
X142426082Y-130068082D01*
X142521103Y-130005852D01*
X142594281Y-129965248D01*
X142640999Y-129948713D01*
X142650736Y-129949211D01*
X142686434Y-129961187D01*
X142750996Y-129983315D01*
X142832914Y-130011644D01*
X142869589Y-130024392D01*
X142992684Y-130063536D01*
X143112850Y-130092917D01*
X143238353Y-130113421D01*
X143377461Y-130125933D01*
X143538438Y-130131339D01*
X143729552Y-130130525D01*
X143837444Y-130128103D01*
X144036114Y-130121008D01*
X144201636Y-130110300D01*
X144343584Y-130094235D01*
X144471529Y-130071065D01*
X144595045Y-130039046D01*
X144723703Y-129996431D01*
X144867078Y-129941473D01*
X144872405Y-129939335D01*
X144903053Y-129928600D01*
X144930898Y-129926456D01*
X144963832Y-129936176D01*
X145009748Y-129961036D01*
X145076537Y-130004312D01*
X145151314Y-130055085D01*
X145235206Y-130111116D01*
X145307272Y-130156897D01*
X145359711Y-130187629D01*
X145384480Y-130198519D01*
X145416220Y-130183700D01*
X145434420Y-130166234D01*
X145443060Y-130145908D01*
X145438156Y-130115171D01*
X145416889Y-130067061D01*
X145376444Y-129994619D01*
X145340826Y-129934969D01*
X145291888Y-129852623D01*
X145252525Y-129783607D01*
X145227322Y-129736144D01*
X145220438Y-129719174D01*
X145233722Y-129695670D01*
X145268359Y-129651061D01*
X145311305Y-129601276D01*
X145398300Y-129494590D01*
X145467846Y-129384601D01*
X145521839Y-129264851D01*
X145562176Y-129128880D01*
X145590753Y-128970231D01*
X145609468Y-128782443D01*
X145620216Y-128559059D01*
X145620536Y-128548294D01*
X145632778Y-128127446D01*
X145784731Y-128103121D01*
X145857478Y-128090599D01*
X145961344Y-128071547D01*
X146085555Y-128048000D01*
X146219336Y-128021990D01*
X146310017Y-128003986D01*
X146431828Y-127979610D01*
X146539537Y-127958118D01*
X146625956Y-127940939D01*
X146683898Y-127929504D01*
X146705556Y-127925337D01*
X146714297Y-127943936D01*
X146720856Y-127998957D01*
X146725323Y-128084122D01*
X146727789Y-128193150D01*
X146728343Y-128319763D01*
X146727074Y-128457683D01*
X146724073Y-128600631D01*
X146719429Y-128742328D01*
X146713231Y-128876494D01*
X146705570Y-128996852D01*
X146696536Y-129097123D01*
X146687894Y-129161566D01*
X146629582Y-129450053D01*
X146557051Y-129705321D01*
X146467955Y-129935230D01*
X146437399Y-130000943D01*
X146388887Y-130097148D01*
X146343246Y-130175626D01*
X146292472Y-130247420D01*
X146228558Y-130323575D01*
X146143499Y-130415133D01*
X146117529Y-130442204D01*
X145924344Y-130627671D01*
X145729515Y-130782116D01*
X145526250Y-130908818D01*
X145307752Y-131011057D01*
X145067228Y-131092111D01*
X144797882Y-131155261D01*
X144557643Y-131195014D01*
X144452298Y-131206449D01*
X144314419Y-131216342D01*
X144152909Y-131224513D01*
X143976673Y-131230781D01*
X143794617Y-131234965D01*
X143615643Y-131236885D01*
X143448656Y-131236358D01*
X143302561Y-131233206D01*
X143186262Y-131227247D01*
X143146532Y-131223657D01*
X142782229Y-131166307D01*
X142441886Y-131076629D01*
X142127298Y-130955275D01*
X141840261Y-130802898D01*
X141667058Y-130685856D01*
X141435582Y-130493452D01*
X141242859Y-130286876D01*
X141086751Y-130062508D01*
X140965117Y-129816728D01*
X140875818Y-129545914D01*
X140816805Y-129247088D01*
X140812200Y-129195310D01*
X140808040Y-129111628D01*
X140804368Y-129001933D01*
X140801223Y-128872117D01*
X140798648Y-128728072D01*
X140796685Y-128575690D01*
X140795373Y-128420862D01*
X140794755Y-128269480D01*
X140794873Y-128127436D01*
X140795767Y-128000621D01*
X140797478Y-127894928D01*
X140800049Y-127816248D01*
X140803520Y-127770473D01*
X140806375Y-127761145D01*
X140830055Y-127767074D01*
G37*
G36*
X145664082Y-124266486D02*
G01*
X145914909Y-124319833D01*
X146132595Y-124369553D01*
X146326357Y-124417895D01*
X146505412Y-124467106D01*
X146594133Y-124493291D01*
X146738451Y-124536859D01*
X146738451Y-126455288D01*
X146658274Y-126476273D01*
X146504755Y-126515423D01*
X146346314Y-126553994D01*
X146189611Y-126590538D01*
X146041305Y-126623604D01*
X145908055Y-126651744D01*
X145796521Y-126673508D01*
X145713363Y-126687447D01*
X145666487Y-126692122D01*
X145658020Y-126690740D01*
X145650845Y-126684418D01*
X145644856Y-126669890D01*
X145639945Y-126643891D01*
X145636007Y-126603155D01*
X145632934Y-126544418D01*
X145630619Y-126464413D01*
X145628956Y-126359876D01*
X145627837Y-126227541D01*
X145627156Y-126064142D01*
X145626806Y-125866415D01*
X145626679Y-125631095D01*
X145626666Y-125475436D01*
X145626725Y-125216470D01*
X145626969Y-124997033D01*
X145627496Y-124813896D01*
X145628408Y-124663828D01*
X145629805Y-124543599D01*
X145631785Y-124449977D01*
X145634450Y-124379733D01*
X145637900Y-124329635D01*
X145642233Y-124296454D01*
X145647551Y-124276958D01*
X145653953Y-124267917D01*
X145661540Y-124266100D01*
X145664082Y-124266486D01*
G37*
G36*
X147746195Y-126267998D02*
G01*
X147779842Y-126320620D01*
X147828004Y-126397350D01*
X147887075Y-126492317D01*
X147953450Y-126599646D01*
X148023522Y-126713467D01*
X148093685Y-126827906D01*
X148160335Y-126937091D01*
X148219865Y-127035149D01*
X148268670Y-127116208D01*
X148303144Y-127174396D01*
X148319680Y-127203839D01*
X148320606Y-127206159D01*
X148301988Y-127221569D01*
X148250914Y-127249696D01*
X148174555Y-127287186D01*
X148080081Y-127330685D01*
X147974662Y-127376840D01*
X147865469Y-127422295D01*
X147818165Y-127441175D01*
X147369046Y-127601469D01*
X146887285Y-127742708D01*
X146379149Y-127863577D01*
X145850904Y-127962758D01*
X145308819Y-128038933D01*
X144759159Y-128090785D01*
X144712651Y-128094004D01*
X144493501Y-128108741D01*
X144493501Y-126972005D01*
X144562988Y-126961215D01*
X144620530Y-126953760D01*
X144702133Y-126944949D01*
X144782138Y-126937411D01*
X145076947Y-126906189D01*
X145387612Y-126863050D01*
X145707450Y-126809524D01*
X146029776Y-126747142D01*
X146347908Y-126677437D01*
X146655162Y-126601938D01*
X146944855Y-126522177D01*
X147210302Y-126439685D01*
X147444821Y-126355994D01*
X147599459Y-126291992D01*
X147664385Y-126264732D01*
X147711919Y-126248030D01*
X147730668Y-126245358D01*
X147746195Y-126267998D01*
G37*
G36*
X143103720Y-123412658D02*
G01*
X143103668Y-123966112D01*
X142749103Y-124015706D01*
X142382990Y-124077664D01*
X142025563Y-124159110D01*
X141681290Y-124258230D01*
X141354635Y-124373209D01*
X141050066Y-124502233D01*
X140772049Y-124643488D01*
X140525051Y-124795158D01*
X140313537Y-124955429D01*
X140215582Y-125044977D01*
X140089495Y-125186485D01*
X140005526Y-125322694D01*
X139963666Y-125455637D01*
X139963907Y-125587348D01*
X140006238Y-125719861D01*
X140090651Y-125855212D01*
X140211377Y-125989811D01*
X140405422Y-126156219D01*
X140636259Y-126310486D01*
X140905426Y-126453501D01*
X141214458Y-126586154D01*
X141288891Y-126614386D01*
X141510260Y-126688623D01*
X141761652Y-126759524D01*
X142030334Y-126824338D01*
X142303572Y-126880318D01*
X142568631Y-126924715D01*
X142812779Y-126954779D01*
X142899206Y-126962000D01*
X143103771Y-126976379D01*
X143103771Y-128081852D01*
X143002214Y-128079559D01*
X142938380Y-128075973D01*
X142846025Y-128068095D01*
X142739025Y-128057199D01*
X142659843Y-128048097D01*
X142203139Y-127981778D01*
X141766564Y-127896443D01*
X141351688Y-127793107D01*
X140960079Y-127672780D01*
X140593306Y-127536475D01*
X140252939Y-127385204D01*
X139940547Y-127219979D01*
X139657698Y-127041812D01*
X139405962Y-126851715D01*
X139186907Y-126650701D01*
X139002103Y-126439780D01*
X138853118Y-126219966D01*
X138741522Y-125992271D01*
X138668883Y-125757706D01*
X138636771Y-125517284D01*
X138635252Y-125452054D01*
X138656048Y-125209491D01*
X138718513Y-124973896D01*
X138822767Y-124745082D01*
X138968930Y-124522858D01*
X139157121Y-124307036D01*
X139387459Y-124097425D01*
X139584002Y-123946997D01*
X139882525Y-123753533D01*
X140216007Y-123573691D01*
X140578249Y-123409505D01*
X140963048Y-123263009D01*
X141364203Y-123136240D01*
X141775515Y-123031232D01*
X142190780Y-122950020D01*
X142603798Y-122894639D01*
X142852550Y-122874377D01*
X143103771Y-122859205D01*
X143103720Y-123412658D01*
G37*
G36*
X143804625Y-121135827D02*
G01*
X143826537Y-121189199D01*
X143859838Y-121274002D01*
X143902856Y-121385880D01*
X143953916Y-121520479D01*
X144011345Y-121673443D01*
X144073469Y-121840416D01*
X144078584Y-121854227D01*
X144353842Y-122597761D01*
X144364876Y-125612408D01*
X144375909Y-128627054D01*
X144726142Y-129193637D01*
X144814668Y-129336582D01*
X144897718Y-129470186D01*
X144972157Y-129589440D01*
X145034849Y-129689339D01*
X145082656Y-129764875D01*
X145112442Y-129811040D01*
X145118668Y-129820247D01*
X145144915Y-129862007D01*
X145153883Y-129885783D01*
X145153283Y-129886931D01*
X145133240Y-129879321D01*
X145089603Y-129852703D01*
X145049394Y-129825197D01*
X144997941Y-129789110D01*
X144919960Y-129735023D01*
X144824261Y-129669017D01*
X144719649Y-129597174D01*
X144666431Y-129560744D01*
X144379681Y-129364681D01*
X143217909Y-129364681D01*
X142963071Y-129538955D01*
X142859296Y-129609931D01*
X142756491Y-129680255D01*
X142665460Y-129742537D01*
X142597008Y-129789385D01*
X142588046Y-129795521D01*
X142525621Y-129836910D01*
X142477276Y-129866463D01*
X142453431Y-129877812D01*
X142453391Y-129877812D01*
X142455891Y-129862083D01*
X142477877Y-129821710D01*
X142500224Y-129786945D01*
X142526970Y-129745605D01*
X142572550Y-129673252D01*
X142633549Y-129575386D01*
X142706553Y-129457512D01*
X142788144Y-129325131D01*
X142874910Y-129183746D01*
X142896790Y-129147997D01*
X143232054Y-128599915D01*
X143232054Y-122636475D01*
X143510141Y-121881133D01*
X143572868Y-121711086D01*
X143631043Y-121554017D01*
X143683004Y-121414367D01*
X143727089Y-121296574D01*
X143761635Y-121205078D01*
X143784980Y-121144319D01*
X143795463Y-121118736D01*
X143795776Y-121118242D01*
X143804625Y-121135827D01*
G37*
%TO.C,D2*%
X169590000Y-81590000D02*
X169590000Y-83510000D01*
X169590000Y-83510000D02*
X172450000Y-83510000D01*
X172450000Y-81590000D02*
X169590000Y-81590000D01*
%TO.C,C3*%
X131545000Y-81018748D02*
X131545000Y-81541252D01*
X130075000Y-81018748D02*
X130075000Y-81541252D01*
%TD*%
M02*
