%TF.GenerationSoftware,KiCad,Pcbnew,(6.0.8)*%
%TF.CreationDate,2023-03-06T23:42:02-08:00*%
%TF.ProjectId,ATP_Teensy,4154505f-5465-4656-9e73-792e6b696361,rev?*%
%TF.SameCoordinates,Original*%
%TF.FileFunction,Legend,Top*%
%TF.FilePolarity,Positive*%
%FSLAX46Y46*%
G04 Gerber Fmt 4.6, Leading zero omitted, Abs format (unit mm)*
G04 Created by KiCad (PCBNEW (6.0.8)) date 2023-03-06 23:42:02*
%MOMM*%
%LPD*%
G01*
G04 APERTURE LIST*
%ADD10C,0.300000*%
%ADD11C,0.150000*%
%ADD12C,0.200000*%
%ADD13C,0.120000*%
%ADD14C,0.100000*%
G04 APERTURE END LIST*
D10*
X181717142Y-81216428D02*
X181717142Y-80073571D01*
X181717142Y-86296428D02*
X181717142Y-85153571D01*
X182288571Y-85725000D02*
X181145714Y-85725000D01*
D11*
%TO.C,C2*%
X173585142Y-119546666D02*
X173632761Y-119594285D01*
X173680380Y-119737142D01*
X173680380Y-119832380D01*
X173632761Y-119975238D01*
X173537523Y-120070476D01*
X173442285Y-120118095D01*
X173251809Y-120165714D01*
X173108952Y-120165714D01*
X172918476Y-120118095D01*
X172823238Y-120070476D01*
X172728000Y-119975238D01*
X172680380Y-119832380D01*
X172680380Y-119737142D01*
X172728000Y-119594285D01*
X172775619Y-119546666D01*
X172775619Y-119165714D02*
X172728000Y-119118095D01*
X172680380Y-119022857D01*
X172680380Y-118784761D01*
X172728000Y-118689523D01*
X172775619Y-118641904D01*
X172870857Y-118594285D01*
X172966095Y-118594285D01*
X173108952Y-118641904D01*
X173680380Y-119213333D01*
X173680380Y-118594285D01*
%TO.C,C4*%
X133199142Y-114466666D02*
X133246761Y-114514285D01*
X133294380Y-114657142D01*
X133294380Y-114752380D01*
X133246761Y-114895238D01*
X133151523Y-114990476D01*
X133056285Y-115038095D01*
X132865809Y-115085714D01*
X132722952Y-115085714D01*
X132532476Y-115038095D01*
X132437238Y-114990476D01*
X132342000Y-114895238D01*
X132294380Y-114752380D01*
X132294380Y-114657142D01*
X132342000Y-114514285D01*
X132389619Y-114466666D01*
X132627714Y-113609523D02*
X133294380Y-113609523D01*
X132246761Y-113847619D02*
X132961047Y-114085714D01*
X132961047Y-113466666D01*
D12*
%TO.C,SPI*%
X132484761Y-80398809D02*
X132532380Y-80255952D01*
X132532380Y-80017857D01*
X132484761Y-79922619D01*
X132437142Y-79875000D01*
X132341904Y-79827380D01*
X132246666Y-79827380D01*
X132151428Y-79875000D01*
X132103809Y-79922619D01*
X132056190Y-80017857D01*
X132008571Y-80208333D01*
X131960952Y-80303571D01*
X131913333Y-80351190D01*
X131818095Y-80398809D01*
X131722857Y-80398809D01*
X131627619Y-80351190D01*
X131580000Y-80303571D01*
X131532380Y-80208333D01*
X131532380Y-79970238D01*
X131580000Y-79827380D01*
X132532380Y-79398809D02*
X131532380Y-79398809D01*
X131532380Y-79017857D01*
X131580000Y-78922619D01*
X131627619Y-78875000D01*
X131722857Y-78827380D01*
X131865714Y-78827380D01*
X131960952Y-78875000D01*
X132008571Y-78922619D01*
X132056190Y-79017857D01*
X132056190Y-79398809D01*
X132532380Y-78398809D02*
X131532380Y-78398809D01*
D11*
%TO.C,R2*%
X173562380Y-112434666D02*
X173086190Y-112768000D01*
X173562380Y-113006095D02*
X172562380Y-113006095D01*
X172562380Y-112625142D01*
X172610000Y-112529904D01*
X172657619Y-112482285D01*
X172752857Y-112434666D01*
X172895714Y-112434666D01*
X172990952Y-112482285D01*
X173038571Y-112529904D01*
X173086190Y-112625142D01*
X173086190Y-113006095D01*
X172657619Y-112053714D02*
X172610000Y-112006095D01*
X172562380Y-111910857D01*
X172562380Y-111672761D01*
X172610000Y-111577523D01*
X172657619Y-111529904D01*
X172752857Y-111482285D01*
X172848095Y-111482285D01*
X172990952Y-111529904D01*
X173562380Y-112101333D01*
X173562380Y-111482285D01*
%TO.C,C6*%
X128217142Y-79541666D02*
X128264761Y-79589285D01*
X128312380Y-79732142D01*
X128312380Y-79827380D01*
X128264761Y-79970238D01*
X128169523Y-80065476D01*
X128074285Y-80113095D01*
X127883809Y-80160714D01*
X127740952Y-80160714D01*
X127550476Y-80113095D01*
X127455238Y-80065476D01*
X127360000Y-79970238D01*
X127312380Y-79827380D01*
X127312380Y-79732142D01*
X127360000Y-79589285D01*
X127407619Y-79541666D01*
X127312380Y-78684523D02*
X127312380Y-78875000D01*
X127360000Y-78970238D01*
X127407619Y-79017857D01*
X127550476Y-79113095D01*
X127740952Y-79160714D01*
X128121904Y-79160714D01*
X128217142Y-79113095D01*
X128264761Y-79065476D01*
X128312380Y-78970238D01*
X128312380Y-78779761D01*
X128264761Y-78684523D01*
X128217142Y-78636904D01*
X128121904Y-78589285D01*
X127883809Y-78589285D01*
X127788571Y-78636904D01*
X127740952Y-78684523D01*
X127693333Y-78779761D01*
X127693333Y-78970238D01*
X127740952Y-79065476D01*
X127788571Y-79113095D01*
X127883809Y-79160714D01*
%TO.C,R1*%
X170013333Y-78457380D02*
X169680000Y-77981190D01*
X169441904Y-78457380D02*
X169441904Y-77457380D01*
X169822857Y-77457380D01*
X169918095Y-77505000D01*
X169965714Y-77552619D01*
X170013333Y-77647857D01*
X170013333Y-77790714D01*
X169965714Y-77885952D01*
X169918095Y-77933571D01*
X169822857Y-77981190D01*
X169441904Y-77981190D01*
X170965714Y-78457380D02*
X170394285Y-78457380D01*
X170680000Y-78457380D02*
X170680000Y-77457380D01*
X170584761Y-77600238D01*
X170489523Y-77695476D01*
X170394285Y-77743095D01*
D12*
%TO.C,9V*%
X169437142Y-82047857D02*
X169665714Y-82047857D01*
X169780000Y-81990714D01*
X169837142Y-81933571D01*
X169951428Y-81762142D01*
X170008571Y-81533571D01*
X170008571Y-81076428D01*
X169951428Y-80962142D01*
X169894285Y-80905000D01*
X169780000Y-80847857D01*
X169551428Y-80847857D01*
X169437142Y-80905000D01*
X169380000Y-80962142D01*
X169322857Y-81076428D01*
X169322857Y-81362142D01*
X169380000Y-81476428D01*
X169437142Y-81533571D01*
X169551428Y-81590714D01*
X169780000Y-81590714D01*
X169894285Y-81533571D01*
X169951428Y-81476428D01*
X170008571Y-81362142D01*
X170351428Y-80847857D02*
X170751428Y-82047857D01*
X171151428Y-80847857D01*
D11*
%TO.C,9V PWR*%
X174593571Y-76652380D02*
X174784047Y-76652380D01*
X174879285Y-76604761D01*
X174926904Y-76557142D01*
X175022142Y-76414285D01*
X175069761Y-76223809D01*
X175069761Y-75842857D01*
X175022142Y-75747619D01*
X174974523Y-75700000D01*
X174879285Y-75652380D01*
X174688809Y-75652380D01*
X174593571Y-75700000D01*
X174545952Y-75747619D01*
X174498333Y-75842857D01*
X174498333Y-76080952D01*
X174545952Y-76176190D01*
X174593571Y-76223809D01*
X174688809Y-76271428D01*
X174879285Y-76271428D01*
X174974523Y-76223809D01*
X175022142Y-76176190D01*
X175069761Y-76080952D01*
X175355476Y-75652380D02*
X175688809Y-76652380D01*
X176022142Y-75652380D01*
X177117380Y-76652380D02*
X177117380Y-75652380D01*
X177498333Y-75652380D01*
X177593571Y-75700000D01*
X177641190Y-75747619D01*
X177688809Y-75842857D01*
X177688809Y-75985714D01*
X177641190Y-76080952D01*
X177593571Y-76128571D01*
X177498333Y-76176190D01*
X177117380Y-76176190D01*
X178022142Y-75652380D02*
X178260238Y-76652380D01*
X178450714Y-75938095D01*
X178641190Y-76652380D01*
X178879285Y-75652380D01*
X179831666Y-76652380D02*
X179498333Y-76176190D01*
X179260238Y-76652380D02*
X179260238Y-75652380D01*
X179641190Y-75652380D01*
X179736428Y-75700000D01*
X179784047Y-75747619D01*
X179831666Y-75842857D01*
X179831666Y-75985714D01*
X179784047Y-76080952D01*
X179736428Y-76128571D01*
X179641190Y-76176190D01*
X179260238Y-76176190D01*
%TO.C,IMU*%
X183054761Y-112017380D02*
X183054761Y-111017380D01*
X183530952Y-112017380D02*
X183530952Y-111017380D01*
X183864285Y-111731666D01*
X184197619Y-111017380D01*
X184197619Y-112017380D01*
X184673809Y-111017380D02*
X184673809Y-111826904D01*
X184721428Y-111922142D01*
X184769047Y-111969761D01*
X184864285Y-112017380D01*
X185054761Y-112017380D01*
X185150000Y-111969761D01*
X185197619Y-111922142D01*
X185245238Y-111826904D01*
X185245238Y-111017380D01*
%TO.C,REG*%
X176141142Y-123718380D02*
X175807809Y-123242190D01*
X175569714Y-123718380D02*
X175569714Y-122718380D01*
X175950666Y-122718380D01*
X176045904Y-122766000D01*
X176093523Y-122813619D01*
X176141142Y-122908857D01*
X176141142Y-123051714D01*
X176093523Y-123146952D01*
X176045904Y-123194571D01*
X175950666Y-123242190D01*
X175569714Y-123242190D01*
X176569714Y-123194571D02*
X176903047Y-123194571D01*
X177045904Y-123718380D02*
X176569714Y-123718380D01*
X176569714Y-122718380D01*
X177045904Y-122718380D01*
X177998285Y-122766000D02*
X177903047Y-122718380D01*
X177760190Y-122718380D01*
X177617333Y-122766000D01*
X177522095Y-122861238D01*
X177474476Y-122956476D01*
X177426857Y-123146952D01*
X177426857Y-123289809D01*
X177474476Y-123480285D01*
X177522095Y-123575523D01*
X177617333Y-123670761D01*
X177760190Y-123718380D01*
X177855428Y-123718380D01*
X177998285Y-123670761D01*
X178045904Y-123623142D01*
X178045904Y-123289809D01*
X177855428Y-123289809D01*
%TO.C,TEENSY_4.1*%
X149860523Y-129754380D02*
X150431952Y-129754380D01*
X150146238Y-130754380D02*
X150146238Y-129754380D01*
X150765285Y-130230571D02*
X151098619Y-130230571D01*
X151241476Y-130754380D02*
X150765285Y-130754380D01*
X150765285Y-129754380D01*
X151241476Y-129754380D01*
X151670047Y-130230571D02*
X152003380Y-130230571D01*
X152146238Y-130754380D02*
X151670047Y-130754380D01*
X151670047Y-129754380D01*
X152146238Y-129754380D01*
X152574809Y-130754380D02*
X152574809Y-129754380D01*
X153146238Y-130754380D01*
X153146238Y-129754380D01*
X153574809Y-130706761D02*
X153717666Y-130754380D01*
X153955761Y-130754380D01*
X154051000Y-130706761D01*
X154098619Y-130659142D01*
X154146238Y-130563904D01*
X154146238Y-130468666D01*
X154098619Y-130373428D01*
X154051000Y-130325809D01*
X153955761Y-130278190D01*
X153765285Y-130230571D01*
X153670047Y-130182952D01*
X153622428Y-130135333D01*
X153574809Y-130040095D01*
X153574809Y-129944857D01*
X153622428Y-129849619D01*
X153670047Y-129802000D01*
X153765285Y-129754380D01*
X154003380Y-129754380D01*
X154146238Y-129802000D01*
X154765285Y-130278190D02*
X154765285Y-130754380D01*
X154431952Y-129754380D02*
X154765285Y-130278190D01*
X155098619Y-129754380D01*
X155193857Y-130849619D02*
X155955761Y-130849619D01*
X156622428Y-130087714D02*
X156622428Y-130754380D01*
X156384333Y-129706761D02*
X156146238Y-130421047D01*
X156765285Y-130421047D01*
X157146238Y-130659142D02*
X157193857Y-130706761D01*
X157146238Y-130754380D01*
X157098619Y-130706761D01*
X157146238Y-130659142D01*
X157146238Y-130754380D01*
X158146238Y-130754380D02*
X157574809Y-130754380D01*
X157860523Y-130754380D02*
X157860523Y-129754380D01*
X157765285Y-129897238D01*
X157670047Y-129992476D01*
X157574809Y-130040095D01*
X157488095Y-71402380D02*
X157488095Y-72211904D01*
X157535714Y-72307142D01*
X157583333Y-72354761D01*
X157678571Y-72402380D01*
X157869047Y-72402380D01*
X157964285Y-72354761D01*
X158011904Y-72307142D01*
X158059523Y-72211904D01*
X158059523Y-71402380D01*
X158488095Y-72354761D02*
X158630952Y-72402380D01*
X158869047Y-72402380D01*
X158964285Y-72354761D01*
X159011904Y-72307142D01*
X159059523Y-72211904D01*
X159059523Y-72116666D01*
X159011904Y-72021428D01*
X158964285Y-71973809D01*
X158869047Y-71926190D01*
X158678571Y-71878571D01*
X158583333Y-71830952D01*
X158535714Y-71783333D01*
X158488095Y-71688095D01*
X158488095Y-71592857D01*
X158535714Y-71497619D01*
X158583333Y-71450000D01*
X158678571Y-71402380D01*
X158916666Y-71402380D01*
X159059523Y-71450000D01*
X159821428Y-71878571D02*
X159964285Y-71926190D01*
X160011904Y-71973809D01*
X160059523Y-72069047D01*
X160059523Y-72211904D01*
X160011904Y-72307142D01*
X159964285Y-72354761D01*
X159869047Y-72402380D01*
X159488095Y-72402380D01*
X159488095Y-71402380D01*
X159821428Y-71402380D01*
X159916666Y-71450000D01*
X159964285Y-71497619D01*
X160011904Y-71592857D01*
X160011904Y-71688095D01*
X159964285Y-71783333D01*
X159916666Y-71830952D01*
X159821428Y-71878571D01*
X159488095Y-71878571D01*
X157546666Y-96396666D02*
X157546666Y-95696666D01*
X157713333Y-95696666D01*
X157813333Y-95730000D01*
X157880000Y-95796666D01*
X157913333Y-95863333D01*
X157946666Y-95996666D01*
X157946666Y-96096666D01*
X157913333Y-96230000D01*
X157880000Y-96296666D01*
X157813333Y-96363333D01*
X157713333Y-96396666D01*
X157546666Y-96396666D01*
X158146666Y-95696666D02*
X158380000Y-96396666D01*
X158613333Y-95696666D01*
X159046666Y-95696666D02*
X159046666Y-96196666D01*
X159013333Y-96296666D01*
X158946666Y-96363333D01*
X158846666Y-96396666D01*
X158780000Y-96396666D01*
X159680000Y-95696666D02*
X159546666Y-95696666D01*
X159480000Y-95730000D01*
X159446666Y-95763333D01*
X159380000Y-95863333D01*
X159346666Y-95996666D01*
X159346666Y-96263333D01*
X159380000Y-96330000D01*
X159413333Y-96363333D01*
X159480000Y-96396666D01*
X159613333Y-96396666D01*
X159680000Y-96363333D01*
X159713333Y-96330000D01*
X159746666Y-96263333D01*
X159746666Y-96096666D01*
X159713333Y-96030000D01*
X159680000Y-95996666D01*
X159613333Y-95963333D01*
X159480000Y-95963333D01*
X159413333Y-95996666D01*
X159380000Y-96030000D01*
X159346666Y-96096666D01*
X160013333Y-96196666D02*
X160346666Y-96196666D01*
X159946666Y-96396666D02*
X160180000Y-95696666D01*
X160413333Y-96396666D01*
X159169457Y-86483571D02*
X159502790Y-86483571D01*
X159645647Y-87007380D02*
X159169457Y-87007380D01*
X159169457Y-86007380D01*
X159645647Y-86007380D01*
X159931361Y-86340714D02*
X160312314Y-86340714D01*
X160074219Y-86007380D02*
X160074219Y-86864523D01*
X160121838Y-86959761D01*
X160217076Y-87007380D01*
X160312314Y-87007380D01*
X160645647Y-87007380D02*
X160645647Y-86007380D01*
X161074219Y-87007380D02*
X161074219Y-86483571D01*
X161026600Y-86388333D01*
X160931361Y-86340714D01*
X160788504Y-86340714D01*
X160693266Y-86388333D01*
X160645647Y-86435952D01*
X161931361Y-86959761D02*
X161836123Y-87007380D01*
X161645647Y-87007380D01*
X161550409Y-86959761D01*
X161502790Y-86864523D01*
X161502790Y-86483571D01*
X161550409Y-86388333D01*
X161645647Y-86340714D01*
X161836123Y-86340714D01*
X161931361Y-86388333D01*
X161978980Y-86483571D01*
X161978980Y-86578809D01*
X161502790Y-86674047D01*
X162407552Y-87007380D02*
X162407552Y-86340714D01*
X162407552Y-86531190D02*
X162455171Y-86435952D01*
X162502790Y-86388333D01*
X162598028Y-86340714D01*
X162693266Y-86340714D01*
X163026600Y-86340714D02*
X163026600Y-87007380D01*
X163026600Y-86435952D02*
X163074219Y-86388333D01*
X163169457Y-86340714D01*
X163312314Y-86340714D01*
X163407552Y-86388333D01*
X163455171Y-86483571D01*
X163455171Y-87007380D01*
X164312314Y-86959761D02*
X164217076Y-87007380D01*
X164026600Y-87007380D01*
X163931361Y-86959761D01*
X163883742Y-86864523D01*
X163883742Y-86483571D01*
X163931361Y-86388333D01*
X164026600Y-86340714D01*
X164217076Y-86340714D01*
X164312314Y-86388333D01*
X164359933Y-86483571D01*
X164359933Y-86578809D01*
X163883742Y-86674047D01*
X164645647Y-86340714D02*
X165026600Y-86340714D01*
X164788504Y-86007380D02*
X164788504Y-86864523D01*
X164836123Y-86959761D01*
X164931361Y-87007380D01*
X165026600Y-87007380D01*
X155713180Y-83463723D02*
X156522704Y-83463723D01*
X156617942Y-83416104D01*
X156665561Y-83368485D01*
X156713180Y-83273247D01*
X156713180Y-83082771D01*
X156665561Y-82987533D01*
X156617942Y-82939914D01*
X156522704Y-82892295D01*
X155713180Y-82892295D01*
X156665561Y-82463723D02*
X156713180Y-82320866D01*
X156713180Y-82082771D01*
X156665561Y-81987533D01*
X156617942Y-81939914D01*
X156522704Y-81892295D01*
X156427466Y-81892295D01*
X156332228Y-81939914D01*
X156284609Y-81987533D01*
X156236990Y-82082771D01*
X156189371Y-82273247D01*
X156141752Y-82368485D01*
X156094133Y-82416104D01*
X155998895Y-82463723D01*
X155903657Y-82463723D01*
X155808419Y-82416104D01*
X155760800Y-82368485D01*
X155713180Y-82273247D01*
X155713180Y-82035152D01*
X155760800Y-81892295D01*
X156189371Y-81130390D02*
X156236990Y-80987533D01*
X156284609Y-80939914D01*
X156379847Y-80892295D01*
X156522704Y-80892295D01*
X156617942Y-80939914D01*
X156665561Y-80987533D01*
X156713180Y-81082771D01*
X156713180Y-81463723D01*
X155713180Y-81463723D01*
X155713180Y-81130390D01*
X155760800Y-81035152D01*
X155808419Y-80987533D01*
X155903657Y-80939914D01*
X155998895Y-80939914D01*
X156094133Y-80987533D01*
X156141752Y-81035152D01*
X156189371Y-81130390D01*
X156189371Y-81463723D01*
X156713180Y-79701819D02*
X155713180Y-79701819D01*
X156189371Y-79701819D02*
X156189371Y-79130390D01*
X156713180Y-79130390D02*
X155713180Y-79130390D01*
X156713180Y-78511342D02*
X156665561Y-78606580D01*
X156617942Y-78654200D01*
X156522704Y-78701819D01*
X156236990Y-78701819D01*
X156141752Y-78654200D01*
X156094133Y-78606580D01*
X156046514Y-78511342D01*
X156046514Y-78368485D01*
X156094133Y-78273247D01*
X156141752Y-78225628D01*
X156236990Y-78178009D01*
X156522704Y-78178009D01*
X156617942Y-78225628D01*
X156665561Y-78273247D01*
X156713180Y-78368485D01*
X156713180Y-78511342D01*
X156665561Y-77797057D02*
X156713180Y-77701819D01*
X156713180Y-77511342D01*
X156665561Y-77416104D01*
X156570323Y-77368485D01*
X156522704Y-77368485D01*
X156427466Y-77416104D01*
X156379847Y-77511342D01*
X156379847Y-77654200D01*
X156332228Y-77749438D01*
X156236990Y-77797057D01*
X156189371Y-77797057D01*
X156094133Y-77749438D01*
X156046514Y-77654200D01*
X156046514Y-77511342D01*
X156094133Y-77416104D01*
X156046514Y-77082771D02*
X156046514Y-76701819D01*
X155713180Y-76939914D02*
X156570323Y-76939914D01*
X156665561Y-76892295D01*
X156713180Y-76797057D01*
X156713180Y-76701819D01*
X155666666Y-97666666D02*
X155666666Y-96966666D01*
X155900000Y-97466666D01*
X156133333Y-96966666D01*
X156133333Y-97666666D01*
X156466666Y-97666666D02*
X156466666Y-96966666D01*
X156800000Y-97666666D02*
X156800000Y-96966666D01*
X157033333Y-97466666D01*
X157266666Y-96966666D01*
X157266666Y-97666666D01*
X157533333Y-96966666D02*
X158000000Y-97666666D01*
X158000000Y-96966666D02*
X157533333Y-97666666D01*
X158666666Y-97666666D02*
X158433333Y-97333333D01*
X158266666Y-97666666D02*
X158266666Y-96966666D01*
X158533333Y-96966666D01*
X158600000Y-97000000D01*
X158633333Y-97033333D01*
X158666666Y-97100000D01*
X158666666Y-97200000D01*
X158633333Y-97266666D01*
X158600000Y-97300000D01*
X158533333Y-97333333D01*
X158266666Y-97333333D01*
X158866666Y-96966666D02*
X159266666Y-96966666D01*
X159066666Y-97666666D02*
X159066666Y-96966666D01*
X159866666Y-97666666D02*
X159466666Y-97666666D01*
X159666666Y-97666666D02*
X159666666Y-96966666D01*
X159600000Y-97066666D01*
X159533333Y-97133333D01*
X159466666Y-97166666D01*
X160300000Y-96966666D02*
X160366666Y-96966666D01*
X160433333Y-97000000D01*
X160466666Y-97033333D01*
X160500000Y-97100000D01*
X160533333Y-97233333D01*
X160533333Y-97400000D01*
X160500000Y-97533333D01*
X160466666Y-97600000D01*
X160433333Y-97633333D01*
X160366666Y-97666666D01*
X160300000Y-97666666D01*
X160233333Y-97633333D01*
X160200000Y-97600000D01*
X160166666Y-97533333D01*
X160133333Y-97400000D01*
X160133333Y-97233333D01*
X160166666Y-97100000D01*
X160200000Y-97033333D01*
X160233333Y-97000000D01*
X160300000Y-96966666D01*
X161133333Y-96966666D02*
X161000000Y-96966666D01*
X160933333Y-97000000D01*
X160900000Y-97033333D01*
X160833333Y-97133333D01*
X160800000Y-97266666D01*
X160800000Y-97533333D01*
X160833333Y-97600000D01*
X160866666Y-97633333D01*
X160933333Y-97666666D01*
X161066666Y-97666666D01*
X161133333Y-97633333D01*
X161166666Y-97600000D01*
X161200000Y-97533333D01*
X161200000Y-97366666D01*
X161166666Y-97300000D01*
X161133333Y-97266666D01*
X161066666Y-97233333D01*
X160933333Y-97233333D01*
X160866666Y-97266666D01*
X160833333Y-97300000D01*
X160800000Y-97366666D01*
X161466666Y-97033333D02*
X161500000Y-97000000D01*
X161566666Y-96966666D01*
X161733333Y-96966666D01*
X161800000Y-97000000D01*
X161833333Y-97033333D01*
X161866666Y-97100000D01*
X161866666Y-97166666D01*
X161833333Y-97266666D01*
X161433333Y-97666666D01*
X161866666Y-97666666D01*
X159202380Y-125869047D02*
X158202380Y-125869047D01*
X158916666Y-125535714D01*
X158202380Y-125202380D01*
X159202380Y-125202380D01*
X159202380Y-124726190D02*
X158535714Y-124726190D01*
X158202380Y-124726190D02*
X158250000Y-124773809D01*
X158297619Y-124726190D01*
X158250000Y-124678571D01*
X158202380Y-124726190D01*
X158297619Y-124726190D01*
X159154761Y-123821428D02*
X159202380Y-123916666D01*
X159202380Y-124107142D01*
X159154761Y-124202380D01*
X159107142Y-124250000D01*
X159011904Y-124297619D01*
X158726190Y-124297619D01*
X158630952Y-124250000D01*
X158583333Y-124202380D01*
X158535714Y-124107142D01*
X158535714Y-123916666D01*
X158583333Y-123821428D01*
X159202380Y-123392857D02*
X158535714Y-123392857D01*
X158726190Y-123392857D02*
X158630952Y-123345238D01*
X158583333Y-123297619D01*
X158535714Y-123202380D01*
X158535714Y-123107142D01*
X159202380Y-122630952D02*
X159154761Y-122726190D01*
X159107142Y-122773809D01*
X159011904Y-122821428D01*
X158726190Y-122821428D01*
X158630952Y-122773809D01*
X158583333Y-122726190D01*
X158535714Y-122630952D01*
X158535714Y-122488095D01*
X158583333Y-122392857D01*
X158630952Y-122345238D01*
X158726190Y-122297619D01*
X159011904Y-122297619D01*
X159107142Y-122345238D01*
X159154761Y-122392857D01*
X159202380Y-122488095D01*
X159202380Y-122630952D01*
X159154761Y-121154761D02*
X159202380Y-121011904D01*
X159202380Y-120773809D01*
X159154761Y-120678571D01*
X159107142Y-120630952D01*
X159011904Y-120583333D01*
X158916666Y-120583333D01*
X158821428Y-120630952D01*
X158773809Y-120678571D01*
X158726190Y-120773809D01*
X158678571Y-120964285D01*
X158630952Y-121059523D01*
X158583333Y-121107142D01*
X158488095Y-121154761D01*
X158392857Y-121154761D01*
X158297619Y-121107142D01*
X158250000Y-121059523D01*
X158202380Y-120964285D01*
X158202380Y-120726190D01*
X158250000Y-120583333D01*
X159202380Y-120154761D02*
X158202380Y-120154761D01*
X158202380Y-119916666D01*
X158250000Y-119773809D01*
X158345238Y-119678571D01*
X158440476Y-119630952D01*
X158630952Y-119583333D01*
X158773809Y-119583333D01*
X158964285Y-119630952D01*
X159059523Y-119678571D01*
X159154761Y-119773809D01*
X159202380Y-119916666D01*
X159202380Y-120154761D01*
%TO.C,C1*%
X170013333Y-85922142D02*
X169965714Y-85969761D01*
X169822857Y-86017380D01*
X169727619Y-86017380D01*
X169584761Y-85969761D01*
X169489523Y-85874523D01*
X169441904Y-85779285D01*
X169394285Y-85588809D01*
X169394285Y-85445952D01*
X169441904Y-85255476D01*
X169489523Y-85160238D01*
X169584761Y-85065000D01*
X169727619Y-85017380D01*
X169822857Y-85017380D01*
X169965714Y-85065000D01*
X170013333Y-85112619D01*
X170965714Y-86017380D02*
X170394285Y-86017380D01*
X170680000Y-86017380D02*
X170680000Y-85017380D01*
X170584761Y-85160238D01*
X170489523Y-85255476D01*
X170394285Y-85303095D01*
X142184380Y-77759571D02*
X141184380Y-77759571D01*
X141898666Y-77509571D01*
X141184380Y-77259571D01*
X142184380Y-77259571D01*
X141184380Y-76759571D02*
X141184380Y-76616714D01*
X141232000Y-76545285D01*
X141327238Y-76473857D01*
X141517714Y-76438142D01*
X141851047Y-76438142D01*
X142041523Y-76473857D01*
X142136761Y-76545285D01*
X142184380Y-76616714D01*
X142184380Y-76759571D01*
X142136761Y-76831000D01*
X142041523Y-76902428D01*
X141851047Y-76938142D01*
X141517714Y-76938142D01*
X141327238Y-76902428D01*
X141232000Y-76831000D01*
X141184380Y-76759571D01*
X142136761Y-76152428D02*
X142184380Y-76045285D01*
X142184380Y-75866714D01*
X142136761Y-75795285D01*
X142089142Y-75759571D01*
X141993904Y-75723857D01*
X141898666Y-75723857D01*
X141803428Y-75759571D01*
X141755809Y-75795285D01*
X141708190Y-75866714D01*
X141660571Y-76009571D01*
X141612952Y-76081000D01*
X141565333Y-76116714D01*
X141470095Y-76152428D01*
X141374857Y-76152428D01*
X141279619Y-76116714D01*
X141232000Y-76081000D01*
X141184380Y-76009571D01*
X141184380Y-75831000D01*
X141232000Y-75723857D01*
X142184380Y-75402428D02*
X141184380Y-75402428D01*
X146312000Y-77406428D02*
X146264380Y-77477857D01*
X146264380Y-77585000D01*
X146312000Y-77692142D01*
X146407238Y-77763571D01*
X146502476Y-77799285D01*
X146692952Y-77835000D01*
X146835809Y-77835000D01*
X147026285Y-77799285D01*
X147121523Y-77763571D01*
X147216761Y-77692142D01*
X147264380Y-77585000D01*
X147264380Y-77513571D01*
X147216761Y-77406428D01*
X147169142Y-77370714D01*
X146835809Y-77370714D01*
X146835809Y-77513571D01*
X147264380Y-77049285D02*
X146264380Y-77049285D01*
X147264380Y-76620714D01*
X146264380Y-76620714D01*
X147264380Y-76263571D02*
X146264380Y-76263571D01*
X146264380Y-76085000D01*
X146312000Y-75977857D01*
X146407238Y-75906428D01*
X146502476Y-75870714D01*
X146692952Y-75835000D01*
X146835809Y-75835000D01*
X147026285Y-75870714D01*
X147121523Y-75906428D01*
X147216761Y-75977857D01*
X147264380Y-76085000D01*
X147264380Y-76263571D01*
X170364571Y-116276380D02*
X170364571Y-115276380D01*
X170793142Y-116276380D02*
X170471714Y-115704952D01*
X170793142Y-115276380D02*
X170364571Y-115847809D01*
X142263761Y-67821857D02*
X142311380Y-67714714D01*
X142311380Y-67536142D01*
X142263761Y-67464714D01*
X142216142Y-67429000D01*
X142120904Y-67393285D01*
X142025666Y-67393285D01*
X141930428Y-67429000D01*
X141882809Y-67464714D01*
X141835190Y-67536142D01*
X141787571Y-67679000D01*
X141739952Y-67750428D01*
X141692333Y-67786142D01*
X141597095Y-67821857D01*
X141501857Y-67821857D01*
X141406619Y-67786142D01*
X141359000Y-67750428D01*
X141311380Y-67679000D01*
X141311380Y-67500428D01*
X141359000Y-67393285D01*
X142216142Y-66643285D02*
X142263761Y-66679000D01*
X142311380Y-66786142D01*
X142311380Y-66857571D01*
X142263761Y-66964714D01*
X142168523Y-67036142D01*
X142073285Y-67071857D01*
X141882809Y-67107571D01*
X141739952Y-67107571D01*
X141549476Y-67071857D01*
X141454238Y-67036142D01*
X141359000Y-66964714D01*
X141311380Y-66857571D01*
X141311380Y-66786142D01*
X141359000Y-66679000D01*
X141406619Y-66643285D01*
X142311380Y-65964714D02*
X142311380Y-66321857D01*
X141311380Y-66321857D01*
X146312000Y-67373428D02*
X146264380Y-67444857D01*
X146264380Y-67552000D01*
X146312000Y-67659142D01*
X146407238Y-67730571D01*
X146502476Y-67766285D01*
X146692952Y-67802000D01*
X146835809Y-67802000D01*
X147026285Y-67766285D01*
X147121523Y-67730571D01*
X147216761Y-67659142D01*
X147264380Y-67552000D01*
X147264380Y-67480571D01*
X147216761Y-67373428D01*
X147169142Y-67337714D01*
X146835809Y-67337714D01*
X146835809Y-67480571D01*
X147264380Y-67016285D02*
X146264380Y-67016285D01*
X147264380Y-66587714D01*
X146264380Y-66587714D01*
X147264380Y-66230571D02*
X146264380Y-66230571D01*
X146264380Y-66052000D01*
X146312000Y-65944857D01*
X146407238Y-65873428D01*
X146502476Y-65837714D01*
X146692952Y-65802000D01*
X146835809Y-65802000D01*
X147026285Y-65837714D01*
X147121523Y-65873428D01*
X147216761Y-65944857D01*
X147264380Y-66052000D01*
X147264380Y-66230571D01*
X137009142Y-77349333D02*
X137056761Y-77387428D01*
X137104380Y-77501714D01*
X137104380Y-77577904D01*
X137056761Y-77692190D01*
X136961523Y-77768380D01*
X136866285Y-77806476D01*
X136675809Y-77844571D01*
X136532952Y-77844571D01*
X136342476Y-77806476D01*
X136247238Y-77768380D01*
X136152000Y-77692190D01*
X136104380Y-77577904D01*
X136104380Y-77501714D01*
X136152000Y-77387428D01*
X136199619Y-77349333D01*
X137056761Y-77044571D02*
X137104380Y-76930285D01*
X137104380Y-76739809D01*
X137056761Y-76663619D01*
X137009142Y-76625523D01*
X136913904Y-76587428D01*
X136818666Y-76587428D01*
X136723428Y-76625523D01*
X136675809Y-76663619D01*
X136628190Y-76739809D01*
X136580571Y-76892190D01*
X136532952Y-76968380D01*
X136485333Y-77006476D01*
X136390095Y-77044571D01*
X136294857Y-77044571D01*
X136199619Y-77006476D01*
X136152000Y-76968380D01*
X136104380Y-76892190D01*
X136104380Y-76701714D01*
X136152000Y-76587428D01*
X139596761Y-77799285D02*
X139644380Y-77692142D01*
X139644380Y-77513571D01*
X139596761Y-77442142D01*
X139549142Y-77406428D01*
X139453904Y-77370714D01*
X139358666Y-77370714D01*
X139263428Y-77406428D01*
X139215809Y-77442142D01*
X139168190Y-77513571D01*
X139120571Y-77656428D01*
X139072952Y-77727857D01*
X139025333Y-77763571D01*
X138930095Y-77799285D01*
X138834857Y-77799285D01*
X138739619Y-77763571D01*
X138692000Y-77727857D01*
X138644380Y-77656428D01*
X138644380Y-77477857D01*
X138692000Y-77370714D01*
X139549142Y-76620714D02*
X139596761Y-76656428D01*
X139644380Y-76763571D01*
X139644380Y-76835000D01*
X139596761Y-76942142D01*
X139501523Y-77013571D01*
X139406285Y-77049285D01*
X139215809Y-77085000D01*
X139072952Y-77085000D01*
X138882476Y-77049285D01*
X138787238Y-77013571D01*
X138692000Y-76942142D01*
X138644380Y-76835000D01*
X138644380Y-76763571D01*
X138692000Y-76656428D01*
X138739619Y-76620714D01*
X139644380Y-76299285D02*
X138644380Y-76299285D01*
X139644380Y-75870714D02*
X139072952Y-76192142D01*
X138644380Y-75870714D02*
X139215809Y-76299285D01*
X144803761Y-67839714D02*
X144851380Y-67732571D01*
X144851380Y-67554000D01*
X144803761Y-67482571D01*
X144756142Y-67446857D01*
X144660904Y-67411142D01*
X144565666Y-67411142D01*
X144470428Y-67446857D01*
X144422809Y-67482571D01*
X144375190Y-67554000D01*
X144327571Y-67696857D01*
X144279952Y-67768285D01*
X144232333Y-67804000D01*
X144137095Y-67839714D01*
X144041857Y-67839714D01*
X143946619Y-67804000D01*
X143899000Y-67768285D01*
X143851380Y-67696857D01*
X143851380Y-67518285D01*
X143899000Y-67411142D01*
X144851380Y-67089714D02*
X143851380Y-67089714D01*
X143851380Y-66911142D01*
X143899000Y-66804000D01*
X143994238Y-66732571D01*
X144089476Y-66696857D01*
X144279952Y-66661142D01*
X144422809Y-66661142D01*
X144613285Y-66696857D01*
X144708523Y-66732571D01*
X144803761Y-66804000D01*
X144851380Y-66911142D01*
X144851380Y-67089714D01*
X144565666Y-66375428D02*
X144565666Y-66018285D01*
X144851380Y-66446857D02*
X143851380Y-66196857D01*
X144851380Y-65946857D01*
X138654380Y-67841714D02*
X138654380Y-67377428D01*
X139035333Y-67627428D01*
X139035333Y-67520285D01*
X139082952Y-67448857D01*
X139130571Y-67413142D01*
X139225809Y-67377428D01*
X139463904Y-67377428D01*
X139559142Y-67413142D01*
X139606761Y-67448857D01*
X139654380Y-67520285D01*
X139654380Y-67734571D01*
X139606761Y-67806000D01*
X139559142Y-67841714D01*
X139559142Y-67056000D02*
X139606761Y-67020285D01*
X139654380Y-67056000D01*
X139606761Y-67091714D01*
X139559142Y-67056000D01*
X139654380Y-67056000D01*
X138654380Y-66770285D02*
X138654380Y-66306000D01*
X139035333Y-66556000D01*
X139035333Y-66448857D01*
X139082952Y-66377428D01*
X139130571Y-66341714D01*
X139225809Y-66306000D01*
X139463904Y-66306000D01*
X139559142Y-66341714D01*
X139606761Y-66377428D01*
X139654380Y-66448857D01*
X139654380Y-66663142D01*
X139606761Y-66734571D01*
X139559142Y-66770285D01*
X169983571Y-83637380D02*
X169983571Y-82637380D01*
X170412142Y-83637380D02*
X170090714Y-83065952D01*
X170412142Y-82637380D02*
X169983571Y-83208809D01*
X133691380Y-77800095D02*
X133691380Y-77304857D01*
X134072333Y-77571523D01*
X134072333Y-77457238D01*
X134119952Y-77381047D01*
X134167571Y-77342952D01*
X134262809Y-77304857D01*
X134500904Y-77304857D01*
X134596142Y-77342952D01*
X134643761Y-77381047D01*
X134691380Y-77457238D01*
X134691380Y-77685809D01*
X134643761Y-77762000D01*
X134596142Y-77800095D01*
X134596142Y-76962000D02*
X134643761Y-76923904D01*
X134691380Y-76962000D01*
X134643761Y-77000095D01*
X134596142Y-76962000D01*
X134691380Y-76962000D01*
X133691380Y-76657238D02*
X133691380Y-76162000D01*
X134072333Y-76428666D01*
X134072333Y-76314380D01*
X134119952Y-76238190D01*
X134167571Y-76200095D01*
X134262809Y-76162000D01*
X134500904Y-76162000D01*
X134596142Y-76200095D01*
X134643761Y-76238190D01*
X134691380Y-76314380D01*
X134691380Y-76542952D01*
X134643761Y-76619142D01*
X134596142Y-76657238D01*
X144724380Y-77759571D02*
X143724380Y-77759571D01*
X144438666Y-77509571D01*
X143724380Y-77259571D01*
X144724380Y-77259571D01*
X144724380Y-76902428D02*
X143724380Y-76902428D01*
X144676761Y-76581000D02*
X144724380Y-76473857D01*
X144724380Y-76295285D01*
X144676761Y-76223857D01*
X144629142Y-76188142D01*
X144533904Y-76152428D01*
X144438666Y-76152428D01*
X144343428Y-76188142D01*
X144295809Y-76223857D01*
X144248190Y-76295285D01*
X144200571Y-76438142D01*
X144152952Y-76509571D01*
X144105333Y-76545285D01*
X144010095Y-76581000D01*
X143914857Y-76581000D01*
X143819619Y-76545285D01*
X143772000Y-76509571D01*
X143724380Y-76438142D01*
X143724380Y-76259571D01*
X143772000Y-76152428D01*
X143724380Y-75688142D02*
X143724380Y-75545285D01*
X143772000Y-75473857D01*
X143867238Y-75402428D01*
X144057714Y-75366714D01*
X144391047Y-75366714D01*
X144581523Y-75402428D01*
X144676761Y-75473857D01*
X144724380Y-75545285D01*
X144724380Y-75688142D01*
X144676761Y-75759571D01*
X144581523Y-75831000D01*
X144391047Y-75866714D01*
X144057714Y-75866714D01*
X143867238Y-75831000D01*
X143772000Y-75759571D01*
X143724380Y-75688142D01*
%TO.C,C7*%
X143110833Y-73001142D02*
X143063214Y-73048761D01*
X142920357Y-73096380D01*
X142825119Y-73096380D01*
X142682261Y-73048761D01*
X142587023Y-72953523D01*
X142539404Y-72858285D01*
X142491785Y-72667809D01*
X142491785Y-72524952D01*
X142539404Y-72334476D01*
X142587023Y-72239238D01*
X142682261Y-72144000D01*
X142825119Y-72096380D01*
X142920357Y-72096380D01*
X143063214Y-72144000D01*
X143110833Y-72191619D01*
X143444166Y-72096380D02*
X144110833Y-72096380D01*
X143682261Y-73096380D01*
%TO.C,C5*%
X128865333Y-123437142D02*
X128817714Y-123484761D01*
X128674857Y-123532380D01*
X128579619Y-123532380D01*
X128436761Y-123484761D01*
X128341523Y-123389523D01*
X128293904Y-123294285D01*
X128246285Y-123103809D01*
X128246285Y-122960952D01*
X128293904Y-122770476D01*
X128341523Y-122675238D01*
X128436761Y-122580000D01*
X128579619Y-122532380D01*
X128674857Y-122532380D01*
X128817714Y-122580000D01*
X128865333Y-122627619D01*
X129770095Y-122532380D02*
X129293904Y-122532380D01*
X129246285Y-123008571D01*
X129293904Y-122960952D01*
X129389142Y-122913333D01*
X129627238Y-122913333D01*
X129722476Y-122960952D01*
X129770095Y-123008571D01*
X129817714Y-123103809D01*
X129817714Y-123341904D01*
X129770095Y-123437142D01*
X129722476Y-123484761D01*
X129627238Y-123532380D01*
X129389142Y-123532380D01*
X129293904Y-123484761D01*
X129246285Y-123437142D01*
D12*
%TO.C,I2C*%
X137612380Y-70318190D02*
X136612380Y-70318190D01*
X136707619Y-69889619D02*
X136660000Y-69842000D01*
X136612380Y-69746761D01*
X136612380Y-69508666D01*
X136660000Y-69413428D01*
X136707619Y-69365809D01*
X136802857Y-69318190D01*
X136898095Y-69318190D01*
X137040952Y-69365809D01*
X137612380Y-69937238D01*
X137612380Y-69318190D01*
X137517142Y-68318190D02*
X137564761Y-68365809D01*
X137612380Y-68508666D01*
X137612380Y-68603904D01*
X137564761Y-68746761D01*
X137469523Y-68842000D01*
X137374285Y-68889619D01*
X137183809Y-68937238D01*
X137040952Y-68937238D01*
X136850476Y-68889619D01*
X136755238Y-68842000D01*
X136660000Y-68746761D01*
X136612380Y-68603904D01*
X136612380Y-68508666D01*
X136660000Y-68365809D01*
X136707619Y-68318190D01*
%TO.C,5V*%
X172452857Y-116052571D02*
X172452857Y-116624000D01*
X173024285Y-116681142D01*
X172967142Y-116624000D01*
X172910000Y-116509714D01*
X172910000Y-116224000D01*
X172967142Y-116109714D01*
X173024285Y-116052571D01*
X173138571Y-115995428D01*
X173424285Y-115995428D01*
X173538571Y-116052571D01*
X173595714Y-116109714D01*
X173652857Y-116224000D01*
X173652857Y-116509714D01*
X173595714Y-116624000D01*
X173538571Y-116681142D01*
X172452857Y-115652571D02*
X173652857Y-115252571D01*
X172452857Y-114852571D01*
D11*
%TO.C,XBEE*%
X145073904Y-116419380D02*
X145740571Y-117419380D01*
X145740571Y-116419380D02*
X145073904Y-117419380D01*
X146454857Y-116895571D02*
X146597714Y-116943190D01*
X146645333Y-116990809D01*
X146692952Y-117086047D01*
X146692952Y-117228904D01*
X146645333Y-117324142D01*
X146597714Y-117371761D01*
X146502476Y-117419380D01*
X146121523Y-117419380D01*
X146121523Y-116419380D01*
X146454857Y-116419380D01*
X146550095Y-116467000D01*
X146597714Y-116514619D01*
X146645333Y-116609857D01*
X146645333Y-116705095D01*
X146597714Y-116800333D01*
X146550095Y-116847952D01*
X146454857Y-116895571D01*
X146121523Y-116895571D01*
X147121523Y-116895571D02*
X147454857Y-116895571D01*
X147597714Y-117419380D02*
X147121523Y-117419380D01*
X147121523Y-116419380D01*
X147597714Y-116419380D01*
X148026285Y-116895571D02*
X148359619Y-116895571D01*
X148502476Y-117419380D02*
X148026285Y-117419380D01*
X148026285Y-116419380D01*
X148502476Y-116419380D01*
%TO.C,C3*%
X139422142Y-114466666D02*
X139469761Y-114514285D01*
X139517380Y-114657142D01*
X139517380Y-114752380D01*
X139469761Y-114895238D01*
X139374523Y-114990476D01*
X139279285Y-115038095D01*
X139088809Y-115085714D01*
X138945952Y-115085714D01*
X138755476Y-115038095D01*
X138660238Y-114990476D01*
X138565000Y-114895238D01*
X138517380Y-114752380D01*
X138517380Y-114657142D01*
X138565000Y-114514285D01*
X138612619Y-114466666D01*
X138517380Y-114133333D02*
X138517380Y-113514285D01*
X138898333Y-113847619D01*
X138898333Y-113704761D01*
X138945952Y-113609523D01*
X138993571Y-113561904D01*
X139088809Y-113514285D01*
X139326904Y-113514285D01*
X139422142Y-113561904D01*
X139469761Y-113609523D01*
X139517380Y-113704761D01*
X139517380Y-113990476D01*
X139469761Y-114085714D01*
X139422142Y-114133333D01*
D13*
%TO.C,C2*%
X170426748Y-118645000D02*
X170949252Y-118645000D01*
X170426748Y-120115000D02*
X170949252Y-120115000D01*
%TO.C,C4*%
X133885000Y-114561252D02*
X133885000Y-114038748D01*
X135355000Y-114561252D02*
X135355000Y-114038748D01*
%TO.C,SPI*%
X135382000Y-80705000D02*
X135382000Y-78045000D01*
X135382000Y-80705000D02*
X148142000Y-80705000D01*
X148142000Y-80705000D02*
X148142000Y-78045000D01*
X135382000Y-78045000D02*
X148142000Y-78045000D01*
X134112000Y-80705000D02*
X132782000Y-80705000D01*
X132782000Y-80705000D02*
X132782000Y-79375000D01*
%TO.C,R2*%
X170342936Y-111533000D02*
X170797064Y-111533000D01*
X170342936Y-113003000D02*
X170797064Y-113003000D01*
%TO.C,C6*%
X128805000Y-79636252D02*
X128805000Y-79113748D01*
X130275000Y-79636252D02*
X130275000Y-79113748D01*
%TO.C,R1*%
X169952936Y-78640000D02*
X170407064Y-78640000D01*
X169952936Y-80110000D02*
X170407064Y-80110000D01*
%TO.C,9V*%
X168320000Y-82225000D02*
X168320000Y-84145000D01*
X171180000Y-82225000D02*
X168320000Y-82225000D01*
X168320000Y-84145000D02*
X171180000Y-84145000D01*
%TO.C,9V PWR*%
X180340000Y-77470000D02*
X172720000Y-77470000D01*
X179070000Y-77470000D02*
X179070000Y-87630000D01*
X180340000Y-87630000D02*
X180340000Y-77470000D01*
X172720000Y-77470000D02*
X172720000Y-87630000D01*
X172720000Y-87630000D02*
X180340000Y-87630000D01*
%TO.C,IMU*%
X172825000Y-89377500D02*
X172825000Y-90707500D01*
X171495000Y-89377500D02*
X172825000Y-89377500D01*
X170165000Y-91977500D02*
X170165000Y-109817500D01*
X170165000Y-109817500D02*
X172825000Y-109817500D01*
X170165000Y-91977500D02*
X172825000Y-91977500D01*
X172825000Y-91977500D02*
X172825000Y-109817500D01*
X169695000Y-110257500D02*
X186095000Y-110257500D01*
X186095000Y-110257500D02*
X186095000Y-89057500D01*
X186095000Y-89057500D02*
X169695000Y-89057500D01*
X169695000Y-89057500D02*
X169695000Y-110257500D01*
%TO.C,REG*%
X174739300Y-122250000D02*
X179590700Y-122250000D01*
X179590700Y-122250000D02*
X179590700Y-111582000D01*
X174739300Y-111582000D02*
X174739300Y-122250000D01*
X179590700Y-111582000D02*
X174739300Y-111582000D01*
D11*
%TO.C,TEENSY_4.1*%
X153670000Y-127830000D02*
X153670000Y-129100000D01*
X167640000Y-129100000D02*
X149860000Y-129100000D01*
X152910800Y-74439200D02*
X155450800Y-74439200D01*
X154940000Y-73220000D02*
X154940000Y-68140000D01*
X160020000Y-112590000D02*
X157480000Y-112590000D01*
X152400000Y-91000000D02*
X152400000Y-103700000D01*
X154940000Y-73220000D02*
X162560000Y-73220000D01*
X165100000Y-116400000D02*
X152400000Y-116400000D01*
X158851600Y-81370000D02*
X158851600Y-85370000D01*
X162560000Y-66870000D02*
X162560000Y-68140000D01*
X165100000Y-129100000D02*
X165100000Y-116400000D01*
X155450800Y-74439200D02*
X155450800Y-76979200D01*
X157480000Y-112590000D02*
X157480000Y-108780000D01*
X163830000Y-129100000D02*
X163830000Y-127830000D01*
X152400000Y-103700000D02*
X165100000Y-103700000D01*
X162560000Y-73220000D02*
X162560000Y-68140000D01*
X155450800Y-74439200D02*
X155450800Y-87139200D01*
X155450800Y-76979200D02*
X152910800Y-76979200D01*
X149860000Y-129100000D02*
X149860000Y-68140000D01*
X149860000Y-68140000D02*
X167640000Y-68140000D01*
X167640000Y-68140000D02*
X167640000Y-129100000D01*
X165101600Y-81370000D02*
X164851600Y-81370000D01*
X164851600Y-81370000D02*
X158851600Y-81370000D01*
X163830000Y-127830000D02*
X153670000Y-127830000D01*
X154940000Y-66870000D02*
X162560000Y-66870000D01*
X155450800Y-87139200D02*
X152910800Y-87139200D01*
X152400000Y-116400000D02*
X152400000Y-129100000D01*
X160020000Y-108780000D02*
X160020000Y-112590000D01*
X154940000Y-68140000D02*
X154940000Y-66870000D01*
X165101600Y-85370000D02*
X165101600Y-81370000D01*
X165100000Y-91000000D02*
X152400000Y-91000000D01*
X152910800Y-87139200D02*
X152910800Y-74439200D01*
X158851600Y-85370000D02*
X165101600Y-85370000D01*
X165100000Y-103700000D02*
X165100000Y-91000000D01*
X157480000Y-108780000D02*
X160020000Y-108780000D01*
X159648026Y-110685000D02*
G75*
G03*
X159648026Y-110685000I-898026J0D01*
G01*
G36*
X159438000Y-101563000D02*
G01*
X159057000Y-101817000D01*
X158803000Y-101563000D01*
X159184000Y-101309000D01*
X159438000Y-101563000D01*
G37*
D14*
X159438000Y-101563000D02*
X159057000Y-101817000D01*
X158803000Y-101563000D01*
X159184000Y-101309000D01*
X159438000Y-101563000D01*
G36*
X159184000Y-100420000D02*
G01*
X158803000Y-100674000D01*
X158549000Y-100420000D01*
X158930000Y-100166000D01*
X159184000Y-100420000D01*
G37*
X159184000Y-100420000D02*
X158803000Y-100674000D01*
X158549000Y-100420000D01*
X158930000Y-100166000D01*
X159184000Y-100420000D01*
G36*
X159311000Y-99658000D02*
G01*
X158930000Y-99912000D01*
X158676000Y-99658000D01*
X159057000Y-99404000D01*
X159311000Y-99658000D01*
G37*
X159311000Y-99658000D02*
X158930000Y-99912000D01*
X158676000Y-99658000D01*
X159057000Y-99404000D01*
X159311000Y-99658000D01*
G36*
X159057000Y-101182000D02*
G01*
X158676000Y-101436000D01*
X158422000Y-101182000D01*
X158803000Y-100928000D01*
X159057000Y-101182000D01*
G37*
X159057000Y-101182000D02*
X158676000Y-101436000D01*
X158422000Y-101182000D01*
X158803000Y-100928000D01*
X159057000Y-101182000D01*
G36*
X158803000Y-100039000D02*
G01*
X158422000Y-100293000D01*
X158168000Y-100039000D01*
X158549000Y-99785000D01*
X158803000Y-100039000D01*
G37*
X158803000Y-100039000D02*
X158422000Y-100293000D01*
X158168000Y-100039000D01*
X158549000Y-99785000D01*
X158803000Y-100039000D01*
G36*
X158676000Y-100801000D02*
G01*
X158295000Y-101055000D01*
X158041000Y-100801000D01*
X158422000Y-100547000D01*
X158676000Y-100801000D01*
G37*
X158676000Y-100801000D02*
X158295000Y-101055000D01*
X158041000Y-100801000D01*
X158422000Y-100547000D01*
X158676000Y-100801000D01*
G36*
X159819000Y-99277000D02*
G01*
X159438000Y-99531000D01*
X159184000Y-99277000D01*
X159565000Y-99023000D01*
X159819000Y-99277000D01*
G37*
X159819000Y-99277000D02*
X159438000Y-99531000D01*
X159184000Y-99277000D01*
X159565000Y-99023000D01*
X159819000Y-99277000D01*
G36*
X159692000Y-100039000D02*
G01*
X159311000Y-100293000D01*
X159057000Y-100039000D01*
X159438000Y-99785000D01*
X159692000Y-100039000D01*
G37*
X159692000Y-100039000D02*
X159311000Y-100293000D01*
X159057000Y-100039000D01*
X159438000Y-99785000D01*
X159692000Y-100039000D01*
D13*
%TO.C,C1*%
X169918748Y-86260000D02*
X170441252Y-86260000D01*
X169918748Y-87730000D02*
X170441252Y-87730000D01*
%TO.C,Ge*%
G36*
X147262273Y-122413889D02*
G01*
X147000362Y-122419893D01*
X146738451Y-122425896D01*
X146738451Y-123398049D01*
X146738110Y-123597223D01*
X146737134Y-123782566D01*
X146735594Y-123949846D01*
X146733558Y-124094831D01*
X146731097Y-124213290D01*
X146728281Y-124300992D01*
X146725179Y-124353707D01*
X146722416Y-124367854D01*
X146697179Y-124362132D01*
X146637860Y-124347850D01*
X146551862Y-124326814D01*
X146446587Y-124300830D01*
X146374983Y-124283054D01*
X146240773Y-124250709D01*
X146101126Y-124218838D01*
X145970172Y-124190555D01*
X145862042Y-124168973D01*
X145835126Y-124164088D01*
X145626666Y-124127573D01*
X145626666Y-122424580D01*
X145049394Y-122424580D01*
X145049394Y-121505219D01*
X147273813Y-121505219D01*
X147262273Y-122413889D01*
G37*
G36*
X141878324Y-125609627D02*
G01*
X141879783Y-125669265D01*
X141881121Y-125763945D01*
X141882310Y-125889806D01*
X141883322Y-126042990D01*
X141884130Y-126219636D01*
X141884708Y-126415885D01*
X141885028Y-126627877D01*
X141885084Y-126764815D01*
X141884801Y-126984531D01*
X141883988Y-127190835D01*
X141882698Y-127379875D01*
X141880982Y-127547798D01*
X141878893Y-127690752D01*
X141876485Y-127804885D01*
X141873810Y-127886343D01*
X141870920Y-127931275D01*
X141869049Y-127939100D01*
X141843591Y-127932408D01*
X141785711Y-127915331D01*
X141703755Y-127890380D01*
X141606070Y-127860068D01*
X141596448Y-127857055D01*
X141359696Y-127778060D01*
X141144372Y-127696615D01*
X140959318Y-127616148D01*
X140900312Y-127587320D01*
X140794680Y-127533792D01*
X140794680Y-126041535D01*
X140885547Y-125991315D01*
X141034089Y-125915210D01*
X141209838Y-125834900D01*
X141398518Y-125756552D01*
X141585852Y-125686335D01*
X141614860Y-125676228D01*
X141711688Y-125643096D01*
X141792837Y-125615736D01*
X141850338Y-125596805D01*
X141876221Y-125588962D01*
X141876770Y-125588889D01*
X141878324Y-125609627D01*
G37*
G36*
X142478817Y-121959554D02*
G01*
X142473047Y-122413889D01*
X142179065Y-122419838D01*
X141885084Y-122425786D01*
X141885084Y-124146452D01*
X141601793Y-124214875D01*
X141464678Y-124249965D01*
X141312954Y-124292056D01*
X141158787Y-124337497D01*
X141014345Y-124382638D01*
X140891794Y-124423829D01*
X140832096Y-124445800D01*
X140823454Y-124447204D01*
X140816253Y-124441793D01*
X140810360Y-124426065D01*
X140805647Y-124396517D01*
X140801981Y-124349647D01*
X140799233Y-124281954D01*
X140797272Y-124189936D01*
X140795967Y-124070091D01*
X140795187Y-123918916D01*
X140794803Y-123732910D01*
X140794684Y-123508570D01*
X140794680Y-123442439D01*
X140794680Y-122424580D01*
X140217407Y-122424580D01*
X140217407Y-121505219D01*
X142484588Y-121505219D01*
X142478817Y-121959554D01*
G37*
G36*
X144696616Y-124152032D02*
G01*
X144941520Y-124166307D01*
X145214405Y-124193403D01*
X145502868Y-124232084D01*
X145509074Y-124233022D01*
X145778541Y-124279058D01*
X146066013Y-124337593D01*
X146364805Y-124406673D01*
X146668228Y-124484344D01*
X146969598Y-124568651D01*
X147262226Y-124657641D01*
X147539427Y-124749359D01*
X147794514Y-124841851D01*
X148020800Y-124933164D01*
X148211599Y-125021342D01*
X148218553Y-125024855D01*
X148340012Y-125086448D01*
X148036327Y-125582917D01*
X147955712Y-125713459D01*
X147881582Y-125831126D01*
X147817021Y-125931213D01*
X147765110Y-126009014D01*
X147728935Y-126059823D01*
X147711578Y-126078937D01*
X147711262Y-126078976D01*
X147682982Y-126069421D01*
X147628362Y-126044621D01*
X147558650Y-126009717D01*
X147550909Y-126005673D01*
X147294180Y-125884149D01*
X147000375Y-125768529D01*
X146674951Y-125660311D01*
X146323365Y-125560988D01*
X145951073Y-125472056D01*
X145563533Y-125395011D01*
X145166201Y-125331348D01*
X145017323Y-125311423D01*
X144893235Y-125295684D01*
X144776960Y-125280882D01*
X144678315Y-125268272D01*
X144607116Y-125259107D01*
X144584010Y-125256094D01*
X144492785Y-125244074D01*
X144498488Y-124694891D01*
X144504192Y-124145708D01*
X144696616Y-124152032D01*
G37*
G36*
X140830055Y-129037074D02*
G01*
X140886651Y-129053305D01*
X140968227Y-129077510D01*
X141066846Y-129107356D01*
X141089666Y-129114333D01*
X141223955Y-129153746D01*
X141375220Y-129195428D01*
X141522659Y-129233769D01*
X141620498Y-129257487D01*
X141879734Y-129317452D01*
X141890888Y-129788987D01*
X141898058Y-130000599D01*
X141909972Y-130176163D01*
X141928691Y-130322308D01*
X141956275Y-130445665D01*
X141994785Y-130552861D01*
X142046281Y-130650527D01*
X142112823Y-130745291D01*
X142196472Y-130843782D01*
X142230059Y-130880240D01*
X142286808Y-130942506D01*
X142330175Y-130993137D01*
X142353355Y-131024061D01*
X142355454Y-131028983D01*
X142344965Y-131052395D01*
X142316730Y-131103527D01*
X142275598Y-131173796D01*
X142245538Y-131223550D01*
X142194729Y-131309102D01*
X142165023Y-131366729D01*
X142153511Y-131403885D01*
X142157282Y-131428027D01*
X142162634Y-131435971D01*
X142196209Y-131463255D01*
X142213595Y-131468519D01*
X142240109Y-131456972D01*
X142293119Y-131425744D01*
X142364287Y-131379953D01*
X142426082Y-131338082D01*
X142521103Y-131275852D01*
X142594281Y-131235248D01*
X142640999Y-131218713D01*
X142650736Y-131219211D01*
X142686434Y-131231187D01*
X142750996Y-131253315D01*
X142832914Y-131281644D01*
X142869589Y-131294392D01*
X142992684Y-131333536D01*
X143112850Y-131362917D01*
X143238353Y-131383421D01*
X143377461Y-131395933D01*
X143538438Y-131401339D01*
X143729552Y-131400525D01*
X143837444Y-131398103D01*
X144036114Y-131391008D01*
X144201636Y-131380300D01*
X144343584Y-131364235D01*
X144471529Y-131341065D01*
X144595045Y-131309046D01*
X144723703Y-131266431D01*
X144867078Y-131211473D01*
X144872405Y-131209335D01*
X144903053Y-131198600D01*
X144930898Y-131196456D01*
X144963832Y-131206176D01*
X145009748Y-131231036D01*
X145076537Y-131274312D01*
X145151314Y-131325085D01*
X145235206Y-131381116D01*
X145307272Y-131426897D01*
X145359711Y-131457629D01*
X145384480Y-131468519D01*
X145416220Y-131453700D01*
X145434420Y-131436234D01*
X145443060Y-131415908D01*
X145438156Y-131385171D01*
X145416889Y-131337061D01*
X145376444Y-131264619D01*
X145340826Y-131204969D01*
X145291888Y-131122623D01*
X145252525Y-131053607D01*
X145227322Y-131006144D01*
X145220438Y-130989174D01*
X145233722Y-130965670D01*
X145268359Y-130921061D01*
X145311305Y-130871276D01*
X145398300Y-130764590D01*
X145467846Y-130654601D01*
X145521839Y-130534851D01*
X145562176Y-130398880D01*
X145590753Y-130240231D01*
X145609468Y-130052443D01*
X145620216Y-129829059D01*
X145620536Y-129818294D01*
X145632778Y-129397446D01*
X145784731Y-129373121D01*
X145857478Y-129360599D01*
X145961344Y-129341547D01*
X146085555Y-129318000D01*
X146219336Y-129291990D01*
X146310017Y-129273986D01*
X146431828Y-129249610D01*
X146539537Y-129228118D01*
X146625956Y-129210939D01*
X146683898Y-129199504D01*
X146705556Y-129195337D01*
X146714297Y-129213936D01*
X146720856Y-129268957D01*
X146725323Y-129354122D01*
X146727789Y-129463150D01*
X146728343Y-129589763D01*
X146727074Y-129727683D01*
X146724073Y-129870631D01*
X146719429Y-130012328D01*
X146713231Y-130146494D01*
X146705570Y-130266852D01*
X146696536Y-130367123D01*
X146687894Y-130431566D01*
X146629582Y-130720053D01*
X146557051Y-130975321D01*
X146467955Y-131205230D01*
X146437399Y-131270943D01*
X146388887Y-131367148D01*
X146343246Y-131445626D01*
X146292472Y-131517420D01*
X146228558Y-131593575D01*
X146143499Y-131685133D01*
X146117529Y-131712204D01*
X145924344Y-131897671D01*
X145729515Y-132052116D01*
X145526250Y-132178818D01*
X145307752Y-132281057D01*
X145067228Y-132362111D01*
X144797882Y-132425261D01*
X144557643Y-132465014D01*
X144452298Y-132476449D01*
X144314419Y-132486342D01*
X144152909Y-132494513D01*
X143976673Y-132500781D01*
X143794617Y-132504965D01*
X143615643Y-132506885D01*
X143448656Y-132506358D01*
X143302561Y-132503206D01*
X143186262Y-132497247D01*
X143146532Y-132493657D01*
X142782229Y-132436307D01*
X142441886Y-132346629D01*
X142127298Y-132225275D01*
X141840261Y-132072898D01*
X141667058Y-131955856D01*
X141435582Y-131763452D01*
X141242859Y-131556876D01*
X141086751Y-131332508D01*
X140965117Y-131086728D01*
X140875818Y-130815914D01*
X140816805Y-130517088D01*
X140812200Y-130465310D01*
X140808040Y-130381628D01*
X140804368Y-130271933D01*
X140801223Y-130142117D01*
X140798648Y-129998072D01*
X140796685Y-129845690D01*
X140795373Y-129690862D01*
X140794755Y-129539480D01*
X140794873Y-129397436D01*
X140795767Y-129270621D01*
X140797478Y-129164928D01*
X140800049Y-129086248D01*
X140803520Y-129040473D01*
X140806375Y-129031145D01*
X140830055Y-129037074D01*
G37*
G36*
X145664082Y-125536486D02*
G01*
X145914909Y-125589833D01*
X146132595Y-125639553D01*
X146326357Y-125687895D01*
X146505412Y-125737106D01*
X146594133Y-125763291D01*
X146738451Y-125806859D01*
X146738451Y-127725288D01*
X146658274Y-127746273D01*
X146504755Y-127785423D01*
X146346314Y-127823994D01*
X146189611Y-127860538D01*
X146041305Y-127893604D01*
X145908055Y-127921744D01*
X145796521Y-127943508D01*
X145713363Y-127957447D01*
X145666487Y-127962122D01*
X145658020Y-127960740D01*
X145650845Y-127954418D01*
X145644856Y-127939890D01*
X145639945Y-127913891D01*
X145636007Y-127873155D01*
X145632934Y-127814418D01*
X145630619Y-127734413D01*
X145628956Y-127629876D01*
X145627837Y-127497541D01*
X145627156Y-127334142D01*
X145626806Y-127136415D01*
X145626679Y-126901095D01*
X145626666Y-126745436D01*
X145626725Y-126486470D01*
X145626969Y-126267033D01*
X145627496Y-126083896D01*
X145628408Y-125933828D01*
X145629805Y-125813599D01*
X145631785Y-125719977D01*
X145634450Y-125649733D01*
X145637900Y-125599635D01*
X145642233Y-125566454D01*
X145647551Y-125546958D01*
X145653953Y-125537917D01*
X145661540Y-125536100D01*
X145664082Y-125536486D01*
G37*
G36*
X147746195Y-127537998D02*
G01*
X147779842Y-127590620D01*
X147828004Y-127667350D01*
X147887075Y-127762317D01*
X147953450Y-127869646D01*
X148023522Y-127983467D01*
X148093685Y-128097906D01*
X148160335Y-128207091D01*
X148219865Y-128305149D01*
X148268670Y-128386208D01*
X148303144Y-128444396D01*
X148319680Y-128473839D01*
X148320606Y-128476159D01*
X148301988Y-128491569D01*
X148250914Y-128519696D01*
X148174555Y-128557186D01*
X148080081Y-128600685D01*
X147974662Y-128646840D01*
X147865469Y-128692295D01*
X147818165Y-128711175D01*
X147369046Y-128871469D01*
X146887285Y-129012708D01*
X146379149Y-129133577D01*
X145850904Y-129232758D01*
X145308819Y-129308933D01*
X144759159Y-129360785D01*
X144712651Y-129364004D01*
X144493501Y-129378741D01*
X144493501Y-128242005D01*
X144562988Y-128231215D01*
X144620530Y-128223760D01*
X144702133Y-128214949D01*
X144782138Y-128207411D01*
X145076947Y-128176189D01*
X145387612Y-128133050D01*
X145707450Y-128079524D01*
X146029776Y-128017142D01*
X146347908Y-127947437D01*
X146655162Y-127871938D01*
X146944855Y-127792177D01*
X147210302Y-127709685D01*
X147444821Y-127625994D01*
X147599459Y-127561992D01*
X147664385Y-127534732D01*
X147711919Y-127518030D01*
X147730668Y-127515358D01*
X147746195Y-127537998D01*
G37*
G36*
X143103720Y-124682658D02*
G01*
X143103668Y-125236112D01*
X142749103Y-125285706D01*
X142382990Y-125347664D01*
X142025563Y-125429110D01*
X141681290Y-125528230D01*
X141354635Y-125643209D01*
X141050066Y-125772233D01*
X140772049Y-125913488D01*
X140525051Y-126065158D01*
X140313537Y-126225429D01*
X140215582Y-126314977D01*
X140089495Y-126456485D01*
X140005526Y-126592694D01*
X139963666Y-126725637D01*
X139963907Y-126857348D01*
X140006238Y-126989861D01*
X140090651Y-127125212D01*
X140211377Y-127259811D01*
X140405422Y-127426219D01*
X140636259Y-127580486D01*
X140905426Y-127723501D01*
X141214458Y-127856154D01*
X141288891Y-127884386D01*
X141510260Y-127958623D01*
X141761652Y-128029524D01*
X142030334Y-128094338D01*
X142303572Y-128150318D01*
X142568631Y-128194715D01*
X142812779Y-128224779D01*
X142899206Y-128232000D01*
X143103771Y-128246379D01*
X143103771Y-129351852D01*
X143002214Y-129349559D01*
X142938380Y-129345973D01*
X142846025Y-129338095D01*
X142739025Y-129327199D01*
X142659843Y-129318097D01*
X142203139Y-129251778D01*
X141766564Y-129166443D01*
X141351688Y-129063107D01*
X140960079Y-128942780D01*
X140593306Y-128806475D01*
X140252939Y-128655204D01*
X139940547Y-128489979D01*
X139657698Y-128311812D01*
X139405962Y-128121715D01*
X139186907Y-127920701D01*
X139002103Y-127709780D01*
X138853118Y-127489966D01*
X138741522Y-127262271D01*
X138668883Y-127027706D01*
X138636771Y-126787284D01*
X138635252Y-126722054D01*
X138656048Y-126479491D01*
X138718513Y-126243896D01*
X138822767Y-126015082D01*
X138968930Y-125792858D01*
X139157121Y-125577036D01*
X139387459Y-125367425D01*
X139584002Y-125216997D01*
X139882525Y-125023533D01*
X140216007Y-124843691D01*
X140578249Y-124679505D01*
X140963048Y-124533009D01*
X141364203Y-124406240D01*
X141775515Y-124301232D01*
X142190780Y-124220020D01*
X142603798Y-124164639D01*
X142852550Y-124144377D01*
X143103771Y-124129205D01*
X143103720Y-124682658D01*
G37*
G36*
X143804625Y-122405827D02*
G01*
X143826537Y-122459199D01*
X143859838Y-122544002D01*
X143902856Y-122655880D01*
X143953916Y-122790479D01*
X144011345Y-122943443D01*
X144073469Y-123110416D01*
X144078584Y-123124227D01*
X144353842Y-123867761D01*
X144364876Y-126882408D01*
X144375909Y-129897054D01*
X144726142Y-130463637D01*
X144814668Y-130606582D01*
X144897718Y-130740186D01*
X144972157Y-130859440D01*
X145034849Y-130959339D01*
X145082656Y-131034875D01*
X145112442Y-131081040D01*
X145118668Y-131090247D01*
X145144915Y-131132007D01*
X145153883Y-131155783D01*
X145153283Y-131156931D01*
X145133240Y-131149321D01*
X145089603Y-131122703D01*
X145049394Y-131095197D01*
X144997941Y-131059110D01*
X144919960Y-131005023D01*
X144824261Y-130939017D01*
X144719649Y-130867174D01*
X144666431Y-130830744D01*
X144379681Y-130634681D01*
X143217909Y-130634681D01*
X142963071Y-130808955D01*
X142859296Y-130879931D01*
X142756491Y-130950255D01*
X142665460Y-131012537D01*
X142597008Y-131059385D01*
X142588046Y-131065521D01*
X142525621Y-131106910D01*
X142477276Y-131136463D01*
X142453431Y-131147812D01*
X142453391Y-131147812D01*
X142455891Y-131132083D01*
X142477877Y-131091710D01*
X142500224Y-131056945D01*
X142526970Y-131015605D01*
X142572550Y-130943252D01*
X142633549Y-130845386D01*
X142706553Y-130727512D01*
X142788144Y-130595131D01*
X142874910Y-130453746D01*
X142896790Y-130417997D01*
X143232054Y-129869915D01*
X143232054Y-123906475D01*
X143510141Y-123151133D01*
X143572868Y-122981086D01*
X143631043Y-122824017D01*
X143683004Y-122684367D01*
X143727089Y-122566574D01*
X143761635Y-122475078D01*
X143784980Y-122414319D01*
X143795463Y-122388736D01*
X143795776Y-122388242D01*
X143804625Y-122405827D01*
G37*
%TO.C,C7*%
X140469252Y-71909000D02*
X139946748Y-71909000D01*
X140469252Y-73379000D02*
X139946748Y-73379000D01*
%TO.C,C5*%
X126272000Y-116620000D02*
X126272000Y-118320000D01*
X131792000Y-121075563D02*
X131792000Y-120440000D01*
X132657000Y-121065000D02*
X132032000Y-121065000D01*
X132344500Y-121377500D02*
X132344500Y-120752500D01*
X126272000Y-122140000D02*
X126272000Y-120440000D01*
X131792000Y-117684437D02*
X130727563Y-116620000D01*
X131792000Y-121075563D02*
X130727563Y-122140000D01*
X131792000Y-117684437D02*
X131792000Y-118320000D01*
X130727563Y-116620000D02*
X126272000Y-116620000D01*
X130727563Y-122140000D02*
X126272000Y-122140000D01*
%TO.C,I2C*%
X137872000Y-70672000D02*
X137872000Y-69342000D01*
X140472000Y-70672000D02*
X148152000Y-70672000D01*
X140472000Y-70672000D02*
X140472000Y-68012000D01*
X148152000Y-70672000D02*
X148152000Y-68012000D01*
X139202000Y-70672000D02*
X137872000Y-70672000D01*
X140472000Y-68012000D02*
X148152000Y-68012000D01*
%TO.C,5V*%
X168710000Y-114864000D02*
X168710000Y-116784000D01*
X168710000Y-116784000D02*
X171570000Y-116784000D01*
X171570000Y-114864000D02*
X168710000Y-114864000D01*
%TO.C,XBEE*%
X148570000Y-116110000D02*
X120630000Y-116110000D01*
X120630000Y-116110000D02*
X120630000Y-81820000D01*
X120630000Y-81820000D02*
X148570000Y-81820000D01*
X148570000Y-81820000D02*
X148570000Y-116110000D01*
%TO.C,C3*%
X136425000Y-114561252D02*
X136425000Y-114038748D01*
X137895000Y-114561252D02*
X137895000Y-114038748D01*
%TD*%
M02*
