%TF.GenerationSoftware,KiCad,Pcbnew,(6.0.8)*%
%TF.CreationDate,2022-12-18T12:10:43-08:00*%
%TF.ProjectId,ATP_Teensy,4154505f-5465-4656-9e73-792e6b696361,rev?*%
%TF.SameCoordinates,Original*%
%TF.FileFunction,Legend,Bot*%
%TF.FilePolarity,Positive*%
%FSLAX46Y46*%
G04 Gerber Fmt 4.6, Leading zero omitted, Abs format (unit mm)*
G04 Created by KiCad (PCBNEW (6.0.8)) date 2022-12-18 12:10:43*
%MOMM*%
%LPD*%
G01*
G04 APERTURE LIST*
%ADD10C,0.200000*%
%ADD11C,0.125000*%
%ADD12C,0.150000*%
%ADD13C,0.120000*%
G04 APERTURE END LIST*
D10*
X187043142Y-107374285D02*
X186071714Y-107374285D01*
X185957428Y-107317142D01*
X185900285Y-107260000D01*
X185843142Y-107145714D01*
X185843142Y-106917142D01*
X185900285Y-106802857D01*
X185957428Y-106745714D01*
X186071714Y-106688571D01*
X187043142Y-106688571D01*
X185957428Y-105431428D02*
X185900285Y-105488571D01*
X185843142Y-105660000D01*
X185843142Y-105774285D01*
X185900285Y-105945714D01*
X186014571Y-106060000D01*
X186128857Y-106117142D01*
X186357428Y-106174285D01*
X186528857Y-106174285D01*
X186757428Y-106117142D01*
X186871714Y-106060000D01*
X186986000Y-105945714D01*
X187043142Y-105774285D01*
X187043142Y-105660000D01*
X186986000Y-105488571D01*
X186928857Y-105431428D01*
X185843142Y-104917142D02*
X187043142Y-104917142D01*
X185843142Y-102745714D02*
X186414571Y-103145714D01*
X185843142Y-103431428D02*
X187043142Y-103431428D01*
X187043142Y-102974285D01*
X186986000Y-102860000D01*
X186928857Y-102802857D01*
X186814571Y-102745714D01*
X186643142Y-102745714D01*
X186528857Y-102802857D01*
X186471714Y-102860000D01*
X186414571Y-102974285D01*
X186414571Y-103431428D01*
X185843142Y-102060000D02*
X185900285Y-102174285D01*
X185957428Y-102231428D01*
X186071714Y-102288571D01*
X186414571Y-102288571D01*
X186528857Y-102231428D01*
X186586000Y-102174285D01*
X186643142Y-102060000D01*
X186643142Y-101888571D01*
X186586000Y-101774285D01*
X186528857Y-101717142D01*
X186414571Y-101660000D01*
X186071714Y-101660000D01*
X185957428Y-101717142D01*
X185900285Y-101774285D01*
X185843142Y-101888571D01*
X185843142Y-102060000D01*
X185900285Y-100631428D02*
X185843142Y-100745714D01*
X185843142Y-100974285D01*
X185900285Y-101088571D01*
X185957428Y-101145714D01*
X186071714Y-101202857D01*
X186414571Y-101202857D01*
X186528857Y-101145714D01*
X186586000Y-101088571D01*
X186643142Y-100974285D01*
X186643142Y-100745714D01*
X186586000Y-100631428D01*
X185843142Y-100117142D02*
X187043142Y-100117142D01*
X186300285Y-100002857D02*
X185843142Y-99660000D01*
X186643142Y-99660000D02*
X186186000Y-100117142D01*
X185900285Y-98688571D02*
X185843142Y-98802857D01*
X185843142Y-99031428D01*
X185900285Y-99145714D01*
X186014571Y-99202857D01*
X186471714Y-99202857D01*
X186586000Y-99145714D01*
X186643142Y-99031428D01*
X186643142Y-98802857D01*
X186586000Y-98688571D01*
X186471714Y-98631428D01*
X186357428Y-98631428D01*
X186243142Y-99202857D01*
X186643142Y-98288571D02*
X186643142Y-97831428D01*
X187043142Y-98117142D02*
X186014571Y-98117142D01*
X185900285Y-98060000D01*
X185843142Y-97945714D01*
X185843142Y-97831428D01*
X185843142Y-96517142D02*
X187043142Y-96517142D01*
X187043142Y-96060000D01*
X186986000Y-95945714D01*
X186928857Y-95888571D01*
X186814571Y-95831428D01*
X186643142Y-95831428D01*
X186528857Y-95888571D01*
X186471714Y-95945714D01*
X186414571Y-96060000D01*
X186414571Y-96517142D01*
X185843142Y-95317142D02*
X186643142Y-95317142D01*
X186414571Y-95317142D02*
X186528857Y-95260000D01*
X186586000Y-95202857D01*
X186643142Y-95088571D01*
X186643142Y-94974285D01*
X185843142Y-94402857D02*
X185900285Y-94517142D01*
X185957428Y-94574285D01*
X186071714Y-94631428D01*
X186414571Y-94631428D01*
X186528857Y-94574285D01*
X186586000Y-94517142D01*
X186643142Y-94402857D01*
X186643142Y-94231428D01*
X186586000Y-94117142D01*
X186528857Y-94060000D01*
X186414571Y-94002857D01*
X186071714Y-94002857D01*
X185957428Y-94060000D01*
X185900285Y-94117142D01*
X185843142Y-94231428D01*
X185843142Y-94402857D01*
X186643142Y-93488571D02*
X185614571Y-93488571D01*
X185500285Y-93545714D01*
X185443142Y-93660000D01*
X185443142Y-93717142D01*
X187043142Y-93488571D02*
X186986000Y-93545714D01*
X186928857Y-93488571D01*
X186986000Y-93431428D01*
X187043142Y-93488571D01*
X186928857Y-93488571D01*
X185900285Y-92460000D02*
X185843142Y-92574285D01*
X185843142Y-92802857D01*
X185900285Y-92917142D01*
X186014571Y-92974285D01*
X186471714Y-92974285D01*
X186586000Y-92917142D01*
X186643142Y-92802857D01*
X186643142Y-92574285D01*
X186586000Y-92460000D01*
X186471714Y-92402857D01*
X186357428Y-92402857D01*
X186243142Y-92974285D01*
X185900285Y-91374285D02*
X185843142Y-91488571D01*
X185843142Y-91717142D01*
X185900285Y-91831428D01*
X185957428Y-91888571D01*
X186071714Y-91945714D01*
X186414571Y-91945714D01*
X186528857Y-91888571D01*
X186586000Y-91831428D01*
X186643142Y-91717142D01*
X186643142Y-91488571D01*
X186586000Y-91374285D01*
X186643142Y-91031428D02*
X186643142Y-90574285D01*
X187043142Y-90860000D02*
X186014571Y-90860000D01*
X185900285Y-90802857D01*
X185843142Y-90688571D01*
X185843142Y-90574285D01*
X184254000Y-108945714D02*
X184254000Y-108374285D01*
X183911142Y-109060000D02*
X185111142Y-108660000D01*
X183911142Y-108260000D01*
X184711142Y-107974285D02*
X183911142Y-107688571D01*
X184711142Y-107402857D01*
X183911142Y-106945714D02*
X184711142Y-106945714D01*
X185111142Y-106945714D02*
X185054000Y-107002857D01*
X184996857Y-106945714D01*
X185054000Y-106888571D01*
X185111142Y-106945714D01*
X184996857Y-106945714D01*
X183911142Y-106202857D02*
X183968285Y-106317142D01*
X184025428Y-106374285D01*
X184139714Y-106431428D01*
X184482571Y-106431428D01*
X184596857Y-106374285D01*
X184654000Y-106317142D01*
X184711142Y-106202857D01*
X184711142Y-106031428D01*
X184654000Y-105917142D01*
X184596857Y-105860000D01*
X184482571Y-105802857D01*
X184139714Y-105802857D01*
X184025428Y-105860000D01*
X183968285Y-105917142D01*
X183911142Y-106031428D01*
X183911142Y-106202857D01*
X184711142Y-105288571D02*
X183911142Y-105288571D01*
X184596857Y-105288571D02*
X184654000Y-105231428D01*
X184711142Y-105117142D01*
X184711142Y-104945714D01*
X184654000Y-104831428D01*
X184539714Y-104774285D01*
X183911142Y-104774285D01*
X183911142Y-104202857D02*
X184711142Y-104202857D01*
X185111142Y-104202857D02*
X185054000Y-104260000D01*
X184996857Y-104202857D01*
X185054000Y-104145714D01*
X185111142Y-104202857D01*
X184996857Y-104202857D01*
X183968285Y-103117142D02*
X183911142Y-103231428D01*
X183911142Y-103460000D01*
X183968285Y-103574285D01*
X184025428Y-103631428D01*
X184139714Y-103688571D01*
X184482571Y-103688571D01*
X184596857Y-103631428D01*
X184654000Y-103574285D01*
X184711142Y-103460000D01*
X184711142Y-103231428D01*
X184654000Y-103117142D01*
X183968285Y-102660000D02*
X183911142Y-102545714D01*
X183911142Y-102317142D01*
X183968285Y-102202857D01*
X184082571Y-102145714D01*
X184139714Y-102145714D01*
X184254000Y-102202857D01*
X184311142Y-102317142D01*
X184311142Y-102488571D01*
X184368285Y-102602857D01*
X184482571Y-102660000D01*
X184539714Y-102660000D01*
X184654000Y-102602857D01*
X184711142Y-102488571D01*
X184711142Y-102317142D01*
X184654000Y-102202857D01*
X184539714Y-100317142D02*
X184539714Y-100717142D01*
X183911142Y-100717142D02*
X185111142Y-100717142D01*
X185111142Y-100145714D01*
X183911142Y-99517142D02*
X183968285Y-99631428D01*
X184082571Y-99688571D01*
X185111142Y-99688571D01*
X183911142Y-99060000D02*
X184711142Y-99060000D01*
X185111142Y-99060000D02*
X185054000Y-99117142D01*
X184996857Y-99060000D01*
X185054000Y-99002857D01*
X185111142Y-99060000D01*
X184996857Y-99060000D01*
X184711142Y-97974285D02*
X183739714Y-97974285D01*
X183625428Y-98031428D01*
X183568285Y-98088571D01*
X183511142Y-98202857D01*
X183511142Y-98374285D01*
X183568285Y-98488571D01*
X183968285Y-97974285D02*
X183911142Y-98088571D01*
X183911142Y-98317142D01*
X183968285Y-98431428D01*
X184025428Y-98488571D01*
X184139714Y-98545714D01*
X184482571Y-98545714D01*
X184596857Y-98488571D01*
X184654000Y-98431428D01*
X184711142Y-98317142D01*
X184711142Y-98088571D01*
X184654000Y-97974285D01*
X183911142Y-97402857D02*
X185111142Y-97402857D01*
X183911142Y-96888571D02*
X184539714Y-96888571D01*
X184654000Y-96945714D01*
X184711142Y-97060000D01*
X184711142Y-97231428D01*
X184654000Y-97345714D01*
X184596857Y-97402857D01*
X184711142Y-96488571D02*
X184711142Y-96031428D01*
X185111142Y-96317142D02*
X184082571Y-96317142D01*
X183968285Y-96260000D01*
X183911142Y-96145714D01*
X183911142Y-96031428D01*
X183968285Y-94774285D02*
X183911142Y-94602857D01*
X183911142Y-94317142D01*
X183968285Y-94202857D01*
X184025428Y-94145714D01*
X184139714Y-94088571D01*
X184254000Y-94088571D01*
X184368285Y-94145714D01*
X184425428Y-94202857D01*
X184482571Y-94317142D01*
X184539714Y-94545714D01*
X184596857Y-94660000D01*
X184654000Y-94717142D01*
X184768285Y-94774285D01*
X184882571Y-94774285D01*
X184996857Y-94717142D01*
X185054000Y-94660000D01*
X185111142Y-94545714D01*
X185111142Y-94260000D01*
X185054000Y-94088571D01*
X183968285Y-93117142D02*
X183911142Y-93231428D01*
X183911142Y-93460000D01*
X183968285Y-93574285D01*
X184082571Y-93631428D01*
X184539714Y-93631428D01*
X184654000Y-93574285D01*
X184711142Y-93460000D01*
X184711142Y-93231428D01*
X184654000Y-93117142D01*
X184539714Y-93060000D01*
X184425428Y-93060000D01*
X184311142Y-93631428D01*
X184711142Y-92545714D02*
X183911142Y-92545714D01*
X184596857Y-92545714D02*
X184654000Y-92488571D01*
X184711142Y-92374285D01*
X184711142Y-92202857D01*
X184654000Y-92088571D01*
X184539714Y-92031428D01*
X183911142Y-92031428D01*
X183968285Y-91517142D02*
X183911142Y-91402857D01*
X183911142Y-91174285D01*
X183968285Y-91060000D01*
X184082571Y-91002857D01*
X184139714Y-91002857D01*
X184254000Y-91060000D01*
X184311142Y-91174285D01*
X184311142Y-91345714D01*
X184368285Y-91460000D01*
X184482571Y-91517142D01*
X184539714Y-91517142D01*
X184654000Y-91460000D01*
X184711142Y-91345714D01*
X184711142Y-91174285D01*
X184654000Y-91060000D01*
X183911142Y-90317142D02*
X183968285Y-90431428D01*
X184025428Y-90488571D01*
X184139714Y-90545714D01*
X184482571Y-90545714D01*
X184596857Y-90488571D01*
X184654000Y-90431428D01*
X184711142Y-90317142D01*
X184711142Y-90145714D01*
X184654000Y-90031428D01*
X184596857Y-89974285D01*
X184482571Y-89917142D01*
X184139714Y-89917142D01*
X184025428Y-89974285D01*
X183968285Y-90031428D01*
X183911142Y-90145714D01*
X183911142Y-90317142D01*
X183911142Y-89402857D02*
X184711142Y-89402857D01*
X184482571Y-89402857D02*
X184596857Y-89345714D01*
X184654000Y-89288571D01*
X184711142Y-89174285D01*
X184711142Y-89060000D01*
D11*
X182629285Y-114081428D02*
X181962619Y-113867142D01*
X182629285Y-113652857D01*
X181962619Y-112838571D02*
X181962619Y-113352857D01*
X181962619Y-113095714D02*
X182962619Y-113095714D01*
X182819761Y-113181428D01*
X182724523Y-113267142D01*
X182676904Y-113352857D01*
X182057857Y-112452857D02*
X182010238Y-112410000D01*
X181962619Y-112452857D01*
X182010238Y-112495714D01*
X182057857Y-112452857D01*
X181962619Y-112452857D01*
X182962619Y-111852857D02*
X182962619Y-111767142D01*
X182915000Y-111681428D01*
X182867380Y-111638571D01*
X182772142Y-111595714D01*
X182581666Y-111552857D01*
X182343571Y-111552857D01*
X182153095Y-111595714D01*
X182057857Y-111638571D01*
X182010238Y-111681428D01*
X181962619Y-111767142D01*
X181962619Y-111852857D01*
X182010238Y-111938571D01*
X182057857Y-111981428D01*
X182153095Y-112024285D01*
X182343571Y-112067142D01*
X182581666Y-112067142D01*
X182772142Y-112024285D01*
X182867380Y-111981428D01*
X182915000Y-111938571D01*
X182962619Y-111852857D01*
X182962619Y-110524285D02*
X182772142Y-110524285D01*
X182962619Y-110181428D02*
X182772142Y-110181428D01*
X181962619Y-109281428D02*
X182438809Y-109581428D01*
X181962619Y-109795714D02*
X182962619Y-109795714D01*
X182962619Y-109452857D01*
X182915000Y-109367142D01*
X182867380Y-109324285D01*
X182772142Y-109281428D01*
X182629285Y-109281428D01*
X182534047Y-109324285D01*
X182486428Y-109367142D01*
X182438809Y-109452857D01*
X182438809Y-109795714D01*
X181962619Y-108895714D02*
X182629285Y-108895714D01*
X182962619Y-108895714D02*
X182915000Y-108938571D01*
X182867380Y-108895714D01*
X182915000Y-108852857D01*
X182962619Y-108895714D01*
X182867380Y-108895714D01*
X182629285Y-108081428D02*
X181819761Y-108081428D01*
X181724523Y-108124285D01*
X181676904Y-108167142D01*
X181629285Y-108252857D01*
X181629285Y-108381428D01*
X181676904Y-108467142D01*
X182010238Y-108081428D02*
X181962619Y-108167142D01*
X181962619Y-108338571D01*
X182010238Y-108424285D01*
X182057857Y-108467142D01*
X182153095Y-108510000D01*
X182438809Y-108510000D01*
X182534047Y-108467142D01*
X182581666Y-108424285D01*
X182629285Y-108338571D01*
X182629285Y-108167142D01*
X182581666Y-108081428D01*
X182010238Y-107310000D02*
X181962619Y-107395714D01*
X181962619Y-107567142D01*
X182010238Y-107652857D01*
X182105476Y-107695714D01*
X182486428Y-107695714D01*
X182581666Y-107652857D01*
X182629285Y-107567142D01*
X182629285Y-107395714D01*
X182581666Y-107310000D01*
X182486428Y-107267142D01*
X182391190Y-107267142D01*
X182295952Y-107695714D01*
X181962619Y-106752857D02*
X182010238Y-106838571D01*
X182105476Y-106881428D01*
X182962619Y-106881428D01*
X182962619Y-106452857D02*
X182772142Y-106452857D01*
X182962619Y-106110000D02*
X182772142Y-106110000D01*
X182343571Y-105038571D02*
X182343571Y-104352857D01*
X181962619Y-103238571D02*
X182962619Y-103238571D01*
X182962619Y-103024285D01*
X182915000Y-102895714D01*
X182819761Y-102810000D01*
X182724523Y-102767142D01*
X182534047Y-102724285D01*
X182391190Y-102724285D01*
X182200714Y-102767142D01*
X182105476Y-102810000D01*
X182010238Y-102895714D01*
X181962619Y-103024285D01*
X181962619Y-103238571D01*
X182486428Y-102338571D02*
X182486428Y-102038571D01*
X181962619Y-101910000D02*
X181962619Y-102338571D01*
X182962619Y-102338571D01*
X182962619Y-101910000D01*
X182057857Y-101010000D02*
X182010238Y-101052857D01*
X181962619Y-101181428D01*
X181962619Y-101267142D01*
X182010238Y-101395714D01*
X182105476Y-101481428D01*
X182200714Y-101524285D01*
X182391190Y-101567142D01*
X182534047Y-101567142D01*
X182724523Y-101524285D01*
X182819761Y-101481428D01*
X182915000Y-101395714D01*
X182962619Y-101267142D01*
X182962619Y-101181428D01*
X182915000Y-101052857D01*
X182867380Y-101010000D01*
X182867380Y-99981428D02*
X182915000Y-99938571D01*
X182962619Y-99852857D01*
X182962619Y-99638571D01*
X182915000Y-99552857D01*
X182867380Y-99510000D01*
X182772142Y-99467142D01*
X182676904Y-99467142D01*
X182534047Y-99510000D01*
X181962619Y-100024285D01*
X181962619Y-99467142D01*
X182962619Y-98910000D02*
X182962619Y-98824285D01*
X182915000Y-98738571D01*
X182867380Y-98695714D01*
X182772142Y-98652857D01*
X182581666Y-98610000D01*
X182343571Y-98610000D01*
X182153095Y-98652857D01*
X182057857Y-98695714D01*
X182010238Y-98738571D01*
X181962619Y-98824285D01*
X181962619Y-98910000D01*
X182010238Y-98995714D01*
X182057857Y-99038571D01*
X182153095Y-99081428D01*
X182343571Y-99124285D01*
X182581666Y-99124285D01*
X182772142Y-99081428D01*
X182867380Y-99038571D01*
X182915000Y-98995714D01*
X182962619Y-98910000D01*
X182867380Y-98267142D02*
X182915000Y-98224285D01*
X182962619Y-98138571D01*
X182962619Y-97924285D01*
X182915000Y-97838571D01*
X182867380Y-97795714D01*
X182772142Y-97752857D01*
X182676904Y-97752857D01*
X182534047Y-97795714D01*
X181962619Y-98310000D01*
X181962619Y-97752857D01*
X182867380Y-97410000D02*
X182915000Y-97367142D01*
X182962619Y-97281428D01*
X182962619Y-97067142D01*
X182915000Y-96981428D01*
X182867380Y-96938571D01*
X182772142Y-96895714D01*
X182676904Y-96895714D01*
X182534047Y-96938571D01*
X181962619Y-97452857D01*
X181962619Y-96895714D01*
X182343571Y-95824285D02*
X182343571Y-95138571D01*
X182248333Y-94067142D02*
X182248333Y-93638571D01*
X181962619Y-94152857D02*
X182962619Y-93852857D01*
X181962619Y-93552857D01*
X181962619Y-93124285D02*
X182010238Y-93210000D01*
X182105476Y-93252857D01*
X182962619Y-93252857D01*
X182010238Y-92438571D02*
X181962619Y-92524285D01*
X181962619Y-92695714D01*
X182010238Y-92781428D01*
X182105476Y-92824285D01*
X182486428Y-92824285D01*
X182581666Y-92781428D01*
X182629285Y-92695714D01*
X182629285Y-92524285D01*
X182581666Y-92438571D01*
X182486428Y-92395714D01*
X182391190Y-92395714D01*
X182295952Y-92824285D01*
X181962619Y-92095714D02*
X182629285Y-91624285D01*
X182629285Y-92095714D02*
X181962619Y-91624285D01*
X181962619Y-90895714D02*
X182486428Y-90895714D01*
X182581666Y-90938571D01*
X182629285Y-91024285D01*
X182629285Y-91195714D01*
X182581666Y-91281428D01*
X182010238Y-90895714D02*
X181962619Y-90981428D01*
X181962619Y-91195714D01*
X182010238Y-91281428D01*
X182105476Y-91324285D01*
X182200714Y-91324285D01*
X182295952Y-91281428D01*
X182343571Y-91195714D01*
X182343571Y-90981428D01*
X182391190Y-90895714D01*
X182629285Y-90467142D02*
X181962619Y-90467142D01*
X182534047Y-90467142D02*
X182581666Y-90424285D01*
X182629285Y-90338571D01*
X182629285Y-90210000D01*
X182581666Y-90124285D01*
X182486428Y-90081428D01*
X181962619Y-90081428D01*
X181962619Y-89267142D02*
X182962619Y-89267142D01*
X182010238Y-89267142D02*
X181962619Y-89352857D01*
X181962619Y-89524285D01*
X182010238Y-89610000D01*
X182057857Y-89652857D01*
X182153095Y-89695714D01*
X182438809Y-89695714D01*
X182534047Y-89652857D01*
X182581666Y-89610000D01*
X182629285Y-89524285D01*
X182629285Y-89352857D01*
X182581666Y-89267142D01*
X181962619Y-88838571D02*
X182629285Y-88838571D01*
X182438809Y-88838571D02*
X182534047Y-88795714D01*
X182581666Y-88752857D01*
X182629285Y-88667142D01*
X182629285Y-88581428D01*
X181962619Y-87895714D02*
X182486428Y-87895714D01*
X182581666Y-87938571D01*
X182629285Y-88024285D01*
X182629285Y-88195714D01*
X182581666Y-88281428D01*
X182010238Y-87895714D02*
X181962619Y-87981428D01*
X181962619Y-88195714D01*
X182010238Y-88281428D01*
X182105476Y-88324285D01*
X182200714Y-88324285D01*
X182295952Y-88281428D01*
X182343571Y-88195714D01*
X182343571Y-87981428D01*
X182391190Y-87895714D01*
X182962619Y-86867142D02*
X182962619Y-86267142D01*
X181962619Y-86867142D01*
X181962619Y-86267142D01*
X182057857Y-85924285D02*
X182010238Y-85881428D01*
X181962619Y-85924285D01*
X182010238Y-85967142D01*
X182057857Y-85924285D01*
X181962619Y-85924285D01*
X182962619Y-84552857D02*
X182248333Y-84552857D01*
X182105476Y-84595714D01*
X182010238Y-84681428D01*
X181962619Y-84810000D01*
X181962619Y-84895714D01*
X182057857Y-84124285D02*
X182010238Y-84081428D01*
X181962619Y-84124285D01*
X182010238Y-84167142D01*
X182057857Y-84124285D01*
X181962619Y-84124285D01*
X180352619Y-116331428D02*
X181352619Y-116331428D01*
X180352619Y-115945714D02*
X180876428Y-115945714D01*
X180971666Y-115988571D01*
X181019285Y-116074285D01*
X181019285Y-116202857D01*
X180971666Y-116288571D01*
X180924047Y-116331428D01*
X181019285Y-115645714D02*
X181019285Y-115302857D01*
X181352619Y-115517142D02*
X180495476Y-115517142D01*
X180400238Y-115474285D01*
X180352619Y-115388571D01*
X180352619Y-115302857D01*
X181019285Y-115131428D02*
X181019285Y-114788571D01*
X181352619Y-115002857D02*
X180495476Y-115002857D01*
X180400238Y-114960000D01*
X180352619Y-114874285D01*
X180352619Y-114788571D01*
X181019285Y-114488571D02*
X180019285Y-114488571D01*
X180971666Y-114488571D02*
X181019285Y-114402857D01*
X181019285Y-114231428D01*
X180971666Y-114145714D01*
X180924047Y-114102857D01*
X180828809Y-114060000D01*
X180543095Y-114060000D01*
X180447857Y-114102857D01*
X180400238Y-114145714D01*
X180352619Y-114231428D01*
X180352619Y-114402857D01*
X180400238Y-114488571D01*
X180400238Y-113717142D02*
X180352619Y-113631428D01*
X180352619Y-113460000D01*
X180400238Y-113374285D01*
X180495476Y-113331428D01*
X180543095Y-113331428D01*
X180638333Y-113374285D01*
X180685952Y-113460000D01*
X180685952Y-113588571D01*
X180733571Y-113674285D01*
X180828809Y-113717142D01*
X180876428Y-113717142D01*
X180971666Y-113674285D01*
X181019285Y-113588571D01*
X181019285Y-113460000D01*
X180971666Y-113374285D01*
X180447857Y-112945714D02*
X180400238Y-112902857D01*
X180352619Y-112945714D01*
X180400238Y-112988571D01*
X180447857Y-112945714D01*
X180352619Y-112945714D01*
X180971666Y-112945714D02*
X180924047Y-112902857D01*
X180876428Y-112945714D01*
X180924047Y-112988571D01*
X180971666Y-112945714D01*
X180876428Y-112945714D01*
X181400238Y-111874285D02*
X180114523Y-112645714D01*
X181400238Y-110931428D02*
X180114523Y-111702857D01*
X181019285Y-110245714D02*
X180209761Y-110245714D01*
X180114523Y-110288571D01*
X180066904Y-110331428D01*
X180019285Y-110417142D01*
X180019285Y-110545714D01*
X180066904Y-110631428D01*
X180400238Y-110245714D02*
X180352619Y-110331428D01*
X180352619Y-110502857D01*
X180400238Y-110588571D01*
X180447857Y-110631428D01*
X180543095Y-110674285D01*
X180828809Y-110674285D01*
X180924047Y-110631428D01*
X180971666Y-110588571D01*
X181019285Y-110502857D01*
X181019285Y-110331428D01*
X180971666Y-110245714D01*
X180352619Y-109817142D02*
X181019285Y-109817142D01*
X181352619Y-109817142D02*
X181305000Y-109860000D01*
X181257380Y-109817142D01*
X181305000Y-109774285D01*
X181352619Y-109817142D01*
X181257380Y-109817142D01*
X181019285Y-109517142D02*
X181019285Y-109174285D01*
X181352619Y-109388571D02*
X180495476Y-109388571D01*
X180400238Y-109345714D01*
X180352619Y-109260000D01*
X180352619Y-109174285D01*
X180352619Y-108874285D02*
X181352619Y-108874285D01*
X180352619Y-108488571D02*
X180876428Y-108488571D01*
X180971666Y-108531428D01*
X181019285Y-108617142D01*
X181019285Y-108745714D01*
X180971666Y-108831428D01*
X180924047Y-108874285D01*
X181019285Y-107674285D02*
X180352619Y-107674285D01*
X181019285Y-108060000D02*
X180495476Y-108060000D01*
X180400238Y-108017142D01*
X180352619Y-107931428D01*
X180352619Y-107802857D01*
X180400238Y-107717142D01*
X180447857Y-107674285D01*
X180352619Y-107245714D02*
X181352619Y-107245714D01*
X180971666Y-107245714D02*
X181019285Y-107160000D01*
X181019285Y-106988571D01*
X180971666Y-106902857D01*
X180924047Y-106860000D01*
X180828809Y-106817142D01*
X180543095Y-106817142D01*
X180447857Y-106860000D01*
X180400238Y-106902857D01*
X180352619Y-106988571D01*
X180352619Y-107160000D01*
X180400238Y-107245714D01*
X180447857Y-106431428D02*
X180400238Y-106388571D01*
X180352619Y-106431428D01*
X180400238Y-106474285D01*
X180447857Y-106431428D01*
X180352619Y-106431428D01*
X180400238Y-105617142D02*
X180352619Y-105702857D01*
X180352619Y-105874285D01*
X180400238Y-105960000D01*
X180447857Y-106002857D01*
X180543095Y-106045714D01*
X180828809Y-106045714D01*
X180924047Y-106002857D01*
X180971666Y-105960000D01*
X181019285Y-105874285D01*
X181019285Y-105702857D01*
X180971666Y-105617142D01*
X180352619Y-105102857D02*
X180400238Y-105188571D01*
X180447857Y-105231428D01*
X180543095Y-105274285D01*
X180828809Y-105274285D01*
X180924047Y-105231428D01*
X180971666Y-105188571D01*
X181019285Y-105102857D01*
X181019285Y-104974285D01*
X180971666Y-104888571D01*
X180924047Y-104845714D01*
X180828809Y-104802857D01*
X180543095Y-104802857D01*
X180447857Y-104845714D01*
X180400238Y-104888571D01*
X180352619Y-104974285D01*
X180352619Y-105102857D01*
X180352619Y-104417142D02*
X181019285Y-104417142D01*
X180924047Y-104417142D02*
X180971666Y-104374285D01*
X181019285Y-104288571D01*
X181019285Y-104160000D01*
X180971666Y-104074285D01*
X180876428Y-104031428D01*
X180352619Y-104031428D01*
X180876428Y-104031428D02*
X180971666Y-103988571D01*
X181019285Y-103902857D01*
X181019285Y-103774285D01*
X180971666Y-103688571D01*
X180876428Y-103645714D01*
X180352619Y-103645714D01*
X181400238Y-102574285D02*
X180114523Y-103345714D01*
X181352619Y-102274285D02*
X180543095Y-102274285D01*
X180447857Y-102231428D01*
X180400238Y-102188571D01*
X180352619Y-102102857D01*
X180352619Y-101931428D01*
X180400238Y-101845714D01*
X180447857Y-101802857D01*
X180543095Y-101760000D01*
X181352619Y-101760000D01*
X180447857Y-100817142D02*
X180400238Y-100860000D01*
X180352619Y-100988571D01*
X180352619Y-101074285D01*
X180400238Y-101202857D01*
X180495476Y-101288571D01*
X180590714Y-101331428D01*
X180781190Y-101374285D01*
X180924047Y-101374285D01*
X181114523Y-101331428D01*
X181209761Y-101288571D01*
X181305000Y-101202857D01*
X181352619Y-101074285D01*
X181352619Y-100988571D01*
X181305000Y-100860000D01*
X181257380Y-100817142D01*
X180352619Y-100431428D02*
X181352619Y-100431428D01*
X180733571Y-100002857D02*
X180733571Y-99317142D01*
X180352619Y-98374285D02*
X180828809Y-98674285D01*
X180352619Y-98888571D02*
X181352619Y-98888571D01*
X181352619Y-98545714D01*
X181305000Y-98460000D01*
X181257380Y-98417142D01*
X181162142Y-98374285D01*
X181019285Y-98374285D01*
X180924047Y-98417142D01*
X180876428Y-98460000D01*
X180828809Y-98545714D01*
X180828809Y-98888571D01*
X180352619Y-97860000D02*
X180400238Y-97945714D01*
X180447857Y-97988571D01*
X180543095Y-98031428D01*
X180828809Y-98031428D01*
X180924047Y-97988571D01*
X180971666Y-97945714D01*
X181019285Y-97860000D01*
X181019285Y-97731428D01*
X180971666Y-97645714D01*
X180924047Y-97602857D01*
X180828809Y-97560000D01*
X180543095Y-97560000D01*
X180447857Y-97602857D01*
X180400238Y-97645714D01*
X180352619Y-97731428D01*
X180352619Y-97860000D01*
X180400238Y-96788571D02*
X180352619Y-96874285D01*
X180352619Y-97045714D01*
X180400238Y-97131428D01*
X180447857Y-97174285D01*
X180543095Y-97217142D01*
X180828809Y-97217142D01*
X180924047Y-97174285D01*
X180971666Y-97131428D01*
X181019285Y-97045714D01*
X181019285Y-96874285D01*
X180971666Y-96788571D01*
X180352619Y-96402857D02*
X181352619Y-96402857D01*
X180733571Y-96317142D02*
X180352619Y-96060000D01*
X181019285Y-96060000D02*
X180638333Y-96402857D01*
X180400238Y-95331428D02*
X180352619Y-95417142D01*
X180352619Y-95588571D01*
X180400238Y-95674285D01*
X180495476Y-95717142D01*
X180876428Y-95717142D01*
X180971666Y-95674285D01*
X181019285Y-95588571D01*
X181019285Y-95417142D01*
X180971666Y-95331428D01*
X180876428Y-95288571D01*
X180781190Y-95288571D01*
X180685952Y-95717142D01*
X181019285Y-95031428D02*
X181019285Y-94688571D01*
X181352619Y-94902857D02*
X180495476Y-94902857D01*
X180400238Y-94860000D01*
X180352619Y-94774285D01*
X180352619Y-94688571D01*
X180733571Y-94388571D02*
X180733571Y-93702857D01*
X180352619Y-93274285D02*
X181352619Y-93274285D01*
X181352619Y-92931428D01*
X181305000Y-92845714D01*
X181257380Y-92802857D01*
X181162142Y-92760000D01*
X181019285Y-92760000D01*
X180924047Y-92802857D01*
X180876428Y-92845714D01*
X180828809Y-92931428D01*
X180828809Y-93274285D01*
X180352619Y-92374285D02*
X181019285Y-92374285D01*
X180828809Y-92374285D02*
X180924047Y-92331428D01*
X180971666Y-92288571D01*
X181019285Y-92202857D01*
X181019285Y-92117142D01*
X180352619Y-91688571D02*
X180400238Y-91774285D01*
X180447857Y-91817142D01*
X180543095Y-91860000D01*
X180828809Y-91860000D01*
X180924047Y-91817142D01*
X180971666Y-91774285D01*
X181019285Y-91688571D01*
X181019285Y-91560000D01*
X180971666Y-91474285D01*
X180924047Y-91431428D01*
X180828809Y-91388571D01*
X180543095Y-91388571D01*
X180447857Y-91431428D01*
X180400238Y-91474285D01*
X180352619Y-91560000D01*
X180352619Y-91688571D01*
X181019285Y-91002857D02*
X180162142Y-91002857D01*
X180066904Y-91045714D01*
X180019285Y-91131428D01*
X180019285Y-91174285D01*
X181352619Y-91002857D02*
X181305000Y-91045714D01*
X181257380Y-91002857D01*
X181305000Y-90960000D01*
X181352619Y-91002857D01*
X181257380Y-91002857D01*
X180400238Y-90231428D02*
X180352619Y-90317142D01*
X180352619Y-90488571D01*
X180400238Y-90574285D01*
X180495476Y-90617142D01*
X180876428Y-90617142D01*
X180971666Y-90574285D01*
X181019285Y-90488571D01*
X181019285Y-90317142D01*
X180971666Y-90231428D01*
X180876428Y-90188571D01*
X180781190Y-90188571D01*
X180685952Y-90617142D01*
X180400238Y-89417142D02*
X180352619Y-89502857D01*
X180352619Y-89674285D01*
X180400238Y-89760000D01*
X180447857Y-89802857D01*
X180543095Y-89845714D01*
X180828809Y-89845714D01*
X180924047Y-89802857D01*
X180971666Y-89760000D01*
X181019285Y-89674285D01*
X181019285Y-89502857D01*
X180971666Y-89417142D01*
X181019285Y-89160000D02*
X181019285Y-88817142D01*
X181352619Y-89031428D02*
X180495476Y-89031428D01*
X180400238Y-88988571D01*
X180352619Y-88902857D01*
X180352619Y-88817142D01*
X181400238Y-87874285D02*
X180114523Y-88645714D01*
X180638333Y-87617142D02*
X180638333Y-87188571D01*
X180352619Y-87702857D02*
X181352619Y-87402857D01*
X180352619Y-87102857D01*
X180876428Y-86502857D02*
X180876428Y-86802857D01*
X180352619Y-86802857D02*
X181352619Y-86802857D01*
X181352619Y-86374285D01*
X180400238Y-86074285D02*
X180352619Y-85945714D01*
X180352619Y-85731428D01*
X180400238Y-85645714D01*
X180447857Y-85602857D01*
X180543095Y-85560000D01*
X180638333Y-85560000D01*
X180733571Y-85602857D01*
X180781190Y-85645714D01*
X180828809Y-85731428D01*
X180876428Y-85902857D01*
X180924047Y-85988571D01*
X180971666Y-86031428D01*
X181066904Y-86074285D01*
X181162142Y-86074285D01*
X181257380Y-86031428D01*
X181305000Y-85988571D01*
X181352619Y-85902857D01*
X181352619Y-85688571D01*
X181305000Y-85560000D01*
X180733571Y-85174285D02*
X180733571Y-84488571D01*
X180352619Y-84060000D02*
X181352619Y-84060000D01*
X181352619Y-83717142D01*
X181305000Y-83631428D01*
X181257380Y-83588571D01*
X181162142Y-83545714D01*
X181019285Y-83545714D01*
X180924047Y-83588571D01*
X180876428Y-83631428D01*
X180828809Y-83717142D01*
X180828809Y-84060000D01*
X180447857Y-82645714D02*
X180400238Y-82688571D01*
X180352619Y-82817142D01*
X180352619Y-82902857D01*
X180400238Y-83031428D01*
X180495476Y-83117142D01*
X180590714Y-83160000D01*
X180781190Y-83202857D01*
X180924047Y-83202857D01*
X181114523Y-83160000D01*
X181209761Y-83117142D01*
X181305000Y-83031428D01*
X181352619Y-82902857D01*
X181352619Y-82817142D01*
X181305000Y-82688571D01*
X181257380Y-82645714D01*
X180876428Y-81960000D02*
X180828809Y-81831428D01*
X180781190Y-81788571D01*
X180685952Y-81745714D01*
X180543095Y-81745714D01*
X180447857Y-81788571D01*
X180400238Y-81831428D01*
X180352619Y-81917142D01*
X180352619Y-82260000D01*
X181352619Y-82260000D01*
X181352619Y-81960000D01*
X181305000Y-81874285D01*
X181257380Y-81831428D01*
X181162142Y-81788571D01*
X181066904Y-81788571D01*
X180971666Y-81831428D01*
X180924047Y-81874285D01*
X180876428Y-81960000D01*
X180876428Y-82260000D01*
D12*
%TO.C,GPS*%
X146764285Y-83275000D02*
X146859523Y-83227380D01*
X147002380Y-83227380D01*
X147145238Y-83275000D01*
X147240476Y-83370238D01*
X147288095Y-83465476D01*
X147335714Y-83655952D01*
X147335714Y-83798809D01*
X147288095Y-83989285D01*
X147240476Y-84084523D01*
X147145238Y-84179761D01*
X147002380Y-84227380D01*
X146907142Y-84227380D01*
X146764285Y-84179761D01*
X146716666Y-84132142D01*
X146716666Y-83798809D01*
X146907142Y-83798809D01*
X146288095Y-84227380D02*
X146288095Y-83227380D01*
X145907142Y-83227380D01*
X145811904Y-83275000D01*
X145764285Y-83322619D01*
X145716666Y-83417857D01*
X145716666Y-83560714D01*
X145764285Y-83655952D01*
X145811904Y-83703571D01*
X145907142Y-83751190D01*
X146288095Y-83751190D01*
X145335714Y-84179761D02*
X145192857Y-84227380D01*
X144954761Y-84227380D01*
X144859523Y-84179761D01*
X144811904Y-84132142D01*
X144764285Y-84036904D01*
X144764285Y-83941666D01*
X144811904Y-83846428D01*
X144859523Y-83798809D01*
X144954761Y-83751190D01*
X145145238Y-83703571D01*
X145240476Y-83655952D01*
X145288095Y-83608333D01*
X145335714Y-83513095D01*
X145335714Y-83417857D01*
X145288095Y-83322619D01*
X145240476Y-83275000D01*
X145145238Y-83227380D01*
X144907142Y-83227380D01*
X144764285Y-83275000D01*
%TO.C,BMP*%
X136890000Y-112128571D02*
X136747142Y-112176190D01*
X136699523Y-112223809D01*
X136651904Y-112319047D01*
X136651904Y-112461904D01*
X136699523Y-112557142D01*
X136747142Y-112604761D01*
X136842380Y-112652380D01*
X137223333Y-112652380D01*
X137223333Y-111652380D01*
X136890000Y-111652380D01*
X136794761Y-111700000D01*
X136747142Y-111747619D01*
X136699523Y-111842857D01*
X136699523Y-111938095D01*
X136747142Y-112033333D01*
X136794761Y-112080952D01*
X136890000Y-112128571D01*
X137223333Y-112128571D01*
X136223333Y-112652380D02*
X136223333Y-111652380D01*
X135890000Y-112366666D01*
X135556666Y-111652380D01*
X135556666Y-112652380D01*
X135080476Y-112652380D02*
X135080476Y-111652380D01*
X134699523Y-111652380D01*
X134604285Y-111700000D01*
X134556666Y-111747619D01*
X134509047Y-111842857D01*
X134509047Y-111985714D01*
X134556666Y-112080952D01*
X134604285Y-112128571D01*
X134699523Y-112176190D01*
X135080476Y-112176190D01*
%TO.C,Ge*%
G36*
X147292593Y-121154580D02*
G01*
X146715320Y-121154580D01*
X146715320Y-122172439D01*
X146715316Y-122238570D01*
X146715197Y-122462910D01*
X146714813Y-122648916D01*
X146714033Y-122800091D01*
X146712728Y-122919936D01*
X146710767Y-123011954D01*
X146708019Y-123079647D01*
X146704353Y-123126517D01*
X146699640Y-123156065D01*
X146693747Y-123171793D01*
X146686546Y-123177204D01*
X146677904Y-123175800D01*
X146618206Y-123153829D01*
X146495655Y-123112638D01*
X146351213Y-123067497D01*
X146197046Y-123022056D01*
X146045322Y-122979965D01*
X145908207Y-122944875D01*
X145624916Y-122876452D01*
X145624916Y-121155786D01*
X145330935Y-121149838D01*
X145036953Y-121143889D01*
X145031183Y-120689554D01*
X145025412Y-120235219D01*
X147292593Y-120235219D01*
X147292593Y-121154580D01*
G37*
G36*
X146706480Y-127770473D02*
G01*
X146709951Y-127816248D01*
X146712522Y-127894928D01*
X146714233Y-128000621D01*
X146715127Y-128127436D01*
X146715245Y-128269480D01*
X146714627Y-128420862D01*
X146713315Y-128575690D01*
X146711352Y-128728072D01*
X146708777Y-128872117D01*
X146705632Y-129001933D01*
X146701960Y-129111628D01*
X146697800Y-129195310D01*
X146693195Y-129247088D01*
X146634182Y-129545914D01*
X146544883Y-129816728D01*
X146423249Y-130062508D01*
X146267141Y-130286876D01*
X146074418Y-130493452D01*
X145842942Y-130685856D01*
X145669739Y-130802898D01*
X145382702Y-130955275D01*
X145068114Y-131076629D01*
X144727771Y-131166307D01*
X144363468Y-131223657D01*
X144323738Y-131227247D01*
X144207439Y-131233206D01*
X144061344Y-131236358D01*
X143894357Y-131236885D01*
X143715383Y-131234965D01*
X143533327Y-131230781D01*
X143357091Y-131224513D01*
X143195581Y-131216342D01*
X143057702Y-131206449D01*
X142952357Y-131195014D01*
X142712118Y-131155261D01*
X142442772Y-131092111D01*
X142202248Y-131011057D01*
X141983750Y-130908818D01*
X141780485Y-130782116D01*
X141585656Y-130627671D01*
X141392471Y-130442204D01*
X141366501Y-130415133D01*
X141281442Y-130323575D01*
X141217528Y-130247420D01*
X141166754Y-130175626D01*
X141121113Y-130097148D01*
X141072601Y-130000943D01*
X141042045Y-129935230D01*
X140952949Y-129705321D01*
X140880418Y-129450053D01*
X140822106Y-129161566D01*
X140813464Y-129097123D01*
X140804430Y-128996852D01*
X140796769Y-128876494D01*
X140790571Y-128742328D01*
X140785927Y-128600631D01*
X140782926Y-128457683D01*
X140781657Y-128319763D01*
X140782211Y-128193150D01*
X140784677Y-128084122D01*
X140789144Y-127998957D01*
X140795703Y-127943936D01*
X140804444Y-127925337D01*
X140826102Y-127929504D01*
X140884044Y-127940939D01*
X140970463Y-127958118D01*
X141078172Y-127979610D01*
X141199983Y-128003986D01*
X141290664Y-128021990D01*
X141424445Y-128048000D01*
X141548656Y-128071547D01*
X141652522Y-128090599D01*
X141725269Y-128103121D01*
X141877222Y-128127446D01*
X141889464Y-128548294D01*
X141889784Y-128559059D01*
X141900532Y-128782443D01*
X141919247Y-128970231D01*
X141947824Y-129128880D01*
X141988161Y-129264851D01*
X142042154Y-129384601D01*
X142111700Y-129494590D01*
X142198695Y-129601276D01*
X142241641Y-129651061D01*
X142276278Y-129695670D01*
X142289562Y-129719174D01*
X142282678Y-129736144D01*
X142257475Y-129783607D01*
X142218112Y-129852623D01*
X142169174Y-129934969D01*
X142133556Y-129994619D01*
X142093111Y-130067061D01*
X142071844Y-130115171D01*
X142066940Y-130145908D01*
X142075580Y-130166234D01*
X142093780Y-130183700D01*
X142125520Y-130198519D01*
X142150289Y-130187629D01*
X142202728Y-130156897D01*
X142274794Y-130111116D01*
X142358686Y-130055085D01*
X142433463Y-130004312D01*
X142500252Y-129961036D01*
X142546168Y-129936176D01*
X142579102Y-129926456D01*
X142606947Y-129928600D01*
X142637595Y-129939335D01*
X142642922Y-129941473D01*
X142786297Y-129996431D01*
X142914955Y-130039046D01*
X143038471Y-130071065D01*
X143166416Y-130094235D01*
X143308364Y-130110300D01*
X143473886Y-130121008D01*
X143672556Y-130128103D01*
X143780448Y-130130525D01*
X143971562Y-130131339D01*
X144132539Y-130125933D01*
X144271647Y-130113421D01*
X144397150Y-130092917D01*
X144517316Y-130063536D01*
X144640411Y-130024392D01*
X144677086Y-130011644D01*
X144759004Y-129983315D01*
X144823566Y-129961187D01*
X144859264Y-129949211D01*
X144869001Y-129948713D01*
X144915719Y-129965248D01*
X144988897Y-130005852D01*
X145083918Y-130068082D01*
X145145713Y-130109953D01*
X145216881Y-130155744D01*
X145269891Y-130186972D01*
X145296405Y-130198519D01*
X145313791Y-130193255D01*
X145347366Y-130165971D01*
X145352718Y-130158027D01*
X145356489Y-130133885D01*
X145344977Y-130096729D01*
X145315271Y-130039102D01*
X145264462Y-129953550D01*
X145234402Y-129903796D01*
X145193270Y-129833527D01*
X145165035Y-129782395D01*
X145154546Y-129758983D01*
X145156645Y-129754061D01*
X145179825Y-129723137D01*
X145223192Y-129672506D01*
X145279941Y-129610240D01*
X145313528Y-129573782D01*
X145397177Y-129475291D01*
X145463719Y-129380527D01*
X145515215Y-129282861D01*
X145553725Y-129175665D01*
X145581309Y-129052308D01*
X145600028Y-128906163D01*
X145611942Y-128730599D01*
X145619112Y-128518987D01*
X145630266Y-128047452D01*
X145889502Y-127987487D01*
X145987341Y-127963769D01*
X146134780Y-127925428D01*
X146286045Y-127883746D01*
X146420334Y-127844333D01*
X146443154Y-127837356D01*
X146541773Y-127807510D01*
X146623349Y-127783305D01*
X146679945Y-127767074D01*
X146703625Y-127761145D01*
X146706480Y-127770473D01*
G37*
G36*
X141856047Y-124267917D02*
G01*
X141862449Y-124276958D01*
X141867767Y-124296454D01*
X141872100Y-124329635D01*
X141875550Y-124379733D01*
X141878215Y-124449977D01*
X141880195Y-124543599D01*
X141881592Y-124663828D01*
X141882504Y-124813896D01*
X141883031Y-124997033D01*
X141883275Y-125216470D01*
X141883334Y-125475436D01*
X141883321Y-125631095D01*
X141883194Y-125866415D01*
X141882844Y-126064142D01*
X141882163Y-126227541D01*
X141881044Y-126359876D01*
X141879381Y-126464413D01*
X141877066Y-126544418D01*
X141873993Y-126603155D01*
X141870055Y-126643891D01*
X141865144Y-126669890D01*
X141859155Y-126684418D01*
X141851980Y-126690740D01*
X141843513Y-126692122D01*
X141796637Y-126687447D01*
X141713479Y-126673508D01*
X141601945Y-126651744D01*
X141468695Y-126623604D01*
X141320389Y-126590538D01*
X141163686Y-126553994D01*
X141005245Y-126515423D01*
X140851726Y-126476273D01*
X140771549Y-126455288D01*
X140771549Y-124536859D01*
X140915867Y-124493291D01*
X141004588Y-124467106D01*
X141183643Y-124417895D01*
X141377405Y-124369553D01*
X141595091Y-124319833D01*
X141845918Y-124266486D01*
X141848460Y-124266100D01*
X141856047Y-124267917D01*
G37*
G36*
X144657450Y-122874377D02*
G01*
X144906202Y-122894639D01*
X145319220Y-122950020D01*
X145734485Y-123031232D01*
X146145797Y-123136240D01*
X146546952Y-123263009D01*
X146931751Y-123409505D01*
X147293993Y-123573691D01*
X147627475Y-123753533D01*
X147925998Y-123946997D01*
X148122541Y-124097425D01*
X148352879Y-124307036D01*
X148541070Y-124522858D01*
X148687233Y-124745082D01*
X148791487Y-124973896D01*
X148853952Y-125209491D01*
X148874748Y-125452054D01*
X148873229Y-125517284D01*
X148841117Y-125757706D01*
X148768478Y-125992271D01*
X148656882Y-126219966D01*
X148507897Y-126439780D01*
X148323093Y-126650701D01*
X148104038Y-126851715D01*
X147852302Y-127041812D01*
X147569453Y-127219979D01*
X147257061Y-127385204D01*
X146916694Y-127536475D01*
X146549921Y-127672780D01*
X146158312Y-127793107D01*
X145743436Y-127896443D01*
X145306861Y-127981778D01*
X144850157Y-128048097D01*
X144770975Y-128057199D01*
X144663975Y-128068095D01*
X144571620Y-128075973D01*
X144507786Y-128079559D01*
X144406229Y-128081852D01*
X144406229Y-126976379D01*
X144610794Y-126962000D01*
X144697221Y-126954779D01*
X144941369Y-126924715D01*
X145206428Y-126880318D01*
X145479666Y-126824338D01*
X145748348Y-126759524D01*
X145999740Y-126688623D01*
X146221109Y-126614386D01*
X146295542Y-126586154D01*
X146604574Y-126453501D01*
X146873741Y-126310486D01*
X147104578Y-126156219D01*
X147298623Y-125989811D01*
X147419349Y-125855212D01*
X147503762Y-125719861D01*
X147546093Y-125587348D01*
X147546334Y-125455637D01*
X147504474Y-125322694D01*
X147420505Y-125186485D01*
X147294418Y-125044977D01*
X147196463Y-124955429D01*
X146984949Y-124795158D01*
X146737951Y-124643488D01*
X146459934Y-124502233D01*
X146155365Y-124373209D01*
X145828710Y-124258230D01*
X145484437Y-124159110D01*
X145127010Y-124077664D01*
X144760897Y-124015706D01*
X144406332Y-123966112D01*
X144406280Y-123412658D01*
X144406229Y-122859205D01*
X144657450Y-122874377D01*
G37*
G36*
X145633779Y-124318962D02*
G01*
X145659662Y-124326805D01*
X145717163Y-124345736D01*
X145798312Y-124373096D01*
X145895140Y-124406228D01*
X145924148Y-124416335D01*
X146111482Y-124486552D01*
X146300162Y-124564900D01*
X146475911Y-124645210D01*
X146624453Y-124721315D01*
X146715320Y-124771535D01*
X146715320Y-126263792D01*
X146609688Y-126317320D01*
X146550682Y-126346148D01*
X146365628Y-126426615D01*
X146150304Y-126508060D01*
X145913552Y-126587055D01*
X145903930Y-126590068D01*
X145806245Y-126620380D01*
X145724289Y-126645331D01*
X145666409Y-126662408D01*
X145640951Y-126669100D01*
X145639080Y-126661275D01*
X145636190Y-126616343D01*
X145633515Y-126534885D01*
X145631107Y-126420752D01*
X145629018Y-126277798D01*
X145627302Y-126109875D01*
X145626012Y-125920835D01*
X145625199Y-125714531D01*
X145624916Y-125494815D01*
X145624972Y-125357877D01*
X145625292Y-125145885D01*
X145625870Y-124949636D01*
X145626678Y-124772990D01*
X145627690Y-124619806D01*
X145628879Y-124493945D01*
X145630217Y-124399265D01*
X145631676Y-124339627D01*
X145633230Y-124318889D01*
X145633779Y-124318962D01*
G37*
G36*
X143011512Y-123424891D02*
G01*
X143017215Y-123974074D01*
X142925990Y-123986094D01*
X142902884Y-123989107D01*
X142831685Y-123998272D01*
X142733040Y-124010882D01*
X142616765Y-124025684D01*
X142492677Y-124041423D01*
X142343799Y-124061348D01*
X141946467Y-124125011D01*
X141558927Y-124202056D01*
X141186635Y-124290988D01*
X140835049Y-124390311D01*
X140509625Y-124498529D01*
X140215820Y-124614149D01*
X139959091Y-124735673D01*
X139951350Y-124739717D01*
X139881638Y-124774621D01*
X139827018Y-124799421D01*
X139798738Y-124808976D01*
X139798422Y-124808937D01*
X139781065Y-124789823D01*
X139744890Y-124739014D01*
X139692979Y-124661213D01*
X139628418Y-124561126D01*
X139554288Y-124443459D01*
X139473673Y-124312917D01*
X139169988Y-123816448D01*
X139291447Y-123754855D01*
X139298401Y-123751342D01*
X139489200Y-123663164D01*
X139715486Y-123571851D01*
X139970573Y-123479359D01*
X140247774Y-123387641D01*
X140540402Y-123298651D01*
X140841772Y-123214344D01*
X141145195Y-123136673D01*
X141443987Y-123067593D01*
X141731459Y-123009058D01*
X142000926Y-122963022D01*
X142007132Y-122962084D01*
X142295595Y-122923403D01*
X142568480Y-122896307D01*
X142813384Y-122882032D01*
X143005808Y-122875708D01*
X143011512Y-123424891D01*
G37*
G36*
X139798081Y-126248030D02*
G01*
X139845615Y-126264732D01*
X139910541Y-126291992D01*
X140065179Y-126355994D01*
X140299698Y-126439685D01*
X140565145Y-126522177D01*
X140854838Y-126601938D01*
X141162092Y-126677437D01*
X141480224Y-126747142D01*
X141802550Y-126809524D01*
X142122388Y-126863050D01*
X142433053Y-126906189D01*
X142727862Y-126937411D01*
X142807867Y-126944949D01*
X142889470Y-126953760D01*
X142947012Y-126961215D01*
X143016499Y-126972005D01*
X143016499Y-128108741D01*
X142797349Y-128094004D01*
X142750841Y-128090785D01*
X142201181Y-128038933D01*
X141659096Y-127962758D01*
X141130851Y-127863577D01*
X140622715Y-127742708D01*
X140140954Y-127601469D01*
X139691835Y-127441175D01*
X139644531Y-127422295D01*
X139535338Y-127376840D01*
X139429919Y-127330685D01*
X139335445Y-127287186D01*
X139259086Y-127249696D01*
X139208012Y-127221569D01*
X139189394Y-127206159D01*
X139190320Y-127203839D01*
X139206856Y-127174396D01*
X139241330Y-127116208D01*
X139290135Y-127035149D01*
X139349665Y-126937091D01*
X139416315Y-126827906D01*
X139486478Y-126713467D01*
X139556550Y-126599646D01*
X139622925Y-126492317D01*
X139681996Y-126397350D01*
X139730158Y-126320620D01*
X139763805Y-126267998D01*
X139779332Y-126245358D01*
X139798081Y-126248030D01*
G37*
G36*
X142460606Y-121154580D02*
G01*
X141883334Y-121154580D01*
X141883334Y-122857573D01*
X141674874Y-122894088D01*
X141647958Y-122898973D01*
X141539828Y-122920555D01*
X141408874Y-122948838D01*
X141269227Y-122980709D01*
X141135017Y-123013054D01*
X141063413Y-123030830D01*
X140958138Y-123056814D01*
X140872140Y-123077850D01*
X140812821Y-123092132D01*
X140787584Y-123097854D01*
X140784821Y-123083707D01*
X140781719Y-123030992D01*
X140778903Y-122943290D01*
X140776442Y-122824831D01*
X140774406Y-122679846D01*
X140772866Y-122512566D01*
X140771890Y-122327223D01*
X140771549Y-122128049D01*
X140771549Y-121155896D01*
X140509638Y-121149893D01*
X140247727Y-121143889D01*
X140236187Y-120235219D01*
X142460606Y-120235219D01*
X142460606Y-121154580D01*
G37*
G36*
X143714537Y-121118736D02*
G01*
X143725020Y-121144319D01*
X143748365Y-121205078D01*
X143782911Y-121296574D01*
X143826996Y-121414367D01*
X143878957Y-121554017D01*
X143937132Y-121711086D01*
X143999859Y-121881133D01*
X144277946Y-122636475D01*
X144277946Y-128599915D01*
X144613210Y-129147997D01*
X144635090Y-129183746D01*
X144721856Y-129325131D01*
X144803447Y-129457512D01*
X144876451Y-129575386D01*
X144937450Y-129673252D01*
X144983030Y-129745605D01*
X145009776Y-129786945D01*
X145032123Y-129821710D01*
X145054109Y-129862083D01*
X145056609Y-129877812D01*
X145056569Y-129877812D01*
X145032724Y-129866463D01*
X144984379Y-129836910D01*
X144921954Y-129795521D01*
X144912992Y-129789385D01*
X144844540Y-129742537D01*
X144753509Y-129680255D01*
X144650704Y-129609931D01*
X144546929Y-129538955D01*
X144292091Y-129364681D01*
X143130319Y-129364681D01*
X142843569Y-129560744D01*
X142790351Y-129597174D01*
X142685739Y-129669017D01*
X142590040Y-129735023D01*
X142512059Y-129789110D01*
X142460606Y-129825197D01*
X142420397Y-129852703D01*
X142376760Y-129879321D01*
X142356717Y-129886931D01*
X142356117Y-129885783D01*
X142365085Y-129862007D01*
X142391332Y-129820247D01*
X142397558Y-129811040D01*
X142427344Y-129764875D01*
X142475151Y-129689339D01*
X142537843Y-129589440D01*
X142612282Y-129470186D01*
X142695332Y-129336582D01*
X142783858Y-129193637D01*
X143134091Y-128627054D01*
X143145124Y-125612408D01*
X143156158Y-122597761D01*
X143431416Y-121854227D01*
X143436531Y-121840416D01*
X143498655Y-121673443D01*
X143556084Y-121520479D01*
X143607144Y-121385880D01*
X143650162Y-121274002D01*
X143683463Y-121189199D01*
X143705375Y-121135827D01*
X143714224Y-121118242D01*
X143714537Y-121118736D01*
G37*
D13*
%TO.C,GPS*%
X144720000Y-86300000D02*
X147380000Y-86300000D01*
X144720000Y-106680000D02*
X144720000Y-86300000D01*
X144720000Y-106680000D02*
X147380000Y-106680000D01*
X146050000Y-109280000D02*
X147380000Y-109280000D01*
X147380000Y-106680000D02*
X147380000Y-86300000D01*
X147380000Y-109280000D02*
X147380000Y-107950000D01*
X143510000Y-110590000D02*
X178510000Y-110590000D01*
X178510000Y-110590000D02*
X178510000Y-85090000D01*
X178510000Y-85090000D02*
X143510000Y-85090000D01*
X143510000Y-85090000D02*
X143510000Y-110590000D01*
%TO.C,BMP*%
X134947500Y-92386250D02*
X134947500Y-110226250D01*
X134947500Y-89786250D02*
X134947500Y-91116250D01*
X136277500Y-89786250D02*
X134947500Y-89786250D01*
X137607500Y-92386250D02*
X137607500Y-110226250D01*
X137607500Y-110226250D02*
X134947500Y-110226250D01*
X137607500Y-92386250D02*
X134947500Y-92386250D01*
X137547500Y-111118750D02*
X121037500Y-111118750D01*
X121037500Y-111118750D02*
X121037500Y-89528750D01*
X121037500Y-89528750D02*
X137547500Y-89528750D01*
X137547500Y-89528750D02*
X137547500Y-111118750D01*
%TD*%
M02*
