%TF.GenerationSoftware,KiCad,Pcbnew,(6.0.8)*%
%TF.CreationDate,2022-12-09T18:07:48-08:00*%
%TF.ProjectId,ATP_Teensy,4154505f-5465-4656-9e73-792e6b696361,rev?*%
%TF.SameCoordinates,Original*%
%TF.FileFunction,Soldermask,Top*%
%TF.FilePolarity,Negative*%
%FSLAX46Y46*%
G04 Gerber Fmt 4.6, Leading zero omitted, Abs format (unit mm)*
G04 Created by KiCad (PCBNEW (6.0.8)) date 2022-12-09 18:07:48*
%MOMM*%
%LPD*%
G01*
G04 APERTURE LIST*
G04 Aperture macros list*
%AMRoundRect*
0 Rectangle with rounded corners*
0 $1 Rounding radius*
0 $2 $3 $4 $5 $6 $7 $8 $9 X,Y pos of 4 corners*
0 Add a 4 corners polygon primitive as box body*
4,1,4,$2,$3,$4,$5,$6,$7,$8,$9,$2,$3,0*
0 Add four circle primitives for the rounded corners*
1,1,$1+$1,$2,$3*
1,1,$1+$1,$4,$5*
1,1,$1+$1,$6,$7*
1,1,$1+$1,$8,$9*
0 Add four rect primitives between the rounded corners*
20,1,$1+$1,$2,$3,$4,$5,0*
20,1,$1+$1,$4,$5,$6,$7,0*
20,1,$1+$1,$6,$7,$8,$9,0*
20,1,$1+$1,$8,$9,$2,$3,0*%
G04 Aperture macros list end*
%ADD10R,1.651000X1.651000*%
%ADD11C,1.651000*%
%ADD12RoundRect,0.250000X-0.337500X-0.475000X0.337500X-0.475000X0.337500X0.475000X-0.337500X0.475000X0*%
%ADD13RoundRect,0.250000X-0.350000X-0.450000X0.350000X-0.450000X0.350000X0.450000X-0.350000X0.450000X0*%
%ADD14RoundRect,0.250000X-0.325000X-0.450000X0.325000X-0.450000X0.325000X0.450000X-0.325000X0.450000X0*%
%ADD15R,3.000000X3.000000*%
%ADD16C,3.000000*%
%ADD17R,1.700000X1.700000*%
%ADD18O,1.700000X1.700000*%
%ADD19R,1.400000X1.400000*%
%ADD20C,1.400000*%
%ADD21R,1.600000X1.600000*%
%ADD22C,1.600000*%
%ADD23R,1.300000X1.300000*%
%ADD24C,1.300000*%
G04 APERTURE END LIST*
D10*
%TO.C,REG*%
X177800000Y-83820000D03*
D11*
X177800000Y-81280000D03*
X177800000Y-78740000D03*
%TD*%
D12*
%TO.C,C2*%
X170412500Y-80010000D03*
X172487500Y-80010000D03*
%TD*%
D13*
%TO.C,R2*%
X170450000Y-85090000D03*
X172450000Y-85090000D03*
%TD*%
%TO.C,R1*%
X169180000Y-119380000D03*
X171180000Y-119380000D03*
%TD*%
D14*
%TO.C,9V*%
X169155000Y-115570000D03*
X171205000Y-115570000D03*
%TD*%
D15*
%TO.C,9V IN*%
X176530000Y-118110000D03*
D16*
X176530000Y-113030000D03*
%TD*%
D17*
%TO.C,IMU*%
X171495000Y-89632500D03*
D18*
X171495000Y-92172500D03*
X171495000Y-94712500D03*
X171495000Y-97252500D03*
X171495000Y-99792500D03*
X171495000Y-102332500D03*
X171495000Y-104872500D03*
X171495000Y-107412500D03*
%TD*%
D19*
%TO.C,XBEE*%
X124890000Y-86810000D03*
D20*
X124890000Y-88810000D03*
X124890000Y-90810000D03*
X124890000Y-92810000D03*
X124890000Y-94810000D03*
X124890000Y-96810000D03*
X124890000Y-98810000D03*
X124890000Y-100810000D03*
X124890000Y-102810000D03*
X124890000Y-104810000D03*
X146890000Y-104810000D03*
X146890000Y-102810000D03*
X146890000Y-100810000D03*
X146890000Y-98810000D03*
X146890000Y-96810000D03*
X146890000Y-94810000D03*
X146890000Y-92810000D03*
X146890000Y-90810000D03*
X146890000Y-88810000D03*
X146890000Y-86810000D03*
%TD*%
D21*
%TO.C,TEENSY 4.1*%
X151130000Y-69410000D03*
D22*
X151130000Y-71950000D03*
X151130000Y-74490000D03*
X151130000Y-77030000D03*
X151130000Y-79570000D03*
X151130000Y-82110000D03*
X151130000Y-84650000D03*
X151130000Y-87190000D03*
X151130000Y-89730000D03*
X151130000Y-92270000D03*
X151130000Y-94810000D03*
X151130000Y-97350000D03*
X151130000Y-99890000D03*
X151130000Y-102430000D03*
X151130000Y-104970000D03*
X151130000Y-107510000D03*
X151130000Y-110050000D03*
X151130000Y-112590000D03*
X151130000Y-115130000D03*
X151130000Y-117670000D03*
X151130000Y-120210000D03*
X151130000Y-122750000D03*
X151130000Y-125290000D03*
X151130000Y-127830000D03*
X166370000Y-127830000D03*
X166370000Y-125290000D03*
X166370000Y-122750000D03*
X166370000Y-120210000D03*
X166370000Y-117670000D03*
X166370000Y-115130000D03*
X166370000Y-112590000D03*
X166370000Y-110050000D03*
X166370000Y-107510000D03*
X166370000Y-104970000D03*
X166370000Y-102430000D03*
X166370000Y-99890000D03*
X166370000Y-97350000D03*
X166370000Y-94810000D03*
X166370000Y-92270000D03*
X166370000Y-89730000D03*
X166370000Y-87190000D03*
X166370000Y-84650000D03*
X166370000Y-82110000D03*
X166370000Y-79570000D03*
X166370000Y-77030000D03*
X166370000Y-74490000D03*
X166370000Y-71950000D03*
X166370000Y-69410000D03*
X163830000Y-71950000D03*
X153670000Y-115130000D03*
X156210000Y-115130000D03*
X158750000Y-115130000D03*
X161290000Y-115130000D03*
X163830000Y-115130000D03*
D21*
X154180800Y-75709200D03*
D22*
X154180800Y-78249200D03*
X154180800Y-80789200D03*
X154180800Y-83329200D03*
X154180800Y-85869200D03*
D23*
X163931600Y-82380000D03*
D24*
X161931600Y-82380000D03*
X159931600Y-82380000D03*
X159931600Y-84380000D03*
X161931600Y-84380000D03*
X163931600Y-84380000D03*
X160020000Y-70140000D03*
X157480000Y-70140000D03*
%TD*%
D12*
%TO.C,C1*%
X169142500Y-111760000D03*
X171217500Y-111760000D03*
%TD*%
D14*
%TO.C,5V*%
X170425000Y-82550000D03*
X172475000Y-82550000D03*
%TD*%
D18*
%TO.C,GPS*%
X142615000Y-81280000D03*
X142615000Y-83820000D03*
X142615000Y-86360000D03*
X142615000Y-88900000D03*
X142615000Y-91440000D03*
X142615000Y-93980000D03*
X142615000Y-96520000D03*
X142615000Y-99060000D03*
D17*
X142615000Y-101600000D03*
%TD*%
%TO.C,BMP*%
X136277500Y-89406250D03*
D18*
X136277500Y-91946250D03*
X136277500Y-94486250D03*
X136277500Y-97026250D03*
X136277500Y-99566250D03*
X136277500Y-102106250D03*
X136277500Y-104646250D03*
X136277500Y-107186250D03*
%TD*%
M02*
