M48
; DRILL file {KiCad (6.0.8)} date Mon Mar  6 23:42:04 2023
; FORMAT={-:-/ absolute / inch / decimal}
; #@! TF.CreationDate,2023-03-06T23:42:04-08:00
; #@! TF.GenerationSoftware,Kicad,Pcbnew,(6.0.8)
; #@! TF.FileFunction,Plated,1,2,PTH
FMAT,2
INCH
; #@! TA.AperFunction,Plated,PTH,ViaDrill
T1C0.0157
; #@! TA.AperFunction,Plated,PTH,ViaDrill
T2C0.0276
; #@! TA.AperFunction,Plated,PTH,ComponentDrill
T3C0.0315
; #@! TA.AperFunction,Plated,PTH,ComponentDrill
T4C0.0394
; #@! TA.AperFunction,Plated,PTH,ComponentDrill
T5C0.0433
; #@! TA.AperFunction,Plated,PTH,ComponentDrill
T6C0.0450
; #@! TA.AperFunction,Plated,PTH,ComponentDrill
T7C0.0598
%
G90
G05
T1
X6.025Y-2.57
X6.073Y-2.877
T2
X5.56Y-4.66
T3
X6.2Y-2.7614
X6.2965Y-3.2433
X6.2965Y-3.322
X6.3Y-2.7614
X6.3753Y-3.2433
X6.3753Y-3.322
X6.454Y-3.2433
X6.454Y-3.322
T4
X5.05Y-3.4157
X5.05Y-3.5157
X5.05Y-3.6157
X5.05Y-3.7157
X5.05Y-3.8157
X5.05Y-3.9157
X5.05Y-4.0157
X5.05Y-4.1157
X5.05Y-4.2157
X5.05Y-4.3157
X5.05Y-4.4157
X5.28Y-3.125
X5.3653Y-3.5873
X5.3653Y-3.6873
X5.3653Y-3.7873
X5.3653Y-3.8873
X5.3653Y-3.9873
X5.3653Y-4.0873
X5.3653Y-4.1873
X5.3653Y-4.2873
X5.38Y-3.125
X5.48Y-3.125
X5.4804Y-2.73
X5.5492Y-3.4157
X5.5492Y-3.5157
X5.5492Y-3.6157
X5.5492Y-3.7157
X5.5492Y-3.8157
X5.5492Y-3.9157
X5.5492Y-4.0157
X5.5492Y-4.1157
X5.5492Y-4.2157
X5.5492Y-4.3157
X5.5492Y-4.4157
X5.58Y-3.125
X5.5804Y-2.73
X5.68Y-3.125
X5.6804Y-2.73
X5.75Y-3.45
X5.75Y-3.55
X5.75Y-3.65
X5.75Y-3.75
X5.75Y-3.85
X5.75Y-3.95
X5.75Y-4.05
X5.75Y-4.15
X5.75Y-4.25
X5.78Y-3.125
X5.7804Y-2.73
X6.7518Y-3.5712
X6.7518Y-3.6712
X6.7518Y-3.7712
X6.7518Y-3.8712
X6.7518Y-3.9712
X6.7518Y-4.0712
X6.7518Y-4.1712
X6.7518Y-4.2712
T5
X5.95Y-2.7327
X5.95Y-2.8327
X5.95Y-2.9327
X5.95Y-3.0327
X5.95Y-3.1327
X5.95Y-3.2327
X5.95Y-3.3327
X5.95Y-3.4327
X5.95Y-3.5327
X5.95Y-3.6327
X5.95Y-3.7327
X5.95Y-3.8327
X5.95Y-3.9327
X5.95Y-4.0327
X5.95Y-4.1327
X5.95Y-4.2327
X5.95Y-4.3327
X5.95Y-4.4327
X5.95Y-4.5327
X5.95Y-4.6327
X5.95Y-4.7327
X5.95Y-4.8327
X5.95Y-4.9327
X5.95Y-5.0327
X6.05Y-4.5327
X6.0701Y-2.9807
X6.0701Y-3.0807
X6.0701Y-3.1807
X6.0701Y-3.2807
X6.0701Y-3.3807
X6.15Y-4.5327
X6.25Y-4.5327
X6.35Y-4.5327
X6.45Y-2.8327
X6.45Y-4.5327
X6.55Y-2.7327
X6.55Y-2.8327
X6.55Y-2.9327
X6.55Y-3.0327
X6.55Y-3.1327
X6.55Y-3.2327
X6.55Y-3.3327
X6.55Y-3.4327
X6.55Y-3.5327
X6.55Y-3.6327
X6.55Y-3.7327
X6.55Y-3.8327
X6.55Y-3.9327
X6.55Y-4.0327
X6.55Y-4.1327
X6.55Y-4.2327
X6.55Y-4.3327
X6.55Y-4.4327
X6.55Y-4.5327
X6.55Y-4.6327
X6.55Y-4.7327
X6.55Y-4.8327
X6.55Y-4.9327
X6.55Y-5.0327
T6
X6.958Y-4.503
X6.958Y-4.603
X6.958Y-4.703
T7
X6.95Y-3.15
X6.95Y-3.35
T0
M30
